<svg width="1171" height="232" viewBox="0 0 1171 232" fill="none" xmlns="http://www.w3.org/2000/svg">
<path d="M197.114 19.8669L58.0117 0.818359L38.9632 139.921L178.066 158.969L197.114 19.8669Z" fill="#FBA036"/>
<path d="M342.06 188.963C390.897 195.651 435.909 161.482 442.596 112.645C449.284 63.8082 415.115 18.7967 366.278 12.1091C317.442 5.42142 272.43 39.5901 265.742 88.4269C259.055 137.264 293.223 182.275 342.06 188.963Z" fill="#68C8BF"/>
<path d="M594.641 33.0231L481.085 179.431L664.656 204.569L594.641 33.0231Z" fill="#FBDE56"/>
<path d="M74.4336 43.9054L56.2656 41.4175L53.7777 59.5855L71.9457 62.0734L74.4336 43.9054Z" fill="#F9DFBE"/>
<path d="M187.887 59.441L169.719 56.9531L167.231 75.1211L185.399 77.609L187.887 59.441Z" fill="#F9DFBE"/>
<path d="M129.554 66.798L136.525 74.0829C136.525 74.0829 125.807 96.265 106.965 82.2979C106.965 82.2979 107.211 65.7567 129.554 66.798Z" fill="#FADEBE"/>
<path d="M301.482 80.7475C306.67 81.458 311.452 77.8279 312.163 72.6394C312.873 67.4509 309.243 62.6689 304.055 61.9584C298.866 61.2479 294.084 64.878 293.374 70.0664C292.663 75.2549 296.293 80.037 301.482 80.7475Z" fill="#95D9D2"/>
<path d="M410.118 79.0507C415.307 79.7612 420.089 76.1311 420.8 70.9426C421.51 65.7542 417.88 60.9721 412.691 60.2616C407.503 59.5511 402.721 63.1812 402.01 68.3697C401.3 73.5581 404.93 78.3402 410.118 79.0507Z" fill="#95D9D2"/>
<path d="M573.406 100.984C579.205 101.778 584.55 97.7208 585.345 91.9214C586.139 86.1221 582.081 80.777 576.282 79.9829C570.483 79.1887 565.137 83.2462 564.343 89.0455C563.549 94.8449 567.607 100.19 573.406 100.984Z" fill="#FDF5CD"/>
<path d="M596.965 118.214C602.764 119.008 608.109 114.951 608.903 109.151C609.697 103.352 605.64 98.007 599.84 97.2128C594.041 96.4187 588.696 100.476 587.902 106.276C587.108 112.075 591.165 117.42 596.965 118.214Z" fill="#FDF5CD"/>
<path d="M569.683 94.0482C571.438 93.965 572.769 91.9537 572.655 89.5558C572.541 87.1579 571.027 85.2814 569.272 85.3646C567.517 85.4477 566.186 87.459 566.299 89.8569C566.413 92.2548 567.928 94.1313 569.683 94.0482Z" fill="#313332"/>
<path d="M593.695 112.387C595.45 112.304 596.78 110.293 596.667 107.895C596.553 105.497 595.038 103.62 593.283 103.703C591.528 103.787 590.198 105.798 590.311 108.196C590.425 110.594 591.94 112.47 593.695 112.387Z" fill="#313332"/>
<path d="M341.131 54.7417C340.333 60.5721 334.332 64.5657 327.729 63.6616C326.797 63.534 325.904 63.3163 325.059 63.0195C319.908 61.2097 316.532 56.4755 317.218 51.467C317.904 46.4586 322.428 42.805 327.876 42.4466C328.77 42.3878 329.689 42.4184 330.621 42.546C337.223 43.4502 341.93 48.91 341.131 54.7417Z" fill="#E1F4F2"/>
<path d="M327.874 42.4467L325.057 63.0197C319.906 61.2098 316.53 56.4756 317.216 51.4672C317.902 46.4588 322.426 42.8052 327.874 42.4467Z" fill="#313332"/>
<path d="M397.58 54.7592C396.782 60.5897 390.781 64.5833 384.178 63.6791C383.247 63.5515 382.353 63.3339 381.508 63.0371C376.357 61.2272 372.982 56.4931 373.667 51.4846C374.353 46.4762 378.877 42.8226 384.325 42.4642C385.219 42.4054 386.138 42.436 387.07 42.5636C393.673 43.4678 398.379 48.9276 397.58 54.7592Z" fill="#E1F4F2"/>
<path d="M384.323 42.4643L381.506 63.0372C376.355 61.2274 372.98 56.4932 373.666 51.4848C374.351 46.4763 378.875 42.8227 384.323 42.4643Z" fill="#313332"/>
<path d="M79.0547 56.2324L86.3711 73.1847L118.587 56.3283L145.412 81.2698L157.86 68.0201" stroke="#313332" stroke-width="5" stroke-linecap="round" stroke-linejoin="round"/>
<path d="M105.19 47.99L93.1211 39.5586L89.9985 44.0285L102.068 52.4599L105.19 47.99Z" fill="#313332"/>
<path d="M135.987 56.1249L149.879 51.2485L148.073 46.1037L134.181 50.9801L135.987 56.1249Z" fill="#313332"/>
<path d="M95.6087 69.1902C97.2881 72.6359 99.1563 76.0345 101.513 79.0684C102.729 80.6334 104.086 82.1025 105.569 83.4183C107.052 84.734 108.661 85.8188 110.387 86.7362C113.816 88.5596 117.81 89.4923 121.689 89.0179C125.201 88.5884 128.494 86.9716 131.207 84.7379C133.921 82.5042 136.084 79.8141 137.871 76.8665C138.149 76.4082 138.422 75.9469 138.685 75.4807C138.895 75.1118 138.849 74.4976 138.694 74.1222C138.538 73.7469 138.168 73.335 137.768 73.1851C137.339 73.0239 136.838 72.9765 136.41 73.1766L136.022 73.3999C135.777 73.5864 135.595 73.8213 135.471 74.1032C135.341 74.3323 135.21 74.5591 135.075 74.7864L135.306 74.397C134.224 76.2178 132.996 77.955 131.589 79.5395C131.19 79.9895 130.776 80.4256 130.347 80.848L130.667 80.5342C129.365 81.8132 127.928 82.9538 126.346 83.8663L126.734 83.643C125.514 84.3416 124.216 84.8955 122.858 85.2659L123.295 85.1482C122.012 85.4923 120.692 85.6645 119.363 85.6648L119.832 85.6655C118.321 85.6584 116.82 85.433 115.364 85.0312L115.816 85.1567C114.083 84.6711 112.427 83.9421 110.878 83.0267L111.268 83.2576C109.476 82.1925 107.855 80.8837 106.393 79.4015L106.707 79.7209C104.948 77.9298 103.43 75.9164 102.089 73.7979C101.704 73.19 101.335 72.5737 100.975 71.9505L101.199 72.3386C100.356 70.873 99.5794 69.3717 98.8394 67.853C98.6392 67.4422 98.3427 67.0993 97.9138 66.9159C97.515 66.7448 96.956 66.7212 96.5553 66.9074C96.1546 67.0937 95.779 67.4057 95.6181 67.833C95.4573 68.2602 95.4041 68.7693 95.6097 69.1915L95.6087 69.1902Z" fill="#313332"/>
<path d="M109.94 81.9091C110.023 81.143 110.168 80.3865 110.373 79.643L110.248 80.0952C110.608 78.8036 111.143 77.5678 111.823 76.4142L111.592 76.8036C112.319 75.5787 113.204 74.4544 114.218 73.4559L113.899 73.7697C114.902 72.7873 116.024 71.9376 117.239 71.2372L116.851 71.4605C118.192 70.6926 119.632 70.1087 121.123 69.7024L120.685 69.8202C122.417 69.3539 124.208 69.1286 126.001 69.1319L125.532 69.1312C126.679 69.1354 127.825 69.2335 128.957 69.4238L129.426 69.4245C129.658 69.4022 129.869 69.3252 130.057 69.1957C130.374 69.0144 130.669 68.7325 130.801 68.3814C130.912 68.0861 130.955 67.7743 130.928 67.46C130.888 67.0183 130.601 66.5944 130.274 66.3166L123.094 60.2228C122.535 59.7488 121.99 59.2483 121.397 58.8166C120.646 58.2692 119.765 57.8027 118.821 57.7276C117.877 57.6525 117.014 57.8341 116.188 58.2186C115.457 58.5596 114.781 59.0116 114.113 59.4588C111.526 61.1876 108.939 62.9151 106.354 64.6477C105.204 65.4183 104.059 66.2036 103.007 67.1064C102.378 67.646 101.776 68.2258 101.225 68.8443C100.993 69.103 100.773 69.3741 100.584 69.6657C100.322 70.0697 100.064 70.4931 99.9194 70.9556C99.7285 71.5681 99.6323 72.1242 99.6992 72.7697C99.7278 73.0418 99.811 73.3108 99.887 73.5717C99.9339 73.7357 99.9946 73.8934 100.07 74.0472C100.422 74.7694 100.907 75.3816 101.409 76.0008L104.35 79.631L105.086 80.5386C105.481 81.0268 106.075 81.2987 106.709 81.215C107.309 81.1348 107.85 80.7314 108.085 80.1707C108.522 79.1238 108.757 77.995 108.942 76.8795C109.097 75.9445 109.228 75.0025 109.48 74.0867L109.355 74.5388C109.65 73.4796 110.089 72.467 110.648 71.5214L110.417 71.9108C111.022 70.8939 111.76 69.9634 112.603 69.1332L112.283 69.447C113.161 68.5874 114.144 67.8411 115.208 67.2269L114.82 67.4502C115.87 66.8472 116.993 66.3764 118.163 66.0614L117.726 66.1792C118.814 65.8894 119.934 65.7359 121.06 65.7383L120.591 65.7375C120.976 65.7397 121.361 65.7596 121.745 65.798L120.251 63.8291C120.24 63.8876 120.228 63.9459 120.211 64.0048L120.337 63.5527C120.299 63.6839 120.247 63.8085 120.177 63.9272L120.408 63.5378C120.334 63.6616 120.244 63.7741 120.143 63.8767L120.463 63.5628C120.323 63.7001 120.166 63.8139 119.997 63.9131L120.385 63.6899C120.058 63.8768 119.705 64.0025 119.343 64.1L119.781 63.9823C119.007 64.1868 118.209 64.247 117.424 64.3888C116.406 64.5729 115.397 64.8382 114.418 65.1698C112.598 65.7851 110.86 66.6951 109.293 67.8061C108.35 68.4744 107.498 69.2386 106.68 70.0536L106.449 70.443L106.324 70.8952C106.271 71.2808 106.36 71.6623 106.552 71.9955C106.611 72.1366 106.7 72.2534 106.82 72.3487C106.914 72.4709 107.031 72.5622 107.172 72.6238C107.296 72.7208 107.436 72.78 107.593 72.8015C107.816 72.8849 108.048 72.9061 108.288 72.8649C109.563 72.8349 110.839 72.4745 112.008 71.9805C113.22 71.469 114.356 70.7895 115.483 70.1145C116.061 69.7679 116.636 69.4173 117.22 69.081L116.832 69.3043C117.948 68.6631 119.105 68.0676 120.352 67.7279L119.915 67.8457C120.563 67.671 121.23 67.5729 121.901 67.5731L121.432 67.5723C121.594 67.5734 121.756 67.5802 121.917 67.5918L122.387 67.5925C122.619 67.5702 122.83 67.4932 123.018 67.3637C123.334 67.1824 123.629 66.9005 123.762 66.5494C123.873 66.2541 123.916 65.9423 123.888 65.6281C123.849 65.1792 123.561 64.7693 123.234 64.4846L118.753 60.5671L117.479 59.4528L117.09 59.2219C116.87 59.1177 116.64 59.0768 116.404 59.0961C116.248 59.0748 116.095 59.0951 115.95 59.154C115.726 59.1938 115.523 59.2885 115.343 59.4355L109.779 63.6865L104.191 67.9554C103.258 68.6675 102.288 69.3462 101.521 70.2457C101.325 70.4752 101.166 70.7217 101.012 70.9805C100.858 71.2394 100.721 71.4699 100.637 71.7454C100.566 71.978 100.489 72.218 100.451 72.4598C100.413 72.7016 100.425 72.9514 100.429 73.1931C100.435 73.5362 100.534 73.8896 100.661 74.2047C100.781 74.5009 100.981 74.7648 101.223 74.972C101.491 75.2028 101.836 75.2783 102.171 75.3512C102.313 75.3823 102.454 75.4123 102.597 75.4402C102.864 75.4932 103.132 75.5381 103.403 75.5645C103.807 75.6034 104.221 75.6096 104.625 75.579C104.991 75.5527 105.344 75.4552 105.695 75.3503C105.901 75.2891 106.097 75.2043 106.285 75.0982C106.487 74.9837 106.696 74.8747 106.885 74.7358C107.073 74.5969 107.258 74.4035 107.426 74.2325C107.668 73.9857 107.848 73.682 108.001 73.375C108.043 73.2925 108.075 73.2063 108.102 73.1183C108.173 72.8891 108.254 72.6485 108.274 72.4066C108.302 72.0834 108.306 71.7324 108.229 71.4124C108.109 70.9209 107.975 70.5719 107.692 70.1451C107.52 69.8839 107.283 69.6433 107.022 69.47C106.848 69.3543 106.644 69.2182 106.438 69.1418C106.259 69.0749 106.066 69.0273 105.881 68.9843C105.837 68.9736 105.792 68.9651 105.745 68.9611C105.287 68.9207 104.851 68.9679 104.424 69.1471C103.997 69.3262 103.687 69.5884 103.362 69.9238C103.309 69.98 103.257 70.0377 103.213 70.1022C103.088 70.2873 102.96 70.485 102.873 70.6932C102.694 71.1296 102.643 71.5461 102.678 72.0119C102.709 72.4361 102.913 72.8769 103.163 73.2147L105.244 70.5509C104.924 70.4423 104.619 70.3005 104.327 70.1312L104.716 70.3621C104.329 70.1315 103.974 69.8536 103.657 69.5337L103.971 69.8531C103.645 69.5202 103.363 69.1512 103.129 68.7475L103.353 69.1356C103.136 68.7555 102.968 68.3549 102.852 67.9332L102.969 68.3704C102.904 68.1262 102.856 67.8773 102.828 67.6253L101.765 69.4722C104.231 68.4985 106.594 67.2494 108.805 65.7868C109.4 65.3931 109.983 64.9825 110.554 64.5548L108.121 62.0833C107.915 62.3021 107.704 62.5179 107.489 62.7296L107.808 62.4157C106.327 63.8713 104.663 65.1348 102.862 66.1715L103.25 65.9483C102.497 66.3791 101.72 66.8243 100.878 67.0537L101.316 66.9359C101.039 67.0074 100.758 67.0549 100.472 67.0569L100.941 67.0576C100.759 67.055 100.582 67.0355 100.406 66.9902L100.858 67.1156C100.713 67.0746 100.576 67.0194 100.445 66.945L100.835 67.1759C100.768 67.1362 100.705 67.0934 100.643 67.0462C100.28 66.7683 99.7875 66.6279 99.3321 66.6891C98.9152 66.7449 98.4374 66.9958 98.1887 67.3429C97.9213 67.7156 97.7483 68.1882 97.8316 68.6537C97.9117 69.0998 98.1181 69.5162 98.4855 69.7971C99.4224 70.5135 100.65 70.6909 101.778 70.4009C102.294 70.2692 102.787 70.1132 103.266 69.8824C103.625 69.7092 103.977 69.52 104.325 69.3264C105.848 68.4776 107.296 67.5173 108.626 66.3867C109.414 65.716 110.162 64.9928 110.873 64.241C111.027 64.0598 111.125 63.8543 111.167 63.6249C111.25 63.4022 111.271 63.1699 111.23 62.9302C111.162 62.5492 111.006 62.2232 110.732 61.9457C110.458 61.6683 110.116 61.4649 109.734 61.4302C109.27 61.3879 108.819 61.485 108.439 61.7693C107.27 62.6455 106.048 63.4509 104.782 64.1796L105.17 63.9563C103.646 64.8309 102.06 65.5947 100.425 66.24L100.037 66.4633C99.847 66.5972 99.7014 66.7667 99.6028 66.9719C99.4009 67.3124 99.3154 67.6877 99.3606 68.0879C99.4809 69.15 99.8818 70.1224 100.442 71.0224C100.646 71.3515 100.887 71.6561 101.156 71.9341C101.52 72.3122 101.887 72.6741 102.326 72.9659C102.808 73.2859 103.316 73.5755 103.866 73.7625L104.318 73.8879C104.556 73.9299 104.784 73.9106 105.006 73.8304C105.357 73.7351 105.712 73.5402 105.931 73.2349C106.112 72.9821 106.231 72.6985 106.287 72.3933C106.366 71.9595 106.205 71.4458 105.948 71.0989C105.928 71.0726 105.91 71.0455 105.892 71.0171L106.115 71.4053C106.085 71.3494 106.061 71.292 106.045 71.231L106.163 71.6682C106.149 71.6075 106.142 71.5477 106.141 71.4852L106.14 71.9544C106.142 71.8806 106.153 71.8103 106.17 71.7385L106.044 72.1906C106.071 72.0967 106.11 72.0091 106.158 71.924L105.927 72.3135C105.98 72.2278 106.041 72.1503 106.111 72.0787L105.792 72.3925C105.864 72.3224 105.943 72.2626 106.029 72.2097L105.64 72.433C105.718 72.3895 105.797 72.3556 105.882 72.332L105.445 72.4497C105.521 72.4307 105.594 72.4207 105.671 72.4194L105.201 72.4187C105.283 72.4205 105.359 72.4333 105.439 72.4547L104.987 72.3293C105.069 72.3547 105.144 72.3885 105.22 72.4306L104.83 72.1997C104.913 72.2509 104.987 72.3093 105.057 72.3765L104.743 72.0571C104.82 72.1371 104.885 72.2236 104.942 72.3185L104.719 71.9304C104.787 72.0503 104.838 72.1761 104.875 72.3093L104.757 71.8721C104.792 72.0086 104.808 72.1438 104.809 72.2838L104.81 71.8146C104.807 71.9412 104.791 72.0649 104.759 72.1876L104.884 71.7354C104.847 71.8655 104.791 71.9862 104.722 72.1026L104.953 71.7131C104.873 71.8444 104.778 71.962 104.67 72.0707L104.99 71.7569C104.858 71.8847 104.713 71.993 104.555 72.0867L104.943 71.8635C104.744 71.9774 104.534 72.0638 104.313 72.1277L104.75 72.0099C104.468 72.0854 104.182 72.1168 103.89 72.1191L104.359 72.1198C103.742 72.1177 103.137 71.9902 102.536 71.8597L103.914 72.9222C103.879 72.8422 103.85 72.7606 103.826 72.6762L103.944 73.1134C103.91 72.9781 103.893 72.8429 103.892 72.704L103.891 73.1732C103.894 73.0207 103.917 72.8744 103.955 72.7267L103.829 73.1788C103.893 72.9558 103.989 72.7479 104.106 72.5487L103.875 72.9381C104.078 72.6048 104.332 72.3079 104.608 72.0329L104.289 72.3467C104.619 72.0237 104.981 71.7416 105.348 71.4613L106.669 70.452L109.29 68.4502L114.507 64.4646L117.452 62.2156L115.316 62.1994L119.798 66.117L121.072 67.2313L122.388 64.124C121.635 64.0692 120.865 64.0872 120.122 64.223C119.378 64.3589 118.682 64.5635 117.998 64.8285C116.711 65.3274 115.514 66.0397 114.333 66.746C113.709 67.1181 113.089 67.4978 112.459 67.8609L112.847 67.6377C111.709 68.291 110.527 68.8949 109.255 69.2382L109.692 69.1204C109.079 69.2835 108.453 69.3813 107.818 69.3966L109.426 72.2079C109.458 72.1748 109.492 72.1418 109.525 72.1098L109.206 72.4236C110.305 71.3462 111.539 70.4143 112.872 69.6465L112.484 69.8697C113.847 69.0896 115.304 68.4845 116.819 68.0721L116.381 68.1898C116.891 68.0526 117.407 67.9362 117.926 67.8438C118.394 67.7609 118.867 67.7092 119.337 67.6336C119.902 67.5417 120.465 67.4094 121.009 67.2285C121.517 67.0595 122.035 66.8022 122.447 66.4575C123.124 65.8893 123.554 65.1741 123.709 64.3003C123.782 63.888 123.637 63.3295 123.37 63.0059C123.08 62.6557 122.68 62.3774 122.214 62.3313C120.614 62.171 118.975 62.2712 117.415 62.668C116.574 62.8822 115.749 63.1339 114.952 63.4775C114.151 63.8218 113.384 64.2449 112.644 64.7058C111.287 65.5527 110.068 66.6348 109.028 67.8474C108.549 68.4052 108.116 68.9999 107.734 69.6274C107.28 70.3733 106.862 71.1335 106.541 71.947C106.202 72.804 105.956 73.7018 105.778 74.6043C105.59 75.5617 105.476 76.5318 105.272 77.4872C105.22 77.7283 105.162 77.9685 105.097 78.2066L105.222 77.7544C105.123 78.1067 105.007 78.453 104.866 78.7913L107.865 78.4234L104.024 73.6818C103.724 73.3114 103.422 72.9407 103.183 72.527L103.407 72.9151C103.285 72.6973 103.184 72.4729 103.114 72.2329L103.232 72.6701C103.182 72.4845 103.155 72.2972 103.152 72.1051L103.151 72.5743C103.152 72.3544 103.185 72.1402 103.242 71.9281L103.116 72.3802C103.198 72.1009 103.32 71.8376 103.467 71.5873L103.236 71.9767C103.603 71.3683 104.095 70.8417 104.598 70.3448L104.279 70.6587C105.683 69.2818 107.327 68.1908 108.956 67.1024C110.779 65.883 112.602 64.6647 114.425 63.4453L115.956 62.4212C116.417 62.1138 116.873 61.7975 117.353 61.5185L116.965 61.7418C117.368 61.51 117.787 61.3075 118.235 61.1807L117.798 61.2984C118.069 61.2261 118.344 61.1838 118.626 61.1824L118.156 61.1816C118.384 61.1846 118.607 61.2162 118.827 61.2746L118.375 61.1492C118.667 61.2327 118.939 61.3593 119.2 61.5127L118.811 61.2818C119.435 61.659 119.977 62.1602 120.53 62.63L122.381 64.2007L126.038 67.3045L128.112 69.0646L129.428 65.9573C127.416 65.6194 125.336 65.5628 123.307 65.7766C122.369 65.8752 121.437 66.0405 120.522 66.2716C119.469 66.5379 118.433 66.8536 117.432 67.2752C115.609 68.0429 113.873 69.0967 112.391 70.411C111.611 71.1039 110.871 71.8566 110.212 72.6673C109.55 73.4823 108.983 74.3609 108.464 75.272C108.019 76.0544 107.641 76.8753 107.339 77.7244C106.99 78.7093 106.717 79.7328 106.556 80.7659C106.523 80.9871 106.493 81.209 106.47 81.4316C106.421 81.8859 106.53 82.3584 106.809 82.726C107.068 83.0672 107.53 83.361 107.965 83.4006C108.399 83.4401 108.9 83.358 109.259 83.0614C109.618 82.7649 109.884 82.3719 109.934 81.9059L109.94 81.9091Z" fill="#313332"/>
<path d="M61.874 146.227C61.5066 148.746 60.9825 151.242 60.3062 153.698L60.4316 153.246C59.8657 155.292 59.1968 157.308 58.4251 159.284C57.6534 161.26 56.7704 163.217 55.7911 165.111C55.2405 166.177 54.6594 167.225 54.0477 168.257L54.2787 167.867C54.2571 167.904 54.2357 167.94 54.2131 167.977L56.2778 167.449C53.3912 166.274 50.301 165.529 47.191 165.298C46.2141 165.225 45.2341 165.21 44.2539 165.222L43.8167 165.339L43.4286 165.563C43.1201 165.797 42.9178 166.123 42.8156 166.491C42.6287 167.169 42.8583 167.88 43.4059 168.331C45.1369 169.751 46.9586 171.058 48.8609 172.24C50.8651 173.486 52.9376 174.619 55.0843 175.598C56.2335 176.121 57.4028 176.601 58.5873 177.039C58.9647 177.177 59.3365 177.211 59.7273 177.105C60.1181 177 60.3789 176.805 60.6522 176.51C62.1921 174.851 63.7152 173.176 65.2193 171.486C66.7234 169.796 68.197 168.105 69.6595 166.392C71.1292 164.67 72.5807 162.934 74.0144 161.182C75.4411 159.439 76.8498 157.681 78.2394 155.908C79.636 154.127 81.0145 152.332 82.3739 150.522C82.5436 150.296 82.7134 150.069 82.8833 149.842C83.1585 149.473 83.3021 148.992 83.2404 148.531C83.1846 148.114 82.9336 147.637 82.5866 147.388C82.2139 147.121 81.7412 146.948 81.2758 147.031C80.8104 147.114 80.4075 147.317 80.1324 147.685C78.7773 149.498 77.4041 151.297 76.0118 153.081C74.6195 154.866 73.2219 156.62 71.8007 158.366C70.3723 160.121 68.9249 161.862 67.4596 163.586C65.9943 165.311 64.5261 167.005 63.0319 168.692C61.5377 170.378 60.013 172.064 58.4773 173.728C58.2854 173.936 58.0934 174.143 57.9003 174.351L59.965 173.823C57.6822 172.98 55.4591 171.976 53.3182 170.818C52.7126 170.491 52.1145 170.151 51.5228 169.8L51.9123 170.031C49.6881 168.708 47.5642 167.219 45.5625 165.577L44.7157 168.686C44.8676 168.685 45.0196 168.683 45.1712 168.684L44.702 168.683C47.2389 168.693 49.7682 169.042 52.214 169.717L51.7619 169.591C52.8269 169.888 53.8732 170.244 54.8982 170.661C55.2658 170.811 55.656 170.83 56.0382 170.727C56.3668 170.638 56.7813 170.438 56.9631 170.132C58.6494 167.3 60.1437 164.368 61.3775 161.31C62.6112 158.253 63.5838 155.136 64.3366 151.95C64.7459 150.214 65.0799 148.463 65.3368 146.698C65.4008 146.257 65.2656 145.758 64.9977 145.404C64.7298 145.05 64.2766 144.769 63.8421 144.729C63.4076 144.69 62.9071 144.772 62.5477 145.068C62.1884 145.365 61.9411 145.753 61.8731 146.224L61.874 146.227Z" fill="#313332"/>
<path d="M127.5 153.211C129.382 157.483 131.365 161.71 133.446 165.889C135.522 170.055 137.697 174.174 139.968 178.238C141.307 180.634 142.676 183.011 144.078 185.37L144.391 185.689C144.573 185.843 144.778 185.941 145.007 185.983C145.397 186.09 145.754 186.064 146.139 185.928L153.949 183.185L161.721 180.453L166.125 178.906L166.513 178.683C166.703 178.549 166.849 178.38 166.947 178.174C167.14 177.85 167.257 177.441 167.189 177.058C167.054 176.301 166.48 175.663 165.694 175.559L152.29 173.784L148.47 173.279L149.29 176.403C150.599 175.488 150.804 173.834 150.691 172.364C150.591 171.045 150.423 169.727 150.287 168.41C150.008 165.701 149.729 162.99 149.449 160.281L148.974 155.668C148.929 155.239 148.656 154.787 148.32 154.525C147.984 154.263 147.445 154.09 147.009 154.168C146.055 154.338 145.407 155.158 145.508 156.132C145.978 160.692 146.449 165.252 146.918 169.812L147.112 171.687C147.168 172.238 147.244 172.791 147.248 173.346L147.249 172.876C147.248 173.197 147.222 173.516 147.14 173.827L147.266 173.375C147.216 173.547 147.151 173.709 147.061 173.863L147.292 173.474C147.226 173.579 147.153 173.672 147.067 173.761L147.386 173.447C147.321 173.51 147.253 173.565 147.178 173.617C146.948 173.778 146.738 174.064 146.628 174.32C146.472 174.684 146.46 175.083 146.561 175.46C146.74 176.124 147.304 176.65 147.998 176.742L161.403 178.516L165.222 179.021L164.79 175.675L156.981 178.419L149.208 181.15L144.805 182.697L146.866 183.256C146.156 182.06 145.455 180.859 144.761 179.654L144.985 180.042C142.931 176.469 140.95 172.853 139.048 169.196C137.157 165.563 135.34 161.889 133.602 158.179C132.622 156.087 131.666 153.985 130.736 151.872C130.556 151.464 130.222 151.112 129.81 150.935C129.398 150.759 128.852 150.741 128.452 150.927C128.051 151.113 127.675 151.425 127.515 151.852C127.35 152.287 127.314 152.775 127.506 153.211L127.5 153.211Z" fill="#313332"/>
<path d="M47.1947 62.0723C46.1884 62.7214 45.1704 63.3524 44.1323 63.9501L44.5205 63.7268C41.9926 65.1802 39.3371 66.4398 36.5162 67.2073L36.9534 67.0896C35.239 67.5499 33.4796 67.823 31.7022 67.8243L32.1714 67.825C30.6417 67.8213 29.1166 67.629 27.6401 67.228L28.0922 67.3534C26.857 67.0114 25.6664 66.5237 24.5606 65.8724L24.9501 66.1033C24.0476 65.5646 23.2147 64.9212 22.4763 64.172L22.7902 64.4914C22.6169 64.3136 22.4491 64.1306 22.2876 63.9439L22.5026 65.6894L27.542 56.4606L27.6674 56.0085C27.7094 55.7707 27.6901 55.5423 27.6099 55.3207C27.5179 54.9788 27.3196 54.5976 27.0143 54.3959C24.2746 52.5775 21.4794 50.8468 18.6397 49.1912C17.8599 48.7362 17.0766 48.289 16.2902 47.8473C15.7977 47.5705 14.9587 47.6849 14.5447 48.0623C10.9023 51.3756 7.51107 54.9679 4.44616 58.8225C4.06675 59.2998 3.69133 59.7824 3.32136 60.2681C2.88269 60.8431 2.42639 61.4182 2.11411 62.0752C1.94901 62.422 1.83049 62.815 1.79464 63.1971C1.73861 63.7952 1.82299 64.2784 1.99603 64.8443C2.15497 65.3671 2.43727 65.848 2.70404 66.3221C3.8064 68.2785 5.08996 70.1057 6.62606 71.7463C8.35834 73.5949 10.2883 75.2283 12.4555 76.546C12.7042 76.74 12.9844 76.8584 13.2971 76.9024C13.5348 76.9444 13.7633 76.9251 13.9848 76.8448C14.5137 76.702 14.9109 76.3612 15.1407 75.8598C15.2544 75.6131 15.3803 75.3728 15.5182 75.1388L15.2872 75.5282C15.6267 74.9643 16.0348 74.4497 16.5028 73.9868L16.1834 74.3007C16.6403 73.8587 17.1447 73.4737 17.6931 73.1536L17.305 73.3769C17.6202 73.1966 17.9453 73.0388 18.2813 72.9036L16.2195 72.3449C18.7957 75.3747 22.1431 77.7115 25.856 79.1315C29.5688 80.5515 33.6346 81.1212 37.6061 80.7041C39.809 80.4729 42.0036 79.916 44.0463 79.0595C44.4531 78.8894 44.8103 78.5396 44.9835 78.134C45.1566 77.7284 45.1782 77.1762 44.9919 76.7754C44.5927 75.9198 43.6101 75.4512 42.7078 75.8299C41.8056 76.2085 40.9707 76.4906 40.0729 76.7335L40.5101 76.6157C38.6116 77.1238 36.6516 77.367 34.6868 77.3626L35.156 77.3634C33.0557 77.3522 30.9644 77.0599 28.94 76.5027L29.3921 76.6282C27.3912 76.0719 25.4676 75.2592 23.6801 74.2005L24.0696 74.4314C22.4755 73.4803 21.0006 72.3374 19.6974 71.0145L20.0112 71.3339C19.6636 70.9781 19.3269 70.6109 19.0048 70.2316C18.4932 69.6299 17.6934 69.3722 16.943 69.6728C14.7277 70.561 12.9205 72.3177 11.9254 74.4821L14.6105 73.7959C12.7625 72.6725 11.062 71.3222 9.54258 69.7827L9.85641 70.1021C8.29173 68.507 6.93079 66.721 5.81503 64.7851L6.03828 65.1732C5.72128 64.6193 5.37537 64.0533 5.20368 63.4346L5.32141 63.8718C5.27905 63.7001 5.25401 63.5309 5.25001 63.3539L5.24927 63.8231C5.25298 63.6672 5.27453 63.5184 5.31188 63.3659L5.18646 63.818C5.25403 63.5908 5.35449 63.3811 5.47542 63.1766L5.24449 63.566C5.72352 62.7906 6.33016 62.0798 6.89161 61.3639C7.45307 60.648 8.02596 59.9431 8.60944 59.2467C9.78508 57.8422 11.0039 56.4742 12.2644 55.146C12.9738 54.3974 13.6967 53.6625 14.431 52.9385L14.1116 53.2523C14.9434 52.4347 15.7918 51.6334 16.6544 50.8482L14.9089 51.0632C16.0327 51.6947 17.1491 52.338 18.2576 52.9956L17.8681 52.7646C20.233 54.1682 22.5627 55.6305 24.8539 57.1511L24.3263 55.0863L19.2869 64.3151C19.0092 64.8229 19.1291 65.6308 19.5019 66.0606C20.8918 67.6695 22.6096 68.928 24.5499 69.7983C26.3796 70.6181 28.3956 71.0988 30.3939 71.2454C32.3922 71.3921 34.5217 71.2414 36.5351 70.7797C38.7088 70.281 40.8057 69.5272 42.8176 68.5689C45.0676 67.4962 47.2149 66.2106 49.3087 64.8612C49.6674 64.6292 49.9272 64.1155 49.9833 63.7056C50.0394 63.2958 49.9227 62.7482 49.6442 62.4113C49.3657 62.0744 48.9533 61.7791 48.4886 61.7367C48.024 61.6942 47.6018 61.814 47.1942 62.0758L47.1947 62.0723Z" fill="#313332"/>
<path d="M186.059 100.304C189.251 103.175 193.177 105.087 197.323 106.123C201.302 107.116 205.58 107.201 209.587 106.326C211.916 105.818 214.178 105.031 216.274 103.891L213.998 101.587L211.596 108.931C211.455 109.366 211.385 109.854 211.588 110.29L211.811 110.678C211.998 110.922 212.233 111.105 212.515 111.228C216.789 113.756 221.385 115.684 226.17 117.006C227.562 117.391 228.965 117.732 230.382 118.014C230.949 118.127 231.666 117.836 231.995 117.361C234.042 114.408 235.889 111.308 237.506 108.099C239.122 104.891 240.403 101.809 241.511 98.5312C241.849 97.5307 242.355 96.4038 242.138 95.3297C242.021 94.7455 241.785 94.1875 241.389 93.7356C241.058 93.3587 240.687 93.0339 240.294 92.726C238.967 91.6821 237.578 90.7179 236.136 89.8395C233.146 88.015 229.985 86.5059 226.652 85.4214C226.138 85.2547 225.612 85.0544 225.074 84.9901C224.308 84.8993 223.583 85.0612 222.942 85.4861C222.175 85.9939 221.75 86.8967 221.283 87.6573C220.31 89.2459 219.336 90.8346 218.362 92.422L217.632 93.6135L218.775 92.9597C215.328 93.8696 211.856 94.7763 208.299 95.1324C207.309 95.2321 206.314 95.2852 205.319 95.2854L205.788 95.2861C203.954 95.2796 202.114 95.0924 200.343 94.6051L200.795 94.7305C199.335 94.3237 197.935 93.7308 196.63 92.9616L197.019 93.1926C195.904 92.5283 194.868 91.7383 193.955 90.8158L194.269 91.1351C193.531 90.3825 192.882 89.5503 192.352 88.6391L192.575 89.0272C192.113 88.2206 191.752 87.363 191.508 86.4651L191.625 86.9023C191.532 86.5508 191.458 86.196 191.401 85.8377C191.257 84.9359 190.382 84.1667 189.436 84.336C188.491 84.5053 187.781 85.3338 187.935 86.3004C188.369 89.024 189.719 91.4554 191.64 93.4087C193.562 95.362 195.844 96.7414 198.353 97.6143C201.378 98.666 204.574 98.9025 207.754 98.6852C210.933 98.4678 214.204 97.7289 217.357 96.9186C217.75 96.8171 218.142 96.7156 218.535 96.6118C218.723 96.5623 218.911 96.5127 219.099 96.4632C219.369 96.3919 219.628 96.3368 219.871 96.1971C220.132 96.0471 220.334 95.8513 220.491 95.5965L221.844 93.3905C222.754 91.9049 223.666 90.4195 224.576 88.9339C224.752 88.6463 224.924 88.3582 225.166 88.1208L224.847 88.4347C224.923 88.3663 225.001 88.3075 225.087 88.2535L224.699 88.4767C224.796 88.4254 224.891 88.3878 224.997 88.3588L224.56 88.4765C224.672 88.4543 224.781 88.4456 224.896 88.4449L224.427 88.4442C224.632 88.4547 224.828 88.4933 225.026 88.5462L224.573 88.4207C226.2 88.8823 227.797 89.5127 229.342 90.1959C230.887 90.8791 232.416 91.6672 233.883 92.5349L233.494 92.304C234.447 92.871 235.381 93.4717 236.289 94.11C236.737 94.4242 237.178 94.7469 237.614 95.0795C238.022 95.3906 238.444 95.6966 238.807 96.0592L238.494 95.7398C238.618 95.871 238.729 96.0061 238.825 96.1593L238.602 95.7712C238.666 95.8822 238.715 95.9937 238.755 96.1144L238.637 95.6772C238.676 95.8237 238.693 95.9659 238.695 96.1167L238.696 95.6475C238.687 95.8674 238.647 96.0773 238.591 96.2907L238.716 95.8386C238.422 96.8815 238.041 97.908 237.668 98.9249C237.295 99.9417 236.895 100.962 236.475 101.967C235.629 103.991 234.692 105.979 233.67 107.921C233.094 109.013 232.492 110.089 231.863 111.15L232.094 110.761C231.195 112.276 230.241 113.76 229.237 115.208L230.85 114.554C229.51 114.287 228.181 113.971 226.864 113.609L227.316 113.734C223.648 112.714 220.087 111.324 216.704 109.579C215.751 109.088 214.812 108.566 213.888 108.02L214.806 110.316L217.208 102.971C217.432 102.285 217.363 101.601 216.836 101.065C216.613 100.838 216.369 100.697 216.064 100.612C215.72 100.517 215.26 100.488 214.932 100.667C213.317 101.545 211.602 102.224 209.827 102.705L210.265 102.587C208.107 103.164 205.881 103.446 203.648 103.446L204.118 103.447C201.776 103.441 199.442 103.123 197.184 102.505L197.636 102.63C195.485 102.033 193.416 101.165 191.496 100.029L191.885 100.26C190.577 99.4794 189.346 98.5779 188.213 97.5583C187.889 97.267 187.322 97.1447 186.902 97.2012C186.481 97.2577 186.007 97.508 185.758 97.855C185.175 98.6679 185.327 99.6555 186.055 100.309L186.059 100.304Z" fill="#313332"/>
<path d="M232.103 116.371C232.373 117.18 232.755 117.925 233.183 118.661C233.546 119.284 233.969 119.872 234.447 120.412C235.586 121.701 236.922 122.744 238.461 123.517C241.462 125.021 245.011 125.09 248.144 123.962C249.038 123.641 249.882 123.196 250.682 122.688C251.482 122.18 252.22 121.532 252.895 120.835L250.441 121.132C252.241 122.602 254.395 123.554 256.658 124.043C257.796 124.289 258.942 124.359 260.102 124.352C261.116 124.345 262.13 124.225 263.116 123.989C264.366 123.688 265.574 123.275 266.699 122.646C266.916 122.565 267.098 122.438 267.246 122.267C267.423 122.12 267.552 121.938 267.636 121.72C267.807 121.321 267.831 120.762 267.645 120.362C267.458 119.961 267.146 119.585 266.719 119.425C266.292 119.264 265.762 119.192 265.361 119.416C264.482 119.907 263.545 120.284 262.574 120.549L263.011 120.432C261.864 120.74 260.679 120.89 259.49 120.887L259.959 120.888C258.752 120.88 257.552 120.716 256.387 120.396L256.839 120.522C255.743 120.216 254.689 119.774 253.707 119.198L254.097 119.429C253.571 119.117 253.071 118.767 252.597 118.381C252.265 118.11 251.713 117.947 251.286 118.024L250.849 118.142C250.568 118.26 250.332 118.439 250.143 118.678C250.085 118.738 250.027 118.797 249.967 118.855L250.286 118.541C249.655 119.159 248.948 119.692 248.183 120.135L248.571 119.912C247.746 120.384 246.864 120.748 245.947 120.999L246.384 120.881C245.434 121.137 244.455 121.268 243.471 121.266L243.94 121.266C243.044 121.26 242.153 121.142 241.288 120.907L241.74 121.032C240.833 120.781 239.966 120.406 239.157 119.927L239.546 120.158C238.738 119.674 237.995 119.09 237.332 118.422L237.645 118.741C236.986 118.07 236.412 117.32 235.943 116.504L236.166 116.892C235.828 116.3 235.549 115.678 235.333 115.032C235.199 114.634 234.783 114.256 234.407 114.095C234.008 113.924 233.449 113.901 233.049 114.087C232.648 114.273 232.272 114.585 232.112 115.012L231.986 115.465C231.943 115.777 231.983 116.079 232.103 116.371Z" fill="#313332"/>
<path d="M263.643 110.494C263.382 110.667 263.114 110.833 262.842 110.99L263.231 110.766C262.114 111.407 260.916 111.897 259.673 112.234L260.11 112.116C258.805 112.466 257.457 112.643 256.106 112.642L256.575 112.643C255.271 112.638 253.973 112.467 252.714 112.123L253.166 112.249C253.019 112.207 252.875 112.162 252.741 112.085L253.13 112.316C253.079 112.283 253.034 112.247 252.989 112.206L253.303 112.525C253.265 112.485 253.234 112.443 253.205 112.395L253.428 112.783C253.404 112.738 253.385 112.693 253.371 112.645L253.489 113.082C253.469 113.008 253.462 112.934 253.462 112.857L253.461 113.327C253.465 113.218 253.483 113.113 253.511 113.008L253.385 113.46C253.487 113.102 253.674 112.776 253.815 112.432C254.009 111.958 254.146 111.468 254.278 110.973C254.469 110.262 254.566 109.527 254.575 108.792C254.587 107.906 254.546 107.035 254.354 106.168C254.164 105.309 253.905 104.459 253.518 103.666C252.747 102.082 251.614 100.658 250.147 99.664C248.68 98.6704 246.889 97.9805 245.069 97.8019C244.166 97.7135 243.234 97.7211 242.335 97.8532C241.817 97.9294 241.314 98.0615 240.811 98.202C240.433 98.3079 240.062 98.4394 239.703 98.5972C239.529 98.6734 239.359 98.756 239.19 98.8435C238.974 98.9243 238.792 99.0511 238.643 99.2225C238.467 99.3689 238.337 99.5511 238.253 99.769C238.082 100.168 238.059 100.727 238.245 101.128C238.431 101.528 238.743 101.904 239.17 102.065C239.598 102.226 240.117 102.288 240.529 102.073C241.071 101.79 241.642 101.569 242.234 101.408L241.797 101.526C242.571 101.319 243.369 101.219 244.17 101.219L243.701 101.218C244.548 101.223 245.39 101.339 246.206 101.564L245.753 101.438C246.525 101.654 247.265 101.968 247.955 102.375L247.566 102.144C248.176 102.509 248.739 102.946 249.239 103.452L248.925 103.132C249.431 103.65 249.867 104.229 250.228 104.855L250.005 104.467C250.399 105.156 250.699 105.893 250.905 106.659L250.788 106.222C251.003 107.03 251.111 107.862 251.109 108.7L251.11 108.23C251.105 109.022 251.001 109.812 250.791 110.576L250.917 110.123C250.781 110.606 250.603 111.072 250.389 111.525C250.22 111.883 250.093 112.26 250.018 112.649C250.009 112.702 250.001 112.755 249.998 112.808C249.984 113.003 249.979 113.216 249.998 113.411C250.039 113.821 250.201 114.166 250.42 114.505C250.966 115.347 251.996 115.545 252.902 115.748C253.446 115.87 253.997 115.96 254.55 116.019C257.076 116.287 259.625 115.976 262.022 115.148C263.341 114.692 264.594 114.044 265.755 113.272C266.114 113.033 266.373 112.533 266.43 112.116C266.487 111.699 266.369 111.159 266.091 110.822C265.812 110.485 265.4 110.19 264.935 110.147L264.466 110.146C264.161 110.188 263.886 110.302 263.641 110.487L263.643 110.494Z" fill="#313332"/>
<path d="M286.307 156.721L279.22 162.342L272.159 167.941L270.174 169.516L269.181 170.303C268.88 170.542 268.587 170.802 268.258 170.999L268.646 170.776C268.533 170.839 268.419 170.889 268.294 170.925L268.731 170.807C268.639 170.829 268.55 170.839 268.455 170.84L268.924 170.841C268.829 170.836 268.741 170.822 268.65 170.797L269.102 170.923C268.994 170.888 268.893 170.842 268.794 170.788L269.183 171.019C268.98 170.896 268.803 170.741 268.635 170.573L268.949 170.892C268.23 170.149 267.588 169.313 266.981 168.478C266.369 167.635 265.802 166.759 265.282 165.856L265.505 166.244C264.766 164.954 264.123 163.61 263.586 162.222C262.978 160.65 262.336 158.989 260.916 157.962C259.969 157.277 258.798 156.879 257.622 157.064C257.242 157.124 256.911 157.293 256.638 157.562C256.515 157.656 256.424 157.773 256.362 157.914C256.226 158.106 256.146 158.32 256.122 158.561C255.916 159.376 255.803 160.212 255.781 161.052C255.755 162.012 255.791 162.967 255.945 163.915C256.23 165.677 256.804 167.412 257.619 168.999C259.301 172.277 261.842 174.975 264.642 177.332C265.3 177.886 265.973 178.422 266.655 178.948C267.549 179.636 268.548 180.319 269.718 180.347C270.064 180.356 270.406 180.358 270.747 180.293C271.087 180.228 271.454 180.124 271.797 180.01C272.209 179.872 272.609 179.704 273.011 179.54C273.793 179.22 274.569 178.886 275.339 178.537C278.552 177.079 281.654 175.362 284.607 173.433C287.454 171.573 290.158 169.493 292.686 167.217C292.999 166.935 293.31 166.649 293.619 166.36C293.809 166.226 293.955 166.056 294.054 165.851C294.19 165.659 294.27 165.444 294.294 165.204C294.352 164.779 294.233 164.247 293.955 163.91C293.676 163.573 293.264 163.278 292.799 163.235C292.365 163.196 291.838 163.263 291.505 163.574C288.609 166.283 285.47 168.729 282.137 170.877C281.19 171.487 280.227 172.073 279.25 172.635L279.638 172.411C277.282 173.765 274.845 174.974 272.34 176.029C271.623 176.33 270.901 176.66 270.151 176.869L270.588 176.751C270.304 176.827 270.016 176.876 269.722 176.879L270.191 176.88C269.982 176.877 269.78 176.848 269.578 176.794L270.03 176.919C269.774 176.842 269.535 176.728 269.305 176.592L269.694 176.823C269.188 176.513 268.726 176.13 268.26 175.765C267.795 175.4 267.325 175.021 266.867 174.636C265.96 173.875 265.082 173.08 264.249 172.237L264.563 172.556C263.212 171.181 261.987 169.672 261.021 168L261.244 168.388C260.535 167.151 259.975 165.831 259.602 164.455L259.72 164.892C259.411 163.735 259.24 162.546 259.24 161.348L259.239 161.817C259.244 160.878 259.354 159.944 259.585 159.034L258.085 160.529C258.212 160.509 258.337 160.499 258.465 160.499L257.996 160.498C258.214 160.502 258.426 160.535 258.637 160.593L258.185 160.468C258.433 160.541 258.665 160.645 258.889 160.776L258.499 160.545C258.772 160.71 259.02 160.909 259.244 161.136L258.93 160.817C259.202 161.098 259.427 161.416 259.624 161.755L259.4 161.367C259.977 162.376 260.308 163.507 260.766 164.572C261.274 165.752 261.869 166.885 262.511 167.996C263.092 169.004 263.732 169.977 264.429 170.909C264.774 171.37 265.133 171.821 265.506 172.262C265.694 172.484 265.882 172.707 266.081 172.919C266.354 173.211 266.635 173.522 266.976 173.74C267.508 174.081 268.044 174.304 268.684 174.306C269.062 174.307 269.272 174.268 269.658 174.149C269.912 174.07 270.146 173.92 270.371 173.784C270.897 173.466 271.366 173.032 271.846 172.65L274.991 170.157L281.306 165.149L287.648 160.119L288.42 159.506C288.777 159.224 289.033 158.804 289.095 158.35C289.153 157.925 289.034 157.393 288.756 157.056C288.477 156.719 288.065 156.424 287.6 156.381C287.136 156.339 286.674 156.428 286.306 156.72L286.307 156.721Z" fill="#313332"/>
<path d="M386.363 183.287C387.18 185.467 387.892 187.684 388.5 189.93L388.382 189.493C389.156 192.366 389.849 195.317 389.844 198.308L389.845 197.839C389.834 199.402 389.609 200.949 389.196 202.456L389.321 202.004C388.786 203.919 387.965 205.738 386.953 207.446L387.184 207.056C385.659 209.613 383.714 211.877 381.597 213.96L381.917 213.646C379.938 215.588 377.818 217.376 375.698 219.159C375.214 219.566 374.937 220.14 375.022 220.783C375.064 221.087 375.178 221.363 375.363 221.608C375.549 221.852 375.784 222.035 376.066 222.158C380.522 224.733 385.592 226.315 390.713 226.797C393.326 227.044 395.985 227.023 398.59 226.702C399.455 226.596 400.362 226.299 400.864 225.534C401.487 224.585 401.401 223.503 400.994 222.488C400.54 221.354 399.667 220.381 398.661 219.704C397.537 218.949 396.329 218.477 395.037 218.106C393.744 217.735 392.392 217.398 391.206 216.706L391.595 216.937C391.416 216.83 391.242 216.716 391.073 216.594L391.052 219.362C393.255 217.507 395.397 215.553 397.287 213.375C399.157 211.22 400.785 208.787 401.852 206.131C402.439 204.67 402.865 203.127 403.132 201.575C403.4 200.017 403.475 198.444 403.46 196.864C403.43 193.9 402.916 190.957 402.179 188.091C401.397 185.043 400.393 182.065 399.317 179.112C399.188 178.759 399.058 178.406 398.929 178.054C398.613 177.194 397.477 176.72 396.645 177.108C395.759 177.521 395.36 178.473 395.699 179.392C396.791 182.353 397.849 185.33 398.671 188.379L398.553 187.941C399.406 191.122 400.004 194.392 399.996 197.694L399.997 197.225C399.986 199.204 399.75 201.176 399.228 203.087L399.354 202.635C398.864 204.401 398.13 206.081 397.197 207.657L397.428 207.268C396.045 209.582 394.278 211.637 392.361 213.524L392.681 213.21C391.482 214.386 390.225 215.497 388.942 216.578C388.507 216.945 388.267 217.398 388.266 217.968C388.264 218.493 388.478 219.028 388.919 219.346C390.17 220.249 391.583 220.732 393.051 221.147C394.263 221.491 395.471 221.831 396.564 222.477L396.174 222.246C396.618 222.514 397.034 222.823 397.401 223.19L397.087 222.87C397.351 223.14 397.583 223.437 397.772 223.764L397.549 223.376C397.703 223.653 397.822 223.944 397.906 224.25L397.789 223.813C397.825 223.962 397.849 224.108 397.853 224.262L397.854 223.793C397.85 223.893 397.839 223.986 397.814 224.084L397.939 223.631C397.925 223.678 397.907 223.723 397.883 223.766L398.114 223.377C398.078 223.436 398.044 223.485 397.998 223.536L398.318 223.222C398.257 223.28 398.195 223.327 398.123 223.37L398.511 223.146C398.417 223.196 398.321 223.232 398.219 223.263L398.656 223.145C398.3 223.236 397.927 223.263 397.563 223.301C397.158 223.343 396.752 223.379 396.344 223.407C395.531 223.463 394.715 223.489 393.899 223.487L394.368 223.488C391.237 223.476 388.118 223.044 385.101 222.212L385.553 222.338C382.722 221.55 379.993 220.415 377.448 218.945L377.816 221.944C380.095 220.027 382.354 218.096 384.471 216.001C386.474 214.021 388.322 211.869 389.792 209.46C391.384 206.847 392.596 204.029 393.092 200.993C393.588 197.957 393.232 194.9 392.572 191.937C391.9 188.916 391.031 185.929 389.989 183.015C389.861 182.659 389.731 182.304 389.599 181.95C389.277 181.092 388.149 180.615 387.314 181.005C386.432 181.417 386.025 182.373 386.369 183.289L386.363 183.287Z" fill="#313332"/>
<path d="M339.376 71.388C341.155 73.3218 343.098 75.1028 345.216 76.6596C346.217 77.3954 347.256 78.0822 348.324 78.7178C349.554 79.4496 350.806 80.1504 352.169 80.6075C353.648 81.1041 355.174 81.3648 356.735 81.1964C357.416 81.1226 358.089 80.9512 358.738 80.7414C359.264 80.5723 359.774 80.3539 360.263 80.0986C361.381 79.5154 362.42 78.8085 363.379 77.9906C364.338 77.1727 365.3 76.2248 366.158 75.2485C366.943 74.3561 367.66 73.4004 368.272 72.3821C368.952 71.2509 369.553 70.0875 369.962 68.8285C370.096 68.4141 370.211 67.9935 370.321 67.5721C370.363 67.3344 370.343 67.1059 370.263 66.8844C370.223 66.6601 370.129 66.4578 369.982 66.2777C369.723 65.9364 369.261 65.6426 368.826 65.6031C368.392 65.5636 367.891 65.6456 367.532 65.9422L367.212 66.256C367.018 66.5047 366.9 66.7849 366.856 67.0976C366.836 67.1772 366.814 67.2566 366.793 67.336L366.918 66.8838C366.56 68.1651 366.016 69.3844 365.339 70.5291L365.57 70.1396C364.64 71.7036 363.473 73.1128 362.178 74.3882L362.498 74.0744C361.42 75.1313 360.256 76.1127 358.944 76.8682L359.332 76.6449C358.599 77.0643 357.823 77.4062 357.005 77.6271L357.443 77.5094C356.799 77.6801 356.14 77.7709 355.474 77.7715L355.943 77.7722C355.178 77.7674 354.422 77.6486 353.685 77.4477L354.137 77.5731C352.71 77.1778 351.383 76.4997 350.115 75.7485L350.504 75.9794C348.292 74.6649 346.213 73.13 344.308 71.4C343.772 70.9125 343.249 70.4104 342.74 69.8926L343.054 70.212C342.751 69.9036 342.454 69.5912 342.161 69.2735C342.027 69.0834 341.858 68.9379 341.653 68.8392C341.461 68.7024 341.246 68.6224 341.006 68.5989C340.581 68.5407 340.048 68.6595 339.711 68.938C339.374 69.2165 339.079 69.6289 339.037 70.0936C338.997 70.5304 339.067 71.0516 339.376 71.388Z" fill="#313332"/>
<path d="M433.866 122.206C436.996 124.718 440.746 126.364 444.671 127.147C448.456 127.901 452.472 127.809 456.205 126.822C457.328 126.525 458.433 126.181 459.505 125.736C460.577 125.292 461.648 124.729 462.671 124.123L459.999 123.4C461.849 128.751 467.092 132.649 472.657 133.31C478.408 133.994 484.247 131.35 487.9 126.934C489.913 124.501 491.207 121.529 491.832 118.447C492.439 115.459 492.379 112.252 491.605 109.301C491.17 107.638 490.527 106.018 489.348 104.732C488.169 103.447 486.743 102.511 485.213 101.676C483.791 100.899 482.311 100.204 480.759 99.7301C479.022 99.1994 477.289 98.9209 475.472 99.0002C472.492 99.132 469.454 100.352 467.226 102.338C464.79 104.51 463.15 107.492 462.692 110.732C462.594 111.422 462.654 112.152 462.487 112.828L462.612 112.376C462.579 112.488 462.538 112.591 462.486 112.695L462.717 112.305C462.659 112.404 462.594 112.49 462.516 112.573L462.835 112.259C462.735 112.354 462.629 112.431 462.512 112.503L462.9 112.28C462.188 112.679 461.353 112.917 460.586 113.189C459.765 113.478 458.936 113.744 458.096 113.97L458.533 113.852C457.03 114.252 455.493 114.52 453.935 114.522L454.404 114.523C453.373 114.517 452.349 114.391 451.352 114.118L451.805 114.243C450.763 113.95 449.776 113.507 448.846 112.956L449.236 113.187C447.838 112.346 446.595 111.284 445.45 110.128L445.764 110.447C445.117 109.789 444.502 109.102 443.907 108.397C443.312 107.692 442.211 107.438 441.458 108.062C440.76 108.64 440.494 109.764 441.123 110.51C442.404 112.028 443.781 113.499 445.342 114.734C446.163 115.383 447.042 115.953 447.962 116.452C448.881 116.95 449.861 117.306 450.878 117.583C455.033 118.714 459.391 117.402 463.279 115.92C463.849 115.703 464.458 115.483 464.919 115.072C465.592 114.472 465.963 113.679 466.031 112.779C466.072 112.253 466.082 111.73 466.156 111.206C466.229 110.688 466.339 110.176 466.479 109.672L466.354 110.124C466.64 109.115 467.052 108.15 467.581 107.243L467.35 107.633C467.885 106.731 468.529 105.903 469.277 105.167L468.957 105.481C469.668 104.791 470.46 104.198 471.318 103.704L470.93 103.927C471.835 103.415 472.797 103.02 473.801 102.748L473.364 102.866C474.369 102.6 475.4 102.46 476.439 102.457L475.97 102.456C477.149 102.46 478.314 102.646 479.45 102.958L478.998 102.833C480.97 103.39 482.851 104.291 484.612 105.332L484.222 105.101C485.114 105.633 485.963 106.233 486.696 106.975L486.382 106.655C486.817 107.106 487.197 107.6 487.513 108.142L487.29 107.753C487.711 108.496 488.007 109.292 488.233 110.114L488.116 109.677C488.55 111.291 488.751 112.965 488.752 114.636L488.752 114.166C488.744 115.891 488.515 117.607 488.056 119.271L488.181 118.819C487.757 120.331 487.147 121.782 486.347 123.134L486.578 122.744C485.875 123.916 485.037 124.994 484.067 125.956L484.386 125.642C483.375 126.635 482.243 127.493 481.016 128.2L481.404 127.977C480.222 128.649 478.966 129.175 477.655 129.536L478.092 129.418C476.835 129.756 475.543 129.936 474.241 129.939L474.711 129.939C473.503 129.935 472.309 129.773 471.145 129.456L471.597 129.581C470.392 129.246 469.239 128.753 468.161 128.119L468.551 128.35C467.5 127.726 466.534 126.975 465.673 126.107L465.987 126.426C465.209 125.632 464.528 124.751 463.97 123.788L464.193 124.177C463.806 123.503 463.483 122.796 463.23 122.062C463.054 121.552 462.576 121.199 462.078 121.062C461.503 120.903 461.056 121.044 460.558 121.339C460.465 121.394 460.374 121.447 460.282 121.5L460.67 121.277C459.008 122.227 457.228 122.951 455.381 123.452L455.818 123.334C453.737 123.892 451.588 124.163 449.434 124.159L449.903 124.159C447.72 124.147 445.545 123.853 443.439 123.276L443.891 123.402C441.894 122.848 439.973 122.045 438.188 120.992L438.577 121.223C437.687 120.693 436.834 120.102 436.024 119.452C435.311 118.879 434.115 118.989 433.57 119.749C433.025 120.509 433.105 121.592 433.867 122.203L433.866 122.206Z" fill="#313332"/>
<path d="M479.919 131.675C480.218 133.17 480.866 134.593 481.853 135.761C482.84 136.928 484.077 137.88 485.491 138.461C485.947 138.648 486.424 138.781 486.902 138.901C487.245 138.987 487.6 139.015 487.941 139.102L487.489 138.977C487.583 139.004 487.671 139.037 487.755 139.086L487.366 138.855C487.411 138.885 487.451 138.917 487.49 138.955L487.176 138.636C487.204 138.669 487.227 138.701 487.25 138.737L487.027 138.349C487.054 138.401 487.074 138.453 487.09 138.51L486.972 138.073C486.988 138.146 486.994 138.218 486.997 138.293L486.998 137.824C486.997 138.163 486.945 138.503 486.933 138.843C486.918 139.316 486.917 139.792 486.942 140.265C486.977 140.938 487.071 141.607 487.222 142.264C487.401 143.045 487.627 143.82 487.93 144.563C488.233 145.305 488.617 146.009 489.038 146.689C489.389 147.256 489.787 147.793 490.23 148.29C490.775 148.9 491.365 149.477 492.012 149.979C492.67 150.493 493.391 150.935 494.129 151.324C494.751 151.652 495.401 151.924 496.07 152.137C496.94 152.414 497.832 152.635 498.74 152.741C499.659 152.849 500.601 152.856 501.524 152.777C501.949 152.74 502.409 152.452 502.667 152.123C502.925 151.794 503.102 151.248 503.024 150.812C502.946 150.377 502.742 149.935 502.37 149.669C501.979 149.387 501.545 149.269 501.06 149.312C500.73 149.341 500.399 149.355 500.067 149.356L500.536 149.357C499.493 149.354 498.457 149.209 497.45 148.934L497.902 149.059C496.881 148.776 495.903 148.361 494.99 147.823L495.379 148.054C494.539 147.553 493.762 146.952 493.073 146.255L493.387 146.574C492.707 145.881 492.122 145.104 491.636 144.264L491.859 144.653C491.346 143.758 490.95 142.8 490.68 141.805L490.798 142.242C490.532 141.246 490.392 140.22 490.392 139.188L490.392 139.657C490.393 139.324 490.407 138.992 490.438 138.659C490.465 138.355 490.484 138.045 490.458 137.74C490.421 137.32 490.239 136.888 489.985 136.553C489.532 135.955 488.834 135.69 488.119 135.58C487.812 135.533 487.51 135.475 487.211 135.393L487.663 135.519C487.04 135.344 486.444 135.086 485.887 134.757L486.277 134.988C485.708 134.647 485.186 134.236 484.72 133.764L485.034 134.084C484.581 133.621 484.186 133.104 483.859 132.544L484.082 132.933C483.774 132.395 483.533 131.825 483.37 131.227L483.488 131.664C483.449 131.514 483.413 131.364 483.383 131.212C483.293 130.762 483.098 130.358 482.729 130.069C482.387 129.801 481.854 129.634 481.418 129.712C480.983 129.79 480.541 129.994 480.275 130.366C480.009 130.737 479.826 131.216 479.918 131.676L479.919 131.675Z" fill="#313332"/>
<path d="M508.726 140.608L504.636 140.571C503.291 140.559 501.937 140.583 500.595 140.478C499.844 140.418 499.095 140.309 498.366 140.111L498.818 140.237C498.18 140.06 497.567 139.811 496.997 139.474L497.387 139.705C496.947 139.443 496.54 139.133 496.18 138.771L496.493 139.09C496.201 138.792 495.945 138.462 495.735 138.101L495.958 138.489C495.788 138.187 495.651 137.869 495.559 137.534L495.676 137.972C495.608 137.711 495.569 137.445 495.568 137.176L495.567 137.645C495.569 137.445 495.594 137.251 495.645 137.057L495.52 137.509C495.566 137.348 495.629 137.198 495.713 137.053L495.482 137.443C495.674 137.126 495.939 136.869 496.2 136.611C496.448 136.366 496.685 136.111 496.908 135.844C497.434 135.219 497.871 134.534 498.274 133.824C498.612 133.229 498.894 132.601 499.107 131.951C499.363 131.176 499.567 130.372 499.652 129.558C499.817 127.988 499.636 126.388 499.044 124.921C498.488 123.542 497.594 122.321 496.483 121.34C495.875 120.802 495.165 120.354 494.429 120.013C493.694 119.672 492.87 119.442 492.061 119.358C491.606 119.311 491.135 119.419 490.766 119.697C490.425 119.956 490.131 120.418 490.092 120.853C490.052 121.287 490.134 121.788 490.431 122.147C490.727 122.507 491.12 122.773 491.586 122.822C491.919 122.857 492.248 122.92 492.57 123.008L492.118 122.883C492.651 123.034 493.161 123.255 493.639 123.536L493.249 123.305C493.777 123.619 494.259 124.002 494.692 124.439L494.379 124.119C494.843 124.592 495.243 125.122 495.575 125.696L495.352 125.308C495.674 125.872 495.925 126.472 496.096 127.099L495.978 126.661C496.153 127.316 496.233 127.99 496.235 128.668L496.236 128.199C496.234 128.995 496.12 129.785 495.911 130.552L496.037 130.1C495.794 130.981 495.429 131.823 494.966 132.61L495.197 132.22C494.85 132.804 494.451 133.355 494.004 133.867C493.776 134.126 493.531 134.369 493.287 134.613C492.933 134.967 492.648 135.355 492.427 135.808C492.143 136.391 492.095 137.006 492.101 137.64C492.107 138.143 492.238 138.642 492.402 139.113C492.546 139.531 492.768 139.912 492.993 140.289C493.152 140.555 493.338 140.802 493.545 141.032C493.842 141.362 494.159 141.682 494.507 141.96C494.854 142.238 495.234 142.464 495.618 142.69C496.191 143.026 496.8 143.273 497.439 143.452C498.361 143.71 499.279 143.882 500.234 143.951C501.048 144.009 501.866 144.016 502.681 144.023L508.252 144.073C508.489 144.115 508.718 144.095 508.939 144.015C509.164 143.975 509.366 143.881 509.546 143.734C509.887 143.474 510.181 143.012 510.221 142.578C510.26 142.143 510.178 141.643 509.882 141.284L509.568 140.964C509.319 140.77 509.039 140.652 508.726 140.608Z" fill="#313332"/>
<path d="M540.301 186.358L533.29 193.407L526.306 200.429C525.004 201.738 523.711 203.059 522.397 204.358L522.717 204.044C522.547 204.209 522.372 204.364 522.17 204.487L522.558 204.264C522.459 204.32 522.359 204.365 522.249 204.397L522.686 204.279C522.592 204.301 522.503 204.312 522.407 204.311L522.876 204.312C522.81 204.308 522.749 204.299 522.682 204.286L523.135 204.411C523.007 204.375 522.891 204.324 522.777 204.256L523.167 204.487C522.863 204.295 522.606 204.037 522.348 203.792C522.111 203.566 521.879 203.336 521.649 203.103L521.963 203.423C520.511 201.942 519.194 200.337 517.767 198.831C516.989 198.011 516.19 197.204 515.324 196.476C514.458 195.748 513.556 195.143 512.576 194.624C511.489 194.046 510.282 193.66 509.065 193.477C507.965 193.312 506.914 194.325 507.095 195.441C507.651 198.87 509.279 202 511.412 204.711C513.521 207.394 516.066 209.716 518.639 211.943C518.955 212.217 519.265 212.503 519.596 212.758C520.277 213.287 521.082 213.612 521.956 213.513C522.646 213.436 523.246 213.055 523.78 212.64C524.18 212.329 524.58 212.017 524.979 211.704C526.573 210.454 528.157 209.187 529.728 207.906C532.872 205.344 535.966 202.724 539.01 200.048C542.055 197.37 545.048 194.636 547.991 191.847C548.359 191.498 548.725 191.149 549.092 190.798C549.282 190.664 549.428 190.494 549.526 190.289C549.663 190.097 549.743 189.882 549.767 189.642C549.825 189.217 549.706 188.685 549.428 188.348C549.149 188.011 548.737 187.716 548.272 187.673C547.841 187.634 547.305 187.7 546.978 188.012C543.769 191.082 540.498 194.087 537.167 197.023C533.836 199.959 530.444 202.827 526.996 205.623C526.021 206.414 525.042 207.199 524.059 207.978C523.567 208.367 523.074 208.756 522.58 209.142C522.12 209.503 521.667 209.911 521.164 210.21L521.552 209.987C521.448 210.045 521.343 210.093 521.228 210.129L521.666 210.011C521.567 210.036 521.472 210.05 521.37 210.051L521.839 210.052C521.753 210.049 521.673 210.037 521.589 210.018L522.041 210.143C521.895 210.101 521.764 210.04 521.633 209.963L522.023 210.194C521.484 209.854 521.012 209.378 520.532 208.961C520.052 208.543 519.62 208.163 519.169 207.758C518.248 206.929 517.346 206.082 516.476 205.2L516.79 205.519C515.076 203.776 513.49 201.887 512.265 199.763L512.489 200.151C511.749 198.86 511.155 197.489 510.766 196.051L510.884 196.488C510.751 195.99 510.644 195.486 510.561 194.977L508.592 196.941C508.951 196.995 509.307 197.069 509.658 197.165L509.206 197.039C510.079 197.281 510.906 197.649 511.684 198.11L511.294 197.879C512.607 198.666 513.758 199.689 514.827 200.776L514.513 200.457C515.892 201.862 517.15 203.381 518.494 204.819C518.918 205.272 519.35 205.716 519.79 206.152C520.141 206.5 520.494 206.879 520.898 207.164C521.339 207.474 521.854 207.738 522.402 207.776C522.914 207.811 523.443 207.743 523.897 207.494C524.249 207.299 524.545 207.106 524.831 206.829C525.147 206.522 525.457 206.208 525.767 205.895L531.306 200.327L536.818 194.785L542.357 189.217L543.053 188.517C543.352 188.217 543.464 187.604 543.41 187.206C543.354 186.789 543.103 186.311 542.756 186.063C542.383 185.795 541.911 185.622 541.445 185.706L541.008 185.823C540.727 185.941 540.491 186.121 540.302 186.36L540.301 186.358Z" fill="#313332"/>
<path d="M614.502 198.07C615.474 200.14 616.471 202.199 617.496 204.243C618.522 206.288 619.562 208.301 620.634 210.308C621.706 212.316 622.804 214.31 623.928 216.29C625.12 218.39 626.337 220.476 627.583 222.544C628.756 224.494 629.957 226.428 631.181 228.347C631.336 228.591 631.492 228.833 631.648 229.076C631.943 229.534 632.52 229.75 633.038 229.752C633.603 229.753 634.043 229.518 634.416 229.099C635.8 227.539 637.095 225.899 638.291 224.192C639.562 222.377 640.724 220.482 641.784 218.537C642.782 216.706 643.677 214.819 644.464 212.887C645.247 210.964 645.922 208.998 646.485 207C647.088 204.86 647.593 202.698 647.951 200.503C648.035 199.986 648.112 199.467 648.18 198.948C648.245 198.456 648.322 197.96 648.339 197.462C648.365 196.734 648.337 196.003 648.028 195.326C647.845 194.923 647.622 194.608 647.318 194.3C647.015 193.991 646.729 193.8 646.349 193.599C646.048 193.44 645.7 193.357 645.373 193.283C645.028 193.205 644.664 193.214 644.312 193.222C644.104 193.227 643.899 193.255 643.695 193.305C643.345 193.393 643.002 193.484 642.677 193.644C642.12 193.921 641.607 194.262 641.152 194.686C640.696 195.109 640.257 195.575 639.837 196.046C638.442 197.61 637.158 199.273 635.995 201.017C634.76 202.867 633.643 204.804 632.671 206.806C631.76 208.682 630.978 210.621 630.336 212.606C630.177 213.097 630.026 213.591 629.884 214.088C629.779 214.308 629.739 214.538 629.758 214.774C629.737 215.007 629.775 215.231 629.875 215.447C630.036 215.835 630.401 216.234 630.801 216.384C631.23 216.545 631.731 216.592 632.159 216.392C632.541 216.214 632.975 215.891 633.096 215.467C633.929 212.564 635.054 209.747 636.446 207.068C636.84 206.31 637.256 205.563 637.691 204.828L637.461 205.218C638.78 202.998 640.285 200.888 641.962 198.924C642.425 198.38 642.895 197.837 643.403 197.332L643.083 197.646C643.427 197.31 643.793 197 644.21 196.757L643.821 196.98C644.053 196.85 644.294 196.741 644.55 196.667L644.113 196.785C644.346 196.723 644.582 196.69 644.823 196.689L644.354 196.688C644.577 196.691 644.796 196.718 645.011 196.776L644.559 196.651C644.739 196.702 644.908 196.774 645.069 196.869L644.68 196.638C644.797 196.711 644.904 196.794 645.004 196.891L644.69 196.572C644.791 196.677 644.876 196.789 644.949 196.913L644.726 196.525C644.801 196.663 644.858 196.805 644.901 196.954L644.784 196.517C644.851 196.772 644.875 197.032 644.876 197.295L644.876 196.826C644.872 197.397 644.783 197.967 644.708 198.532C644.627 199.129 644.537 199.726 644.437 200.32C644.238 201.5 644.001 202.672 643.725 203.836C643.568 204.499 643.398 205.16 643.216 205.817L643.341 205.365C642.316 209.062 640.911 212.651 639.153 216.06C638.655 217.027 638.127 217.978 637.573 218.913L637.804 218.524C636.422 220.853 634.872 223.081 633.162 225.182C632.676 225.78 632.176 226.366 631.664 226.943L634.432 226.965C632.595 224.106 630.812 221.212 629.087 218.284C628.598 217.455 628.114 216.624 627.636 215.791L627.859 216.179C626.437 213.704 625.056 211.208 623.715 208.689C622.375 206.171 621.075 203.63 619.816 201.069C619.109 199.63 618.416 198.185 617.735 196.733C617.543 196.323 617.232 195.976 616.81 195.796C616.411 195.625 615.852 195.601 615.451 195.787C615.051 195.974 614.675 196.286 614.514 196.713C614.353 197.14 614.306 197.644 614.506 198.072L614.502 198.07Z" fill="#313332"/>
<path d="M633.246 212.73C632.962 211.498 632.546 210.317 632.043 209.159C631.57 208.069 631.062 206.997 630.566 205.918C629.543 203.692 628.52 201.465 627.497 199.238L625.775 195.489C625.587 195.08 625.268 194.732 624.849 194.552C624.43 194.372 623.891 194.357 623.491 194.544C623.09 194.73 622.714 195.042 622.554 195.469C622.393 195.896 622.348 196.397 622.545 196.828C623.535 198.984 624.526 201.14 625.517 203.297C626.499 205.435 627.49 207.571 628.464 209.713C628.973 210.835 629.457 211.972 629.781 213.164L629.663 212.727C629.705 212.882 629.744 213.038 629.781 213.195C629.803 213.427 629.88 213.638 630.009 213.826C630.106 214.031 630.247 214.202 630.434 214.338C630.776 214.606 631.31 214.773 631.745 214.695C632.18 214.617 632.622 214.413 632.888 214.042C633.155 213.67 633.351 213.183 633.246 212.731L633.246 212.73Z" fill="#313332"/>
<path d="M632.957 134.083C637.488 131.578 641.483 128.207 644.687 124.134C647.878 120.077 650.215 115.418 651.582 110.445C652.017 108.862 652.428 107.169 652.007 105.535C651.757 104.568 651.359 103.741 650.857 102.879C650.495 102.258 650.092 101.662 649.734 101.039L649.957 101.427C649.297 100.265 648.777 99.0272 648.428 97.735L648.546 98.1722C648.286 97.1887 648.13 96.1805 648.125 95.1612L648.125 95.6304C648.126 94.8885 648.21 94.1531 648.402 93.4359L648.276 93.8881C648.438 93.308 648.667 92.7547 648.973 92.2356L648.742 92.6251C649.009 92.1842 649.324 91.7815 649.687 91.416L649.368 91.7299C649.759 91.3459 650.194 91.0172 650.667 90.7398L650.279 90.963C650.868 90.6262 651.497 90.3772 652.152 90.1987L651.715 90.3164C652.618 90.079 653.547 89.9803 654.479 89.981L654.01 89.9802C655.147 89.989 656.275 90.1457 657.372 90.4489L656.92 90.3234C658.072 90.6482 659.175 91.1227 660.205 91.7331L659.816 91.5021C660.748 92.0615 661.612 92.7256 662.379 93.4987L662.065 93.1793C662.707 93.8341 663.27 94.5581 663.73 95.3526L663.506 94.9645C663.881 95.6263 664.178 96.3268 664.378 97.061L664.26 96.6238C664.438 97.2998 664.532 97.9913 664.536 98.6905L664.536 98.2213C664.534 98.9443 664.437 99.6591 664.249 100.358L664.374 99.9057C664.161 100.671 663.843 101.397 663.439 102.081L663.67 101.691C663.201 102.467 662.632 103.172 661.986 103.807L662.305 103.493C661.527 104.25 660.653 104.898 659.715 105.443L660.104 105.22C659.039 105.829 657.904 106.302 656.721 106.625L657.158 106.508C656.81 106.601 656.46 106.681 656.106 106.749C655.382 106.887 654.667 107.457 654.606 108.245C654.432 110.478 654.04 112.688 653.446 114.848L653.572 114.396C652.688 117.583 651.373 120.64 649.69 123.487L649.921 123.097C648.243 125.92 646.209 128.522 643.871 130.827L644.19 130.513C641.983 132.678 639.515 134.569 636.834 136.111L637.222 135.888C636.366 136.378 635.49 136.832 634.594 137.249C633.766 137.634 633.238 138.652 633.649 139.533C634.035 140.361 635.046 140.891 635.933 140.478C640.784 138.221 645.082 134.915 648.596 130.888C651.998 126.991 654.66 122.372 656.277 117.456C657.208 114.623 657.838 111.692 658.07 108.718L656.57 110.213C660.554 109.456 664.435 107.196 666.538 103.651C667.613 101.838 668.127 99.8045 667.984 97.696C667.855 95.7941 667.085 93.9572 665.988 92.4144C663.792 89.3226 660.148 87.2627 656.432 86.6727C654.344 86.3409 652.138 86.4575 650.141 87.1768C648.144 87.896 646.32 89.494 645.414 91.5213C644.562 93.43 644.478 95.6509 644.862 97.6819C645.274 99.8614 646.142 101.873 647.308 103.75C647.58 104.188 647.858 104.621 648.115 105.068L647.892 104.68C648.209 105.237 648.485 105.814 648.658 106.434L648.54 105.997C648.648 106.417 648.7 106.84 648.701 107.274L648.702 106.805C648.686 107.882 648.402 108.937 648.117 109.97L648.242 109.517C647.38 112.618 646.097 115.589 644.456 118.357L644.687 117.967C643.038 120.731 641.04 123.278 638.746 125.537L639.065 125.223C636.885 127.359 634.449 129.224 631.805 130.752L632.193 130.528C632.003 130.638 631.81 130.745 631.618 130.852C631.205 131.08 630.873 131.328 630.681 131.778C630.51 132.176 630.486 132.735 630.673 133.136C630.859 133.537 631.171 133.912 631.598 134.073C632.025 134.234 632.553 134.304 632.957 134.082L632.957 134.083Z" fill="#313332"/>
<path d="M539.932 104.869C540.879 105.136 541.809 105.317 542.794 105.37C543.778 105.424 544.77 105.402 545.757 105.378C546.172 105.368 546.586 105.357 547.002 105.353C547.035 105.352 547.29 105.336 547.296 105.351L547.062 105.35C547.14 105.35 547.219 105.352 547.296 105.353C547.529 105.356 547.759 105.363 547.992 105.375C548.37 105.395 548.749 105.428 549.125 105.482C549.347 105.514 549.567 105.553 549.785 105.602C549.857 105.618 549.93 105.636 550.001 105.653C550.189 105.702 550.145 105.689 549.87 105.616C549.941 105.637 550.011 105.659 550.081 105.682C550.435 105.8 550.767 105.956 551.1 106.122C550.77 105.897 551.455 106.299 551.1 106.122C551.164 106.165 551.228 106.206 551.291 106.25C551.464 106.372 551.628 106.502 551.787 106.643C551.846 106.696 551.904 106.751 551.962 106.805C552.223 107.044 551.684 106.489 551.913 106.758C552.016 106.878 552.12 106.994 552.217 107.118C552.314 107.242 552.405 107.37 552.491 107.5C552.544 107.579 552.592 107.659 552.643 107.739C552.824 108.024 552.467 107.398 552.608 107.68C552.766 107.994 552.916 108.309 553.041 108.638C553.099 108.789 553.153 108.942 553.202 109.096C553.233 109.19 553.261 109.283 553.288 109.377C553.327 109.512 553.342 109.809 553.275 109.32C553.324 109.68 553.441 110.038 553.504 110.397C553.568 110.765 553.618 111.134 553.659 111.505C553.823 112.973 553.805 114.448 553.898 115.92C553.995 117.469 554.235 118.999 554.713 120.478C555.207 122.006 556.072 123.428 557.304 124.472C558.648 125.609 560.418 126.155 562.159 126.187C563.9 126.22 565.567 125.92 567.274 125.706C567.682 125.655 568.093 125.61 568.504 125.581C568.689 125.569 568.874 125.558 569.06 125.553C569.162 125.549 569.291 125.567 569.391 125.546L569.143 125.546C569.216 125.547 569.289 125.549 569.362 125.552C569.761 125.566 570.16 125.605 570.554 125.676C570.723 125.706 570.918 125.792 571.086 125.794C570.751 125.791 570.796 125.706 570.971 125.766C571.067 125.799 571.163 125.83 571.259 125.864C571.536 125.967 571.807 126.086 572.069 126.225C572.131 126.257 572.191 126.291 572.252 126.324C572.541 126.48 571.874 126.081 572.146 126.262C572.283 126.353 572.422 126.442 572.554 126.539C572.776 126.7 572.987 126.874 573.19 127.057C573.251 127.112 573.312 127.168 573.371 127.225C573.415 127.268 573.614 127.473 573.39 127.24C573.165 127.006 573.364 127.215 573.406 127.259C573.482 127.34 573.557 127.422 573.63 127.506C574.033 127.965 574.396 128.458 574.733 128.969C574.902 129.226 575.064 129.487 575.222 129.751C575.288 129.861 575.556 130.354 575.268 129.826C575.354 129.983 575.445 130.139 575.532 130.297C576.868 132.729 577.975 135.36 579.781 137.497C582.196 140.356 585.724 141.889 589.46 141.735C591.287 141.659 593.011 140.992 594.718 140.391C595.085 140.261 595.454 140.135 595.826 140.023C595.88 140.006 596.109 139.904 596.159 139.925C596.148 139.92 595.737 140.029 596.055 139.954C596.277 139.902 596.5 139.849 596.724 139.808C596.949 139.767 597.172 139.735 597.398 139.714C597.542 139.701 597.847 139.75 597.963 139.684C597.775 139.79 597.617 139.676 597.893 139.692C597.989 139.697 598.084 139.704 598.179 139.714C598.426 139.74 598.666 139.788 598.909 139.838C599.331 139.924 598.528 139.708 598.939 139.842C599.038 139.874 599.138 139.904 599.236 139.938C599.455 140.011 599.669 140.094 599.882 140.179C600.312 140.352 600.735 140.542 601.159 140.726C602.06 141.116 603.003 141.496 603.979 141.648C605.582 141.898 607.487 141.529 608.715 140.414C609.454 139.743 609.949 138.9 610.073 137.898C610.186 136.991 609.528 136.016 608.579 135.929C607.63 135.843 606.731 136.451 606.61 137.424C606.598 137.507 606.569 137.602 606.567 137.684C606.578 137.278 606.689 137.339 606.605 137.516C606.576 137.578 606.549 137.644 606.521 137.707C606.395 138 606.785 137.354 606.582 137.6C606.547 137.642 606.517 137.689 606.482 137.731C606.358 137.881 606.221 137.888 606.572 137.658C606.432 137.75 606.304 137.871 606.166 137.968C605.95 138.119 606.308 137.88 606.327 137.875C606.25 137.894 606.16 137.959 606.087 137.991C605.949 138.052 605.806 138.098 605.664 138.148C605.336 138.262 606.088 138.063 605.745 138.124C605.683 138.134 605.623 138.15 605.562 138.16C605.377 138.194 605.192 138.215 605.005 138.227C604.85 138.237 604.578 138.182 605.1 138.237C605.023 138.229 604.944 138.232 604.867 138.227C604.698 138.216 604.53 138.196 604.365 138.168C604.305 138.157 604.245 138.146 604.187 138.133L604.099 138.113C603.907 138.063 603.937 138.072 604.188 138.139C603.997 138.016 603.685 137.976 603.473 137.895C602.647 137.582 601.854 137.187 601.028 136.871C600.086 136.512 599.096 136.237 598.083 136.217C597.152 136.199 596.267 136.306 595.368 136.544C594.469 136.782 593.517 137.109 592.603 137.436C592.233 137.568 591.864 137.698 591.49 137.817C591.304 137.877 591.118 137.932 590.93 137.988C590.536 138.103 591.317 137.897 590.917 137.989C590.804 138.016 590.691 138.043 590.577 138.068C590.167 138.155 589.753 138.215 589.336 138.247C589.147 138.261 588.957 138.267 588.768 138.274C588.445 138.285 588.877 138.259 588.895 138.275C588.836 138.227 588.523 138.261 588.44 138.256C588.061 138.231 587.684 138.187 587.31 138.119C587.122 138.085 586.936 138.047 586.751 138.002C586.638 137.975 586.276 137.844 586.762 138.012C586.654 137.975 586.542 137.948 586.434 137.913C586.055 137.791 585.682 137.647 585.32 137.481C585.129 137.393 584.942 137.301 584.758 137.203C584.691 137.166 584.625 137.129 584.559 137.093C584.395 136.999 584.427 137.017 584.654 137.151C584.589 137.111 584.525 137.071 584.462 137.029C584.143 136.823 583.836 136.599 583.544 136.356C583.398 136.235 583.255 136.11 583.116 135.979C583.047 135.913 582.98 135.842 582.908 135.778C583.303 136.128 583.064 135.938 582.975 135.843C582.527 135.368 582.123 134.853 581.75 134.316C581.578 134.069 581.413 133.817 581.253 133.561C581.172 133.432 581.093 133.303 581.014 133.173C580.936 133.043 580.631 132.479 580.913 133.007C580.289 131.846 579.68 130.678 579.061 129.515C577.728 127.009 576.223 124.598 573.698 123.152C570.717 121.445 567.331 122.234 564.127 122.606C563.761 122.649 563.395 122.683 563.028 122.705C562.828 122.716 562.63 122.72 562.432 122.726C562.179 122.732 562.899 122.742 562.525 122.724C562.401 122.718 562.277 122.715 562.153 122.707C561.786 122.683 561.42 122.635 561.059 122.556C561.008 122.545 560.671 122.449 560.98 122.543C561.288 122.637 560.951 122.531 560.903 122.515C560.702 122.449 560.503 122.371 560.311 122.281C560.212 122.236 560.118 122.184 560.02 122.136C559.902 122.079 559.793 121.95 560.148 122.217C560.022 122.123 559.881 122.047 559.753 121.954C559.616 121.853 559.483 121.745 559.355 121.631C559.3 121.581 559.246 121.518 559.186 121.474C559.572 121.747 559.33 121.626 559.213 121.494C558.999 121.254 558.804 120.996 558.629 120.725C558.595 120.673 558.565 120.62 558.531 120.568C558.342 120.274 558.727 120.944 558.569 120.632C558.484 120.464 558.397 120.298 558.319 120.126C558.188 119.835 558.073 119.537 557.972 119.234C557.916 119.064 557.866 118.894 557.815 118.722C557.748 118.494 557.925 119.169 557.845 118.827C557.817 118.716 557.789 118.604 557.765 118.491C557.608 117.789 557.504 117.077 557.434 116.361C557.293 114.933 557.316 113.495 557.215 112.064C556.996 108.972 556.206 105.59 553.603 103.617C552.123 102.495 550.293 102.01 548.461 101.913C547.525 101.864 546.583 101.883 545.645 101.905C545.209 101.916 544.772 101.928 544.335 101.933C544.256 101.934 544.176 101.934 544.097 101.934C543.676 101.938 544.511 101.943 544.091 101.933C543.854 101.928 543.618 101.924 543.382 101.913C542.992 101.895 542.602 101.862 542.215 101.812C542.024 101.786 541.832 101.756 541.642 101.719C541.529 101.698 541.415 101.674 541.303 101.648C541.199 101.624 540.803 101.515 541.307 101.657C540.835 101.524 540.423 101.452 539.949 101.648C539.561 101.809 539.162 102.175 539.012 102.574C538.714 103.365 538.989 104.605 539.93 104.87L539.932 104.869Z" fill="#313332"/>
<path d="M605.211 132.042C604.455 133.817 604.907 135.847 606.035 137.355C606.312 137.725 606.641 138.062 606.984 138.369C607.356 138.701 607.785 138.953 608.219 139.197C609.031 139.656 609.96 139.919 610.872 140.095C611.784 140.27 612.686 140.315 613.598 140.326C613.836 140.368 614.065 140.348 614.286 140.268C614.51 140.228 614.713 140.134 614.893 139.987C615.234 139.728 615.528 139.266 615.567 138.831C615.607 138.397 615.525 137.896 615.228 137.537C614.954 137.205 614.525 136.868 614.073 136.862C612.922 136.848 611.763 136.774 610.649 136.469L611.101 136.594C610.545 136.438 610.009 136.225 609.509 135.934L609.899 136.165C609.543 135.954 609.217 135.704 608.926 135.41L609.239 135.73C608.96 135.443 608.716 135.125 608.515 134.778L608.738 135.166C608.557 134.848 608.414 134.511 608.316 134.158L608.434 134.595C608.353 134.289 608.309 133.977 608.31 133.661L608.309 134.13C608.313 133.869 608.347 133.614 608.415 133.362L608.289 133.814C608.326 133.681 608.372 133.549 608.428 133.422C608.606 133.004 608.61 132.483 608.436 132.063C608.275 131.675 607.91 131.276 607.51 131.126C607.081 130.965 606.58 130.917 606.152 131.117C605.723 131.317 605.397 131.616 605.215 132.043L605.211 132.042Z" fill="#313332"/>
<path d="M794.23 178.764C797.669 178.764 800.457 175.976 800.457 172.537C800.457 169.099 797.669 166.311 794.23 166.311C790.792 166.311 788.004 169.099 788.004 172.537C788.004 175.976 790.792 178.764 794.23 178.764Z" stroke="#FBC587" stroke-width="7.17359" stroke-miterlimit="10"/>
<path d="M745.141 192.673C748.579 192.673 751.367 189.885 751.367 186.446C751.367 183.007 748.579 180.22 745.141 180.22C741.702 180.22 738.914 183.007 738.914 186.446C738.914 189.885 741.702 192.673 745.141 192.673Z" stroke="#FBC587" stroke-width="7.17359" stroke-miterlimit="10"/>
<path d="M713.23 180.4C716.669 180.4 719.457 177.612 719.457 174.174C719.457 170.735 716.669 167.947 713.23 167.947C709.792 167.947 707.004 170.735 707.004 174.174C707.004 177.612 709.792 180.4 713.23 180.4Z" stroke="#FBC587" stroke-width="7.17359" stroke-miterlimit="10"/>
<path d="M953.777 222.127C957.216 222.127 960.004 219.34 960.004 215.901C960.004 212.462 957.216 209.674 953.777 209.674C950.338 209.674 947.551 212.462 947.551 215.901C947.551 219.34 950.338 222.127 953.777 222.127Z" stroke="#FBC587" stroke-width="7.17359" stroke-miterlimit="10"/>
<path d="M871.961 168.128C875.4 168.128 878.187 165.34 878.187 161.901C878.187 158.462 875.4 155.675 871.961 155.675C868.522 155.675 865.734 158.462 865.734 161.901C865.734 165.34 868.522 168.128 871.961 168.128Z" stroke="#FBC587" stroke-width="7.17359" stroke-miterlimit="10"/>
<path d="M815.504 205.763C818.943 205.763 821.73 202.976 821.73 199.537C821.73 196.098 818.943 193.311 815.504 193.311C812.065 193.311 809.277 196.098 809.277 199.537C809.277 202.976 812.065 205.763 815.504 205.763Z" stroke="#FBC587" stroke-width="7.17359" stroke-miterlimit="10"/>
<path d="M1160.77 155.855C1164.21 155.855 1167 153.068 1167 149.629C1167 146.19 1164.21 143.402 1160.77 143.402C1157.33 143.402 1154.55 146.19 1154.55 149.629C1154.55 153.068 1157.33 155.855 1160.77 155.855Z" stroke="#FBC587" stroke-width="7.17359" stroke-miterlimit="10"/>
<path d="M1042.96 212.309C1046.4 212.309 1049.18 209.521 1049.18 206.082C1049.18 202.644 1046.4 199.856 1042.96 199.856C1039.52 199.856 1036.73 202.644 1036.73 206.082C1036.73 209.521 1039.52 212.309 1042.96 212.309Z" stroke="#FBC587" stroke-width="7.17359" stroke-miterlimit="10"/>
<path d="M972.594 191.036C976.032 191.036 978.82 188.249 978.82 184.81C978.82 181.371 976.032 178.583 972.594 178.583C969.155 178.583 966.367 181.371 966.367 184.81C966.367 188.249 969.155 191.036 972.594 191.036Z" stroke="#FBC587" stroke-width="7.17359" stroke-miterlimit="10"/>
</svg>
