<svg width="640" height="435" viewBox="0 0 640 435" fill="none" xmlns="http://www.w3.org/2000/svg">
<path d="M374.087 128.06L357.303 166.507C355.253 165.068 353.442 163.35 351.977 161.394C351.647 160.953 351.32 160.461 351.354 159.924C351.381 159.468 351.665 159.061 351.941 158.677C353.519 156.483 355.099 154.288 356.676 152.093C351.976 148.486 347.275 144.879 342.574 141.27C338.761 145.695 334.948 150.12 331.135 154.544C330.652 155.106 330.141 155.744 330.205 156.454C330.265 157.12 330.815 157.648 331.335 158.116C333.593 160.155 335.854 162.194 338.113 164.232C339.098 165.121 340.178 166.054 341.549 166.246C342.92 166.44 344.561 165.465 344.373 164.209C345.506 166.238 346.901 168.13 348.509 169.857L308.996 175.333L304.697 170.365C304.787 170.14 304.873 169.915 304.956 169.69C306.952 164.285 307.659 158.576 308.553 152.937C308.693 152.055 308.862 151.121 309.496 150.439C310.075 149.817 310.948 149.506 311.717 149.091C314.498 147.597 316.041 144.503 315.79 141.574C315.538 138.644 313.644 135.952 311.04 134.246C307.701 132.061 303.105 131.466 299.306 132.953C295.505 134.439 292.727 138.053 292.754 141.821C292.783 145.591 295.785 149.222 299.799 150.041C300.369 150.158 300.997 150.243 301.39 150.636C301.819 151.063 301.825 151.711 301.788 152.292C301.538 156.079 300.378 159.8 298.489 163.186L279.451 141.176L297.226 100.46L344.543 93.9019L374.087 128.06Z" fill="#FCE891"/>
<path d="M540.279 126.544L386.027 114.679L371.832 255.862L526.084 267.727L540.279 126.544Z" fill="#FBA036"/>
<path d="M226.647 307.998C276.952 301.026 311.876 258.119 304.652 212.162C297.428 166.205 250.791 134.601 200.487 141.573C150.182 148.545 115.259 191.452 122.483 237.409C129.707 283.366 176.343 314.97 226.647 307.998Z" fill="#68C8BF"/>
<path d="M190.372 184.913L190.374 184.926C190.482 186.102 190.29 187.317 189.831 188.521L189.829 188.521C188.708 191.473 185.99 194.356 182.2 196.435C181.774 196.668 181.333 196.894 180.878 197.106C180.303 197.377 179.708 197.628 179.094 197.86C170.86 200.96 162.317 199.256 160.011 194.05C157.705 188.843 162.508 182.11 170.743 179.007C173.159 178.096 175.605 177.6 177.909 177.484C178.38 177.462 178.844 177.454 179.302 177.463C184.236 177.55 188.334 179.451 189.826 182.817C190.126 183.493 190.306 184.195 190.373 184.911L190.372 184.913Z" fill="#E1F4F2"/>
<path d="M245.427 171.347C245.432 171.408 245.433 171.468 245.436 171.527C245.605 175.34 242.443 178.861 237.604 180.883C236.892 181.181 236.141 181.445 235.361 181.674C233.732 182.153 231.964 182.472 230.11 182.596C221.249 183.19 213.741 179.119 213.34 173.5C212.936 167.883 219.793 162.848 228.654 162.252C229.926 162.166 231.169 162.178 232.368 162.276C233.208 162.344 234.024 162.454 234.811 162.605C238.748 163.354 241.996 165.082 243.825 167.4C244.759 168.58 245.325 169.913 245.427 171.347Z" fill="#E1F4F2"/>
<path d="M190.376 184.914L190.378 184.927C190.439 186.109 190.251 187.318 189.835 188.522L189.833 188.522C188.712 191.474 185.994 194.357 182.205 196.436C181.778 196.669 181.337 196.895 180.883 197.107L177.911 177.486C178.383 177.463 178.846 177.455 179.304 177.464C184.238 177.551 188.336 179.452 189.829 182.818C190.128 183.494 190.308 184.196 190.376 184.912L190.376 184.914Z" fill="#313332"/>
<path d="M245.44 171.528C245.608 175.34 242.446 178.862 237.607 180.884C236.895 181.182 236.144 181.446 235.364 181.675L232.369 162.279C233.21 162.346 234.026 162.457 234.813 162.608C238.75 163.356 241.998 165.084 243.826 167.402C244.726 168.661 245.286 170.05 245.438 171.53L245.44 171.528Z" fill="#313332"/>
<path d="M199.853 199.036C201.524 199.603 203.277 200.032 205.049 200.245C205.835 200.338 206.627 200.384 207.42 200.376C208.417 200.366 209.406 200.325 210.39 200.161C211.938 199.902 213.478 199.44 214.84 198.704C215.569 198.309 216.278 197.896 216.925 197.391C217.571 196.885 218.136 196.35 218.655 195.765C219.815 194.456 220.576 192.896 220.917 191.251C221.024 190.734 220.786 190.081 220.436 189.682C220.087 189.284 219.487 188.954 218.929 188.917C218.328 188.877 217.679 188.992 217.21 189.368C216.741 189.745 216.478 190.194 216.361 190.753C216.327 190.919 216.286 191.085 216.241 191.248L216.392 190.721C216.209 191.354 215.938 191.961 215.588 192.535L215.878 192.065C215.47 192.727 214.966 193.334 214.391 193.882L214.801 193.493C214.148 194.107 213.413 194.639 212.616 195.084L213.125 194.8C212.272 195.272 211.359 195.64 210.402 195.896L210.995 195.737C209.841 196.039 208.65 196.19 207.453 196.211L208.069 196.202C206.475 196.225 204.892 196.025 203.352 195.669L203.927 195.803C203.133 195.618 202.353 195.392 201.585 195.132C201.019 194.941 200.36 194.938 199.8 195.166C199.294 195.372 198.781 195.823 198.592 196.308C198.389 196.828 198.342 197.432 198.615 197.94C198.889 198.448 199.288 198.844 199.854 199.035L199.853 199.036Z" fill="#313332"/>
<path d="M150.547 223.73C155.992 222.975 159.772 218.331 158.99 213.356C158.208 208.381 153.16 204.96 147.715 205.715C142.27 206.47 138.489 211.114 139.271 216.089C140.053 221.063 145.101 224.484 150.547 223.73Z" fill="#95D9D2"/>
<path d="M271.836 188.328C277.281 187.574 281.061 182.929 280.279 177.955C279.497 172.98 274.449 169.559 269.004 170.314C263.559 171.068 259.778 175.713 260.56 180.687C261.342 185.662 266.39 189.083 271.836 188.328Z" fill="#95D9D2"/>
<path d="M132.53 233.323C129.281 233.69 126.081 234.336 122.961 235.258C119.866 236.172 116.942 237.434 114.184 239.016C111.65 240.47 109.393 242.255 107.412 244.305C105.54 246.243 103.986 248.462 102.836 250.82C101.687 253.179 100.963 255.735 100.802 258.297C100.784 258.595 100.764 258.894 100.689 259.186L100.84 258.658C100.799 258.8 100.747 258.932 100.672 259.062L100.961 258.592C100.903 258.682 100.838 258.763 100.762 258.84L101.172 258.451C101.082 258.532 100.989 258.597 100.882 258.657L101.391 258.373C101.217 258.462 101.033 258.524 100.841 258.576L101.434 258.418C100.182 258.735 98.9379 259.005 97.7572 259.521C96.5765 260.037 95.5046 260.654 94.5234 261.395C92.5843 262.858 90.9958 264.778 90.0932 266.926C88.2714 271.262 89.0332 276.483 92.2719 280.066C95.3436 283.465 100.468 285.205 105.249 284.47C110.146 283.719 114.208 280.38 116.054 276.218C117.07 273.932 117.372 271.422 117.083 268.985C116.931 267.702 116.581 266.437 116.118 265.221C115.656 264.005 115.001 262.871 114.259 261.772C113.942 261.304 113.604 260.848 113.292 260.378L113.599 260.842C113.267 260.335 112.969 259.809 112.782 259.24L112.95 259.781C112.846 259.446 112.787 259.106 112.778 258.756L112.783 259.32C112.781 258.825 112.876 258.342 113.011 257.864L112.86 258.391C113.255 257.054 113.863 255.764 114.605 254.557L114.315 255.027C115.164 253.656 116.204 252.392 117.396 251.254L116.986 251.643C118.278 250.417 119.738 249.346 121.327 248.459L120.817 248.743C122.386 247.872 124.069 247.183 125.828 246.71L125.235 246.869C126.865 246.435 128.549 246.192 130.244 246.16L129.628 246.169C129.672 246.169 129.717 246.168 129.762 246.168C130.077 246.213 130.382 246.182 130.674 246.08C130.975 246.025 131.244 245.904 131.481 245.716C131.912 245.399 132.285 244.842 132.33 244.331C132.378 243.781 132.257 243.188 131.849 242.763C131.486 242.383 130.921 241.99 130.342 241.997C129.106 242.011 127.886 242.072 126.666 242.269C125.446 242.466 124.304 242.757 123.162 243.112C121.029 243.776 119.015 244.773 117.179 245.968C113.535 248.342 110.563 251.765 109.032 255.616C108.747 256.333 108.501 257.075 108.337 257.822C108.265 258.153 108.226 258.485 108.226 258.821C108.224 259.312 108.23 259.791 108.362 260.268C108.582 261.055 108.877 261.758 109.327 262.454C109.777 263.15 110.282 263.835 110.747 264.534L110.44 264.07C111.201 265.228 111.793 266.471 112.199 267.773L112.03 267.232C112.399 268.437 112.603 269.677 112.624 270.93L112.619 270.367C112.629 271.508 112.486 272.647 112.173 273.754L112.324 273.226C112.039 274.205 111.62 275.144 111.081 276.029L111.371 275.559C110.816 276.459 110.142 277.292 109.358 278.039L109.768 277.65C109.047 278.328 108.245 278.925 107.366 279.42L107.875 279.136C107.054 279.593 106.176 279.955 105.256 280.207L105.848 280.049C104.894 280.303 103.91 280.433 102.919 280.451L103.535 280.441C102.497 280.454 101.463 280.34 100.458 280.111L101.033 280.245C100.005 280.006 99.0166 279.648 98.0895 279.176L98.6012 279.438C97.7573 279.003 96.9767 278.479 96.2767 277.868L96.6989 278.239C96.0137 277.632 95.4215 276.948 94.9265 276.202L95.2332 276.666C94.6969 275.845 94.286 274.964 93.9976 274.045L94.1662 274.586C93.8639 273.598 93.7039 272.581 93.6895 271.553L93.6945 272.117C93.6863 271.09 93.821 270.065 94.1057 269.07L93.9548 269.597C94.2145 268.708 94.5929 267.855 95.0871 267.05L94.7972 267.52C95.3202 266.681 95.9558 265.908 96.6852 265.21L96.2757 265.599C97.0616 264.857 97.9445 264.21 98.9059 263.668L98.3964 263.952C99.3815 263.404 100.438 262.973 101.543 262.675L100.95 262.834C101.998 262.559 103.118 262.444 103.977 261.762C104.934 261.003 105.29 259.937 105.359 258.82C105.437 257.546 105.657 256.285 106.007 255.048L105.856 255.576C106.37 253.789 107.15 252.074 108.141 250.463L107.852 250.933C108.961 249.14 110.326 247.487 111.885 245.999L111.475 246.388C113.224 244.73 115.208 243.304 117.353 242.101L116.844 242.385C119.69 240.797 122.782 239.613 125.975 238.759L125.382 238.918C127.935 238.24 130.546 237.771 133.181 237.472C133.756 237.407 134.349 237.063 134.693 236.642C135.037 236.221 135.234 235.595 135.127 235.081C135.02 234.567 134.735 234.018 134.231 233.704C133.727 233.391 133.151 233.249 132.528 233.319L132.53 233.323Z" fill="#313332"/>
<path d="M183.519 295.342C183.082 298.998 182.418 302.633 181.526 306.224C181.272 307.242 181.002 308.257 180.713 309.267L180.864 308.74C180.491 310.04 180.089 311.335 179.658 312.621C179.283 313.735 178.879 314.848 178.258 315.87L178.548 315.4C178.222 315.927 177.84 316.42 177.383 316.86L177.792 316.471C177.377 316.862 176.911 317.198 176.403 317.482L176.912 317.198C176.328 317.518 175.703 317.759 175.052 317.937L175.644 317.778C174.68 318.035 173.682 318.147 172.681 318.164L173.298 318.155C171.676 318.173 170.083 317.935 168.519 317.571L169.095 317.704C166.323 317.055 163.607 316.123 160.75 315.812C159.814 315.709 158.876 315.702 157.934 315.737L157.341 315.895C157.056 316 156.818 316.16 156.627 316.373C156.47 316.49 156.355 316.631 156.278 316.802C156.108 317.031 156.01 317.285 155.983 317.564C155.143 320.615 154.506 323.712 154.081 326.832C153.658 329.939 153.442 333.067 153.437 336.194C153.434 338.126 153.488 340.058 153.629 341.986C153.677 342.658 154.325 343.43 155.036 343.623C155.935 343.866 156.795 343.979 157.736 343.86C158.183 343.803 158.629 343.675 159.052 343.543C159.325 343.458 159.588 343.347 159.839 343.22C161.218 342.518 162.338 341.557 163.329 340.438C164.187 339.469 164.883 338.395 165.611 337.345C166.423 336.175 167.236 335.004 168.048 333.834L169.436 331.832C169.839 331.252 170.21 330.618 170.73 330.116L170.32 330.505C170.455 330.38 170.601 330.269 170.762 330.173L170.252 330.458C170.413 330.369 170.578 330.302 170.757 330.252L170.165 330.41C170.433 330.343 170.702 330.315 170.979 330.31L170.362 330.319C171.121 330.317 171.883 330.43 172.634 330.502C173.386 330.575 174.115 330.644 174.858 330.699C176.518 330.822 178.199 330.868 179.864 330.742C181.435 330.623 183.035 330.296 184.477 329.695C186.076 329.028 187.461 328.024 188.566 326.775C189.549 325.666 190.281 324.349 190.855 323.028C191.43 321.707 191.82 320.467 192.235 319.169C193.221 316.093 194.089 312.985 194.829 309.852C195.536 306.859 196.123 303.843 196.589 300.812C196.647 300.435 196.703 300.058 196.758 299.68C196.836 299.14 196.646 298.534 196.278 298.111C195.934 297.719 195.329 297.383 194.77 297.346C194.169 297.306 193.52 297.421 193.051 297.798C192.582 298.174 192.282 298.628 192.202 299.183C191.618 303.245 190.819 307.284 189.803 311.279C189.517 312.405 189.212 313.529 188.893 314.648L189.044 314.121C188.661 315.457 188.255 316.786 187.825 318.109C187.449 319.262 187.069 320.418 186.577 321.537C186.308 322.149 186.006 322.748 185.654 323.325L185.944 322.854C185.501 323.572 184.979 324.245 184.355 324.841L184.764 324.452C184.254 324.93 183.683 325.346 183.06 325.694L183.569 325.41C182.845 325.807 182.067 326.106 181.259 326.321L181.852 326.163C180.589 326.492 179.28 326.618 177.974 326.642L178.591 326.633C177.075 326.656 175.563 326.546 174.058 326.407C173.325 326.339 172.595 326.263 171.864 326.195C171.272 326.138 170.676 326.12 170.081 326.163C169.889 326.177 169.702 326.209 169.516 326.254C169.151 326.344 168.78 326.427 168.45 326.601C167.814 326.938 167.339 327.296 166.867 327.821C166.627 328.087 166.429 328.384 166.228 328.673L164.816 330.71C163.858 332.092 162.9 333.472 161.942 334.854C160.984 336.236 160.112 337.581 158.895 338.742L159.304 338.352C158.822 338.807 158.296 339.222 157.706 339.557L158.215 339.273C157.852 339.473 157.472 339.637 157.067 339.752L157.66 339.593C157.327 339.682 156.988 339.731 156.642 339.737L157.259 339.728C156.968 339.727 156.684 339.697 156.402 339.636L156.977 339.77C156.91 339.754 156.844 339.737 156.776 339.718L158.183 341.355C158.076 339.886 158.015 338.414 157.999 336.941L158.004 337.504C157.956 332.412 158.46 327.314 159.515 322.307C159.814 320.883 160.16 319.468 160.546 318.062L158.595 319.89C158.701 319.886 158.806 319.883 158.911 319.881L158.294 319.89C159.929 319.871 161.539 320.142 163.115 320.509L162.54 320.375C165.35 321.034 168.109 322 171.015 322.259C172.427 322.385 173.897 322.381 175.299 322.149C176.868 321.887 178.323 321.365 179.637 320.532C182.155 318.935 183.238 316.248 184.083 313.684C185.013 310.86 185.814 307.997 186.474 305.112C187.096 302.391 187.59 299.646 187.952 296.888C187.998 296.538 188.042 296.188 188.083 295.838C188.149 295.29 187.98 294.701 187.603 294.27C187.259 293.878 186.654 293.541 186.095 293.504C185.495 293.465 184.845 293.58 184.377 293.956C183.908 294.332 183.593 294.79 183.528 295.341L183.519 295.342Z" fill="#313332"/>
<path d="M260.082 297.97C260.843 299.251 261.531 300.58 261.97 301.985L261.801 301.445C262.036 302.21 262.194 302.997 262.205 303.794L262.2 303.231C262.203 303.733 262.145 304.231 262.007 304.72L262.157 304.193C262.045 304.572 261.886 304.936 261.677 305.281L261.967 304.811C261.755 305.148 261.502 305.458 261.21 305.74L261.62 305.351C261.254 305.694 260.838 305.982 260.393 306.232L260.902 305.948C260.165 306.352 259.367 306.645 258.558 306.902C257.611 307.203 256.652 307.473 255.689 307.731L256.282 307.573C254.124 308.146 251.937 308.623 249.73 309C248.642 309.186 247.548 309.348 246.45 309.484C245.117 309.651 243.712 309.853 242.87 310.948C242.56 311.352 242.328 311.865 242.299 312.359C242.276 312.773 242.31 313.119 242.395 313.512C242.502 314.005 242.613 314.497 242.73 314.987C242.962 315.956 243.213 316.922 243.483 317.881C244.061 319.933 244.715 321.968 245.458 323.974C246.152 325.852 246.924 327.705 247.772 329.528C248.191 330.428 248.627 331.321 249.082 332.205C249.501 333.02 249.905 333.857 250.406 334.632C250.692 335.074 250.977 335.528 251.363 335.908C251.886 336.422 252.388 336.794 253.085 337.092C254.443 337.673 256.207 337.363 257.299 336.427C257.752 336.039 258.142 335.623 258.464 335.141C258.786 334.66 259.113 334.121 259.415 333.599C259.863 332.824 260.264 332.028 260.615 331.214C262.167 327.617 262.805 323.753 262.544 319.911C262.517 319.512 262.475 319.115 262.468 318.715L262.473 319.279C262.47 318.936 262.494 318.594 262.585 318.259L262.434 318.786C262.485 318.615 262.554 318.453 262.643 318.295L262.353 318.765C262.442 318.621 262.544 318.493 262.666 318.371L262.257 318.76C262.401 318.626 262.561 318.51 262.735 318.408L262.226 318.692C262.669 318.446 263.161 318.298 263.653 318.157C264.181 318.004 264.709 317.845 265.23 317.669C266.284 317.315 267.319 316.91 268.327 316.456C270.511 315.475 272.615 314.282 274.524 312.899C275.074 312.502 275.596 312.056 276.037 311.56C276.592 310.936 276.907 310.228 277.103 309.458C277.394 308.322 277.129 307.109 276.949 305.977L275.865 299.15L274.641 291.44C274.557 290.907 274.216 290.385 273.745 290.064C273.273 289.743 272.605 289.577 272.042 289.679C271.479 289.781 270.876 290.046 270.53 290.509C270.183 290.973 270.005 291.507 270.095 292.07L272.175 305.162L272.469 307.01C272.554 307.552 272.65 308.095 272.659 308.644L272.654 308.08C272.653 308.379 272.624 308.671 272.549 308.962L272.7 308.435C272.631 308.673 272.532 308.898 272.4 309.113L272.69 308.643C272.531 308.888 272.34 309.108 272.127 309.316L272.536 308.927C271.976 309.459 271.309 309.899 270.656 310.332C269.962 310.791 269.247 311.224 268.515 311.633L269.025 311.348C267.182 312.372 265.231 313.229 263.204 313.896C262.711 314.058 262.214 314.206 261.715 314.35C261.268 314.48 260.824 314.621 260.419 314.841C260.081 315.024 259.733 315.198 259.449 315.449C259.048 315.803 258.8 316.082 258.536 316.511C258.188 317.075 257.979 317.707 257.931 318.355C257.844 319.496 258.037 320.643 258.049 321.785L258.044 321.221C258.059 323.315 257.771 325.404 257.195 327.435L257.346 326.907C256.777 328.891 255.936 330.807 254.836 332.597L255.126 332.127C254.836 332.597 254.54 333.071 254.132 333.464L254.541 333.075C254.399 333.207 254.247 333.323 254.077 333.423L254.587 333.138C254.452 333.211 254.317 333.268 254.171 333.311L254.764 333.152C254.624 333.187 254.486 333.206 254.341 333.211L254.957 333.202C254.827 333.201 254.703 333.189 254.577 333.164L255.152 333.298C254.993 333.26 254.843 333.205 254.697 333.134L255.209 333.396C255.01 333.29 254.832 333.162 254.667 333.017L255.089 333.388C254.8 333.126 254.559 332.825 254.347 332.508L254.653 332.972C254.119 332.164 253.699 331.283 253.261 330.428C252.783 329.496 252.326 328.556 251.889 327.607C251.024 325.734 250.241 323.83 249.539 321.9C249.139 320.802 248.767 319.693 248.42 318.579L248.588 319.12C248.239 317.993 247.915 316.858 247.62 315.718C247.474 315.154 247.336 314.588 247.203 314.022C247.138 313.745 247.076 313.467 247.015 313.19C246.955 312.912 246.871 312.62 246.859 312.331L246.864 312.895C246.865 312.803 246.876 312.719 246.901 312.63L246.75 313.157C246.769 313.108 246.789 313.064 246.815 313.018L246.525 313.488C246.562 313.43 246.604 313.381 246.652 313.33L246.242 313.72C246.307 313.661 246.377 313.612 246.455 313.566L245.945 313.85C246.08 313.777 246.22 313.725 246.368 313.684L245.775 313.842C246.265 313.715 246.78 313.686 247.283 313.622C247.86 313.549 248.437 313.469 249.012 313.382C250.191 313.205 251.365 312.997 252.534 312.763C255.04 312.258 257.522 311.626 259.958 310.885C260.895 310.6 261.829 310.286 262.684 309.827C263.793 309.232 264.832 308.51 265.527 307.497C266.152 306.587 266.566 305.614 266.714 304.546C266.838 303.636 266.786 302.682 266.603 301.782C266.203 299.832 265.328 297.995 264.299 296.265C264.008 295.777 263.641 295.382 263.06 295.17C262.531 294.977 261.797 294.966 261.275 295.204C260.754 295.441 260.269 295.827 260.068 296.345C259.866 296.864 259.798 297.487 260.09 297.977L260.082 297.97Z" fill="#313332"/>
<path d="M377.527 178.88C376.696 178.952 375.865 178.993 375.031 179.007L375.647 178.998C372.71 179.037 369.78 178.709 366.938 178.052L367.514 178.186C364.526 177.49 361.648 176.436 358.957 175.066L359.469 175.328C356.824 173.976 354.372 172.324 352.186 170.405L352.609 170.777C350.561 168.971 348.762 166.936 347.282 164.713L347.589 165.177C347.194 164.581 346.823 163.973 346.477 163.354C346.216 162.888 345.798 162.436 345.238 162.258C344.744 162.1 344.257 162.077 343.751 162.212C342.647 162.507 341.965 163.478 342.1 164.525C342.109 164.594 342.114 164.664 342.114 164.735L342.109 164.171C342.106 164.29 342.089 164.406 342.058 164.522L342.208 163.995C342.169 164.125 342.113 164.247 342.044 164.365L342.334 163.895C342.248 164.029 342.148 164.152 342.033 164.265L342.442 163.876C342.279 164.03 342.097 164.16 341.896 164.271L342.405 163.987C342.197 164.098 341.978 164.185 341.748 164.249L342.341 164.091C342.109 164.151 341.875 164.187 341.634 164.193L342.251 164.184C341.988 164.187 341.733 164.15 341.479 164.092L342.054 164.225C341.724 164.142 341.412 164.023 341.112 163.874L341.624 164.135C340.948 163.787 340.366 163.317 339.81 162.828L340.232 163.199C338.87 161.995 337.532 160.767 336.184 159.55C335.506 158.938 334.829 158.326 334.151 157.714C333.515 157.14 332.762 156.584 332.287 155.885L332.594 156.349C332.499 156.2 332.424 156.05 332.369 155.885L332.538 156.426C332.499 156.285 332.477 156.147 332.476 156.001L332.481 156.565C332.485 156.429 332.505 156.299 332.542 156.166L332.391 156.694C332.452 156.494 332.542 156.308 332.65 156.126L332.36 156.596C332.635 156.158 332.993 155.769 333.335 155.372C333.734 154.909 334.134 154.445 334.533 153.982C335.332 153.055 336.131 152.129 336.929 151.202C338.527 149.348 340.123 147.495 341.72 145.641C342.618 144.599 343.516 143.556 344.415 142.514L341.201 142.959C344.874 145.778 348.546 148.596 352.219 151.415C353.247 152.205 354.275 152.993 355.303 153.783L354.842 150.847C353.93 152.114 353.017 153.382 352.106 154.65C351.65 155.285 351.194 155.918 350.738 156.552C350.513 156.865 350.287 157.178 350.063 157.49C349.786 157.88 349.492 158.287 349.324 158.727C349.094 159.333 348.977 159.996 349.122 160.631C349.279 161.327 349.581 161.847 349.989 162.441C350.396 163.035 350.83 163.551 351.292 164.074C352.313 165.231 353.468 166.293 354.692 167.269C356.861 168.998 359.366 170.402 362.002 171.458C364.598 172.498 367.4 173.196 370.218 173.507C373.037 173.818 375.956 173.752 378.75 173.248C379.08 173.188 379.408 173.123 379.735 173.051C380.339 172.919 380.862 172.691 381.247 172.221C381.584 171.806 381.788 171.174 381.681 170.66C381.574 170.145 381.289 169.597 380.785 169.283C380.307 168.987 379.67 168.769 379.082 168.898C377.323 169.283 375.527 169.486 373.723 169.515L374.339 169.506C371.994 169.537 369.656 169.277 367.385 168.751L367.961 168.885C365.664 168.346 363.451 167.54 361.385 166.487L361.896 166.748C359.943 165.746 358.129 164.527 356.514 163.107L356.936 163.478C355.672 162.359 354.46 161.11 353.539 159.733L353.845 160.197C353.71 159.986 353.596 159.772 353.521 159.539L353.689 160.08C353.655 159.95 353.633 159.823 353.628 159.689L353.633 160.253C353.637 160.129 353.654 160.011 353.684 159.891L353.533 160.418C353.591 160.232 353.675 160.059 353.777 159.888L353.487 160.358C353.847 159.781 354.276 159.235 354.677 158.68C355.106 158.083 355.535 157.484 355.966 156.887C356.818 155.704 357.668 154.521 358.518 153.34C358.839 152.892 359.065 152.323 358.952 151.779C358.838 151.235 358.538 150.774 358.056 150.403C354.383 147.585 350.711 144.766 347.038 141.947C346.01 141.157 344.981 140.368 343.953 139.579C343.539 139.26 342.78 139.098 342.25 139.194C341.642 139.304 341.129 139.573 340.738 140.025C336.91 144.468 333.057 148.893 329.252 153.353C329.079 153.557 328.908 153.765 328.76 153.986C328.377 154.561 328.146 155.02 327.983 155.671C327.95 155.804 327.929 155.933 327.922 156.07C327.911 156.344 327.899 156.643 327.954 156.915C328.087 157.583 328.364 158.095 328.778 158.65C329.192 159.205 329.724 159.605 330.217 160.049C330.76 160.538 331.301 161.027 331.844 161.516C332.906 162.474 333.967 163.433 335.03 164.39C335.547 164.857 336.062 165.326 336.583 165.79C337.133 166.279 337.683 166.782 338.311 167.191C339.155 167.742 340.033 168.092 341.042 168.295C341.948 168.476 342.896 168.321 343.758 168.034C344.572 167.763 345.331 167.224 345.857 166.598C346.506 165.823 346.771 164.853 346.647 163.894L342.27 165.065C343.709 167.634 345.514 170.036 347.659 172.153C349.522 173.991 351.597 175.661 353.855 177.083C356.103 178.499 358.531 179.71 361.058 180.659C363.595 181.613 366.269 182.306 368.976 182.733C371.696 183.161 374.47 183.267 377.227 183.103C377.546 183.084 377.863 183.06 378.181 183.033C378.748 182.984 379.36 182.612 379.693 182.202C380.027 181.793 380.235 181.156 380.127 180.641C380.02 180.127 379.736 179.578 379.231 179.265C378.727 178.952 378.16 178.825 377.528 178.88L377.527 178.88Z" fill="#313332"/>
<path d="M482.203 261.313C478.637 259.052 474.938 256.98 471.133 255.068C470.206 254.601 469.271 254.145 468.33 253.701C467.746 253.426 467.185 253.232 466.538 253.098C465.774 252.941 464.98 253.051 464.249 253.295C463.175 253.653 462.326 254.597 461.951 255.561C461.58 256.516 461.522 257.452 461.557 258.453C461.589 259.395 461.726 260.34 461.825 261.277C461.931 262.278 462.043 263.278 462.165 264.278C462.408 266.295 462.682 268.308 462.986 270.317C463.59 274.318 464.312 278.304 465.152 282.267C465.992 286.231 466.951 290.173 468.024 294.086C468.158 294.574 468.293 295.06 468.43 295.546L470.993 293.146C467.086 293.004 463.222 292.424 459.443 291.546L460.018 291.68C453.547 290.168 447.362 287.823 441.292 285.322C440.459 284.979 439.627 284.632 438.795 284.285C437.964 283.938 437.087 283.612 436.275 283.211L436.787 283.473C436.514 283.332 436.258 283.174 436.027 282.981L436.449 283.353C436.323 283.24 436.211 283.122 436.114 282.989L436.421 283.453C436.366 283.367 436.321 283.281 436.285 283.186L436.453 283.727C436.425 283.632 436.41 283.542 436.409 283.443L436.414 284.007C436.419 283.93 436.429 283.86 436.449 283.785L436.298 284.313C436.323 284.238 436.352 284.174 436.391 284.105L436.101 284.575C436.156 284.492 436.216 284.422 436.288 284.352L435.879 284.741C435.957 284.675 436.038 284.619 436.127 284.567L435.618 284.851C435.81 284.748 436.014 284.676 436.226 284.615L435.633 284.774C436.761 284.482 437.949 284.328 439.1 284.122C440.327 283.903 441.555 283.687 442.785 283.476C445.244 283.054 447.705 282.65 450.17 282.266C451.578 282.045 452.989 281.831 454.399 281.623C455.584 281.447 456.581 280.357 456.346 279.232L454.103 268.552L451.85 257.82C451.463 255.982 451.071 254.136 451.045 252.255L451.05 252.819C451.043 251.813 451.147 250.81 451.421 249.831L451.27 250.358C451.496 249.573 451.832 248.821 452.265 248.11L451.975 248.58C452.448 247.82 453.026 247.122 453.687 246.49L453.277 246.879C454.082 246.119 454.995 245.465 455.979 244.911L455.47 245.195C456.69 244.517 458.005 243.998 459.372 243.632L458.779 243.79C460.207 243.414 461.681 243.206 463.165 243.18L462.549 243.189C464.362 243.165 466.174 243.41 467.926 243.815L467.351 243.681C470.383 244.391 473.232 245.6 475.954 246.987L475.442 246.725C476.915 247.479 478.355 248.285 479.782 249.11C480.301 249.41 480.856 249.582 481.485 249.495C482.043 249.417 482.672 249.1 482.997 248.664C483.322 248.229 483.546 247.653 483.431 247.103C483.317 246.553 483.045 246.021 482.535 245.727C478.42 243.35 474.119 241.004 469.371 239.846C466.904 239.244 464.433 238.915 461.87 239.048C459.817 239.154 457.754 239.618 455.851 240.333C452.015 241.774 448.513 244.571 447.194 248.252C446.321 250.686 446.363 253.239 446.775 255.741C447.186 258.242 447.75 260.579 448.258 262.989L451.409 277.994L451.802 279.863L453.748 277.471C449.359 278.119 444.98 278.825 440.613 279.589C439.521 279.78 438.43 279.973 437.339 280.173C436.794 280.272 436.25 280.372 435.704 280.473C435.129 280.579 434.532 280.69 433.997 280.913C433.17 281.257 432.535 281.814 432.136 282.557C431.737 283.3 431.764 284.218 432.103 284.969C432.631 286.142 433.859 286.842 435.063 287.348C438.639 288.855 442.222 290.356 445.868 291.723C449.514 293.09 453.193 294.315 456.979 295.269C460.895 296.256 464.888 296.992 468.95 297.249C469.44 297.281 469.928 297.305 470.418 297.322C471.174 297.349 471.809 297.183 472.342 296.676C472.8 296.241 473.156 295.542 472.981 294.921C471.63 290.127 470.45 285.292 469.448 280.425C468.448 275.558 467.624 270.659 466.979 265.738C466.796 264.348 466.628 262.955 466.476 261.562C466.334 260.279 466.131 258.976 466.106 257.685L466.111 258.249C466.107 257.777 466.149 257.306 466.276 256.847L466.125 257.374C466.196 257.141 466.287 256.918 466.417 256.706L466.127 257.176C466.208 257.052 466.298 256.937 466.405 256.831L465.996 257.22C466.089 257.133 466.189 257.057 466.3 256.989L465.791 257.274C465.93 257.196 466.071 257.14 466.229 257.098L465.636 257.257C465.757 257.23 465.876 257.214 466 257.206L465.384 257.215C465.583 257.213 465.772 257.235 465.966 257.275L465.39 257.141C466.205 257.339 466.954 257.771 467.693 258.129C468.481 258.51 469.265 258.9 470.044 259.297L469.532 259.035C472.939 260.775 476.251 262.665 479.456 264.698C479.948 265.01 480.558 265.166 481.159 265.083C481.717 265.005 482.347 264.688 482.671 264.252C483.357 263.333 483.261 261.982 482.21 261.316L482.203 261.313Z" fill="#313332"/>
<path d="M415.513 260.045C416.182 267.975 417.102 275.915 419.754 283.512C421.946 289.79 425.513 295.85 430.667 300.497C432.149 301.834 433.714 303.082 435.434 304.161C437.158 305.244 439.03 306.058 440.856 306.98L440.344 306.719C440.991 307.051 441.609 307.419 442.15 307.884L441.728 307.513C442.054 307.804 442.334 308.122 442.571 308.478L442.265 308.014C442.565 308.493 442.769 309.005 442.934 309.535L442.766 308.994C443.238 310.57 443.587 312.162 444.236 313.69C444.851 315.138 445.656 316.5 446.568 317.808C447.404 319.008 448.372 320.128 449.458 321.146C450.11 321.756 450.786 322.363 451.514 322.899C452.477 323.607 453.593 324.021 454.842 323.96C457.024 323.852 458.175 322.003 458.698 320.298C459.204 318.646 459.642 316.978 459.969 315.289C460.59 312.097 460.818 308.876 460.764 305.641C460.707 302.157 460.228 298.686 459.341 295.304C459.195 294.75 458.96 294.278 458.445 293.928C457.994 293.622 457.304 293.441 456.741 293.543C455.611 293.747 454.495 294.792 454.795 295.934C455.709 299.416 456.184 302.986 456.223 306.573L456.218 306.01C456.251 310.202 455.69 314.39 454.534 318.455L454.685 317.928C454.469 318.68 454.28 319.468 453.878 320.16L454.168 319.69C454.051 319.878 453.92 320.049 453.756 320.208L454.165 319.819C454.071 319.901 453.974 319.974 453.867 320.041L454.377 319.757C454.262 319.818 454.151 319.866 454.025 319.905L454.618 319.746C454.475 319.781 454.338 319.799 454.191 319.804L454.807 319.795C454.657 319.789 454.518 319.771 454.374 319.739L454.949 319.873C454.766 319.822 454.598 319.756 454.429 319.676L454.941 319.938C454.255 319.581 453.673 319.06 453.107 318.564L453.529 318.935C452.135 317.698 450.922 316.308 449.91 314.792L450.217 315.256C449.17 313.672 448.354 311.972 447.792 310.192L447.961 310.733C447.332 308.695 447.087 306.473 445.365 304.907C444.483 304.104 443.528 303.542 442.44 303C441.628 302.596 440.793 302.238 439.986 301.828L440.497 302.09C438.19 300.907 436.076 299.444 434.168 297.773L434.59 298.145C432.18 296.022 430.122 293.591 428.385 290.978L428.692 291.442C426.353 287.9 424.645 284.061 423.401 280.082L423.57 280.623C421.906 275.259 421.072 269.715 420.502 264.167C420.34 262.584 420.197 261 420.064 259.414C419.972 258.317 418.629 257.442 417.465 257.653C416.175 257.886 415.419 258.87 415.519 260.044L415.513 260.045Z" fill="#313332"/>
<path d="M428.916 261.528C429.062 266.161 429.983 270.728 431.531 275.129C431.948 276.314 432.418 277.485 432.937 278.637C433.153 279.117 433.653 279.542 434.176 279.732C434.698 279.923 435.439 279.936 435.96 279.699C436.485 279.46 436.966 279.075 437.168 278.557C437.37 278.038 437.387 277.461 437.145 276.925C436.403 275.279 435.766 273.597 435.232 271.884L435.401 272.425C434.495 269.503 433.893 266.5 433.618 263.468C433.539 262.613 433.488 261.756 433.462 260.898C433.429 260.61 433.322 260.353 433.14 260.125C433.009 259.88 432.816 259.679 432.566 259.522C432.115 259.216 431.425 259.035 430.862 259.137C430.299 259.239 429.697 259.503 429.35 259.967L429.06 260.437C428.905 260.79 428.857 261.153 428.914 261.528L428.916 261.528Z" fill="#313332"/>
<path d="M523.379 188.865C526.32 189.135 529.233 189.607 532.095 190.273L531.52 190.139C535.424 191.053 539.223 192.323 542.843 193.93C543.865 194.384 544.871 194.864 545.862 195.369L545.351 195.107C547.923 196.422 550.389 197.909 552.717 199.561C554.071 200.522 555.344 201.627 557.114 201.883C559.286 202.195 561.023 200.809 562.484 199.537C563.26 198.861 564.005 198.152 564.71 197.414C565.288 196.809 565.784 196.132 566.379 195.542L565.969 195.931C566.088 195.82 566.21 195.722 566.352 195.639L565.842 195.923C565.938 195.875 566.032 195.836 566.137 195.808L565.544 195.966C565.627 195.95 565.701 195.941 565.786 195.938L565.17 195.947C565.251 195.95 565.325 195.958 565.405 195.974L564.829 195.84C564.96 195.874 565.079 195.92 565.196 195.98L564.685 195.719C565 195.894 565.266 196.128 565.537 196.355C565.852 196.616 566.165 196.88 566.477 197.145C567.101 197.675 567.721 198.21 568.333 198.749L567.911 198.378C570.855 200.971 573.673 203.682 576.358 206.501L576.318 203.935C573.437 207.805 570.279 211.503 566.867 214.996C565.902 215.983 564.918 216.952 563.915 217.906L564.324 217.517C562.475 219.272 560.559 220.971 558.583 222.606L561.809 222.92L557.768 219.254C556.445 218.053 555.095 216.872 553.797 215.648C553.193 215.078 552.634 214.465 552.182 213.785L552.489 214.249C552.234 213.859 552.019 213.45 551.875 213.013L552.043 213.554C551.952 213.257 551.897 212.958 551.893 212.648L551.898 213.212C551.902 212.978 551.933 212.752 551.998 212.525L551.847 213.052C551.914 212.841 552.007 212.643 552.125 212.449L551.835 212.92C552.065 212.567 552.365 212.261 552.676 211.966L552.267 212.355C552.733 211.915 553.228 211.495 553.652 211.02C554.149 210.462 554.468 209.825 554.625 209.124C554.836 208.181 554.468 207.2 553.865 206.447C553.41 205.88 552.732 205.433 552.131 204.999C550.033 203.483 547.789 202.172 545.453 200.987C540.937 198.697 536.011 197.12 530.933 196.228C528.171 195.743 525.36 195.489 522.544 195.47C521.907 195.467 521.343 195.542 520.825 195.922C520.393 196.239 520.021 196.796 519.976 197.307C519.928 197.857 520.049 198.45 520.456 198.876C520.823 199.259 521.38 199.637 521.964 199.641C524.898 199.66 527.824 199.936 530.698 200.46C531.512 200.609 532.322 200.778 533.127 200.965L532.552 200.831C535.629 201.553 538.624 202.553 541.478 203.82C542.29 204.18 543.089 204.563 543.876 204.965L543.365 204.703C544.608 205.341 545.819 206.028 546.993 206.768C547.569 207.129 548.134 207.503 548.69 207.889C549.27 208.291 549.867 208.693 550.398 209.151L549.975 208.78C550.124 208.915 550.256 209.055 550.368 209.216L550.061 208.752C550.13 208.865 550.184 208.977 550.224 209.099L550.055 208.558C550.084 208.664 550.102 208.769 550.106 208.879L550.101 208.316C550.101 208.437 550.085 208.553 550.054 208.671L550.205 208.144C550.158 208.298 550.089 208.44 550.006 208.578L550.295 208.108C550.087 208.429 549.813 208.705 549.532 208.973L549.941 208.584C549.469 209.028 548.971 209.455 548.54 209.932C547.965 210.569 547.626 211.294 547.423 212.09C547.259 212.726 547.287 213.444 547.467 214.074C547.583 214.481 547.703 214.888 547.889 215.274C548.075 215.66 548.336 216.048 548.586 216.419C549.285 217.458 550.22 218.302 551.161 219.156L554.477 222.164L558.213 225.553C558.632 225.933 559.097 226.276 559.721 226.319C560.345 226.361 560.981 226.247 561.44 225.867C564.237 223.551 566.909 221.109 569.461 218.569C571.913 216.127 574.241 213.581 576.435 210.942C577.664 209.461 578.851 207.953 579.994 206.417C580.552 205.667 580.635 204.567 579.954 203.851C577.852 201.644 575.668 199.501 573.404 197.43C572.17 196.301 570.916 195.193 569.64 194.103C569.066 193.612 568.496 193.113 567.901 192.642C566.881 191.833 565.509 191.518 564.218 191.982C563.154 192.364 562.522 193.246 561.839 194.027C561.292 194.653 560.713 195.254 560.108 195.833L560.517 195.444C560.055 195.881 559.578 196.306 559.085 196.714C558.592 197.122 558.117 197.519 557.562 197.829L558.071 197.545C557.857 197.658 557.638 197.751 557.401 197.819L557.994 197.66C557.821 197.703 557.65 197.728 557.47 197.736L558.086 197.727C557.87 197.728 557.663 197.705 557.454 197.657L558.03 197.791C557.767 197.724 557.522 197.627 557.283 197.51L557.794 197.771C556.8 197.259 555.95 196.507 555.046 195.877C554.096 195.216 553.125 194.581 552.133 193.975C550.037 192.694 547.847 191.534 545.6 190.487C541.223 188.449 536.591 186.945 531.812 185.899C529.227 185.333 526.601 184.928 523.956 184.686C523.357 184.632 522.712 184.789 522.237 185.138C521.806 185.455 521.433 186.012 521.388 186.523C521.34 187.073 521.461 187.666 521.868 188.092C522.276 188.517 522.774 188.802 523.376 188.857L523.379 188.865Z" fill="#313332"/>
<path d="M286.358 102.717L295.099 108.169L297.574 109.713C298.068 110.021 298.821 109.973 299.181 109.49C299.521 109.033 299.479 108.351 298.95 108.021L290.21 102.57L287.735 101.026C287.241 100.718 286.488 100.766 286.127 101.249C285.787 101.706 285.829 102.387 286.358 102.717Z" fill="#313332"/>
<path d="M318.238 88.2705L321.049 106.154C321.134 106.696 321.738 107.144 322.348 107.034C322.958 106.924 323.413 106.42 323.321 105.839L320.51 87.9555C320.425 87.4129 319.82 86.9648 319.211 87.0748C318.601 87.1848 318.146 87.6891 318.238 88.2705Z" fill="#313332"/>
<path d="M344.453 109.763C347.807 107.308 350.924 104.582 353.768 101.636C354.551 100.825 355.312 99.9966 356.051 99.1531C356.429 98.7216 356.32 97.9943 355.82 97.6844C355.292 97.3573 354.616 97.4468 354.213 97.9072C352.908 99.3977 351.535 100.837 350.095 102.22C350.046 102.267 349.999 102.313 349.951 102.359C349.902 102.406 349.727 102.57 349.963 102.349C349.882 102.425 349.801 102.502 349.72 102.578C349.526 102.76 349.33 102.942 349.134 103.122C348.774 103.452 348.409 103.779 348.042 104.103C347.29 104.765 346.522 105.413 345.74 106.043C344.852 106.759 343.946 107.454 343.023 108.131C342.552 108.475 342.432 109.183 342.838 109.608C343.244 110.033 343.947 110.133 344.451 109.765L344.453 109.763Z" fill="#313332"/>
<path d="M414.28 149.997L391.453 148.241L389.353 169.133L412.179 170.889L414.28 149.997Z" fill="#F9DFBE"/>
<path d="M505.237 156.838L482.41 155.083L480.31 175.975L503.136 177.731L505.237 156.838Z" fill="#F9DFBE"/>
<path d="M443.414 151.285L424.602 149.838L423.826 157.556L442.638 159.003L443.414 151.285Z" fill="#FAE5CB"/>
<path d="M468.481 153.213L449.668 151.766L448.892 159.484L467.705 160.931L468.481 153.213Z" fill="#FAE5CB"/>
<path d="M458.1 152.415L449.668 151.767L448.892 159.485L457.324 160.133L458.1 152.415Z" fill="#313332"/>
<path d="M433.124 150.494L424.691 149.845L423.915 157.563L432.348 158.212L433.124 150.494Z" fill="#313332"/>
<path d="M426.242 164.817L434.858 174.231L443.868 167.314L451.921 176.114L462.026 168.354" stroke="#313332" stroke-width="5" stroke-linecap="round" stroke-linejoin="round"/>
<path d="M295.694 184.994C299.923 182.49 303.042 178.675 305.238 174.583C307.647 170.098 308.841 165.147 309.706 160.252C309.951 158.866 310.17 157.477 310.385 156.086C310.492 155.391 310.598 154.696 310.707 154.002C310.809 153.35 310.889 152.689 311.066 152.048L310.915 152.576C311.007 152.254 311.127 151.946 311.299 151.654L311.01 152.124C311.134 151.923 311.28 151.74 311.454 151.57L311.044 151.959C311.287 151.735 311.562 151.551 311.856 151.386L311.347 151.67C312.366 151.11 313.452 150.66 314.347 149.927C315.243 149.195 316.004 148.333 316.602 147.362C317.78 145.45 318.282 143.282 318.051 141.104C317.815 138.883 316.742 136.726 315.229 134.999C313.723 133.281 311.732 131.929 309.51 131.08C307.298 130.234 304.879 129.919 302.486 130.098C300.093 130.277 297.908 131.06 295.988 132.29C294.156 133.463 292.723 135.101 291.724 136.917C290.719 138.743 290.308 140.845 290.527 142.868C290.742 144.867 291.669 146.82 293.012 148.391C294.326 149.928 296.169 151.209 298.212 151.817C298.819 151.997 299.447 152.108 300.066 152.246L299.491 152.112C299.724 152.166 299.948 152.233 300.162 152.335L299.65 152.073C299.763 152.134 299.865 152.2 299.963 152.282L299.541 151.91C299.621 151.984 299.687 152.061 299.749 152.149L299.442 151.685C299.512 151.798 299.565 151.914 299.607 152.038L299.439 151.497C299.507 151.731 299.528 151.968 299.532 152.211L299.527 151.647C299.522 152.58 299.388 153.527 299.232 154.449C299.075 155.386 298.863 156.314 298.602 157.233L298.753 156.705C298.07 159.069 297.054 161.345 295.742 163.479L296.032 163.009C294.721 165.128 293.128 167.094 291.281 168.852L291.691 168.463C289.963 170.099 288.027 171.542 285.914 172.742C285.457 173 285.128 173.665 285.065 174.127C284.993 174.645 285.165 175.297 285.545 175.695C285.925 176.094 286.455 176.421 287.053 176.461L287.669 176.452C288.08 176.395 288.446 176.246 288.771 176.009C292.575 173.85 295.87 170.87 298.371 167.478C301.111 163.763 302.988 159.536 303.76 155.116C303.863 154.535 303.942 153.949 304.002 153.364C304.075 152.645 304.155 151.893 304.053 151.177C303.915 150.201 303.345 149.205 302.402 148.692C302.015 148.481 301.654 148.313 301.221 148.209C300.788 148.105 300.322 148.017 299.873 147.915L300.448 148.049C299.744 147.882 299.071 147.633 298.437 147.309L298.949 147.571C298.273 147.22 297.654 146.793 297.093 146.302L297.515 146.673C296.901 146.128 296.369 145.512 295.925 144.843L296.232 145.307C295.793 144.632 295.449 143.913 295.211 143.157L295.38 143.698C295.162 142.985 295.043 142.255 295.033 141.514L295.038 142.077C295.036 141.325 295.142 140.581 295.345 139.851L295.194 140.378C295.429 139.559 295.781 138.775 296.236 138.036L295.946 138.506C296.409 137.766 296.967 137.083 297.61 136.465L297.201 136.854C297.868 136.223 298.614 135.671 299.432 135.213L298.922 135.497C299.727 135.053 300.587 134.712 301.488 134.471L300.895 134.629C301.885 134.372 302.903 134.238 303.931 134.22L303.315 134.229C304.431 134.216 305.539 134.339 306.618 134.589L306.043 134.455C307.096 134.705 308.106 135.073 309.057 135.555L308.545 135.293C309.438 135.754 310.261 136.311 311.002 136.96L310.58 136.588C311.33 137.252 311.984 137.996 312.526 138.814L312.219 138.35C312.707 139.097 313.09 139.892 313.354 140.73L313.185 140.189C313.41 140.933 313.538 141.697 313.547 142.47L313.542 141.906C313.543 142.651 313.437 143.39 313.231 144.113L313.382 143.586C313.175 144.282 312.879 144.95 312.494 145.58L312.784 145.11C312.433 145.669 312.016 146.188 311.53 146.657L311.939 146.268C311.485 146.698 310.981 147.074 310.426 147.39L310.936 147.106C310.25 147.488 309.529 147.805 308.852 148.205C308.033 148.691 307.441 149.387 307.004 150.173C306.651 150.81 306.482 151.539 306.354 152.239C306.238 152.872 306.149 153.509 306.051 154.144C305.643 156.787 305.249 159.433 304.714 162.059C304.413 163.54 304.065 165.013 303.651 166.472L303.801 165.945C302.942 168.935 301.771 171.85 300.11 174.552L300.4 174.082C299.262 175.923 297.909 177.652 296.306 179.18L296.716 178.791C295.545 179.899 294.25 180.892 292.836 181.728C292.38 181.998 292.053 182.643 291.987 183.113C291.916 183.631 292.088 184.283 292.468 184.682C292.848 185.08 293.378 185.407 293.975 185.447L294.592 185.438C295.002 185.382 295.369 185.233 295.694 184.996L295.694 184.994Z" fill="#313332"/>
</svg>
