<svg width="319" height="450" viewBox="0 0 319 450" fill="none" xmlns="http://www.w3.org/2000/svg">
<path d="M5.71875 12.5392C8.87713 12.5392 11.4375 9.73224 11.4375 6.26962C11.4375 2.80701 8.87713 0 5.71875 0C2.56038 0 0 2.80701 0 6.26962C0 9.73224 2.56038 12.5392 5.71875 12.5392Z" fill="#B4E4DF"/>
<path d="M55.5078 12.5397C58.6662 12.5397 61.2265 9.73273 61.2265 6.27011C61.2265 2.8075 58.6662 0.000488281 55.5078 0.000488281C52.3494 0.000488281 49.7891 2.8075 49.7891 6.27011C49.7891 9.73273 52.3494 12.5397 55.5078 12.5397Z" fill="#B4E4DF"/>
<path d="M105.363 12.5397C108.522 12.5397 111.082 9.73273 111.082 6.27011C111.082 2.8075 108.522 0.000488281 105.363 0.000488281C102.205 0.000488281 99.6445 2.8075 99.6445 6.27011C99.6445 9.73273 102.205 12.5397 105.363 12.5397Z" fill="#B4E4DF"/>
<path d="M155.156 12.5397C158.315 12.5397 160.875 9.73273 160.875 6.27011C160.875 2.8075 158.315 0.000488281 155.156 0.000488281C151.998 0.000488281 149.438 2.8075 149.438 6.27011C149.438 9.73273 151.998 12.5397 155.156 12.5397Z" fill="#B4E4DF"/>
<path d="M205.004 12.5392C208.162 12.5392 210.723 9.73224 210.723 6.26962C210.723 2.80701 208.162 0 205.004 0C201.846 0 199.285 2.80701 199.285 6.26962C199.285 9.73224 201.846 12.5392 205.004 12.5392Z" fill="#B4E4DF"/>
<path d="M254.793 12.5397C257.951 12.5397 260.512 9.73273 260.512 6.27011C260.512 2.8075 257.951 0.000488281 254.793 0.000488281C251.635 0.000488281 249.074 2.8075 249.074 6.27011C249.074 9.73273 251.635 12.5397 254.793 12.5397Z" fill="#B4E4DF"/>
<path d="M304.648 12.5397C307.807 12.5397 310.367 9.73273 310.367 6.27011C310.367 2.8075 307.807 0.000488281 304.648 0.000488281C301.49 0.000488281 298.93 2.8075 298.93 6.27011C298.93 9.73273 301.49 12.5397 304.648 12.5397Z" fill="#B4E4DF"/>
<path d="M5.71875 67.1935C8.87713 67.1935 11.4375 64.3865 11.4375 60.9239C11.4375 57.4613 8.87713 54.6543 5.71875 54.6543C2.56038 54.6543 0 57.4613 0 60.9239C0 64.3865 2.56038 67.1935 5.71875 67.1935Z" fill="#B4E4DF"/>
<path d="M55.5078 67.1945C58.6662 67.1945 61.2265 64.3875 61.2265 60.9249C61.2265 57.4623 58.6662 54.6553 55.5078 54.6553C52.3494 54.6553 49.7891 57.4623 49.7891 60.9249C49.7891 64.3875 52.3494 67.1945 55.5078 67.1945Z" fill="#B4E4DF"/>
<path d="M105.363 67.1945C108.522 67.1945 111.082 64.3875 111.082 60.9249C111.082 57.4623 108.522 54.6553 105.363 54.6553C102.205 54.6553 99.6445 57.4623 99.6445 60.9249C99.6445 64.3875 102.205 67.1945 105.363 67.1945Z" fill="#B4E4DF"/>
<path d="M155.156 67.1945C158.315 67.1945 160.875 64.3875 160.875 60.9249C160.875 57.4623 158.315 54.6553 155.156 54.6553C151.998 54.6553 149.438 57.4623 149.438 60.9249C149.438 64.3875 151.998 67.1945 155.156 67.1945Z" fill="#B4E4DF"/>
<path d="M205.004 67.194C208.162 67.194 210.723 64.387 210.723 60.9244C210.723 57.4618 208.162 54.6548 205.004 54.6548C201.846 54.6548 199.285 57.4618 199.285 60.9244C199.285 64.387 201.846 67.194 205.004 67.194Z" fill="#B4E4DF"/>
<path d="M254.793 67.1945C257.951 67.1945 260.512 64.3875 260.512 60.9249C260.512 57.4623 257.951 54.6553 254.793 54.6553C251.635 54.6553 249.074 57.4623 249.074 60.9249C249.074 64.3875 251.635 67.1945 254.793 67.1945Z" fill="#B4E4DF"/>
<path d="M304.648 67.1945C307.807 67.1945 310.367 64.3875 310.367 60.9249C310.367 57.4623 307.807 54.6553 304.648 54.6553C301.49 54.6553 298.93 57.4623 298.93 60.9249C298.93 64.3875 301.49 67.1945 304.648 67.1945Z" fill="#B4E4DF"/>
<path d="M5.71875 121.781C8.87713 121.781 11.4375 118.974 11.4375 115.511C11.4375 112.049 8.87713 109.242 5.71875 109.242C2.56038 109.242 0 112.049 0 115.511C0 118.974 2.56038 121.781 5.71875 121.781Z" fill="#B4E4DF"/>
<path d="M55.5078 121.781C58.6662 121.781 61.2265 118.974 61.2265 115.511C61.2265 112.049 58.6662 109.242 55.5078 109.242C52.3494 109.242 49.7891 112.049 49.7891 115.511C49.7891 118.974 52.3494 121.781 55.5078 121.781Z" fill="#B4E4DF"/>
<path d="M105.363 121.781C108.522 121.781 111.082 118.974 111.082 115.511C111.082 112.049 108.522 109.242 105.363 109.242C102.205 109.242 99.6445 112.049 99.6445 115.511C99.6445 118.974 102.205 121.781 105.363 121.781Z" fill="#B4E4DF"/>
<path d="M155.156 121.781C158.315 121.781 160.875 118.974 160.875 115.511C160.875 112.049 158.315 109.242 155.156 109.242C151.998 109.242 149.438 112.049 149.438 115.511C149.438 118.974 151.998 121.781 155.156 121.781Z" fill="#B4E4DF"/>
<path d="M205.004 121.781C208.162 121.781 210.723 118.974 210.723 115.511C210.723 112.049 208.162 109.242 205.004 109.242C201.846 109.242 199.285 112.049 199.285 115.511C199.285 118.974 201.846 121.781 205.004 121.781Z" fill="#B4E4DF"/>
<path d="M254.793 121.781C257.951 121.781 260.512 118.974 260.512 115.511C260.512 112.049 257.951 109.242 254.793 109.242C251.635 109.242 249.074 112.049 249.074 115.511C249.074 118.974 251.635 121.781 254.793 121.781Z" fill="#B4E4DF"/>
<path d="M304.648 121.781C307.807 121.781 310.367 118.974 310.367 115.511C310.367 112.049 307.807 109.242 304.648 109.242C301.49 109.242 298.93 112.049 298.93 115.511C298.93 118.974 301.49 121.781 304.648 121.781Z" fill="#B4E4DF"/>
<path d="M5.71875 176.436C8.87713 176.436 11.4375 173.629 11.4375 170.166C11.4375 166.703 8.87713 163.896 5.71875 163.896C2.56038 163.896 0 166.703 0 170.166C0 173.629 2.56038 176.436 5.71875 176.436Z" fill="#B4E4DF"/>
<path d="M55.5078 176.436C58.6662 176.436 61.2265 173.629 61.2265 170.166C61.2265 166.703 58.6662 163.896 55.5078 163.896C52.3494 163.896 49.7891 166.703 49.7891 170.166C49.7891 173.629 52.3494 176.436 55.5078 176.436Z" fill="#B4E4DF"/>
<path d="M105.363 176.436C108.522 176.436 111.082 173.629 111.082 170.166C111.082 166.703 108.522 163.896 105.363 163.896C102.205 163.896 99.6445 166.703 99.6445 170.166C99.6445 173.629 102.205 176.436 105.363 176.436Z" fill="#B4E4DF"/>
<path d="M155.156 176.436C158.315 176.436 160.875 173.629 160.875 170.166C160.875 166.703 158.315 163.896 155.156 163.896C151.998 163.896 149.438 166.703 149.438 170.166C149.438 173.629 151.998 176.436 155.156 176.436Z" fill="#B4E4DF"/>
<path d="M205.004 176.436C208.162 176.436 210.723 173.629 210.723 170.166C210.723 166.703 208.162 163.896 205.004 163.896C201.846 163.896 199.285 166.703 199.285 170.166C199.285 173.629 201.846 176.436 205.004 176.436Z" fill="#B4E4DF"/>
<path d="M254.793 176.436C257.951 176.436 260.512 173.629 260.512 170.166C260.512 166.703 257.951 163.896 254.793 163.896C251.635 163.896 249.074 166.703 249.074 170.166C249.074 173.629 251.635 176.436 254.793 176.436Z" fill="#B4E4DF"/>
<path d="M304.648 176.436C307.807 176.436 310.367 173.629 310.367 170.166C310.367 166.703 307.807 163.896 304.648 163.896C301.49 163.896 298.93 166.703 298.93 170.166C298.93 173.629 301.49 176.436 304.648 176.436Z" fill="#B4E4DF"/>
<path d="M5.71875 231.022C8.87713 231.022 11.4375 228.215 11.4375 224.753C11.4375 221.29 8.87713 218.483 5.71875 218.483C2.56038 218.483 0 221.29 0 224.753C0 228.215 2.56038 231.022 5.71875 231.022Z" fill="#B4E4DF"/>
<path d="M55.5078 231.023C58.6662 231.023 61.2265 228.216 61.2265 224.753C61.2265 221.29 58.6662 218.483 55.5078 218.483C52.3494 218.483 49.7891 221.29 49.7891 224.753C49.7891 228.216 52.3494 231.023 55.5078 231.023Z" fill="#B4E4DF"/>
<path d="M105.363 231.023C108.522 231.023 111.082 228.216 111.082 224.753C111.082 221.29 108.522 218.483 105.363 218.483C102.205 218.483 99.6445 221.29 99.6445 224.753C99.6445 228.216 102.205 231.023 105.363 231.023Z" fill="#B4E4DF"/>
<path d="M155.156 231.023C158.315 231.023 160.875 228.216 160.875 224.753C160.875 221.29 158.315 218.483 155.156 218.483C151.998 218.483 149.438 221.29 149.438 224.753C149.438 228.216 151.998 231.023 155.156 231.023Z" fill="#B4E4DF"/>
<path d="M205.004 231.023C208.162 231.023 210.723 228.216 210.723 224.753C210.723 221.29 208.162 218.483 205.004 218.483C201.846 218.483 199.285 221.29 199.285 224.753C199.285 228.216 201.846 231.023 205.004 231.023Z" fill="#B4E4DF"/>
<path d="M254.793 231.023C257.951 231.023 260.512 228.216 260.512 224.753C260.512 221.29 257.951 218.483 254.793 218.483C251.635 218.483 249.074 221.29 249.074 224.753C249.074 228.216 251.635 231.023 254.793 231.023Z" fill="#B4E4DF"/>
<path d="M304.648 231.023C307.807 231.023 310.367 228.216 310.367 224.753C310.367 221.29 307.807 218.483 304.648 218.483C301.49 218.483 298.93 221.29 298.93 224.753C298.93 228.216 301.49 231.023 304.648 231.023Z" fill="#B4E4DF"/>
<path d="M5.71875 285.677C8.87713 285.677 11.4375 282.87 11.4375 279.408C11.4375 275.945 8.87713 273.138 5.71875 273.138C2.56038 273.138 0 275.945 0 279.408C0 282.87 2.56038 285.677 5.71875 285.677Z" fill="#B4E4DF"/>
<path d="M55.5078 285.676C58.6662 285.676 61.2265 282.869 61.2265 279.407C61.2265 275.944 58.6662 273.137 55.5078 273.137C52.3494 273.137 49.7891 275.944 49.7891 279.407C49.7891 282.869 52.3494 285.676 55.5078 285.676Z" fill="#B4E4DF"/>
<path d="M105.363 285.675C108.522 285.675 111.082 282.868 111.082 279.406C111.082 275.943 108.522 273.136 105.363 273.136C102.205 273.136 99.6445 275.943 99.6445 279.406C99.6445 282.868 102.205 285.675 105.363 285.675Z" fill="#B4E4DF"/>
<path d="M155.156 285.675C158.315 285.675 160.875 282.868 160.875 279.406C160.875 275.943 158.315 273.136 155.156 273.136C151.998 273.136 149.438 275.943 149.438 279.406C149.438 282.868 151.998 285.675 155.156 285.675Z" fill="#B4E4DF"/>
<path d="M205.004 285.677C208.162 285.677 210.723 282.87 210.723 279.408C210.723 275.945 208.162 273.138 205.004 273.138C201.846 273.138 199.285 275.945 199.285 279.408C199.285 282.87 201.846 285.677 205.004 285.677Z" fill="#B4E4DF"/>
<path d="M254.793 285.675C257.951 285.675 260.512 282.868 260.512 279.406C260.512 275.943 257.951 273.136 254.793 273.136C251.635 273.136 249.074 275.943 249.074 279.406C249.074 282.868 251.635 285.675 254.793 285.675Z" fill="#B4E4DF"/>
<path d="M304.648 285.675C307.807 285.675 310.367 282.868 310.367 279.406C310.367 275.943 307.807 273.136 304.648 273.136C301.49 273.136 298.93 275.943 298.93 279.406C298.93 282.868 301.49 285.675 304.648 285.675Z" fill="#B4E4DF"/>
<path d="M5.71875 340.263C8.87713 340.263 11.4375 337.456 11.4375 333.994C11.4375 330.531 8.87713 327.724 5.71875 327.724C2.56038 327.724 0 330.531 0 333.994C0 337.456 2.56038 340.263 5.71875 340.263Z" fill="#B4E4DF"/>
<path d="M55.5078 340.264C58.6662 340.264 61.2265 337.457 61.2265 333.994C61.2265 330.532 58.6662 327.725 55.5078 327.725C52.3494 327.725 49.7891 330.532 49.7891 333.994C49.7891 337.457 52.3494 340.264 55.5078 340.264Z" fill="#B4E4DF"/>
<path d="M105.363 340.262C108.522 340.262 111.082 337.455 111.082 333.993C111.082 330.53 108.522 327.723 105.363 327.723C102.205 327.723 99.6445 330.53 99.6445 333.993C99.6445 337.455 102.205 340.262 105.363 340.262Z" fill="#B4E4DF"/>
<path d="M155.156 340.262C158.315 340.262 160.875 337.455 160.875 333.993C160.875 330.53 158.315 327.723 155.156 327.723C151.998 327.723 149.438 330.53 149.438 333.993C149.438 337.455 151.998 340.262 155.156 340.262Z" fill="#B4E4DF"/>
<path d="M205.004 340.263C208.162 340.263 210.723 337.456 210.723 333.994C210.723 330.531 208.162 327.724 205.004 327.724C201.846 327.724 199.285 330.531 199.285 333.994C199.285 337.456 201.846 340.263 205.004 340.263Z" fill="#B4E4DF"/>
<path d="M254.793 340.262C257.951 340.262 260.512 337.455 260.512 333.993C260.512 330.53 257.951 327.723 254.793 327.723C251.635 327.723 249.074 330.53 249.074 333.993C249.074 337.455 251.635 340.262 254.793 340.262Z" fill="#B4E4DF"/>
<path d="M304.648 340.262C307.807 340.262 310.367 337.455 310.367 333.993C310.367 330.53 307.807 327.723 304.648 327.723C301.49 327.723 298.93 330.53 298.93 333.993C298.93 337.455 301.49 340.262 304.648 340.262Z" fill="#B4E4DF"/>
<path d="M5.71875 394.918C8.87713 394.918 11.4375 392.111 11.4375 388.649C11.4375 385.186 8.87713 382.379 5.71875 382.379C2.56038 382.379 0 385.186 0 388.649C0 392.111 2.56038 394.918 5.71875 394.918Z" fill="#B4E4DF"/>
<path d="M55.5078 394.919C58.6662 394.919 61.2265 392.112 61.2265 388.649C61.2265 385.186 58.6662 382.379 55.5078 382.379C52.3494 382.379 49.7891 385.186 49.7891 388.649C49.7891 392.112 52.3494 394.919 55.5078 394.919Z" fill="#B4E4DF"/>
<path d="M105.363 394.917C108.522 394.917 111.082 392.11 111.082 388.648C111.082 385.185 108.522 382.378 105.363 382.378C102.205 382.378 99.6445 385.185 99.6445 388.648C99.6445 392.11 102.205 394.917 105.363 394.917Z" fill="#B4E4DF"/>
<path d="M155.156 394.917C158.315 394.917 160.875 392.11 160.875 388.648C160.875 385.185 158.315 382.378 155.156 382.378C151.998 382.378 149.438 385.185 149.438 388.648C149.438 392.11 151.998 394.917 155.156 394.917Z" fill="#B4E4DF"/>
<path d="M205.004 394.919C208.162 394.919 210.723 392.112 210.723 388.649C210.723 385.186 208.162 382.379 205.004 382.379C201.846 382.379 199.285 385.186 199.285 388.649C199.285 392.112 201.846 394.919 205.004 394.919Z" fill="#B4E4DF"/>
<path d="M254.793 394.917C257.951 394.917 260.512 392.11 260.512 388.648C260.512 385.185 257.951 382.378 254.793 382.378C251.635 382.378 249.074 385.185 249.074 388.648C249.074 392.11 251.635 394.917 254.793 394.917Z" fill="#B4E4DF"/>
<path d="M304.648 394.917C307.807 394.917 310.367 392.11 310.367 388.648C310.367 385.185 307.807 382.378 304.648 382.378C301.49 382.378 298.93 385.185 298.93 388.648C298.93 392.11 301.49 394.917 304.648 394.917Z" fill="#B4E4DF"/>
<path d="M5.71875 449.506C8.87713 449.506 11.4375 446.699 11.4375 443.236C11.4375 439.773 8.87713 436.966 5.71875 436.966C2.56038 436.966 0 439.773 0 443.236C0 446.699 2.56038 449.506 5.71875 449.506Z" fill="#B4E4DF"/>
<path d="M55.5078 449.506C58.6662 449.506 61.2265 446.699 61.2265 443.236C61.2265 439.773 58.6662 436.966 55.5078 436.966C52.3494 436.966 49.7891 439.773 49.7891 443.236C49.7891 446.699 52.3494 449.506 55.5078 449.506Z" fill="#B4E4DF"/>
<path d="M105.363 449.504C108.522 449.504 111.082 446.697 111.082 443.235C111.082 439.772 108.522 436.965 105.363 436.965C102.205 436.965 99.6445 439.772 99.6445 443.235C99.6445 446.697 102.205 449.504 105.363 449.504Z" fill="#B4E4DF"/>
<path d="M155.156 449.504C158.315 449.504 160.875 446.697 160.875 443.235C160.875 439.772 158.315 436.965 155.156 436.965C151.998 436.965 149.438 439.772 149.438 443.235C149.438 446.697 151.998 449.504 155.156 449.504Z" fill="#B4E4DF"/>
<path d="M205.004 449.506C208.162 449.506 210.723 446.699 210.723 443.236C210.723 439.773 208.162 436.966 205.004 436.966C201.846 436.966 199.285 439.773 199.285 443.236C199.285 446.699 201.846 449.506 205.004 449.506Z" fill="#B4E4DF"/>
<path d="M254.793 449.504C257.951 449.504 260.512 446.697 260.512 443.235C260.512 439.772 257.951 436.965 254.793 436.965C251.635 436.965 249.074 439.772 249.074 443.235C249.074 446.697 251.635 449.504 254.793 449.504Z" fill="#B4E4DF"/>
<path d="M304.648 449.504C307.807 449.504 310.367 446.697 310.367 443.235C310.367 439.772 307.807 436.965 304.648 436.965C301.49 436.965 298.93 439.772 298.93 443.235C298.93 446.697 301.49 449.504 304.648 449.504Z" fill="#B4E4DF"/>
</svg>
