<svg width="306" height="450" viewBox="0 0 306 450" fill="none" xmlns="http://www.w3.org/2000/svg">
<path d="M0.363264 12.5397C3.52164 12.5397 6.08202 9.73273 6.08202 6.27011C6.08202 2.8075 3.52164 0.000488281 0.363264 0.000488281C-2.79511 0.000488281 -5.35547 2.8075 -5.35547 6.27011C-5.35547 9.73273 -2.79511 12.5397 0.363264 12.5397Z" fill="#B4E4DF"/>
<path d="M50.1563 12.5397C53.3146 12.5397 55.875 9.73273 55.875 6.27011C55.875 2.8075 53.3146 0.000488281 50.1563 0.000488281C46.9979 0.000488281 44.4375 2.8075 44.4375 6.27011C44.4375 9.73273 46.9979 12.5397 50.1563 12.5397Z" fill="#B4E4DF"/>
<path d="M100.004 12.5392C103.162 12.5392 105.723 9.73224 105.723 6.26962C105.723 2.80701 103.162 0 100.004 0C96.8455 0 94.2852 2.80701 94.2852 6.26962C94.2852 9.73224 96.8455 12.5392 100.004 12.5392Z" fill="#B4E4DF"/>
<path d="M149.793 12.5397C152.951 12.5397 155.512 9.73273 155.512 6.27011C155.512 2.8075 152.951 0.000488281 149.793 0.000488281C146.635 0.000488281 144.074 2.8075 144.074 6.27011C144.074 9.73273 146.635 12.5397 149.793 12.5397Z" fill="#B4E4DF"/>
<path d="M199.648 12.5395C202.807 12.5395 205.367 9.73248 205.367 6.26987C205.367 2.80726 202.807 0.000244141 199.648 0.000244141C196.49 0.000244141 193.93 2.80726 193.93 6.26987C193.93 9.73248 196.49 12.5395 199.648 12.5395Z" fill="#B4E4DF"/>
<path d="M249.434 12.5397C252.592 12.5397 255.152 9.73273 255.152 6.27011C255.152 2.8075 252.592 0.000488281 249.434 0.000488281C246.275 0.000488281 243.715 2.8075 243.715 6.27011C243.715 9.73273 246.275 12.5397 249.434 12.5397Z" fill="#B4E4DF"/>
<path d="M299.293 12.5392C302.451 12.5392 305.012 9.73224 305.012 6.26962C305.012 2.80701 302.451 0 299.293 0C296.135 0 293.574 2.80701 293.574 6.26962C293.574 9.73224 296.135 12.5392 299.293 12.5392Z" fill="#B4E4DF"/>
<path d="M0.363264 67.1945C3.52164 67.1945 6.08202 64.3875 6.08202 60.9249C6.08202 57.4623 3.52164 54.6553 0.363264 54.6553C-2.79511 54.6553 -5.35547 57.4623 -5.35547 60.9249C-5.35547 64.3875 -2.79511 67.1945 0.363264 67.1945Z" fill="#B4E4DF"/>
<path d="M50.1563 67.1945C53.3146 67.1945 55.875 64.3875 55.875 60.9249C55.875 57.4623 53.3146 54.6553 50.1563 54.6553C46.9979 54.6553 44.4375 57.4623 44.4375 60.9249C44.4375 64.3875 46.9979 67.1945 50.1563 67.1945Z" fill="#B4E4DF"/>
<path d="M100.004 67.1942C103.162 67.1942 105.723 64.3873 105.723 60.9247C105.723 57.462 103.162 54.655 100.004 54.655C96.8455 54.655 94.2852 57.462 94.2852 60.9247C94.2852 64.3873 96.8455 67.1942 100.004 67.1942Z" fill="#B4E4DF"/>
<path d="M149.793 67.1945C152.951 67.1945 155.512 64.3875 155.512 60.9249C155.512 57.4623 152.951 54.6553 149.793 54.6553C146.635 54.6553 144.074 57.4623 144.074 60.9249C144.074 64.3875 146.635 67.1945 149.793 67.1945Z" fill="#B4E4DF"/>
<path d="M199.648 67.1945C202.807 67.1945 205.367 64.3875 205.367 60.9249C205.367 57.4623 202.807 54.6553 199.648 54.6553C196.49 54.6553 193.93 57.4623 193.93 60.9249C193.93 64.3875 196.49 67.1945 199.648 67.1945Z" fill="#B4E4DF"/>
<path d="M249.434 67.1945C252.592 67.1945 255.152 64.3875 255.152 60.9249C255.152 57.4623 252.592 54.6553 249.434 54.6553C246.275 54.6553 243.715 57.4623 243.715 60.9249C243.715 64.3875 246.275 67.1945 249.434 67.1945Z" fill="#B4E4DF"/>
<path d="M299.293 67.1942C302.451 67.1942 305.012 64.3873 305.012 60.9247C305.012 57.462 302.451 54.655 299.293 54.655C296.135 54.655 293.574 57.462 293.574 60.9247C293.574 64.3873 296.135 67.1942 299.293 67.1942Z" fill="#B4E4DF"/>
<path d="M0.363264 121.781C3.52164 121.781 6.08202 118.974 6.08202 115.512C6.08202 112.049 3.52164 109.242 0.363264 109.242C-2.79511 109.242 -5.35547 112.049 -5.35547 115.512C-5.35547 118.974 -2.79511 121.781 0.363264 121.781Z" fill="#B4E4DF"/>
<path d="M50.1563 121.781C53.3146 121.781 55.875 118.974 55.875 115.512C55.875 112.049 53.3146 109.242 50.1563 109.242C46.9979 109.242 44.4375 112.049 44.4375 115.512C44.4375 118.974 46.9979 121.781 50.1563 121.781Z" fill="#B4E4DF"/>
<path d="M100.004 121.781C103.162 121.781 105.723 118.974 105.723 115.512C105.723 112.049 103.162 109.242 100.004 109.242C96.8455 109.242 94.2852 112.049 94.2852 115.512C94.2852 118.974 96.8455 121.781 100.004 121.781Z" fill="#B4E4DF"/>
<path d="M149.793 121.781C152.951 121.781 155.512 118.974 155.512 115.512C155.512 112.049 152.951 109.242 149.793 109.242C146.635 109.242 144.074 112.049 144.074 115.512C144.074 118.974 146.635 121.781 149.793 121.781Z" fill="#B4E4DF"/>
<path d="M199.648 121.781C202.807 121.781 205.367 118.974 205.367 115.512C205.367 112.049 202.807 109.242 199.648 109.242C196.49 109.242 193.93 112.049 193.93 115.512C193.93 118.974 196.49 121.781 199.648 121.781Z" fill="#B4E4DF"/>
<path d="M249.434 121.781C252.592 121.781 255.152 118.974 255.152 115.512C255.152 112.049 252.592 109.242 249.434 109.242C246.275 109.242 243.715 112.049 243.715 115.512C243.715 118.974 246.275 121.781 249.434 121.781Z" fill="#B4E4DF"/>
<path d="M299.293 121.781C302.451 121.781 305.012 118.974 305.012 115.512C305.012 112.049 302.451 109.242 299.293 109.242C296.135 109.242 293.574 112.049 293.574 115.512C293.574 118.974 296.135 121.781 299.293 121.781Z" fill="#B4E4DF"/>
<path d="M0.363264 176.436C3.52164 176.436 6.08202 173.629 6.08202 170.166C6.08202 166.703 3.52164 163.896 0.363264 163.896C-2.79511 163.896 -5.35547 166.703 -5.35547 170.166C-5.35547 173.629 -2.79511 176.436 0.363264 176.436Z" fill="#B4E4DF"/>
<path d="M50.1563 176.436C53.3146 176.436 55.875 173.629 55.875 170.166C55.875 166.703 53.3146 163.896 50.1563 163.896C46.9979 163.896 44.4375 166.703 44.4375 170.166C44.4375 173.629 46.9979 176.436 50.1563 176.436Z" fill="#B4E4DF"/>
<path d="M100.004 176.436C103.162 176.436 105.723 173.629 105.723 170.166C105.723 166.703 103.162 163.896 100.004 163.896C96.8455 163.896 94.2852 166.703 94.2852 170.166C94.2852 173.629 96.8455 176.436 100.004 176.436Z" fill="#B4E4DF"/>
<path d="M149.793 176.436C152.951 176.436 155.512 173.629 155.512 170.166C155.512 166.703 152.951 163.896 149.793 163.896C146.635 163.896 144.074 166.703 144.074 170.166C144.074 173.629 146.635 176.436 149.793 176.436Z" fill="#B4E4DF"/>
<path d="M199.648 176.436C202.807 176.436 205.367 173.629 205.367 170.166C205.367 166.703 202.807 163.896 199.648 163.896C196.49 163.896 193.93 166.703 193.93 170.166C193.93 173.629 196.49 176.436 199.648 176.436Z" fill="#B4E4DF"/>
<path d="M249.434 176.436C252.592 176.436 255.152 173.629 255.152 170.166C255.152 166.703 252.592 163.896 249.434 163.896C246.275 163.896 243.715 166.703 243.715 170.166C243.715 173.629 246.275 176.436 249.434 176.436Z" fill="#B4E4DF"/>
<path d="M299.293 176.436C302.451 176.436 305.012 173.629 305.012 170.166C305.012 166.703 302.451 163.896 299.293 163.896C296.135 163.896 293.574 166.703 293.574 170.166C293.574 173.629 296.135 176.436 299.293 176.436Z" fill="#B4E4DF"/>
<path d="M0.363264 231.023C3.52164 231.023 6.08202 228.216 6.08202 224.753C6.08202 221.29 3.52164 218.483 0.363264 218.483C-2.79511 218.483 -5.35547 221.29 -5.35547 224.753C-5.35547 228.216 -2.79511 231.023 0.363264 231.023Z" fill="#B4E4DF"/>
<path d="M50.1563 231.023C53.3146 231.023 55.875 228.216 55.875 224.753C55.875 221.29 53.3146 218.483 50.1563 218.483C46.9979 218.483 44.4375 221.29 44.4375 224.753C44.4375 228.216 46.9979 231.023 50.1563 231.023Z" fill="#B4E4DF"/>
<path d="M100.004 231.023C103.162 231.023 105.723 228.216 105.723 224.753C105.723 221.29 103.162 218.483 100.004 218.483C96.8455 218.483 94.2852 221.29 94.2852 224.753C94.2852 228.216 96.8455 231.023 100.004 231.023Z" fill="#B4E4DF"/>
<path d="M149.793 231.023C152.951 231.023 155.512 228.216 155.512 224.753C155.512 221.29 152.951 218.483 149.793 218.483C146.635 218.483 144.074 221.29 144.074 224.753C144.074 228.216 146.635 231.023 149.793 231.023Z" fill="#B4E4DF"/>
<path d="M199.648 231.023C202.807 231.023 205.367 228.216 205.367 224.753C205.367 221.29 202.807 218.483 199.648 218.483C196.49 218.483 193.93 221.29 193.93 224.753C193.93 228.216 196.49 231.023 199.648 231.023Z" fill="#B4E4DF"/>
<path d="M249.434 231.023C252.592 231.023 255.152 228.216 255.152 224.753C255.152 221.29 252.592 218.483 249.434 218.483C246.275 218.483 243.715 221.29 243.715 224.753C243.715 228.216 246.275 231.023 249.434 231.023Z" fill="#B4E4DF"/>
<path d="M299.293 231.023C302.451 231.023 305.012 228.216 305.012 224.753C305.012 221.29 302.451 218.483 299.293 218.483C296.135 218.483 293.574 221.29 293.574 224.753C293.574 228.216 296.135 231.023 299.293 231.023Z" fill="#B4E4DF"/>
<path d="M0.363264 285.675C3.52164 285.675 6.08202 282.868 6.08202 279.406C6.08202 275.943 3.52164 273.136 0.363264 273.136C-2.79511 273.136 -5.35547 275.943 -5.35547 279.406C-5.35547 282.868 -2.79511 285.675 0.363264 285.675Z" fill="#B4E4DF"/>
<path d="M50.1563 285.675C53.3146 285.675 55.875 282.868 55.875 279.406C55.875 275.943 53.3146 273.136 50.1563 273.136C46.9979 273.136 44.4375 275.943 44.4375 279.406C44.4375 282.868 46.9979 285.675 50.1563 285.675Z" fill="#B4E4DF"/>
<path d="M100.004 285.677C103.162 285.677 105.723 282.87 105.723 279.408C105.723 275.945 103.162 273.138 100.004 273.138C96.8455 273.138 94.2852 275.945 94.2852 279.408C94.2852 282.87 96.8455 285.677 100.004 285.677Z" fill="#B4E4DF"/>
<path d="M149.793 285.675C152.951 285.675 155.512 282.868 155.512 279.406C155.512 275.943 152.951 273.136 149.793 273.136C146.635 273.136 144.074 275.943 144.074 279.406C144.074 282.868 146.635 285.675 149.793 285.675Z" fill="#B4E4DF"/>
<path d="M199.648 285.675C202.807 285.675 205.367 282.868 205.367 279.406C205.367 275.943 202.807 273.136 199.648 273.136C196.49 273.136 193.93 275.943 193.93 279.406C193.93 282.868 196.49 285.675 199.648 285.675Z" fill="#B4E4DF"/>
<path d="M249.434 285.675C252.592 285.675 255.152 282.868 255.152 279.406C255.152 275.943 252.592 273.136 249.434 273.136C246.275 273.136 243.715 275.943 243.715 279.406C243.715 282.868 246.275 285.675 249.434 285.675Z" fill="#B4E4DF"/>
<path d="M299.293 285.675C302.451 285.675 305.012 282.868 305.012 279.406C305.012 275.943 302.451 273.136 299.293 273.136C296.135 273.136 293.574 275.943 293.574 279.406C293.574 282.868 296.135 285.675 299.293 285.675Z" fill="#B4E4DF"/>
<path d="M0.363264 340.262C3.52164 340.262 6.08202 337.455 6.08202 333.993C6.08202 330.53 3.52164 327.723 0.363264 327.723C-2.79511 327.723 -5.35547 330.53 -5.35547 333.993C-5.35547 337.455 -2.79511 340.262 0.363264 340.262Z" fill="#B4E4DF"/>
<path d="M50.1563 340.262C53.3146 340.262 55.875 337.455 55.875 333.993C55.875 330.53 53.3146 327.723 50.1563 327.723C46.9979 327.723 44.4375 330.53 44.4375 333.993C44.4375 337.455 46.9979 340.262 50.1563 340.262Z" fill="#B4E4DF"/>
<path d="M100.004 340.263C103.162 340.263 105.723 337.456 105.723 333.994C105.723 330.531 103.162 327.724 100.004 327.724C96.8455 327.724 94.2852 330.531 94.2852 333.994C94.2852 337.456 96.8455 340.263 100.004 340.263Z" fill="#B4E4DF"/>
<path d="M149.793 340.262C152.951 340.262 155.512 337.455 155.512 333.993C155.512 330.53 152.951 327.723 149.793 327.723C146.635 327.723 144.074 330.53 144.074 333.993C144.074 337.455 146.635 340.262 149.793 340.262Z" fill="#B4E4DF"/>
<path d="M199.648 340.262C202.807 340.262 205.367 337.455 205.367 333.993C205.367 330.53 202.807 327.723 199.648 327.723C196.49 327.723 193.93 330.53 193.93 333.993C193.93 337.455 196.49 340.262 199.648 340.262Z" fill="#B4E4DF"/>
<path d="M249.434 340.262C252.592 340.262 255.152 337.455 255.152 333.993C255.152 330.53 252.592 327.723 249.434 327.723C246.275 327.723 243.715 330.53 243.715 333.993C243.715 337.455 246.275 340.262 249.434 340.262Z" fill="#B4E4DF"/>
<path d="M299.293 340.262C302.451 340.262 305.012 337.455 305.012 333.993C305.012 330.53 302.451 327.723 299.293 327.723C296.135 327.723 293.574 330.53 293.574 333.993C293.574 337.455 296.135 340.262 299.293 340.262Z" fill="#B4E4DF"/>
<path d="M0.363264 394.917C3.52164 394.917 6.08202 392.11 6.08202 388.648C6.08202 385.185 3.52164 382.378 0.363264 382.378C-2.79511 382.378 -5.35547 385.185 -5.35547 388.648C-5.35547 392.11 -2.79511 394.917 0.363264 394.917Z" fill="#B4E4DF"/>
<path d="M50.1563 394.917C53.3146 394.917 55.875 392.11 55.875 388.648C55.875 385.185 53.3146 382.378 50.1563 382.378C46.9979 382.378 44.4375 385.185 44.4375 388.648C44.4375 392.11 46.9979 394.917 50.1563 394.917Z" fill="#B4E4DF"/>
<path d="M100.004 394.919C103.162 394.919 105.723 392.112 105.723 388.649C105.723 385.186 103.162 382.379 100.004 382.379C96.8455 382.379 94.2852 385.186 94.2852 388.649C94.2852 392.112 96.8455 394.919 100.004 394.919Z" fill="#B4E4DF"/>
<path d="M149.793 394.917C152.951 394.917 155.512 392.11 155.512 388.648C155.512 385.185 152.951 382.378 149.793 382.378C146.635 382.378 144.074 385.185 144.074 388.648C144.074 392.11 146.635 394.917 149.793 394.917Z" fill="#B4E4DF"/>
<path d="M199.648 394.917C202.807 394.917 205.367 392.11 205.367 388.648C205.367 385.185 202.807 382.378 199.648 382.378C196.49 382.378 193.93 385.185 193.93 388.648C193.93 392.11 196.49 394.917 199.648 394.917Z" fill="#B4E4DF"/>
<path d="M249.434 394.917C252.592 394.917 255.152 392.11 255.152 388.648C255.152 385.185 252.592 382.378 249.434 382.378C246.275 382.378 243.715 385.185 243.715 388.648C243.715 392.11 246.275 394.917 249.434 394.917Z" fill="#B4E4DF"/>
<path d="M299.293 394.917C302.451 394.917 305.012 392.11 305.012 388.647C305.012 385.184 302.451 382.377 299.293 382.377C296.135 382.377 293.574 385.184 293.574 388.647C293.574 392.11 296.135 394.917 299.293 394.917Z" fill="#B4E4DF"/>
<path d="M0.363264 449.504C3.52164 449.504 6.08202 446.697 6.08202 443.235C6.08202 439.772 3.52164 436.965 0.363264 436.965C-2.79511 436.965 -5.35547 439.772 -5.35547 443.235C-5.35547 446.697 -2.79511 449.504 0.363264 449.504Z" fill="#B4E4DF"/>
<path d="M50.1563 449.504C53.3146 449.504 55.875 446.697 55.875 443.235C55.875 439.772 53.3146 436.965 50.1563 436.965C46.9979 436.965 44.4375 439.772 44.4375 443.235C44.4375 446.697 46.9979 449.504 50.1563 449.504Z" fill="#B4E4DF"/>
<path d="M100.004 449.506C103.162 449.506 105.723 446.699 105.723 443.236C105.723 439.773 103.162 436.966 100.004 436.966C96.8455 436.966 94.2852 439.773 94.2852 443.236C94.2852 446.699 96.8455 449.506 100.004 449.506Z" fill="#B4E4DF"/>
<path d="M149.793 449.504C152.951 449.504 155.512 446.697 155.512 443.235C155.512 439.772 152.951 436.965 149.793 436.965C146.635 436.965 144.074 439.772 144.074 443.235C144.074 446.697 146.635 449.504 149.793 449.504Z" fill="#B4E4DF"/>
<path d="M199.648 449.504C202.807 449.504 205.367 446.697 205.367 443.235C205.367 439.772 202.807 436.965 199.648 436.965C196.49 436.965 193.93 439.772 193.93 443.235C193.93 446.697 196.49 449.504 199.648 449.504Z" fill="#B4E4DF"/>
<path d="M249.434 449.504C252.592 449.504 255.152 446.697 255.152 443.235C255.152 439.772 252.592 436.965 249.434 436.965C246.275 436.965 243.715 439.772 243.715 443.235C243.715 446.697 246.275 449.504 249.434 449.504Z" fill="#B4E4DF"/>
<path d="M299.293 449.504C302.451 449.504 305.012 446.697 305.012 443.235C305.012 439.772 302.451 436.965 299.293 436.965C296.135 436.965 293.574 439.772 293.574 443.235C293.574 446.697 296.135 449.504 299.293 449.504Z" fill="#B4E4DF"/>
</svg>
