<svg width="245" height="154" viewBox="0 0 245 154" fill="none" xmlns="http://www.w3.org/2000/svg">
    <rect x="1" y="1" width="243" height="152" rx="8" fill="#E1F4F2" stroke="#C3E9E5" stroke-width="2"/>
    <g clip-path="url(#clip0_1789_6622)">
    <path d="M35 107.126H69.0258V111.983H35V107.126Z" fill="#1F70C1"/>
    <path d="M35 97.8099H69.0258V102.684H35V97.8099Z" fill="#1F70C1"/>
    <path d="M44.707 88.511H59.3019V93.3851H44.707V88.511Z" fill="#1F70C1"/>
    <path d="M44.707 79.2124H59.3019V84.0865H44.707V79.2124Z" fill="#1F70C1"/>
    <path d="M44.707 69.9135H59.3019V74.7876H44.707V69.9135Z" fill="#1F70C1"/>
    <path d="M44.707 60.5975H59.3019V65.4716H44.707V60.5975Z" fill="#1F70C1"/>
    <path d="M69.0258 51.2987H35V56.1728H69.0258V51.2987Z" fill="#1F70C1"/>
    <path d="M69.0258 42H35V46.8741H69.0258V42Z" fill="#1F70C1"/>
    <path d="M110.124 42H73.8789V46.8741H122.621C119.362 43.8666 114.942 42 110.124 42Z" fill="#1F70C1"/>
    <path d="M98.181 60.5975H83.6035V65.4716H98.181V60.5975Z" fill="#1F70C1"/>
    <path d="M83.6035 88.511H98.181V93.3851H83.6035V88.511Z" fill="#1F70C1"/>
    <path d="M160.062 42H132.225V46.8741H161.744L160.062 42Z" fill="#1F70C1"/>
    <path d="M185.682 107.126H210.001V111.983H185.682V107.126Z" fill="#1F70C1"/>
    <path d="M185.682 97.8099H210.001V102.684H185.682V97.8099Z" fill="#1F70C1"/>
    <path d="M185.682 88.511H200.276V93.3851H185.682V88.511Z" fill="#1F70C1"/>
    <path d="M185.682 79.2124H200.276V84.0865H185.682V79.2124Z" fill="#1F70C1"/>
    <path d="M200.276 60.5975H175.697L174.016 65.4716H200.276V60.5975Z" fill="#1F70C1"/>
    <path d="M182.163 42L180.481 46.8741H210.001V42H182.163Z" fill="#1F70C1"/>
    <path d="M171.104 111.948L172.785 107.126H169.423L171.104 111.948Z" fill="#1F70C1"/>
    <path d="M167.88 102.684H174.328L176.062 97.8099H166.164L167.88 102.684Z" fill="#1F70C1"/>
    <path d="M164.604 93.3851H177.604L179.32 88.511H162.888L164.604 93.3851Z" fill="#1F70C1"/>
    <path d="M161.344 84.0865H180.879L182.543 79.2124H159.663L161.344 84.0865Z" fill="#1F70C1"/>
    <path d="M73.8789 102.684H126.209C127.093 101.18 127.752 99.5382 128.15 97.8098H73.8789V102.684Z" fill="#1F70C1"/>
    <path d="M122.136 79.2124H83.6035V84.0865H126.21C125.1 82.2197 123.731 80.5779 122.136 79.2124Z" fill="#1F70C1"/>
    <path d="M83.6035 69.9135V74.7876H122.136C123.765 73.4222 125.135 71.7801 126.21 69.9135H83.6035Z" fill="#1F70C1"/>
    <path d="M126.209 51.2987H73.8789V56.1728H128.15C127.7 54.4444 127.041 52.8025 126.209 51.2987Z" fill="#1F70C1"/>
    <path d="M112.775 65.4716H128.029C128.462 63.9162 128.688 62.2741 128.688 60.5975H112.775V65.4716Z" fill="#1F70C1"/>
    <path d="M112.775 88.511V93.3851H128.688C128.688 91.7086 128.462 90.0667 128.029 88.511H112.775Z" fill="#1F70C1"/>
    <path d="M73.8789 111.948L110.124 112C114.977 112 119.362 110.133 122.638 107.126H73.8789V111.948Z" fill="#1F70C1"/>
    <path d="M132.225 107.126H156.526V111.983H132.225V107.126Z" fill="#1F70C1"/>
    <path d="M132.225 97.8099H156.526V102.684H132.225V97.8099Z" fill="#1F70C1"/>
    <path d="M141.932 88.511H156.526V93.3851H141.932V88.511Z" fill="#1F70C1"/>
    <path d="M141.932 79.2124H156.526V84.0865H141.932V79.2124Z" fill="#1F70C1"/>
    <path d="M163.286 51.2987H132.225V56.1728H164.968L163.286 51.2987Z" fill="#1F70C1"/>
    <path d="M185.682 74.7876H200.276V69.9135H185.682H172.474L171.104 73.8544L169.735 69.9135H156.526H141.932V74.7876H156.526V70.311L158.069 74.7876H184.139L185.682 70.311V74.7876Z" fill="#1F70C1"/>
    <path d="M141.932 65.4716H168.192L166.511 60.5975H141.932V65.4716Z" fill="#1F70C1"/>
    <path d="M177.257 56.1728H210V51.2987H178.921L177.257 56.1728Z" fill="#1F70C1"/>
    </g>
    <defs>
    <clipPath id="clip0_1789_6622">
    <rect width="175" height="70" fill="white" transform="translate(35 42)"/>
    </clipPath>
    </defs>
    </svg>
    