<svg width="175" height="70" viewBox="0 0 175 70" fill="none" xmlns="http://www.w3.org/2000/svg">
<g clip-path="url(#clip0_1764_6249)">
<path d="M0 65.1259H34.0258V69.9827H0V65.1259Z" fill="#1F70C1"/>
<path d="M0 55.8099H34.0258V60.6839H0V55.8099Z" fill="#1F70C1"/>
<path d="M9.70703 46.511H24.3019V51.3851H9.70703V46.511Z" fill="#1F70C1"/>
<path d="M9.70703 37.2124H24.3019V42.0865H9.70703V37.2124Z" fill="#1F70C1"/>
<path d="M9.70703 27.9135H24.3019V32.7876H9.70703V27.9135Z" fill="#1F70C1"/>
<path d="M9.70703 18.5975H24.3019V23.4716H9.70703V18.5975Z" fill="#1F70C1"/>
<path d="M34.0258 9.29871H0V14.1728H34.0258V9.29871Z" fill="#1F70C1"/>
<path d="M34.0258 0H0V4.8741H34.0258V0Z" fill="#1F70C1"/>
<path d="M38.8789 60.6838H91.209C92.0929 59.1802 92.7516 57.5382 93.1504 55.8098H38.8789V60.6838Z" fill="#1F70C1"/>
<path d="M87.1361 37.2124H48.6035V42.0865H91.2095C90.1 40.2197 88.7307 38.5779 87.1361 37.2124Z" fill="#1F70C1"/>
<path d="M48.6035 27.9135V32.7876H87.1361C88.7655 31.4222 90.1347 29.7801 91.2095 27.9135H48.6035Z" fill="#1F70C1"/>
<path d="M91.2092 9.29871H38.8789V14.1728H93.1504C92.6998 12.4444 92.0411 10.8025 91.2092 9.29871Z" fill="#1F70C1"/>
<path d="M75.1235 0H38.8789V4.8741H87.621C84.3623 1.86661 79.9423 0 75.1235 0Z" fill="#1F70C1"/>
<path d="M63.181 18.5975H48.6035V23.4716H63.181V18.5975Z" fill="#1F70C1"/>
<path d="M77.7754 23.4716H93.0289C93.4622 21.9162 93.6876 20.2741 93.6876 18.5975H77.7754V23.4716Z" fill="#1F70C1"/>
<path d="M48.6035 46.511H63.181V51.3851H48.6035V46.511Z" fill="#1F70C1"/>
<path d="M77.7754 46.511V51.3851H93.6876C93.6876 49.7086 93.4622 48.0667 93.0289 46.511H77.7754Z" fill="#1F70C1"/>
<path d="M38.8789 69.9482L75.1235 70C79.977 70 84.3623 68.1334 87.6383 65.1259H38.8789V69.9482Z" fill="#1F70C1"/>
<path d="M97.2246 65.1259H121.526V69.9827H97.2246V65.1259Z" fill="#1F70C1"/>
<path d="M97.2246 55.8099H121.526V60.6839H97.2246V55.8099Z" fill="#1F70C1"/>
<path d="M106.932 46.511H121.526V51.3851H106.932V46.511Z" fill="#1F70C1"/>
<path d="M106.932 37.2124H121.526V42.0865H106.932V37.2124Z" fill="#1F70C1"/>
<path d="M128.286 9.29871H97.2246V14.1728H129.968L128.286 9.29871Z" fill="#1F70C1"/>
<path d="M125.062 0H97.2246V4.8741H126.744L125.062 0Z" fill="#1F70C1"/>
<path d="M150.682 65.1259H175.001V69.9827H150.682V65.1259Z" fill="#1F70C1"/>
<path d="M150.682 55.8099H175.001V60.6839H150.682V55.8099Z" fill="#1F70C1"/>
<path d="M150.682 46.511H165.276V51.3851H150.682V46.511Z" fill="#1F70C1"/>
<path d="M150.682 37.2124H165.276V42.0865H150.682V37.2124Z" fill="#1F70C1"/>
<path d="M150.682 32.7876H165.276V27.9135H150.682H137.474L136.104 31.8544L134.735 27.9135H121.526H106.932V32.7876H121.526V28.311L123.069 32.7876H149.139L150.682 28.311V32.7876Z" fill="#1F70C1"/>
<path d="M165.276 18.5975H140.697L139.016 23.4716H165.276V18.5975Z" fill="#1F70C1"/>
<path d="M147.163 0L145.481 4.8741H175.001V0H147.163Z" fill="#1F70C1"/>
<path d="M136.104 69.9482L137.785 65.1259H134.423L136.104 69.9482Z" fill="#1F70C1"/>
<path d="M132.88 60.6839H139.328L141.062 55.8099H131.164L132.88 60.6839Z" fill="#1F70C1"/>
<path d="M129.604 51.3851H142.604L144.32 46.511H127.888L129.604 51.3851Z" fill="#1F70C1"/>
<path d="M126.344 42.0865H145.879L147.543 37.2124H124.663L126.344 42.0865Z" fill="#1F70C1"/>
<path d="M106.932 23.4716H133.192L131.511 18.5975H106.932V23.4716Z" fill="#1F70C1"/>
<path d="M142.257 14.1728H175V9.29871H143.921L142.257 14.1728Z" fill="#1F70C1"/>
</g>
<defs>
<clipPath id="clip0_1764_6249">
<rect width="175" height="70" fill="white"/>
</clipPath>
</defs>
</svg>
