<svg width="245" height="154" viewBox="0 0 245 154" fill="none" xmlns="http://www.w3.org/2000/svg">
<rect x="1" y="1" width="243" height="152" rx="8" fill="#E1F4F2" stroke="#C3E9E5" stroke-width="2"/>
<path d="M166.092 33H79V120.092H166.092V33Z" fill="#010101"/>
<path d="M121.182 103.778H88.49V109.238H121.182V103.778ZM87.125 55.488L89.53 53.213C90.18 53.993 90.83 54.448 91.675 54.448C92.585 54.448 93.235 53.798 93.235 52.563V43.983H97.005V52.628C97.005 54.318 96.549 55.553 95.639 56.462C94.729 57.372 93.494 57.827 91.935 57.827C89.53 57.762 88.1 56.788 87.125 55.488ZM98.629 43.918H109.612V47.104H102.397V49.184H108.897V52.173H102.397V54.318H109.677V57.502H98.627V43.92L98.629 43.918ZM114.942 47.234H110.848V43.919H122.742V47.233H118.712V57.503H114.942V47.234ZM88.62 62.896H95.054C96.744 62.896 97.979 63.351 98.759 64.131C99.279 64.716 99.604 65.431 99.604 66.341V66.406C99.604 67.966 98.694 68.94 97.524 69.46C99.149 69.98 100.254 70.955 100.254 72.775V72.84C100.254 75.18 98.369 76.61 95.119 76.61H88.685V62.897H88.62V62.896ZM95.9 67.056C95.9 66.276 95.314 65.886 94.21 65.886H92.324V68.291H94.144C95.249 68.291 95.9 67.901 95.9 67.056ZM94.6 70.955H92.26V73.49H94.6C95.77 73.49 96.42 73.035 96.42 72.255V72.19C96.484 71.41 95.9 70.955 94.6 70.955ZM101.424 62.896H107.468C109.548 62.896 110.978 63.416 111.888 64.326C112.668 65.106 113.123 66.146 113.123 67.511V67.576C113.123 69.655 112.018 71.02 110.328 71.8L113.578 76.545H109.222L106.492 72.45H105.257V76.545H101.487V62.897H101.423L101.424 62.896ZM107.338 69.395C108.573 69.395 109.353 68.746 109.353 67.771V67.706C109.353 66.601 108.573 66.081 107.338 66.081H105.258V69.395H107.338Z" fill="white"/>
<path d="M118.322 62.767H121.962L127.746 76.481H123.717L122.742 74.011H117.477L116.502 76.481H112.602L118.322 62.767ZM121.637 71.086L120.142 67.251L118.582 71.086H121.637ZM132.101 62.832H128.331V76.416H132.101V62.832ZM133.531 62.832H137.04L141.98 70.046V62.832H145.684V76.416H142.37L137.3 69.006V76.416H133.531V62.832ZM146.334 74.401L148.414 71.866C149.779 72.906 151.274 73.491 152.834 73.491C153.874 73.491 154.394 73.166 154.394 72.581V72.516C154.394 71.931 153.939 71.671 152.054 71.216C149.129 70.566 146.919 69.721 146.919 66.992V66.927C146.919 64.392 148.934 62.572 152.184 62.572C154.524 62.572 156.278 63.222 157.773 64.392L155.888 67.057C154.654 66.147 153.289 65.692 152.054 65.692C151.144 65.692 150.689 66.082 150.689 66.537V66.602C150.689 67.252 151.144 67.512 153.029 67.902C156.148 68.552 158.098 69.591 158.098 72.126V72.191C158.098 74.986 155.888 76.611 152.574 76.611C150.299 76.676 148.024 75.896 146.334 74.401Z" fill="white"/>
</svg>
