<svg width="269" height="304" viewBox="0 0 269 304" fill="none" xmlns="http://www.w3.org/2000/svg">
<path d="M4.12857 8.4803C6.40871 8.4803 8.25713 6.58192 8.25713 4.24015C8.25713 1.89838 6.40871 -6.67871e-08 4.12857 -4.30251e-08C1.84843 -1.9263e-08 1.37986e-08 1.89838 3.082e-08 4.24015C4.78414e-08 6.58192 1.84843 8.4803 4.12857 8.4803Z" fill="#B4E4DF"/>
<path d="M40.0739 8.4803C42.354 8.4803 44.2024 6.58192 44.2024 4.24015C44.2024 1.89838 42.354 -6.67871e-08 40.0739 -4.30251e-08C37.7937 -1.9263e-08 35.9453 1.89838 35.9453 4.24015C35.9453 6.58192 37.7937 8.4803 40.0739 8.4803Z" fill="#B4E4DF"/>
<path d="M76.0641 8.4803C78.3442 8.4803 80.1927 6.58192 80.1927 4.24015C80.1927 1.89838 78.3442 -6.6787e-08 76.0641 -4.30249e-08C73.784 -1.92629e-08 71.9355 1.89838 71.9355 4.24015C71.9355 6.58192 73.784 8.4803 76.0641 8.4803Z" fill="#B4E4DF"/>
<path d="M112.009 8.4803C114.29 8.4803 116.138 6.58192 116.138 4.24015C116.138 1.89838 114.29 -6.67871e-08 112.009 -4.30251e-08C109.729 -1.9263e-08 107.881 1.89838 107.881 4.24015C107.881 6.58192 109.729 8.4803 112.009 8.4803Z" fill="#B4E4DF"/>
<path d="M148 8.4803C150.28 8.4803 152.128 6.58192 152.128 4.24015C152.128 1.89838 150.28 -6.67871e-08 148 -4.30251e-08C145.72 -1.9263e-08 143.871 1.89838 143.871 4.24015C143.871 6.58192 145.72 8.4803 148 8.4803Z" fill="#B4E4DF"/>
<path d="M183.945 8.4803C186.225 8.4803 188.074 6.58192 188.074 4.24015C188.074 1.89838 186.225 -6.67871e-08 183.945 -4.30251e-08C181.665 -1.9263e-08 179.816 1.89838 179.816 4.24015C179.816 6.58192 181.665 8.4803 183.945 8.4803Z" fill="#B4E4DF"/>
<path d="M219.935 8.4803C222.215 8.4803 224.064 6.58192 224.064 4.24015C224.064 1.89838 222.215 -6.67871e-08 219.935 -4.30251e-08C217.655 -1.9263e-08 215.807 1.89838 215.807 4.24015C215.807 6.58192 217.655 8.4803 219.935 8.4803Z" fill="#B4E4DF"/>
<path d="M255.88 8.4803C258.161 8.4803 260.009 6.58192 260.009 4.24015C260.009 1.89838 258.161 -6.67869e-08 255.88 -4.30248e-08C253.6 -1.92627e-08 251.752 1.89838 251.752 4.24015C251.752 6.58192 253.6 8.4803 255.88 8.4803Z" fill="#B4E4DF"/>
<path d="M4.12857 45.4433C6.40871 45.4433 8.25713 43.5449 8.25713 41.2032C8.25713 38.8614 6.40871 36.963 4.12857 36.963C1.84843 36.963 1.13048e-08 38.8614 2.52499e-08 41.2032C3.9195e-08 43.5449 1.84843 45.4433 4.12857 45.4433Z" fill="#B4E4DF"/>
<path d="M40.0739 45.4433C42.354 45.4433 44.2024 43.5449 44.2024 41.2032C44.2024 38.8614 42.354 36.963 40.0739 36.963C37.7937 36.963 35.9453 38.8614 35.9453 41.2032C35.9453 43.5449 37.7937 45.4433 40.0739 45.4433Z" fill="#B4E4DF"/>
<path d="M76.0641 45.4433C78.3442 45.4433 80.1927 43.5449 80.1927 41.2032C80.1927 38.8614 78.3442 36.963 76.0641 36.963C73.784 36.963 71.9355 38.8614 71.9355 41.2032C71.9355 43.5449 73.784 45.4433 76.0641 45.4433Z" fill="#B4E4DF"/>
<path d="M112.009 45.4433C114.29 45.4433 116.138 43.5449 116.138 41.2032C116.138 38.8614 114.29 36.963 112.009 36.963C109.729 36.963 107.881 38.8614 107.881 41.2032C107.881 43.5449 109.729 45.4433 112.009 45.4433Z" fill="#B4E4DF"/>
<path d="M148 45.4433C150.28 45.4433 152.128 43.5449 152.128 41.2032C152.128 38.8614 150.28 36.963 148 36.963C145.72 36.963 143.871 38.8614 143.871 41.2032C143.871 43.5449 145.72 45.4433 148 45.4433Z" fill="#B4E4DF"/>
<path d="M183.945 45.4433C186.225 45.4433 188.074 43.5449 188.074 41.2032C188.074 38.8614 186.225 36.963 183.945 36.963C181.665 36.963 179.816 38.8614 179.816 41.2032C179.816 43.5449 181.665 45.4433 183.945 45.4433Z" fill="#B4E4DF"/>
<path d="M219.935 45.4433C222.215 45.4433 224.064 43.5449 224.064 41.2032C224.064 38.8614 222.215 36.963 219.935 36.963C217.655 36.963 215.807 38.8614 215.807 41.2032C215.807 43.5449 217.655 45.4433 219.935 45.4433Z" fill="#B4E4DF"/>
<path d="M255.88 45.4433C258.161 45.4433 260.009 43.5449 260.009 41.2032C260.009 38.8614 258.161 36.963 255.88 36.963C253.6 36.963 251.752 38.8614 251.752 41.2032C251.752 43.5449 253.6 45.4433 255.88 45.4433Z" fill="#B4E4DF"/>
<path d="M4.12857 82.3603C6.40871 82.3603 8.25713 80.4619 8.25713 78.1202C8.25713 75.7784 6.40871 73.88 4.12857 73.88C1.84843 73.88 1.13048e-08 75.7784 2.52499e-08 78.1202C3.9195e-08 80.4619 1.84843 82.3603 4.12857 82.3603Z" fill="#B4E4DF"/>
<path d="M40.0739 82.3603C42.354 82.3603 44.2024 80.4619 44.2024 78.1202C44.2024 75.7784 42.354 73.88 40.0739 73.88C37.7937 73.88 35.9453 75.7784 35.9453 78.1202C35.9453 80.4619 37.7937 82.3603 40.0739 82.3603Z" fill="#B4E4DF"/>
<path d="M76.0641 82.3603C78.3442 82.3603 80.1927 80.4619 80.1927 78.1202C80.1927 75.7784 78.3442 73.88 76.0641 73.88C73.784 73.88 71.9355 75.7784 71.9355 78.1202C71.9355 80.4619 73.784 82.3603 76.0641 82.3603Z" fill="#B4E4DF"/>
<path d="M112.009 82.3603C114.29 82.3603 116.138 80.4619 116.138 78.1202C116.138 75.7784 114.29 73.88 112.009 73.88C109.729 73.88 107.881 75.7784 107.881 78.1202C107.881 80.4619 109.729 82.3603 112.009 82.3603Z" fill="#B4E4DF"/>
<path d="M148 82.3603C150.28 82.3603 152.128 80.4619 152.128 78.1202C152.128 75.7784 150.28 73.88 148 73.88C145.72 73.88 143.871 75.7784 143.871 78.1202C143.871 80.4619 145.72 82.3603 148 82.3603Z" fill="#B4E4DF"/>
<path d="M183.945 82.3603C186.225 82.3603 188.074 80.4619 188.074 78.1202C188.074 75.7784 186.225 73.88 183.945 73.88C181.665 73.88 179.816 75.7784 179.816 78.1202C179.816 80.4619 181.665 82.3603 183.945 82.3603Z" fill="#B4E4DF"/>
<path d="M219.935 82.3603C222.215 82.3603 224.064 80.4619 224.064 78.1202C224.064 75.7784 222.215 73.88 219.935 73.88C217.655 73.88 215.807 75.7784 215.807 78.1202C215.807 80.4619 217.655 82.3603 219.935 82.3603Z" fill="#B4E4DF"/>
<path d="M255.88 82.3603C258.161 82.3603 260.009 80.4619 260.009 78.1202C260.009 75.7784 258.161 73.88 255.88 73.88C253.6 73.88 251.752 75.7784 251.752 78.1202C251.752 80.4619 253.6 82.3603 255.88 82.3603Z" fill="#B4E4DF"/>
<path d="M4.12857 119.323C6.40871 119.323 8.25713 117.425 8.25713 115.083C8.25713 112.741 6.40871 110.843 4.12857 110.843C1.84843 110.843 1.13048e-08 112.741 2.52499e-08 115.083C3.9195e-08 117.425 1.84843 119.323 4.12857 119.323Z" fill="#B4E4DF"/>
<path d="M40.0739 119.323C42.354 119.323 44.2024 117.425 44.2024 115.083C44.2024 112.741 42.354 110.843 40.0739 110.843C37.7937 110.843 35.9453 112.741 35.9453 115.083C35.9453 117.425 37.7937 119.323 40.0739 119.323Z" fill="#B4E4DF"/>
<path d="M76.0641 119.323C78.3442 119.323 80.1927 117.425 80.1927 115.083C80.1927 112.741 78.3442 110.843 76.0641 110.843C73.784 110.843 71.9355 112.741 71.9355 115.083C71.9355 117.425 73.784 119.323 76.0641 119.323Z" fill="#B4E4DF"/>
<path d="M112.009 119.323C114.29 119.323 116.138 117.425 116.138 115.083C116.138 112.741 114.29 110.843 112.009 110.843C109.729 110.843 107.881 112.741 107.881 115.083C107.881 117.425 109.729 119.323 112.009 119.323Z" fill="#B4E4DF"/>
<path d="M148 119.323C150.28 119.323 152.128 117.425 152.128 115.083C152.128 112.741 150.28 110.843 148 110.843C145.72 110.843 143.871 112.741 143.871 115.083C143.871 117.425 145.72 119.323 148 119.323Z" fill="#B4E4DF"/>
<path d="M183.945 119.323C186.225 119.323 188.074 117.425 188.074 115.083C188.074 112.741 186.225 110.843 183.945 110.843C181.665 110.843 179.816 112.741 179.816 115.083C179.816 117.425 181.665 119.323 183.945 119.323Z" fill="#B4E4DF"/>
<path d="M219.935 119.323C222.215 119.323 224.064 117.425 224.064 115.083C224.064 112.741 222.215 110.843 219.935 110.843C217.655 110.843 215.807 112.741 215.807 115.083C215.807 117.425 217.655 119.323 219.935 119.323Z" fill="#B4E4DF"/>
<path d="M255.88 119.323C258.161 119.323 260.009 117.425 260.009 115.083C260.009 112.741 258.161 110.843 255.88 110.843C253.6 110.843 251.752 112.741 251.752 115.083C251.752 117.425 253.6 119.323 255.88 119.323Z" fill="#B4E4DF"/>
<path d="M4.12857 156.24C6.40871 156.24 8.25713 154.342 8.25713 152C8.25713 149.658 6.40871 147.76 4.12857 147.76C1.84843 147.76 1.13049e-08 149.658 2.52501e-08 152C3.91952e-08 154.342 1.84843 156.24 4.12857 156.24Z" fill="#B4E4DF"/>
<path d="M40.0739 156.24C42.354 156.24 44.2024 154.342 44.2024 152C44.2024 149.658 42.354 147.76 40.0739 147.76C37.7937 147.76 35.9453 149.658 35.9453 152C35.9453 154.342 37.7937 156.24 40.0739 156.24Z" fill="#B4E4DF"/>
<path d="M76.0641 156.24C78.3442 156.24 80.1927 154.342 80.1927 152C80.1927 149.658 78.3442 147.76 76.0641 147.76C73.784 147.76 71.9355 149.658 71.9355 152C71.9355 154.342 73.784 156.24 76.0641 156.24Z" fill="#B4E4DF"/>
<path d="M112.009 156.24C114.29 156.24 116.138 154.342 116.138 152C116.138 149.658 114.29 147.76 112.009 147.76C109.729 147.76 107.881 149.658 107.881 152C107.881 154.342 109.729 156.24 112.009 156.24Z" fill="#B4E4DF"/>
<path d="M148 156.24C150.28 156.24 152.128 154.342 152.128 152C152.128 149.658 150.28 147.76 148 147.76C145.72 147.76 143.871 149.658 143.871 152C143.871 154.342 145.72 156.24 148 156.24Z" fill="#B4E4DF"/>
<path d="M183.945 156.24C186.225 156.24 188.074 154.342 188.074 152C188.074 149.658 186.225 147.76 183.945 147.76C181.665 147.76 179.816 149.658 179.816 152C179.816 154.342 181.665 156.24 183.945 156.24Z" fill="#B4E4DF"/>
<path d="M219.935 156.24C222.215 156.24 224.064 154.342 224.064 152C224.064 149.658 222.215 147.76 219.935 147.76C217.655 147.76 215.807 149.658 215.807 152C215.807 154.342 217.655 156.24 219.935 156.24Z" fill="#B4E4DF"/>
<path d="M255.88 156.24C258.161 156.24 260.009 154.342 260.009 152C260.009 149.658 258.161 147.76 255.88 147.76C253.6 147.76 251.752 149.658 251.752 152C251.752 154.342 253.6 156.24 255.88 156.24Z" fill="#B4E4DF"/>
<path d="M40.0739 193.203C42.354 193.203 44.2024 191.305 44.2024 188.963C44.2024 186.621 42.354 184.723 40.0739 184.723C37.7937 184.723 35.9453 186.621 35.9453 188.963C35.9453 191.305 37.7937 193.203 40.0739 193.203Z" fill="#B4E4DF"/>
<path d="M148 193.203C150.28 193.203 152.128 191.305 152.128 188.963C152.128 186.621 150.28 184.723 148 184.723C145.72 184.723 143.871 186.621 143.871 188.963C143.871 191.305 145.72 193.203 148 193.203Z" fill="#B4E4DF"/>
<path d="M183.945 193.203C186.225 193.203 188.074 191.305 188.074 188.963C188.074 186.621 186.225 184.723 183.945 184.723C181.665 184.723 179.816 186.621 179.816 188.963C179.816 191.305 181.665 193.203 183.945 193.203Z" fill="#B4E4DF"/>
<path d="M219.935 193.203C222.215 193.203 224.064 191.305 224.064 188.963C224.064 186.621 222.215 184.723 219.935 184.723C217.655 184.723 215.807 186.621 215.807 188.963C215.807 191.305 217.655 193.203 219.935 193.203Z" fill="#B4E4DF"/>
<path d="M255.88 193.203C258.161 193.203 260.009 191.305 260.009 188.963C260.009 186.621 258.161 184.723 255.88 184.723C253.6 184.723 251.752 186.621 251.752 188.963C251.752 191.305 253.6 193.203 255.88 193.203Z" fill="#B4E4DF"/>
<path d="M40.0739 230.12C42.354 230.12 44.2024 228.222 44.2024 225.88C44.2024 223.538 42.354 221.64 40.0739 221.64C37.7937 221.64 35.9453 223.538 35.9453 225.88C35.9453 228.222 37.7937 230.12 40.0739 230.12Z" fill="#B4E4DF"/>
<path d="M76.0641 230.12C78.3442 230.12 80.1927 228.222 80.1927 225.88C80.1927 223.538 78.3442 221.64 76.0641 221.64C73.784 221.64 71.9355 223.538 71.9355 225.88C71.9355 228.222 73.784 230.12 76.0641 230.12Z" fill="#B4E4DF"/>
<path d="M148 230.12C150.28 230.12 152.128 228.222 152.128 225.88C152.128 223.538 150.28 221.64 148 221.64C145.72 221.64 143.871 223.538 143.871 225.88C143.871 228.222 145.72 230.12 148 230.12Z" fill="#B4E4DF"/>
<path d="M183.945 230.12C186.225 230.12 188.074 228.222 188.074 225.88C188.074 223.538 186.225 221.64 183.945 221.64C181.665 221.64 179.816 223.538 179.816 225.88C179.816 228.222 181.665 230.12 183.945 230.12Z" fill="#B4E4DF"/>
<path d="M219.935 230.12C222.215 230.12 224.064 228.222 224.064 225.88C224.064 223.538 222.215 221.64 219.935 221.64C217.655 221.64 215.807 223.538 215.807 225.88C215.807 228.222 217.655 230.12 219.935 230.12Z" fill="#B4E4DF"/>
<path d="M255.88 230.12C258.161 230.12 260.009 228.222 260.009 225.88C260.009 223.538 258.161 221.64 255.88 221.64C253.6 221.64 251.752 223.538 251.752 225.88C251.752 228.222 253.6 230.12 255.88 230.12Z" fill="#B4E4DF"/>
<path d="M40.0739 267.083C42.354 267.083 44.2024 265.185 44.2024 262.843C44.2024 260.501 42.354 258.603 40.0739 258.603C37.7937 258.603 35.9453 260.501 35.9453 262.843C35.9453 265.185 37.7937 267.083 40.0739 267.083Z" fill="#B4E4DF"/>
<path d="M148 267.083C150.28 267.083 152.128 265.185 152.128 262.843C152.128 260.501 150.28 258.603 148 258.603C145.72 258.603 143.871 260.501 143.871 262.843C143.871 265.185 145.72 267.083 148 267.083Z" fill="#B4E4DF"/>
<path d="M183.945 267.083C186.225 267.083 188.074 265.185 188.074 262.843C188.074 260.501 186.225 258.603 183.945 258.603C181.665 258.603 179.816 260.501 179.816 262.843C179.816 265.185 181.665 267.083 183.945 267.083Z" fill="#B4E4DF"/>
<path d="M219.935 267.083C222.215 267.083 224.064 265.185 224.064 262.843C224.064 260.501 222.215 258.603 219.935 258.603C217.655 258.603 215.807 260.501 215.807 262.843C215.807 265.185 217.655 267.083 219.935 267.083Z" fill="#B4E4DF"/>
<path d="M255.88 267.083C258.161 267.083 260.009 265.185 260.009 262.843C260.009 260.501 258.161 258.603 255.88 258.603C253.6 258.603 251.752 260.501 251.752 262.843C251.752 265.185 253.6 267.083 255.88 267.083Z" fill="#B4E4DF"/>
<path d="M4.12857 304C6.40871 304 8.25713 302.102 8.25713 299.76C8.25713 297.418 6.40871 295.52 4.12857 295.52C1.84843 295.52 1.13049e-08 297.418 2.52501e-08 299.76C3.91952e-08 302.102 1.84843 304 4.12857 304Z" fill="#B4E4DF"/>
<path d="M40.0739 304C42.354 304 44.2024 302.102 44.2024 299.76C44.2024 297.418 42.354 295.52 40.0739 295.52C37.7937 295.52 35.9453 297.418 35.9453 299.76C35.9453 302.102 37.7937 304 40.0739 304Z" fill="#B4E4DF"/>
<path d="M76.0641 304C78.3442 304 80.1927 302.102 80.1927 299.76C80.1927 297.418 78.3442 295.52 76.0641 295.52C73.784 295.52 71.9355 297.418 71.9355 299.76C71.9355 302.102 73.784 304 76.0641 304Z" fill="#B4E4DF"/>
<path d="M112.009 304C114.29 304 116.138 302.102 116.138 299.76C116.138 297.418 114.29 295.52 112.009 295.52C109.729 295.52 107.881 297.418 107.881 299.76C107.881 302.102 109.729 304 112.009 304Z" fill="#B4E4DF"/>
<path d="M148 304C150.28 304 152.128 302.102 152.128 299.76C152.128 297.418 150.28 295.52 148 295.52C145.72 295.52 143.871 297.418 143.871 299.76C143.871 302.102 145.72 304 148 304Z" fill="#B4E4DF"/>
<path d="M183.945 304C186.225 304 188.074 302.102 188.074 299.76C188.074 297.418 186.225 295.52 183.945 295.52C181.665 295.52 179.816 297.418 179.816 299.76C179.816 302.102 181.665 304 183.945 304Z" fill="#B4E4DF"/>
<path d="M219.935 304C222.215 304 224.064 302.102 224.064 299.76C224.064 297.418 222.215 295.52 219.935 295.52C217.655 295.52 215.807 297.418 215.807 299.76C215.807 302.102 217.655 304 219.935 304Z" fill="#B4E4DF"/>
<path d="M255.88 304C258.161 304 260.009 302.102 260.009 299.76C260.009 297.418 258.161 295.52 255.88 295.52C253.6 295.52 251.752 297.418 251.752 299.76C251.752 302.102 253.6 304 255.88 304Z" fill="#B4E4DF"/>
</svg>
