<svg width="521" height="423" viewBox="0 0 521 423" fill="none" xmlns="http://www.w3.org/2000/svg">
<path d="M476.414 10.2657C474.315 10.2657 472.613 7.96765 472.613 5.13287C472.613 2.2981 474.315 6.10352e-05 476.414 6.10352e-05C478.513 6.10352e-05 480.215 2.2981 480.215 5.13287C480.215 7.96765 478.513 10.2657 476.414 10.2657Z" fill="#FBC587"/>
<path d="M425.81 10.2657C423.711 10.2657 422.009 7.96765 422.009 5.13287C422.009 2.2981 423.711 6.10352e-05 425.81 6.10352e-05C427.91 6.10352e-05 429.611 2.2981 429.611 5.13287C429.611 7.96765 427.91 10.2657 425.81 10.2657Z" fill="#FBC587"/>
<path d="M375.209 10.2657C373.11 10.2657 371.408 7.96765 371.408 5.13287C371.408 2.2981 373.11 6.10352e-05 375.209 6.10352e-05C377.308 6.10352e-05 379.01 2.2981 379.01 5.13287C379.01 7.96765 377.308 10.2657 375.209 10.2657Z" fill="#FBC587"/>
<path d="M324.607 10.2657C322.508 10.2657 320.806 7.96765 320.806 5.13287C320.806 2.2981 322.508 6.10352e-05 324.607 6.10352e-05C326.706 6.10352e-05 328.408 2.2981 328.408 5.13287C328.408 7.96765 326.706 10.2657 324.607 10.2657Z" fill="#FBC587"/>
<path d="M274.006 10.2657C271.906 10.2657 270.205 7.96765 270.205 5.13287C270.205 2.2981 271.906 6.10352e-05 274.006 6.10352e-05C276.105 6.10352e-05 277.807 2.2981 277.807 5.13287C277.807 7.96765 276.105 10.2657 274.006 10.2657Z" fill="#FBC587"/>
<path d="M223.404 10.2657C221.305 10.2657 219.603 7.96765 219.603 5.13287C219.603 2.2981 221.305 6.10352e-05 223.404 6.10352e-05C225.503 6.10352e-05 227.205 2.2981 227.205 5.13287C227.205 7.96765 225.503 10.2657 223.404 10.2657Z" fill="#FBC587"/>
<path d="M172.801 10.2657C170.701 10.2657 169 7.96765 169 5.13287C169 2.2981 170.701 6.10352e-05 172.801 6.10352e-05C174.9 6.10352e-05 176.602 2.2981 176.602 5.13287C176.602 7.96765 174.9 10.2657 172.801 10.2657Z" fill="#FBC587"/>
<path d="M476.414 55.0103C474.315 55.0103 472.613 52.7123 472.613 49.8775C472.613 47.0427 474.315 44.7447 476.414 44.7447C478.513 44.7447 480.215 47.0427 480.215 49.8775C480.215 52.7123 478.513 55.0103 476.414 55.0103Z" fill="#FBC587"/>
<path d="M425.81 55.0103C423.711 55.0103 422.009 52.7123 422.009 49.8775C422.009 47.0427 423.711 44.7447 425.81 44.7447C427.91 44.7447 429.611 47.0427 429.611 49.8775C429.611 52.7123 427.91 55.0103 425.81 55.0103Z" fill="#FBC587"/>
<path d="M375.209 55.0103C373.11 55.0103 371.408 52.7123 371.408 49.8775C371.408 47.0427 373.11 44.7447 375.209 44.7447C377.308 44.7447 379.01 47.0427 379.01 49.8775C379.01 52.7123 377.308 55.0103 375.209 55.0103Z" fill="#FBC587"/>
<path d="M324.607 55.0103C322.508 55.0103 320.806 52.7123 320.806 49.8775C320.806 47.0427 322.508 44.7447 324.607 44.7447C326.706 44.7447 328.408 47.0427 328.408 49.8775C328.408 52.7123 326.706 55.0103 324.607 55.0103Z" fill="#FBC587"/>
<path d="M274.006 55.0103C271.906 55.0103 270.205 52.7123 270.205 49.8775C270.205 47.0427 271.906 44.7447 274.006 44.7447C276.105 44.7447 277.807 47.0427 277.807 49.8775C277.807 52.7123 276.105 55.0103 274.006 55.0103Z" fill="#FBC587"/>
<path d="M223.404 55.0103C221.305 55.0103 219.603 52.7123 219.603 49.8775C219.603 47.0427 221.305 44.7447 223.404 44.7447C225.503 44.7447 227.205 47.0427 227.205 49.8775C227.205 52.7123 225.503 55.0103 223.404 55.0103Z" fill="#FBC587"/>
<path d="M172.801 55.0103C170.701 55.0103 169 52.7123 169 49.8775C169 47.0427 170.701 44.7447 172.801 44.7447C174.9 44.7447 176.602 47.0427 176.602 49.8775C176.602 52.7123 174.9 55.0103 172.801 55.0103Z" fill="#FBC587"/>
<path d="M476.414 99.6992C474.315 99.6992 472.613 97.4012 472.613 94.5664C472.613 91.7316 474.315 89.4336 476.414 89.4336C478.513 89.4336 480.215 91.7316 480.215 94.5664C480.215 97.4012 478.513 99.6992 476.414 99.6992Z" fill="#FBC587"/>
<path d="M425.81 99.6992C423.711 99.6992 422.009 97.4012 422.009 94.5664C422.009 91.7316 423.711 89.4336 425.81 89.4336C427.91 89.4336 429.611 91.7316 429.611 94.5664C429.611 97.4012 427.91 99.6992 425.81 99.6992Z" fill="#FBC587"/>
<path d="M375.209 99.6992C373.11 99.6992 371.408 97.4012 371.408 94.5664C371.408 91.7316 373.11 89.4336 375.209 89.4336C377.308 89.4336 379.01 91.7316 379.01 94.5664C379.01 97.4012 377.308 99.6992 375.209 99.6992Z" fill="#FBC587"/>
<path d="M324.607 99.6992C322.508 99.6992 320.806 97.4012 320.806 94.5664C320.806 91.7316 322.508 89.4336 324.607 89.4336C326.706 89.4336 328.408 91.7316 328.408 94.5664C328.408 97.4012 326.706 99.6992 324.607 99.6992Z" fill="#FBC587"/>
<path d="M274.006 99.6992C271.906 99.6992 270.205 97.4012 270.205 94.5664C270.205 91.7316 271.906 89.4336 274.006 89.4336C276.105 89.4336 277.807 91.7316 277.807 94.5664C277.807 97.4012 276.105 99.6992 274.006 99.6992Z" fill="#FBC587"/>
<path d="M223.404 99.6992C221.305 99.6992 219.603 97.4012 219.603 94.5664C219.603 91.7316 221.305 89.4336 223.404 89.4336C225.503 89.4336 227.205 91.7316 227.205 94.5664C227.205 97.4012 225.503 99.6992 223.404 99.6992Z" fill="#FBC587"/>
<path d="M172.801 99.6992C170.701 99.6992 169 97.4012 169 94.5664C169 91.7316 170.701 89.4336 172.801 89.4336C174.9 89.4336 176.602 91.7316 176.602 94.5664C176.602 97.4012 174.9 99.6992 172.801 99.6992Z" fill="#FBC587"/>
<path d="M476.414 144.444C474.315 144.444 472.613 142.146 472.613 139.311C472.613 136.476 474.315 134.178 476.414 134.178C478.513 134.178 480.215 136.476 480.215 139.311C480.215 142.146 478.513 144.444 476.414 144.444Z" fill="#FBC587"/>
<path d="M425.81 144.444C423.711 144.444 422.009 142.146 422.009 139.311C422.009 136.476 423.711 134.178 425.81 134.178C427.91 134.178 429.611 136.476 429.611 139.311C429.611 142.146 427.91 144.444 425.81 144.444Z" fill="#FBC587"/>
<path d="M375.209 144.444C373.11 144.444 371.408 142.146 371.408 139.311C371.408 136.476 373.11 134.178 375.209 134.178C377.308 134.178 379.01 136.476 379.01 139.311C379.01 142.146 377.308 144.444 375.209 144.444Z" fill="#FBC587"/>
<path d="M324.607 144.444C322.508 144.444 320.806 142.146 320.806 139.311C320.806 136.476 322.508 134.178 324.607 134.178C326.706 134.178 328.408 136.476 328.408 139.311C328.408 142.146 326.706 144.444 324.607 144.444Z" fill="#FBC587"/>
<path d="M274.006 144.444C271.906 144.444 270.205 142.146 270.205 139.311C270.205 136.476 271.906 134.178 274.006 134.178C276.105 134.178 277.807 136.476 277.807 139.311C277.807 142.146 276.105 144.444 274.006 144.444Z" fill="#FBC587"/>
<path d="M223.404 144.444C221.305 144.444 219.603 142.146 219.603 139.311C219.603 136.476 221.305 134.178 223.404 134.178C225.503 134.178 227.205 136.476 227.205 139.311C227.205 142.146 225.503 144.444 223.404 144.444Z" fill="#FBC587"/>
<path d="M172.801 144.444C170.701 144.444 169 142.146 169 139.311C169 136.476 170.701 134.178 172.801 134.178C174.9 134.178 176.602 136.476 176.602 139.311C176.602 142.146 174.9 144.444 172.801 144.444Z" fill="#FBC587"/>
<path d="M476.414 189.133C474.315 189.133 472.613 186.835 472.613 184C472.613 181.165 474.315 178.867 476.414 178.867C478.513 178.867 480.215 181.165 480.215 184C480.215 186.835 478.513 189.133 476.414 189.133Z" fill="#FBC587"/>
<path d="M425.81 189.133C423.711 189.133 422.009 186.835 422.009 184C422.009 181.165 423.711 178.867 425.81 178.867C427.91 178.867 429.611 181.165 429.611 184C429.611 186.835 427.91 189.133 425.81 189.133Z" fill="#FBC587"/>
<path d="M375.209 189.133C373.11 189.133 371.408 186.835 371.408 184C371.408 181.165 373.11 178.867 375.209 178.867C377.308 178.867 379.01 181.165 379.01 184C379.01 186.835 377.308 189.133 375.209 189.133Z" fill="#FBC587"/>
<path d="M324.607 189.133C322.508 189.133 320.806 186.835 320.806 184C320.806 181.165 322.508 178.867 324.607 178.867C326.706 178.867 328.408 181.165 328.408 184C328.408 186.835 326.706 189.133 324.607 189.133Z" fill="#FBC587"/>
<path d="M274.006 189.133C271.906 189.133 270.205 186.835 270.205 184C270.205 181.165 271.906 178.867 274.006 178.867C276.105 178.867 277.807 181.165 277.807 184C277.807 186.835 276.105 189.133 274.006 189.133Z" fill="#FBC587"/>
<path d="M223.404 189.133C221.305 189.133 219.603 186.835 219.603 184C219.603 181.165 221.305 178.867 223.404 178.867C225.503 178.867 227.205 181.165 227.205 184C227.205 186.835 225.503 189.133 223.404 189.133Z" fill="#FBC587"/>
<path d="M172.801 189.133C170.701 189.133 169 186.835 169 184C169 181.165 170.701 178.867 172.801 178.867C174.9 178.867 176.602 181.165 176.602 184C176.602 186.835 174.9 189.133 172.801 189.133Z" fill="#FBC587"/>
<path d="M476.414 233.877C474.315 233.877 472.613 231.579 472.613 228.745C472.613 225.91 474.315 223.612 476.414 223.612C478.513 223.612 480.215 225.91 480.215 228.745C480.215 231.579 478.513 233.877 476.414 233.877Z" fill="#FBC587"/>
<path d="M425.81 233.877C423.711 233.877 422.009 231.579 422.009 228.745C422.009 225.91 423.711 223.612 425.81 223.612C427.91 223.612 429.611 225.91 429.611 228.745C429.611 231.579 427.91 233.877 425.81 233.877Z" fill="#FBC587"/>
<path d="M375.209 233.877C373.11 233.877 371.408 231.579 371.408 228.745C371.408 225.91 373.11 223.612 375.209 223.612C377.308 223.612 379.01 225.91 379.01 228.745C379.01 231.579 377.308 233.877 375.209 233.877Z" fill="#FBC587"/>
<path d="M324.607 233.877C322.508 233.877 320.806 231.579 320.806 228.745C320.806 225.91 322.508 223.612 324.607 223.612C326.706 223.612 328.408 225.91 328.408 228.745C328.408 231.579 326.706 233.877 324.607 233.877Z" fill="#FBC587"/>
<path d="M274.006 233.877C271.906 233.877 270.205 231.579 270.205 228.745C270.205 225.91 271.906 223.612 274.006 223.612C276.105 223.612 277.807 225.91 277.807 228.745C277.807 231.579 276.105 233.877 274.006 233.877Z" fill="#FBC587"/>
<path d="M223.404 233.877C221.305 233.877 219.603 231.579 219.603 228.745C219.603 225.91 221.305 223.612 223.404 223.612C225.503 223.612 227.205 225.91 227.205 228.745C227.205 231.579 225.503 233.877 223.404 233.877Z" fill="#FBC587"/>
<path d="M172.801 233.877C170.701 233.877 169 231.579 169 228.745C169 225.91 170.701 223.612 172.801 223.612C174.9 223.612 176.602 225.91 176.602 228.745C176.602 231.579 174.9 233.877 172.801 233.877Z" fill="#FBC587"/>
<path d="M476.414 278.566C474.315 278.566 472.613 276.268 472.613 273.434C472.613 270.599 474.315 268.301 476.414 268.301C478.513 268.301 480.215 270.599 480.215 273.434C480.215 276.268 478.513 278.566 476.414 278.566Z" fill="#FBC587"/>
<path d="M425.81 278.566C423.711 278.566 422.009 276.268 422.009 273.434C422.009 270.599 423.711 268.301 425.81 268.301C427.91 268.301 429.611 270.599 429.611 273.434C429.611 276.268 427.91 278.566 425.81 278.566Z" fill="#FBC587"/>
<path d="M375.209 278.566C373.11 278.566 371.408 276.268 371.408 273.434C371.408 270.599 373.11 268.301 375.209 268.301C377.308 268.301 379.01 270.599 379.01 273.434C379.01 276.268 377.308 278.566 375.209 278.566Z" fill="#FBC587"/>
<path d="M324.607 278.566C322.508 278.566 320.806 276.268 320.806 273.434C320.806 270.599 322.508 268.301 324.607 268.301C326.706 268.301 328.408 270.599 328.408 273.434C328.408 276.268 326.706 278.566 324.607 278.566Z" fill="#FBC587"/>
<path d="M274.006 278.566C271.906 278.566 270.205 276.268 270.205 273.434C270.205 270.599 271.906 268.301 274.006 268.301C276.105 268.301 277.807 270.599 277.807 273.434C277.807 276.268 276.105 278.566 274.006 278.566Z" fill="#FBC587"/>
<path d="M223.404 278.566C221.305 278.566 219.603 276.268 219.603 273.434C219.603 270.599 221.305 268.301 223.404 268.301C225.503 268.301 227.205 270.599 227.205 273.434C227.205 276.268 225.503 278.566 223.404 278.566Z" fill="#FBC587"/>
<path d="M172.801 278.566C170.701 278.566 169 276.268 169 273.434C169 270.599 170.701 268.301 172.801 268.301C174.9 268.301 176.602 270.599 176.602 273.434C176.602 276.268 174.9 278.566 172.801 278.566Z" fill="#FBC587"/>
<path d="M476.414 323.311C474.315 323.311 472.613 321.013 472.613 318.178C472.613 315.344 474.315 313.045 476.414 313.045C478.513 313.045 480.215 315.344 480.215 318.178C480.215 321.013 478.513 323.311 476.414 323.311Z" fill="#FBC587"/>
<path d="M425.81 323.311C423.711 323.311 422.009 321.013 422.009 318.178C422.009 315.344 423.711 313.045 425.81 313.045C427.91 313.045 429.611 315.344 429.611 318.178C429.611 321.013 427.91 323.311 425.81 323.311Z" fill="#FBC587"/>
<path d="M375.209 323.311C373.11 323.311 371.408 321.013 371.408 318.178C371.408 315.344 373.11 313.045 375.209 313.045C377.308 313.045 379.01 315.344 379.01 318.178C379.01 321.013 377.308 323.311 375.209 323.311Z" fill="#FBC587"/>
<path d="M324.607 323.311C322.508 323.311 320.806 321.013 320.806 318.178C320.806 315.344 322.508 313.045 324.607 313.045C326.706 313.045 328.408 315.344 328.408 318.178C328.408 321.013 326.706 323.311 324.607 323.311Z" fill="#FBC587"/>
<path d="M274.006 323.311C271.906 323.311 270.205 321.013 270.205 318.178C270.205 315.344 271.906 313.045 274.006 313.045C276.105 313.045 277.807 315.344 277.807 318.178C277.807 321.013 276.105 323.311 274.006 323.311Z" fill="#FBC587"/>
<path d="M223.404 323.311C221.305 323.311 219.603 321.013 219.603 318.178C219.603 315.344 221.305 313.045 223.404 313.045C225.503 313.045 227.205 315.344 227.205 318.178C227.205 321.013 225.503 323.311 223.404 323.311Z" fill="#FBC587"/>
<path d="M172.801 323.311C170.701 323.311 169 321.013 169 318.178C169 315.344 170.701 313.045 172.801 313.045C174.9 313.045 176.602 315.344 176.602 318.178C176.602 321.013 174.9 323.311 172.801 323.311Z" fill="#FBC587"/>
<path d="M476.414 368C474.315 368 472.613 365.702 472.613 362.867C472.613 360.032 474.315 357.734 476.414 357.734C478.513 357.734 480.215 360.032 480.215 362.867C480.215 365.702 478.513 368 476.414 368Z" fill="#FBC587"/>
<path d="M425.81 368C423.711 368 422.009 365.702 422.009 362.867C422.009 360.032 423.711 357.734 425.81 357.734C427.91 357.734 429.611 360.032 429.611 362.867C429.611 365.702 427.91 368 425.81 368Z" fill="#FBC587"/>
<path d="M375.209 368C373.11 368 371.408 365.702 371.408 362.867C371.408 360.032 373.11 357.734 375.209 357.734C377.308 357.734 379.01 360.032 379.01 362.867C379.01 365.702 377.308 368 375.209 368Z" fill="#FBC587"/>
<path d="M324.607 368C322.508 368 320.806 365.702 320.806 362.867C320.806 360.032 322.508 357.734 324.607 357.734C326.706 357.734 328.408 360.032 328.408 362.867C328.408 365.702 326.706 368 324.607 368Z" fill="#FBC587"/>
<path d="M274.006 368C271.906 368 270.205 365.702 270.205 362.867C270.205 360.032 271.906 357.734 274.006 357.734C276.105 357.734 277.807 360.032 277.807 362.867C277.807 365.702 276.105 368 274.006 368Z" fill="#FBC587"/>
<path d="M223.404 368C221.305 368 219.603 365.702 219.603 362.867C219.603 360.032 221.305 357.734 223.404 357.734C225.503 357.734 227.205 360.032 227.205 362.867C227.205 365.702 225.503 368 223.404 368Z" fill="#FBC587"/>
<path d="M172.801 368C170.701 368 169 365.702 169 362.867C169 360.032 170.701 357.734 172.801 357.734C174.9 357.734 176.602 360.032 176.602 362.867C176.602 365.702 174.9 368 172.801 368Z" fill="#FBC587"/>
<ellipse cx="241.5" cy="244.5" rx="114.5" ry="113.5" fill="#68C8BF"/>
<path d="M192.523 246.327L192.514 246.34C191.67 247.383 190.542 248.223 189.196 248.842L189.195 248.841C185.898 250.364 181.305 250.575 176.441 249.285C175.895 249.14 175.342 248.976 174.788 248.792C174.086 248.559 173.382 248.295 172.677 248.001C163.239 244.044 157.357 235.926 159.542 229.865C161.728 223.804 171.149 222.097 180.591 226.052C183.362 227.213 185.827 228.734 187.871 230.455C188.289 230.807 188.687 231.166 189.068 231.534C193.178 235.491 195.138 240.269 193.726 244.188C193.443 244.975 193.037 245.689 192.525 246.326L192.523 246.327Z" fill="#E1F4F2"/>
<path d="M265.722 252.51L265.713 252.523C264.869 253.566 263.741 254.406 262.395 255.025L262.394 255.024C259.098 256.548 254.504 256.758 249.64 255.469C249.094 255.323 248.541 255.159 247.987 254.975C247.285 254.742 246.581 254.478 245.877 254.184C236.438 250.227 230.556 242.109 232.742 236.048C234.927 229.987 244.348 228.28 253.79 232.235C256.561 233.396 259.027 234.918 261.07 236.638C261.488 236.991 261.886 237.349 262.268 237.717C266.378 241.674 268.337 246.452 266.925 250.371C266.642 251.158 266.237 251.872 265.725 252.51L265.722 252.51Z" fill="#E1F4F2"/>
<mask id="mask0_1592_681" style="mask-type:alpha" maskUnits="userSpaceOnUse" x="159" y="223" width="36" height="28">
<path d="M192.523 246.327L192.514 246.34C191.67 247.383 190.542 248.223 189.196 248.842L189.195 248.841C185.898 250.364 181.305 250.575 176.441 249.285C175.895 249.14 175.342 248.976 174.788 248.792C174.086 248.559 173.382 248.295 172.677 248.001C163.239 244.044 157.357 235.926 159.542 229.865C161.728 223.804 171.149 222.097 180.591 226.052C183.362 227.213 185.827 228.734 187.871 230.455C188.289 230.807 188.687 231.166 189.068 231.534C193.178 235.491 195.138 240.269 193.726 244.188C193.443 244.975 193.037 245.689 192.525 246.326L192.523 246.327Z" fill="#E1F4F2"/>
</mask>
<g mask="url(#mask0_1592_681)">
<path d="M179.464 256.388L165.76 221.228L159.762 221.746L157.219 241.053L169.566 257.117L179.464 256.388Z" fill="#313332" stroke="#313332"/>
</g>
<mask id="mask1_1592_681" style="mask-type:alpha" maskUnits="userSpaceOnUse" x="232" y="230" width="36" height="27">
<path d="M265.722 252.51L265.713 252.523C264.869 253.566 263.741 254.406 262.395 255.025L262.394 255.024C259.098 256.548 254.504 256.758 249.64 255.469C249.094 255.323 248.541 255.159 247.987 254.975C247.285 254.742 246.581 254.478 245.877 254.184C236.438 250.227 230.556 242.109 232.742 236.048C234.927 229.987 244.348 228.28 253.79 232.235C256.561 233.396 259.027 234.918 261.07 236.638C261.488 236.991 261.886 237.349 262.268 237.717C266.378 241.674 268.337 246.452 266.925 250.371C266.642 251.158 266.237 251.872 265.725 252.51L265.722 252.51Z" fill="#E1F4F2"/>
</mask>
<g mask="url(#mask1_1592_681)">
<path d="M251.804 256.399L238.1 221.239L232.102 221.756L229.558 241.064L241.906 257.128L251.804 256.399Z" fill="#313332" stroke="#313332"/>
</g>
<path d="M150.444 277.16C156.752 276.229 161.189 270.891 160.355 265.237C159.52 259.583 153.73 255.755 147.422 256.686C141.114 257.617 136.677 262.955 137.511 268.609C138.346 274.263 144.136 278.092 150.444 277.16Z" fill="#95D9D2"/>
<path d="M286.444 283.16C292.752 282.229 297.189 276.891 296.355 271.237C295.52 265.583 289.73 261.755 283.422 262.686C277.114 263.617 272.677 268.955 273.511 274.609C274.346 280.263 280.136 284.092 286.444 283.16Z" fill="#95D9D2"/>
<path d="M199.141 256.141C202.492 253.404 208.901 253.184 211.085 254.981C211.797 255.415 213.14 256.49 212.819 257.325C212.498 258.16 211.358 257.801 210.829 257.518C210.283 257.069 208.593 256.228 206.205 256.46C203.219 256.75 199.334 258.131 200.073 260.571C200.44 261.782 201.808 262.915 204.296 262.673C208.277 262.287 208.664 266.268 207.765 267.36C206.344 269.086 202.139 269.495 203.175 271.824C203.818 273.269 205.953 274.569 208.2 271.839C210.447 269.109 211.041 270.056 211.635 271.003C212.23 271.95 211.283 272.544 210.384 273.636C209.815 274.327 208.19 275.189 207.543 275.419C203.658 276.801 200.88 274.057 200.638 271.568C200.445 269.578 203.04 266.981 204.634 266.157C203.757 265.74 201.528 265.203 199.962 264.601C196.831 263.398 194.952 259.561 199.141 256.141Z" fill="#313332" stroke="#313332"/>
<path d="M200.494 352C198.727 366.889 196.253 399.031 200.494 408.49C198.197 409.22 191.482 412.344 183 419H215.867C212.863 408.636 215.491 389.914 218.518 381.34C222.229 370.83 225.586 361.488 227 356.817" stroke="#313332" stroke-width="6" stroke-linecap="round"/>
<path d="M287.036 350.308C289.926 365.025 292.634 393.249 289 403C291.396 403.556 299.862 400.496 309 406.5L277 418.5C274.5 407.5 274 390.5 270.796 380.917C267.254 370.319 262.135 361.647 260.352 357.094" stroke="#313332" stroke-width="6" stroke-linecap="round"/>
<path d="M148.624 295.022C127.124 295.022 114.166 304.81 94.1656 277.61C99.3322 273.943 103.972 266.288 97.6236 256.522C91.1236 246.522 78.6237 245.966 68.6238 251.522C59.6237 256.522 55.8061 267.947 62.1238 277.61C67.6238 286.022 79.1653 284.776 82.6653 283.61C97.6236 296.522 107.624 313.022 148.624 308.522" stroke="#313332" stroke-width="6" stroke-linecap="round"/>
<path d="M357.001 260C369.167 268.333 393.501 286 393.501 290C393.501 294 362.501 304 347.001 308.5C347.501 310.667 347.101 315.9 341.501 319.5C334.501 324 327.001 324 321.501 319.5C316.001 315 311.001 304 320.001 297C329.001 290 337.501 295 339.501 297C341.501 299 377.501 288 376.501 288C375.501 288 356.501 273.5 352.501 272.5" stroke="#313332" stroke-width="6" stroke-linecap="round"/>
<path d="M35.1577 145.426L18.8771 148.311C11.8226 149.562 8.33297 157.607 12.2405 163.612L18.3524 173.005C19.5039 174.774 20.0658 176.863 19.9575 178.971L18.8058 201.414C18.46 208.152 24.7495 213.292 31.2839 211.611L53.3625 205.932C60.5541 204.082 63.292 195.316 58.4317 189.702L47.3185 176.865C45.4089 174.659 44.5579 171.729 44.9885 168.844L46.7934 156.748C47.8019 149.99 41.886 144.233 35.1577 145.426Z" fill="#FCE891"/>
<path d="M15.6414 168C10.2037 161.926 5.06254 149.422 28 148" stroke="#313332" stroke-width="6" stroke-linecap="round"/>
<path d="M19.9565 179L19 203.289C19.1594 206.138 21.5826 211.656 30 210.936" stroke="#313332" stroke-width="6" stroke-linecap="round"/>
<path d="M28 147.338C36.4971 146.408 51.7918 145.85 44.9942 167.799C44.4943 169.039 43.7946 172.17 44.9942 174.774C46.4937 178.029 56.99 188.724 58.4895 190.119C59.989 191.515 67.4864 201.745 54.4909 205" stroke="#313332" stroke-width="6" stroke-linecap="round"/>
<path d="M28.1898 202.685C26.7138 199.153 34.2589 192.237 36.5553 189C42.2962 191.502 55.6478 197.741 49.3492 199.153C41.476 200.919 28.7361 203.992 28.1898 202.685Z" stroke="#313332" stroke-width="3" stroke-linecap="round"/>
<path d="M17.1947 158.553C16.7333 161.421 25.6222 163.82 28.6237 165.323C33.3566 161.843 44.2535 153.461 37.9737 154.438C30.1238 155.661 17.3655 157.491 17.1947 158.553Z" stroke="#313332" stroke-width="3" stroke-linecap="round"/>
<circle cx="27.5" cy="171.5" r="1.5" fill="#313332"/>
<circle cx="34" cy="174" r="1" fill="#313332"/>
<path d="M37.3554 138.198L12.5385 142.286C10.4194 142.286 4.02624 144.515 2.37369 141.096C0.624552 137.477 5.38385 136.668 9.02012 136.154C13.5553 135.513 23.2428 133.76 29.6245 132.76C38.4049 131.385 43.5856 129.605 44.7016 132.76C45.5403 135.132 45.0514 136.836 37.3554 138.198Z" stroke="#313332" stroke-width="3" stroke-linecap="round"/>
<path d="M61.0795 219.885L33.1645 225.706C30.7624 225.801 23.6333 228.655 21.5791 224.789C19.4048 220.697 24.7569 219.552 28.8516 218.797C33.9586 217.855 44.8472 215.402 52.0283 213.964C61.9085 211.987 67.687 209.703 69.119 213.29C70.1953 215.986 69.7313 217.971 61.0795 219.885Z" stroke="#313332" stroke-width="3" stroke-linecap="round"/>
</svg>
