<svg width="737" height="797" viewBox="0 0 737 797" fill="none" xmlns="http://www.w3.org/2000/svg">
<path d="M5.20987 47.4524C8.69343 47.4524 11.5174 44.3563 11.5174 40.5372C11.5174 36.7181 8.69343 33.6221 5.20987 33.6221C1.72631 33.6221 -1.09766 36.7181 -1.09766 40.5372C-1.09766 44.3563 1.72631 47.4524 5.20987 47.4524Z" fill="#FBC587"/>
<path d="M60.1259 47.4524C63.6095 47.4524 66.4335 44.3563 66.4335 40.5372C66.4335 36.7181 63.6095 33.6221 60.1259 33.6221C56.6424 33.6221 53.8184 36.7181 53.8184 40.5372C53.8184 44.3563 56.6424 47.4524 60.1259 47.4524Z" fill="#FBC587"/>
<path d="M115.112 47.4524C118.596 47.4524 121.42 44.3563 121.42 40.5372C121.42 36.7181 118.596 33.6221 115.112 33.6221C111.629 33.6221 108.805 36.7181 108.805 40.5372C108.805 44.3563 111.629 47.4524 115.112 47.4524Z" fill="#FBC587"/>
<path d="M170.028 47.4524C173.512 47.4524 176.336 44.3563 176.336 40.5372C176.336 36.7181 173.512 33.6221 170.028 33.6221C166.545 33.6221 163.721 36.7181 163.721 40.5372C163.721 44.3563 166.545 47.4524 170.028 47.4524Z" fill="#FBC587"/>
<path d="M225.014 47.4524C228.497 47.4524 231.321 44.3563 231.321 40.5372C231.321 36.7181 228.497 33.6221 225.014 33.6221C221.53 33.6221 218.706 36.7181 218.706 40.5372C218.706 44.3563 221.53 47.4524 225.014 47.4524Z" fill="#FBC587"/>
<path d="M279.931 47.4524C283.414 47.4524 286.238 44.3563 286.238 40.5372C286.238 36.7181 283.414 33.6221 279.931 33.6221C276.447 33.6221 273.623 36.7181 273.623 40.5372C273.623 44.3563 276.447 47.4524 279.931 47.4524Z" fill="#FBC587"/>
<path d="M334.916 47.4524C338.4 47.4524 341.223 44.3563 341.223 40.5372C341.223 36.7181 338.4 33.6221 334.916 33.6221C331.432 33.6221 328.608 36.7181 328.608 40.5372C328.608 44.3563 331.432 47.4524 334.916 47.4524Z" fill="#FBC587"/>
<path d="M5.20987 107.734C8.69343 107.734 11.5174 104.638 11.5174 100.819C11.5174 96.9998 8.69343 93.9038 5.20987 93.9038C1.72631 93.9038 -1.09766 96.9998 -1.09766 100.819C-1.09766 104.638 1.72631 107.734 5.20987 107.734Z" fill="#FBC587"/>
<path d="M60.1259 107.734C63.6095 107.734 66.4335 104.638 66.4335 100.819C66.4335 96.9998 63.6095 93.9038 60.1259 93.9038C56.6424 93.9038 53.8184 96.9998 53.8184 100.819C53.8184 104.638 56.6424 107.734 60.1259 107.734Z" fill="#FBC587"/>
<path d="M115.112 107.734C118.596 107.734 121.42 104.638 121.42 100.819C121.42 96.9998 118.596 93.9038 115.112 93.9038C111.629 93.9038 108.805 96.9998 108.805 100.819C108.805 104.638 111.629 107.734 115.112 107.734Z" fill="#FBC587"/>
<path d="M170.028 107.734C173.512 107.734 176.336 104.638 176.336 100.819C176.336 96.9998 173.512 93.9038 170.028 93.9038C166.545 93.9038 163.721 96.9998 163.721 100.819C163.721 104.638 166.545 107.734 170.028 107.734Z" fill="#FBC587"/>
<path d="M225.014 107.734C228.497 107.734 231.321 104.638 231.321 100.819C231.321 96.9998 228.497 93.9038 225.014 93.9038C221.53 93.9038 218.706 96.9998 218.706 100.819C218.706 104.638 221.53 107.734 225.014 107.734Z" fill="#FBC587"/>
<path d="M279.931 107.734C283.414 107.734 286.238 104.638 286.238 100.819C286.238 96.9998 283.414 93.9038 279.931 93.9038C276.447 93.9038 273.623 96.9998 273.623 100.819C273.623 104.638 276.447 107.734 279.931 107.734Z" fill="#FBC587"/>
<path d="M334.916 107.734C338.4 107.734 341.223 104.638 341.223 100.819C341.223 96.9998 338.4 93.9038 334.916 93.9038C331.432 93.9038 328.608 96.9998 328.608 100.819C328.608 104.638 331.432 107.734 334.916 107.734Z" fill="#FBC587"/>
<path d="M5.20987 167.941C8.69343 167.941 11.5174 164.845 11.5174 161.026C11.5174 157.207 8.69343 154.111 5.20987 154.111C1.72631 154.111 -1.09766 157.207 -1.09766 161.026C-1.09766 164.845 1.72631 167.941 5.20987 167.941Z" fill="#FBC587"/>
<path d="M60.1259 167.941C63.6095 167.941 66.4335 164.845 66.4335 161.026C66.4335 157.207 63.6095 154.111 60.1259 154.111C56.6424 154.111 53.8184 157.207 53.8184 161.026C53.8184 164.845 56.6424 167.941 60.1259 167.941Z" fill="#FBC587"/>
<path d="M115.112 167.941C118.596 167.941 121.42 164.845 121.42 161.026C121.42 157.207 118.596 154.111 115.112 154.111C111.629 154.111 108.805 157.207 108.805 161.026C108.805 164.845 111.629 167.941 115.112 167.941Z" fill="#FBC587"/>
<path d="M170.028 167.941C173.512 167.941 176.336 164.845 176.336 161.026C176.336 157.207 173.512 154.111 170.028 154.111C166.545 154.111 163.721 157.207 163.721 161.026C163.721 164.845 166.545 167.941 170.028 167.941Z" fill="#FBC587"/>
<path d="M225.014 167.941C228.497 167.941 231.321 164.845 231.321 161.026C231.321 157.207 228.497 154.111 225.014 154.111C221.53 154.111 218.706 157.207 218.706 161.026C218.706 164.845 221.53 167.941 225.014 167.941Z" fill="#FBC587"/>
<path d="M279.931 167.941C283.414 167.941 286.238 164.845 286.238 161.026C286.238 157.207 283.414 154.111 279.931 154.111C276.447 154.111 273.623 157.207 273.623 161.026C273.623 164.845 276.447 167.941 279.931 167.941Z" fill="#FBC587"/>
<path d="M334.916 167.941C338.4 167.941 341.223 164.845 341.223 161.026C341.223 157.207 338.4 154.111 334.916 154.111C331.432 154.111 328.608 157.207 328.608 161.026C328.608 164.845 331.432 167.941 334.916 167.941Z" fill="#FBC587"/>
<path d="M5.20987 228.223C8.69343 228.223 11.5174 225.127 11.5174 221.308C11.5174 217.489 8.69343 214.393 5.20987 214.393C1.72631 214.393 -1.09766 217.489 -1.09766 221.308C-1.09766 225.127 1.72631 228.223 5.20987 228.223Z" fill="#FBC587"/>
<path d="M60.1259 228.223C63.6095 228.223 66.4335 225.127 66.4335 221.308C66.4335 217.489 63.6095 214.393 60.1259 214.393C56.6424 214.393 53.8184 217.489 53.8184 221.308C53.8184 225.127 56.6424 228.223 60.1259 228.223Z" fill="#FBC587"/>
<path d="M115.112 228.223C118.596 228.223 121.42 225.127 121.42 221.308C121.42 217.489 118.596 214.393 115.112 214.393C111.629 214.393 108.805 217.489 108.805 221.308C108.805 225.127 111.629 228.223 115.112 228.223Z" fill="#FBC587"/>
<path d="M170.028 228.223C173.512 228.223 176.336 225.127 176.336 221.308C176.336 217.489 173.512 214.393 170.028 214.393C166.545 214.393 163.721 217.489 163.721 221.308C163.721 225.127 166.545 228.223 170.028 228.223Z" fill="#FBC587"/>
<path d="M225.014 228.223C228.497 228.223 231.321 225.127 231.321 221.308C231.321 217.489 228.497 214.393 225.014 214.393C221.53 214.393 218.706 217.489 218.706 221.308C218.706 225.127 221.53 228.223 225.014 228.223Z" fill="#FBC587"/>
<path d="M279.931 228.223C283.414 228.223 286.238 225.127 286.238 221.308C286.238 217.489 283.414 214.393 279.931 214.393C276.447 214.393 273.623 217.489 273.623 221.308C273.623 225.127 276.447 228.223 279.931 228.223Z" fill="#FBC587"/>
<path d="M334.916 228.223C338.4 228.223 341.223 225.127 341.223 221.308C341.223 217.489 338.4 214.393 334.916 214.393C331.432 214.393 328.608 217.489 328.608 221.308C328.608 225.127 331.432 228.223 334.916 228.223Z" fill="#FBC587"/>
<path d="M5.20987 288.429C8.69343 288.429 11.5174 285.333 11.5174 281.514C11.5174 277.695 8.69343 274.599 5.20987 274.599C1.72631 274.599 -1.09766 277.695 -1.09766 281.514C-1.09766 285.333 1.72631 288.429 5.20987 288.429Z" fill="#FBC587"/>
<path d="M60.1259 288.429C63.6095 288.429 66.4335 285.333 66.4335 281.514C66.4335 277.695 63.6095 274.599 60.1259 274.599C56.6424 274.599 53.8184 277.695 53.8184 281.514C53.8184 285.333 56.6424 288.429 60.1259 288.429Z" fill="#FBC587"/>
<path d="M115.112 288.429C118.596 288.429 121.42 285.333 121.42 281.514C121.42 277.695 118.596 274.599 115.112 274.599C111.629 274.599 108.805 277.695 108.805 281.514C108.805 285.333 111.629 288.429 115.112 288.429Z" fill="#FBC587"/>
<path d="M170.028 288.429C173.512 288.429 176.336 285.333 176.336 281.514C176.336 277.695 173.512 274.599 170.028 274.599C166.545 274.599 163.721 277.695 163.721 281.514C163.721 285.333 166.545 288.429 170.028 288.429Z" fill="#FBC587"/>
<path d="M225.014 288.429C228.497 288.429 231.321 285.333 231.321 281.514C231.321 277.695 228.497 274.599 225.014 274.599C221.53 274.599 218.706 277.695 218.706 281.514C218.706 285.333 221.53 288.429 225.014 288.429Z" fill="#FBC587"/>
<path d="M279.931 288.429C283.414 288.429 286.238 285.333 286.238 281.514C286.238 277.695 283.414 274.599 279.931 274.599C276.447 274.599 273.623 277.695 273.623 281.514C273.623 285.333 276.447 288.429 279.931 288.429Z" fill="#FBC587"/>
<path d="M334.916 288.429C338.4 288.429 341.223 285.333 341.223 281.514C341.223 277.695 338.4 274.599 334.916 274.599C331.432 274.599 328.608 277.695 328.608 281.514C328.608 285.333 331.432 288.429 334.916 288.429Z" fill="#FBC587"/>
<path d="M5.20987 348.712C8.69343 348.712 11.5174 345.616 11.5174 341.796C11.5174 337.977 8.69343 334.881 5.20987 334.881C1.72631 334.881 -1.09766 337.977 -1.09766 341.796C-1.09766 345.616 1.72631 348.712 5.20987 348.712Z" fill="#FBC587"/>
<path d="M60.1259 348.712C63.6095 348.712 66.4335 345.616 66.4335 341.796C66.4335 337.977 63.6095 334.881 60.1259 334.881C56.6424 334.881 53.8184 337.977 53.8184 341.796C53.8184 345.616 56.6424 348.712 60.1259 348.712Z" fill="#FBC587"/>
<path d="M115.112 348.712C118.596 348.712 121.42 345.616 121.42 341.796C121.42 337.977 118.596 334.881 115.112 334.881C111.629 334.881 108.805 337.977 108.805 341.796C108.805 345.616 111.629 348.712 115.112 348.712Z" fill="#FBC587"/>
<path d="M170.028 348.712C173.512 348.712 176.336 345.616 176.336 341.796C176.336 337.977 173.512 334.881 170.028 334.881C166.545 334.881 163.721 337.977 163.721 341.796C163.721 345.616 166.545 348.712 170.028 348.712Z" fill="#FBC587"/>
<path d="M225.014 348.712C228.497 348.712 231.321 345.616 231.321 341.796C231.321 337.977 228.497 334.881 225.014 334.881C221.53 334.881 218.706 337.977 218.706 341.796C218.706 345.616 221.53 348.712 225.014 348.712Z" fill="#FBC587"/>
<path d="M279.931 348.712C283.414 348.712 286.238 345.616 286.238 341.796C286.238 337.977 283.414 334.881 279.931 334.881C276.447 334.881 273.623 337.977 273.623 341.796C273.623 345.616 276.447 348.712 279.931 348.712Z" fill="#FBC587"/>
<path d="M334.916 348.712C338.4 348.712 341.223 345.616 341.223 341.796C341.223 337.977 338.4 334.881 334.916 334.881C331.432 334.881 328.608 337.977 328.608 341.796C328.608 345.616 331.432 348.712 334.916 348.712Z" fill="#FBC587"/>
<path d="M5.20987 408.918C8.69343 408.918 11.5174 405.822 11.5174 402.003C11.5174 398.184 8.69343 395.088 5.20987 395.088C1.72631 395.088 -1.09766 398.184 -1.09766 402.003C-1.09766 405.822 1.72631 408.918 5.20987 408.918Z" fill="#FBC587"/>
<path d="M60.1259 408.918C63.6095 408.918 66.4335 405.822 66.4335 402.003C66.4335 398.184 63.6095 395.088 60.1259 395.088C56.6424 395.088 53.8184 398.184 53.8184 402.003C53.8184 405.822 56.6424 408.918 60.1259 408.918Z" fill="#FBC587"/>
<path d="M115.112 408.918C118.596 408.918 121.42 405.822 121.42 402.003C121.42 398.184 118.596 395.088 115.112 395.088C111.629 395.088 108.805 398.184 108.805 402.003C108.805 405.822 111.629 408.918 115.112 408.918Z" fill="#FBC587"/>
<path d="M170.028 408.918C173.512 408.918 176.336 405.822 176.336 402.003C176.336 398.184 173.512 395.088 170.028 395.088C166.545 395.088 163.721 398.184 163.721 402.003C163.721 405.822 166.545 408.918 170.028 408.918Z" fill="#FBC587"/>
<path d="M225.014 408.918C228.497 408.918 231.321 405.822 231.321 402.003C231.321 398.184 228.497 395.088 225.014 395.088C221.53 395.088 218.706 398.184 218.706 402.003C218.706 405.822 221.53 408.918 225.014 408.918Z" fill="#FBC587"/>
<path d="M279.931 408.918C283.414 408.918 286.238 405.822 286.238 402.003C286.238 398.184 283.414 395.088 279.931 395.088C276.447 395.088 273.623 398.184 273.623 402.003C273.623 405.822 276.447 408.918 279.931 408.918Z" fill="#FBC587"/>
<path d="M334.916 408.918C338.4 408.918 341.223 405.822 341.223 402.003C341.223 398.184 338.4 395.088 334.916 395.088C331.432 395.088 328.608 398.184 328.608 402.003C328.608 405.822 331.432 408.918 334.916 408.918Z" fill="#FBC587"/>
<path d="M5.20987 469.2C8.69343 469.2 11.5174 466.104 11.5174 462.285C11.5174 458.466 8.69343 455.37 5.20987 455.37C1.72631 455.37 -1.09766 458.466 -1.09766 462.285C-1.09766 466.104 1.72631 469.2 5.20987 469.2Z" fill="#FBC587"/>
<path d="M60.1259 469.2C63.6095 469.2 66.4335 466.104 66.4335 462.285C66.4335 458.466 63.6095 455.37 60.1259 455.37C56.6424 455.37 53.8184 458.466 53.8184 462.285C53.8184 466.104 56.6424 469.2 60.1259 469.2Z" fill="#FBC587"/>
<path d="M115.112 469.2C118.596 469.2 121.42 466.104 121.42 462.285C121.42 458.466 118.596 455.37 115.112 455.37C111.629 455.37 108.805 458.466 108.805 462.285C108.805 466.104 111.629 469.2 115.112 469.2Z" fill="#FBC587"/>
<path d="M170.028 469.2C173.512 469.2 176.336 466.104 176.336 462.285C176.336 458.466 173.512 455.37 170.028 455.37C166.545 455.37 163.721 458.466 163.721 462.285C163.721 466.104 166.545 469.2 170.028 469.2Z" fill="#FBC587"/>
<path d="M225.014 469.2C228.497 469.2 231.321 466.104 231.321 462.285C231.321 458.466 228.497 455.37 225.014 455.37C221.53 455.37 218.706 458.466 218.706 462.285C218.706 466.104 221.53 469.2 225.014 469.2Z" fill="#FBC587"/>
<path d="M279.931 469.2C283.414 469.2 286.238 466.104 286.238 462.285C286.238 458.466 283.414 455.37 279.931 455.37C276.447 455.37 273.623 458.466 273.623 462.285C273.623 466.104 276.447 469.2 279.931 469.2Z" fill="#FBC587"/>
<path d="M334.916 469.2C338.4 469.2 341.223 466.104 341.223 462.285C341.223 458.466 338.4 455.37 334.916 455.37C331.432 455.37 328.608 458.466 328.608 462.285C328.608 466.104 331.432 469.2 334.916 469.2Z" fill="#FBC587"/>
<path d="M5.20987 529.407C8.69343 529.407 11.5174 526.311 11.5174 522.492C11.5174 518.673 8.69343 515.577 5.20987 515.577C1.72631 515.577 -1.09766 518.673 -1.09766 522.492C-1.09766 526.311 1.72631 529.407 5.20987 529.407Z" fill="#FBC587"/>
<path d="M60.1259 529.407C63.6095 529.407 66.4335 526.311 66.4335 522.492C66.4335 518.673 63.6095 515.577 60.1259 515.577C56.6424 515.577 53.8184 518.673 53.8184 522.492C53.8184 526.311 56.6424 529.407 60.1259 529.407Z" fill="#FBC587"/>
<path d="M115.112 529.407C118.596 529.407 121.42 526.311 121.42 522.492C121.42 518.673 118.596 515.577 115.112 515.577C111.629 515.577 108.805 518.673 108.805 522.492C108.805 526.311 111.629 529.407 115.112 529.407Z" fill="#FBC587"/>
<path d="M170.028 529.407C173.512 529.407 176.336 526.311 176.336 522.492C176.336 518.673 173.512 515.577 170.028 515.577C166.545 515.577 163.721 518.673 163.721 522.492C163.721 526.311 166.545 529.407 170.028 529.407Z" fill="#FBC587"/>
<path d="M225.014 529.407C228.497 529.407 231.321 526.311 231.321 522.492C231.321 518.673 228.497 515.577 225.014 515.577C221.53 515.577 218.706 518.673 218.706 522.492C218.706 526.311 221.53 529.407 225.014 529.407Z" fill="#FBC587"/>
<path d="M279.931 529.407C283.414 529.407 286.238 526.311 286.238 522.492C286.238 518.673 283.414 515.577 279.931 515.577C276.447 515.577 273.623 518.673 273.623 522.492C273.623 526.311 276.447 529.407 279.931 529.407Z" fill="#FBC587"/>
<path d="M334.916 529.407C338.4 529.407 341.223 526.311 341.223 522.492C341.223 518.673 338.4 515.577 334.916 515.577C331.432 515.577 328.608 518.673 328.608 522.492C328.608 526.311 331.432 529.407 334.916 529.407Z" fill="#FBC587"/>
<path d="M202 662.914H567.22H202Z" stroke="#95D8D2" stroke-width="7.17359" stroke-miterlimit="10"/>
<path d="M557.61 20.7075C561.813 20.7075 565.22 16.9721 565.22 12.3642C565.22 7.75638 561.813 4.021 557.61 4.021C553.407 4.021 550 7.75638 550 12.3642C550 16.9721 553.407 20.7075 557.61 20.7075Z" stroke="#FADF55" stroke-width="7.17359" stroke-miterlimit="10"/>
<path d="M557.61 87.4536C561.813 87.4536 565.22 83.7182 565.22 79.1103C565.22 74.5025 561.813 70.7671 557.61 70.7671C553.407 70.7671 550 74.5025 550 79.1103C550 83.7182 553.407 87.4536 557.61 87.4536Z" stroke="#FADF55" stroke-width="7.17359" stroke-miterlimit="10"/>
<path d="M557.61 154.2C561.813 154.2 565.22 150.464 565.22 145.856C565.22 141.249 561.813 137.513 557.61 137.513C553.407 137.513 550 141.249 550 145.856C550 150.464 553.407 154.2 557.61 154.2Z" stroke="#FADF55" stroke-width="7.17359" stroke-miterlimit="10"/>
<path d="M736.441 762.994H706V796.367H736.441V762.994Z" fill="#FBA036"/>
<path d="M704.882 729.683H674.441V763.056H704.882V729.683Z" fill="#68C8BF"/>
</svg>
