<svg width="690" height="774" viewBox="0 0 690 774" fill="none" xmlns="http://www.w3.org/2000/svg">
<path d="M41.1259 43.6151C44.6095 43.6151 47.4335 40.7911 47.4335 37.3075C47.4335 33.824 44.6095 31 41.1259 31C37.6424 31 34.8184 33.824 34.8184 37.3075C34.8184 40.7911 37.6424 43.6151 41.1259 43.6151Z" fill="#FBC587"/>
<path d="M96.1122 43.6151C99.5958 43.6151 102.42 40.7911 102.42 37.3075C102.42 33.824 99.5958 31 96.1122 31C92.6287 31 89.8047 33.824 89.8047 37.3075C89.8047 40.7911 92.6287 43.6151 96.1122 43.6151Z" fill="#FBC587"/>
<path d="M151.028 43.6151C154.512 43.6151 157.336 40.7911 157.336 37.3075C157.336 33.824 154.512 31 151.028 31C147.545 31 144.721 33.824 144.721 37.3075C144.721 40.7911 147.545 43.6151 151.028 43.6151Z" fill="#FBC587"/>
<path d="M206.015 43.6151C209.498 43.6151 212.322 40.7911 212.322 37.3075C212.322 33.824 209.498 31 206.015 31C202.531 31 199.707 33.824 199.707 37.3075C199.707 40.7911 202.531 43.6151 206.015 43.6151Z" fill="#FBC587"/>
<path d="M260.931 43.6151C264.414 43.6151 267.238 40.7911 267.238 37.3075C267.238 33.824 264.414 31 260.931 31C257.447 31 254.623 33.824 254.623 37.3075C254.623 40.7911 257.447 43.6151 260.931 43.6151Z" fill="#FBC587"/>
<path d="M315.915 43.6151C319.399 43.6151 322.223 40.7911 322.223 37.3075C322.223 33.824 319.399 31 315.915 31C312.431 31 309.607 33.824 309.607 37.3075C309.607 40.7911 312.431 43.6151 315.915 43.6151Z" fill="#FBC587"/>
<path d="M41.1259 98.6004C44.6095 98.6004 47.4335 95.7765 47.4335 92.2929C47.4335 88.8093 44.6095 85.9854 41.1259 85.9854C37.6424 85.9854 34.8184 88.8093 34.8184 92.2929C34.8184 95.7765 37.6424 98.6004 41.1259 98.6004Z" fill="#FBC587"/>
<path d="M96.1122 98.6004C99.5958 98.6004 102.42 95.7765 102.42 92.2929C102.42 88.8093 99.5958 85.9854 96.1122 85.9854C92.6287 85.9854 89.8047 88.8093 89.8047 92.2929C89.8047 95.7765 92.6287 98.6004 96.1122 98.6004Z" fill="#FBC587"/>
<path d="M151.028 98.6004C154.512 98.6004 157.336 95.7765 157.336 92.2929C157.336 88.8093 154.512 85.9854 151.028 85.9854C147.545 85.9854 144.721 88.8093 144.721 92.2929C144.721 95.7765 147.545 98.6004 151.028 98.6004Z" fill="#FBC587"/>
<path d="M206.015 98.6004C209.498 98.6004 212.322 95.7765 212.322 92.2929C212.322 88.8093 209.498 85.9854 206.015 85.9854C202.531 85.9854 199.707 88.8093 199.707 92.2929C199.707 95.7765 202.531 98.6004 206.015 98.6004Z" fill="#FBC587"/>
<path d="M260.931 98.6004C264.414 98.6004 267.238 95.7765 267.238 92.2929C267.238 88.8093 264.414 85.9854 260.931 85.9854C257.447 85.9854 254.623 88.8093 254.623 92.2929C254.623 95.7765 257.447 98.6004 260.931 98.6004Z" fill="#FBC587"/>
<path d="M315.915 98.6004C319.399 98.6004 322.223 95.7765 322.223 92.2929C322.223 88.8093 319.399 85.9854 315.915 85.9854C312.431 85.9854 309.607 88.8093 309.607 92.2929C309.607 95.7765 312.431 98.6004 315.915 98.6004Z" fill="#FBC587"/>
<path d="M41.1259 153.517C44.6095 153.517 47.4335 150.693 47.4335 147.21C47.4335 143.726 44.6095 140.902 41.1259 140.902C37.6424 140.902 34.8184 143.726 34.8184 147.21C34.8184 150.693 37.6424 153.517 41.1259 153.517Z" fill="#FBC587"/>
<path d="M96.1122 153.517C99.5958 153.517 102.42 150.693 102.42 147.21C102.42 143.726 99.5958 140.902 96.1122 140.902C92.6287 140.902 89.8047 143.726 89.8047 147.21C89.8047 150.693 92.6287 153.517 96.1122 153.517Z" fill="#FBC587"/>
<path d="M151.028 153.517C154.512 153.517 157.336 150.693 157.336 147.21C157.336 143.726 154.512 140.902 151.028 140.902C147.545 140.902 144.721 143.726 144.721 147.21C144.721 150.693 147.545 153.517 151.028 153.517Z" fill="#FBC587"/>
<path d="M206.015 153.517C209.498 153.517 212.322 150.693 212.322 147.21C212.322 143.726 209.498 140.902 206.015 140.902C202.531 140.902 199.707 143.726 199.707 147.21C199.707 150.693 202.531 153.517 206.015 153.517Z" fill="#FBC587"/>
<path d="M260.931 153.517C264.414 153.517 267.238 150.693 267.238 147.21C267.238 143.726 264.414 140.902 260.931 140.902C257.447 140.902 254.623 143.726 254.623 147.21C254.623 150.693 257.447 153.517 260.931 153.517Z" fill="#FBC587"/>
<path d="M315.915 153.517C319.399 153.517 322.223 150.693 322.223 147.21C322.223 143.726 319.399 140.902 315.915 140.902C312.431 140.902 309.607 143.726 309.607 147.21C309.607 150.693 312.431 153.517 315.915 153.517Z" fill="#FBC587"/>
<path d="M41.1259 208.503C44.6095 208.503 47.4335 205.679 47.4335 202.195C47.4335 198.712 44.6095 195.888 41.1259 195.888C37.6424 195.888 34.8184 198.712 34.8184 202.195C34.8184 205.679 37.6424 208.503 41.1259 208.503Z" fill="#FBC587"/>
<path d="M96.1122 208.503C99.5958 208.503 102.42 205.679 102.42 202.195C102.42 198.712 99.5958 195.888 96.1122 195.888C92.6287 195.888 89.8047 198.712 89.8047 202.195C89.8047 205.679 92.6287 208.503 96.1122 208.503Z" fill="#FBC587"/>
<path d="M151.028 208.503C154.512 208.503 157.336 205.679 157.336 202.195C157.336 198.712 154.512 195.888 151.028 195.888C147.545 195.888 144.721 198.712 144.721 202.195C144.721 205.679 147.545 208.503 151.028 208.503Z" fill="#FBC587"/>
<path d="M206.015 208.503C209.498 208.503 212.322 205.679 212.322 202.195C212.322 198.712 209.498 195.888 206.015 195.888C202.531 195.888 199.707 198.712 199.707 202.195C199.707 205.679 202.531 208.503 206.015 208.503Z" fill="#FBC587"/>
<path d="M260.931 208.503C264.414 208.503 267.238 205.679 267.238 202.195C267.238 198.712 264.414 195.888 260.931 195.888C257.447 195.888 254.623 198.712 254.623 202.195C254.623 205.679 257.447 208.503 260.931 208.503Z" fill="#FBC587"/>
<path d="M315.915 208.503C319.399 208.503 322.223 205.679 322.223 202.195C322.223 198.712 319.399 195.888 315.915 195.888C312.431 195.888 309.607 198.712 309.607 202.195C309.607 205.679 312.431 208.503 315.915 208.503Z" fill="#FBC587"/>
<path d="M41.1259 263.419C44.6095 263.419 47.4335 260.595 47.4335 257.111C47.4335 253.628 44.6095 250.804 41.1259 250.804C37.6424 250.804 34.8184 253.628 34.8184 257.111C34.8184 260.595 37.6424 263.419 41.1259 263.419Z" fill="#FBC587"/>
<path d="M96.1122 263.419C99.5958 263.419 102.42 260.595 102.42 257.111C102.42 253.628 99.5958 250.804 96.1122 250.804C92.6287 250.804 89.8047 253.628 89.8047 257.111C89.8047 260.595 92.6287 263.419 96.1122 263.419Z" fill="#FBC587"/>
<path d="M151.028 263.419C154.512 263.419 157.336 260.595 157.336 257.111C157.336 253.628 154.512 250.804 151.028 250.804C147.545 250.804 144.721 253.628 144.721 257.111C144.721 260.595 147.545 263.419 151.028 263.419Z" fill="#FBC587"/>
<path d="M206.015 263.419C209.498 263.419 212.322 260.595 212.322 257.111C212.322 253.628 209.498 250.804 206.015 250.804C202.531 250.804 199.707 253.628 199.707 257.111C199.707 260.595 202.531 263.419 206.015 263.419Z" fill="#FBC587"/>
<path d="M260.931 263.419C264.414 263.419 267.238 260.595 267.238 257.111C267.238 253.628 264.414 250.804 260.931 250.804C257.447 250.804 254.623 253.628 254.623 257.111C254.623 260.595 257.447 263.419 260.931 263.419Z" fill="#FBC587"/>
<path d="M315.915 263.419C319.399 263.419 322.223 260.595 322.223 257.111C322.223 253.628 319.399 250.804 315.915 250.804C312.431 250.804 309.607 253.628 309.607 257.111C309.607 260.595 312.431 263.419 315.915 263.419Z" fill="#FBC587"/>
<path d="M41.1259 318.404C44.6095 318.404 47.4335 315.58 47.4335 312.097C47.4335 308.613 44.6095 305.789 41.1259 305.789C37.6424 305.789 34.8184 308.613 34.8184 312.097C34.8184 315.58 37.6424 318.404 41.1259 318.404Z" fill="#FBC587"/>
<path d="M96.1122 318.404C99.5958 318.404 102.42 315.58 102.42 312.097C102.42 308.613 99.5958 305.789 96.1122 305.789C92.6287 305.789 89.8047 308.613 89.8047 312.097C89.8047 315.58 92.6287 318.404 96.1122 318.404Z" fill="#FBC587"/>
<path d="M151.028 318.404C154.512 318.404 157.336 315.58 157.336 312.097C157.336 308.613 154.512 305.789 151.028 305.789C147.545 305.789 144.721 308.613 144.721 312.097C144.721 315.58 147.545 318.404 151.028 318.404Z" fill="#FBC587"/>
<path d="M206.015 318.404C209.498 318.404 212.322 315.58 212.322 312.097C212.322 308.613 209.498 305.789 206.015 305.789C202.531 305.789 199.707 308.613 199.707 312.097C199.707 315.58 202.531 318.404 206.015 318.404Z" fill="#FBC587"/>
<path d="M260.931 318.404C264.414 318.404 267.238 315.58 267.238 312.097C267.238 308.613 264.414 305.789 260.931 305.789C257.447 305.789 254.623 308.613 254.623 312.097C254.623 315.58 257.447 318.404 260.931 318.404Z" fill="#FBC587"/>
<path d="M315.915 318.404C319.399 318.404 322.223 315.58 322.223 312.097C322.223 308.613 319.399 305.789 315.915 305.789C312.431 305.789 309.607 308.613 309.607 312.097C309.607 315.58 312.431 318.404 315.915 318.404Z" fill="#FBC587"/>
<path d="M41.1259 373.321C44.6095 373.321 47.4335 370.497 47.4335 367.014C47.4335 363.53 44.6095 360.706 41.1259 360.706C37.6424 360.706 34.8184 363.53 34.8184 367.014C34.8184 370.497 37.6424 373.321 41.1259 373.321Z" fill="#FBC587"/>
<path d="M96.1122 373.321C99.5958 373.321 102.42 370.497 102.42 367.014C102.42 363.53 99.5958 360.706 96.1122 360.706C92.6287 360.706 89.8047 363.53 89.8047 367.014C89.8047 370.497 92.6287 373.321 96.1122 373.321Z" fill="#FBC587"/>
<path d="M151.028 373.321C154.512 373.321 157.336 370.497 157.336 367.014C157.336 363.53 154.512 360.706 151.028 360.706C147.545 360.706 144.721 363.53 144.721 367.014C144.721 370.497 147.545 373.321 151.028 373.321Z" fill="#FBC587"/>
<path d="M206.015 373.321C209.498 373.321 212.322 370.497 212.322 367.014C212.322 363.53 209.498 360.706 206.015 360.706C202.531 360.706 199.707 363.53 199.707 367.014C199.707 370.497 202.531 373.321 206.015 373.321Z" fill="#FBC587"/>
<path d="M260.931 373.321C264.414 373.321 267.238 370.497 267.238 367.014C267.238 363.53 264.414 360.706 260.931 360.706C257.447 360.706 254.623 363.53 254.623 367.014C254.623 370.497 257.447 373.321 260.931 373.321Z" fill="#FBC587"/>
<path d="M315.915 373.321C319.399 373.321 322.223 370.497 322.223 367.014C322.223 363.53 319.399 360.706 315.915 360.706C312.431 360.706 309.607 363.53 309.607 367.014C309.607 370.497 312.431 373.321 315.915 373.321Z" fill="#FBC587"/>
<path d="M41.1259 428.307C44.6095 428.307 47.4335 425.483 47.4335 421.999C47.4335 418.515 44.6095 415.691 41.1259 415.691C37.6424 415.691 34.8184 418.515 34.8184 421.999C34.8184 425.483 37.6424 428.307 41.1259 428.307Z" fill="#FBC587"/>
<path d="M96.1122 428.307C99.5958 428.307 102.42 425.483 102.42 421.999C102.42 418.515 99.5958 415.691 96.1122 415.691C92.6287 415.691 89.8047 418.515 89.8047 421.999C89.8047 425.483 92.6287 428.307 96.1122 428.307Z" fill="#FBC587"/>
<path d="M151.028 428.307C154.512 428.307 157.336 425.483 157.336 421.999C157.336 418.515 154.512 415.691 151.028 415.691C147.545 415.691 144.721 418.515 144.721 421.999C144.721 425.483 147.545 428.307 151.028 428.307Z" fill="#FBC587"/>
<path d="M206.015 428.307C209.498 428.307 212.322 425.483 212.322 421.999C212.322 418.515 209.498 415.691 206.015 415.691C202.531 415.691 199.707 418.515 199.707 421.999C199.707 425.483 202.531 428.307 206.015 428.307Z" fill="#FBC587"/>
<path d="M260.931 428.307C264.414 428.307 267.238 425.483 267.238 421.999C267.238 418.515 264.414 415.691 260.931 415.691C257.447 415.691 254.623 418.515 254.623 421.999C254.623 425.483 257.447 428.307 260.931 428.307Z" fill="#FBC587"/>
<path d="M315.915 428.307C319.399 428.307 322.223 425.483 322.223 421.999C322.223 418.515 319.399 415.691 315.915 415.691C312.431 415.691 309.607 418.515 309.607 421.999C309.607 425.483 312.431 428.307 315.915 428.307Z" fill="#FBC587"/>
<path d="M41.1259 483.223C44.6095 483.223 47.4335 480.4 47.4335 476.916C47.4335 473.432 44.6095 470.608 41.1259 470.608C37.6424 470.608 34.8184 473.432 34.8184 476.916C34.8184 480.4 37.6424 483.223 41.1259 483.223Z" fill="#FBC587"/>
<path d="M96.1122 483.223C99.5958 483.223 102.42 480.4 102.42 476.916C102.42 473.432 99.5958 470.608 96.1122 470.608C92.6287 470.608 89.8047 473.432 89.8047 476.916C89.8047 480.4 92.6287 483.223 96.1122 483.223Z" fill="#FBC587"/>
<path d="M151.028 483.223C154.512 483.223 157.336 480.4 157.336 476.916C157.336 473.432 154.512 470.608 151.028 470.608C147.545 470.608 144.721 473.432 144.721 476.916C144.721 480.4 147.545 483.223 151.028 483.223Z" fill="#FBC587"/>
<path d="M206.015 483.223C209.498 483.223 212.322 480.4 212.322 476.916C212.322 473.432 209.498 470.608 206.015 470.608C202.531 470.608 199.707 473.432 199.707 476.916C199.707 480.4 202.531 483.223 206.015 483.223Z" fill="#FBC587"/>
<path d="M260.931 483.223C264.414 483.223 267.238 480.4 267.238 476.916C267.238 473.432 264.414 470.608 260.931 470.608C257.447 470.608 254.623 473.432 254.623 476.916C254.623 480.4 257.447 483.223 260.931 483.223Z" fill="#FBC587"/>
<path d="M315.915 483.223C319.399 483.223 322.223 480.4 322.223 476.916C322.223 473.432 319.399 470.608 315.915 470.608C312.431 470.608 309.607 473.432 309.607 476.916C309.607 480.4 312.431 483.223 315.915 483.223Z" fill="#FBC587"/>
<path d="M183 605H548.22H183Z" stroke="#95D8D2" stroke-width="7.17359" stroke-miterlimit="10"/>
<path d="M538.61 19.2203C542.813 19.2203 546.22 15.8132 546.22 11.6102C546.22 7.40718 542.813 4 538.61 4C534.407 4 531 7.40718 531 11.6102C531 15.8132 534.407 19.2203 538.61 19.2203Z" stroke="#FADF55" stroke-width="7.17359" stroke-miterlimit="10"/>
<path d="M538.61 80.1022C542.813 80.1022 546.22 76.695 546.22 72.492C546.22 68.289 542.813 64.8818 538.61 64.8818C534.407 64.8818 531 68.289 531 72.492C531 76.695 534.407 80.1022 538.61 80.1022Z" stroke="#FADF55" stroke-width="7.17359" stroke-miterlimit="10"/>
<path d="M538.61 140.983C542.813 140.983 546.22 137.576 546.22 133.373C546.22 129.17 542.813 125.763 538.61 125.763C534.407 125.763 531 129.17 531 133.373C531 137.576 534.407 140.983 538.61 140.983Z" stroke="#FADF55" stroke-width="7.17359" stroke-miterlimit="10"/>
<path d="M655.441 743.441H625V773.882H655.441V743.441Z" fill="#FBA036"/>
<path d="M685.882 713H655.441V743.441H685.882V713Z" fill="#68C8BF"/>
<path d="M689.543 334H583V349.22H689.543V334Z" fill="#FBA036"/>
</svg>
