<svg width="1512" height="990" viewBox="0 0 1512 990" fill="none" xmlns="http://www.w3.org/2000/svg">
    <path d="M5.20987 43.615C8.69343 43.615 11.5174 40.791 11.5174 37.3075C11.5174 33.8239 8.69343 30.9999 5.20987 30.9999C1.72631 30.9999 -1.09766 33.8239 -1.09766 37.3075C-1.09766 40.791 1.72631 43.615 5.20987 43.615Z" fill="#FBC587"/>
    <path d="M60.1264 43.615C63.61 43.615 66.4339 40.791 66.4339 37.3075C66.4339 33.8239 63.61 30.9999 60.1264 30.9999C56.6428 30.9999 53.8188 33.8239 53.8188 37.3075C53.8188 40.791 56.6428 43.615 60.1264 43.615Z" fill="#FBC587"/>
    <path d="M115.112 43.615C118.595 43.615 121.419 40.791 121.419 37.3075C121.419 33.8239 118.595 30.9999 115.112 30.9999C111.628 30.9999 108.804 33.8239 108.804 37.3075C108.804 40.791 111.628 43.615 115.112 43.615Z" fill="#FBC587"/>
    <path d="M170.028 43.615C173.512 43.615 176.336 40.791 176.336 37.3075C176.336 33.8239 173.512 30.9999 170.028 30.9999C166.545 30.9999 163.721 33.8239 163.721 37.3075C163.721 40.791 166.545 43.615 170.028 43.615Z" fill="#FBC587"/>
    <path d="M225.014 43.615C228.497 43.615 231.321 40.791 231.321 37.3075C231.321 33.8239 228.497 30.9999 225.014 30.9999C221.53 30.9999 218.706 33.8239 218.706 37.3075C218.706 40.791 221.53 43.615 225.014 43.615Z" fill="#FBC587"/>
    <path d="M279.931 43.615C283.414 43.615 286.238 40.791 286.238 37.3075C286.238 33.8239 283.414 30.9999 279.931 30.9999C276.447 30.9999 273.623 33.8239 273.623 37.3075C273.623 40.791 276.447 43.615 279.931 43.615Z" fill="#FBC587"/>
    <path d="M334.916 43.615C338.4 43.615 341.223 40.791 341.223 37.3075C341.223 33.8239 338.4 30.9999 334.916 30.9999C331.432 30.9999 328.608 33.8239 328.608 37.3075C328.608 40.791 331.432 43.615 334.916 43.615Z" fill="#FBC587"/>
    <path d="M5.20987 98.6003C8.69343 98.6003 11.5174 95.7764 11.5174 92.2928C11.5174 88.8093 8.69343 85.9853 5.20987 85.9853C1.72631 85.9853 -1.09766 88.8093 -1.09766 92.2928C-1.09766 95.7764 1.72631 98.6003 5.20987 98.6003Z" fill="#FBC587"/>
    <path d="M60.1264 98.6003C63.61 98.6003 66.4339 95.7764 66.4339 92.2928C66.4339 88.8093 63.61 85.9853 60.1264 85.9853C56.6428 85.9853 53.8188 88.8093 53.8188 92.2928C53.8188 95.7764 56.6428 98.6003 60.1264 98.6003Z" fill="#FBC587"/>
    <path d="M115.112 98.6003C118.595 98.6003 121.419 95.7764 121.419 92.2928C121.419 88.8093 118.595 85.9853 115.112 85.9853C111.628 85.9853 108.804 88.8093 108.804 92.2928C108.804 95.7764 111.628 98.6003 115.112 98.6003Z" fill="#FBC587"/>
    <path d="M170.028 98.6003C173.512 98.6003 176.336 95.7764 176.336 92.2928C176.336 88.8093 173.512 85.9853 170.028 85.9853C166.545 85.9853 163.721 88.8093 163.721 92.2928C163.721 95.7764 166.545 98.6003 170.028 98.6003Z" fill="#FBC587"/>
    <path d="M225.014 98.6003C228.497 98.6003 231.321 95.7764 231.321 92.2928C231.321 88.8093 228.497 85.9853 225.014 85.9853C221.53 85.9853 218.706 88.8093 218.706 92.2928C218.706 95.7764 221.53 98.6003 225.014 98.6003Z" fill="#FBC587"/>
    <path d="M279.931 98.6003C283.414 98.6003 286.238 95.7764 286.238 92.2928C286.238 88.8093 283.414 85.9853 279.931 85.9853C276.447 85.9853 273.623 88.8093 273.623 92.2928C273.623 95.7764 276.447 98.6003 279.931 98.6003Z" fill="#FBC587"/>
    <path d="M334.916 98.6003C338.4 98.6003 341.223 95.7764 341.223 92.2928C341.223 88.8093 338.4 85.9853 334.916 85.9853C331.432 85.9853 328.608 88.8093 328.608 92.2928C328.608 95.7764 331.432 98.6003 334.916 98.6003Z" fill="#FBC587"/>
    <path d="M5.20987 153.517C8.69343 153.517 11.5174 150.693 11.5174 147.21C11.5174 143.726 8.69343 140.902 5.20987 140.902C1.72631 140.902 -1.09766 143.726 -1.09766 147.21C-1.09766 150.693 1.72631 153.517 5.20987 153.517Z" fill="#FBC587"/>
    <path d="M60.1264 153.517C63.61 153.517 66.4339 150.693 66.4339 147.21C66.4339 143.726 63.61 140.902 60.1264 140.902C56.6428 140.902 53.8188 143.726 53.8188 147.21C53.8188 150.693 56.6428 153.517 60.1264 153.517Z" fill="#FBC587"/>
    <path d="M115.112 153.517C118.595 153.517 121.419 150.693 121.419 147.21C121.419 143.726 118.595 140.902 115.112 140.902C111.628 140.902 108.804 143.726 108.804 147.21C108.804 150.693 111.628 153.517 115.112 153.517Z" fill="#FBC587"/>
    <path d="M170.028 153.517C173.512 153.517 176.336 150.693 176.336 147.21C176.336 143.726 173.512 140.902 170.028 140.902C166.545 140.902 163.721 143.726 163.721 147.21C163.721 150.693 166.545 153.517 170.028 153.517Z" fill="#FBC587"/>
    <path d="M225.014 153.517C228.497 153.517 231.321 150.693 231.321 147.21C231.321 143.726 228.497 140.902 225.014 140.902C221.53 140.902 218.706 143.726 218.706 147.21C218.706 150.693 221.53 153.517 225.014 153.517Z" fill="#FBC587"/>
    <path d="M279.931 153.517C283.414 153.517 286.238 150.693 286.238 147.21C286.238 143.726 283.414 140.902 279.931 140.902C276.447 140.902 273.623 143.726 273.623 147.21C273.623 150.693 276.447 153.517 279.931 153.517Z" fill="#FBC587"/>
    <path d="M334.916 153.517C338.4 153.517 341.223 150.693 341.223 147.21C341.223 143.726 338.4 140.902 334.916 140.902C331.432 140.902 328.608 143.726 328.608 147.21C328.608 150.693 331.432 153.517 334.916 153.517Z" fill="#FBC587"/>
    <path d="M5.20987 208.502C8.69343 208.502 11.5174 205.678 11.5174 202.195C11.5174 198.711 8.69343 195.887 5.20987 195.887C1.72631 195.887 -1.09766 198.711 -1.09766 202.195C-1.09766 205.678 1.72631 208.502 5.20987 208.502Z" fill="#FBC587"/>
    <path d="M60.1264 208.502C63.61 208.502 66.4339 205.678 66.4339 202.195C66.4339 198.711 63.61 195.887 60.1264 195.887C56.6428 195.887 53.8188 198.711 53.8188 202.195C53.8188 205.678 56.6428 208.502 60.1264 208.502Z" fill="#FBC587"/>
    <path d="M115.112 208.502C118.595 208.502 121.419 205.678 121.419 202.195C121.419 198.711 118.595 195.887 115.112 195.887C111.628 195.887 108.804 198.711 108.804 202.195C108.804 205.678 111.628 208.502 115.112 208.502Z" fill="#FBC587"/>
    <path d="M170.028 208.502C173.512 208.502 176.336 205.678 176.336 202.195C176.336 198.711 173.512 195.887 170.028 195.887C166.545 195.887 163.721 198.711 163.721 202.195C163.721 205.678 166.545 208.502 170.028 208.502Z" fill="#FBC587"/>
    <path d="M225.014 208.502C228.497 208.502 231.321 205.678 231.321 202.195C231.321 198.711 228.497 195.887 225.014 195.887C221.53 195.887 218.706 198.711 218.706 202.195C218.706 205.678 221.53 208.502 225.014 208.502Z" fill="#FBC587"/>
    <path d="M279.931 208.502C283.414 208.502 286.238 205.678 286.238 202.195C286.238 198.711 283.414 195.887 279.931 195.887C276.447 195.887 273.623 198.711 273.623 202.195C273.623 205.678 276.447 208.502 279.931 208.502Z" fill="#FBC587"/>
    <path d="M334.916 208.502C338.4 208.502 341.223 205.678 341.223 202.195C341.223 198.711 338.4 195.887 334.916 195.887C331.432 195.887 328.608 198.711 328.608 202.195C328.608 205.678 331.432 208.502 334.916 208.502Z" fill="#FBC587"/>
    <path d="M5.20987 263.419C8.69343 263.419 11.5174 260.595 11.5174 257.112C11.5174 253.628 8.69343 250.804 5.20987 250.804C1.72631 250.804 -1.09766 253.628 -1.09766 257.112C-1.09766 260.595 1.72631 263.419 5.20987 263.419Z" fill="#FBC587"/>
    <path d="M60.1264 263.419C63.61 263.419 66.4339 260.595 66.4339 257.112C66.4339 253.628 63.61 250.804 60.1264 250.804C56.6428 250.804 53.8188 253.628 53.8188 257.112C53.8188 260.595 56.6428 263.419 60.1264 263.419Z" fill="#FBC587"/>
    <path d="M115.112 263.419C118.595 263.419 121.419 260.595 121.419 257.112C121.419 253.628 118.595 250.804 115.112 250.804C111.628 250.804 108.804 253.628 108.804 257.112C108.804 260.595 111.628 263.419 115.112 263.419Z" fill="#FBC587"/>
    <path d="M170.028 263.419C173.512 263.419 176.336 260.595 176.336 257.112C176.336 253.628 173.512 250.804 170.028 250.804C166.545 250.804 163.721 253.628 163.721 257.112C163.721 260.595 166.545 263.419 170.028 263.419Z" fill="#FBC587"/>
    <path d="M225.014 263.419C228.497 263.419 231.321 260.595 231.321 257.112C231.321 253.628 228.497 250.804 225.014 250.804C221.53 250.804 218.706 253.628 218.706 257.112C218.706 260.595 221.53 263.419 225.014 263.419Z" fill="#FBC587"/>
    <path d="M279.931 263.419C283.414 263.419 286.238 260.595 286.238 257.112C286.238 253.628 283.414 250.804 279.931 250.804C276.447 250.804 273.623 253.628 273.623 257.112C273.623 260.595 276.447 263.419 279.931 263.419Z" fill="#FBC587"/>
    <path d="M334.916 263.419C338.4 263.419 341.223 260.595 341.223 257.112C341.223 253.628 338.4 250.804 334.916 250.804C331.432 250.804 328.608 253.628 328.608 257.112C328.608 260.595 331.432 263.419 334.916 263.419Z" fill="#FBC587"/>
    <path d="M5.20987 318.404C8.69343 318.404 11.5174 315.58 11.5174 312.097C11.5174 308.613 8.69343 305.789 5.20987 305.789C1.72631 305.789 -1.09766 308.613 -1.09766 312.097C-1.09766 315.58 1.72631 318.404 5.20987 318.404Z" fill="#FBC587"/>
    <path d="M60.1264 318.404C63.61 318.404 66.4339 315.58 66.4339 312.097C66.4339 308.613 63.61 305.789 60.1264 305.789C56.6428 305.789 53.8188 308.613 53.8188 312.097C53.8188 315.58 56.6428 318.404 60.1264 318.404Z" fill="#FBC587"/>
    <path d="M115.112 318.404C118.595 318.404 121.419 315.58 121.419 312.097C121.419 308.613 118.595 305.789 115.112 305.789C111.628 305.789 108.804 308.613 108.804 312.097C108.804 315.58 111.628 318.404 115.112 318.404Z" fill="#FBC587"/>
    <path d="M170.028 318.404C173.512 318.404 176.336 315.58 176.336 312.097C176.336 308.613 173.512 305.789 170.028 305.789C166.545 305.789 163.721 308.613 163.721 312.097C163.721 315.58 166.545 318.404 170.028 318.404Z" fill="#FBC587"/>
    <path d="M225.014 318.404C228.497 318.404 231.321 315.58 231.321 312.097C231.321 308.613 228.497 305.789 225.014 305.789C221.53 305.789 218.706 308.613 218.706 312.097C218.706 315.58 221.53 318.404 225.014 318.404Z" fill="#FBC587"/>
    <path d="M279.931 318.404C283.414 318.404 286.238 315.58 286.238 312.097C286.238 308.613 283.414 305.789 279.931 305.789C276.447 305.789 273.623 308.613 273.623 312.097C273.623 315.58 276.447 318.404 279.931 318.404Z" fill="#FBC587"/>
    <path d="M334.916 318.404C338.4 318.404 341.223 315.58 341.223 312.097C341.223 308.613 338.4 305.789 334.916 305.789C331.432 305.789 328.608 308.613 328.608 312.097C328.608 315.58 331.432 318.404 334.916 318.404Z" fill="#FBC587"/>
    <path d="M5.20987 373.321C8.69343 373.321 11.5174 370.497 11.5174 367.014C11.5174 363.53 8.69343 360.706 5.20987 360.706C1.72631 360.706 -1.09766 363.53 -1.09766 367.014C-1.09766 370.497 1.72631 373.321 5.20987 373.321Z" fill="#FBC587"/>
    <path d="M60.1264 373.321C63.61 373.321 66.4339 370.497 66.4339 367.014C66.4339 363.53 63.61 360.706 60.1264 360.706C56.6428 360.706 53.8188 363.53 53.8188 367.014C53.8188 370.497 56.6428 373.321 60.1264 373.321Z" fill="#FBC587"/>
    <path d="M115.112 373.321C118.595 373.321 121.419 370.497 121.419 367.014C121.419 363.53 118.595 360.706 115.112 360.706C111.628 360.706 108.804 363.53 108.804 367.014C108.804 370.497 111.628 373.321 115.112 373.321Z" fill="#FBC587"/>
    <path d="M170.028 373.321C173.512 373.321 176.336 370.497 176.336 367.014C176.336 363.53 173.512 360.706 170.028 360.706C166.545 360.706 163.721 363.53 163.721 367.014C163.721 370.497 166.545 373.321 170.028 373.321Z" fill="#FBC587"/>
    <path d="M225.014 373.321C228.497 373.321 231.321 370.497 231.321 367.014C231.321 363.53 228.497 360.706 225.014 360.706C221.53 360.706 218.706 363.53 218.706 367.014C218.706 370.497 221.53 373.321 225.014 373.321Z" fill="#FBC587"/>
    <path d="M279.931 373.321C283.414 373.321 286.238 370.497 286.238 367.014C286.238 363.53 283.414 360.706 279.931 360.706C276.447 360.706 273.623 363.53 273.623 367.014C273.623 370.497 276.447 373.321 279.931 373.321Z" fill="#FBC587"/>
    <path d="M334.916 373.321C338.4 373.321 341.223 370.497 341.223 367.014C341.223 363.53 338.4 360.706 334.916 360.706C331.432 360.706 328.608 363.53 328.608 367.014C328.608 370.497 331.432 373.321 334.916 373.321Z" fill="#FBC587"/>
    <path d="M5.20987 428.307C8.69343 428.307 11.5174 425.483 11.5174 421.999C11.5174 418.515 8.69343 415.691 5.20987 415.691C1.72631 415.691 -1.09766 418.515 -1.09766 421.999C-1.09766 425.483 1.72631 428.307 5.20987 428.307Z" fill="#FBC587"/>
    <path d="M60.1264 428.307C63.61 428.307 66.4339 425.483 66.4339 421.999C66.4339 418.515 63.61 415.691 60.1264 415.691C56.6428 415.691 53.8188 418.515 53.8188 421.999C53.8188 425.483 56.6428 428.307 60.1264 428.307Z" fill="#FBC587"/>
    <path d="M115.112 428.307C118.595 428.307 121.419 425.483 121.419 421.999C121.419 418.515 118.595 415.691 115.112 415.691C111.628 415.691 108.804 418.515 108.804 421.999C108.804 425.483 111.628 428.307 115.112 428.307Z" fill="#FBC587"/>
    <path d="M170.028 428.307C173.512 428.307 176.336 425.483 176.336 421.999C176.336 418.515 173.512 415.691 170.028 415.691C166.545 415.691 163.721 418.515 163.721 421.999C163.721 425.483 166.545 428.307 170.028 428.307Z" fill="#FBC587"/>
    <path d="M225.014 428.307C228.497 428.307 231.321 425.483 231.321 421.999C231.321 418.515 228.497 415.691 225.014 415.691C221.53 415.691 218.706 418.515 218.706 421.999C218.706 425.483 221.53 428.307 225.014 428.307Z" fill="#FBC587"/>
    <path d="M279.931 428.307C283.414 428.307 286.238 425.483 286.238 421.999C286.238 418.515 283.414 415.691 279.931 415.691C276.447 415.691 273.623 418.515 273.623 421.999C273.623 425.483 276.447 428.307 279.931 428.307Z" fill="#FBC587"/>
    <path d="M334.916 428.307C338.4 428.307 341.223 425.483 341.223 421.999C341.223 418.515 338.4 415.691 334.916 415.691C331.432 415.691 328.608 418.515 328.608 421.999C328.608 425.483 331.432 428.307 334.916 428.307Z" fill="#FBC587"/>
    <path d="M5.20987 483.223C8.69343 483.223 11.5174 480.399 11.5174 476.916C11.5174 473.432 8.69343 470.608 5.20987 470.608C1.72631 470.608 -1.09766 473.432 -1.09766 476.916C-1.09766 480.399 1.72631 483.223 5.20987 483.223Z" fill="#FBC587"/>
    <path d="M60.1264 483.223C63.61 483.223 66.4339 480.399 66.4339 476.916C66.4339 473.432 63.61 470.608 60.1264 470.608C56.6428 470.608 53.8188 473.432 53.8188 476.916C53.8188 480.399 56.6428 483.223 60.1264 483.223Z" fill="#FBC587"/>
    <path d="M115.112 483.223C118.595 483.223 121.419 480.399 121.419 476.916C121.419 473.432 118.595 470.608 115.112 470.608C111.628 470.608 108.804 473.432 108.804 476.916C108.804 480.399 111.628 483.223 115.112 483.223Z" fill="#FBC587"/>
    <path d="M170.028 483.223C173.512 483.223 176.336 480.399 176.336 476.916C176.336 473.432 173.512 470.608 170.028 470.608C166.545 470.608 163.721 473.432 163.721 476.916C163.721 480.399 166.545 483.223 170.028 483.223Z" fill="#FBC587"/>
    <path d="M225.014 483.223C228.497 483.223 231.321 480.399 231.321 476.916C231.321 473.432 228.497 470.608 225.014 470.608C221.53 470.608 218.706 473.432 218.706 476.916C218.706 480.399 221.53 483.223 225.014 483.223Z" fill="#FBC587"/>
    <path d="M279.931 483.223C283.414 483.223 286.238 480.399 286.238 476.916C286.238 473.432 283.414 470.608 279.931 470.608C276.447 470.608 273.623 473.432 273.623 476.916C273.623 480.399 276.447 483.223 279.931 483.223Z" fill="#FBC587"/>
    <path d="M334.916 483.223C338.4 483.223 341.223 480.399 341.223 476.916C341.223 473.432 338.4 470.608 334.916 470.608C331.432 470.608 328.608 473.432 328.608 476.916C328.608 480.399 331.432 483.223 334.916 483.223Z" fill="#FBC587"/>
    <path d="M202 605H567.22H202Z" stroke="#95D8D2" stroke-width="7.17359" stroke-miterlimit="10"/>
    <path d="M557.61 19.2203C561.813 19.2203 565.22 15.8132 565.22 11.6102C565.22 7.40718 561.813 4 557.61 4C553.407 4 550 7.40718 550 11.6102C550 15.8132 553.407 19.2203 557.61 19.2203Z" stroke="#FADF55" stroke-width="7.17359" stroke-miterlimit="10"/>
    <path d="M557.61 80.1019C561.813 80.1019 565.22 76.6947 565.22 72.4917C565.22 68.2887 561.813 64.8815 557.61 64.8815C553.407 64.8815 550 68.2887 550 72.4917C550 76.6947 553.407 80.1019 557.61 80.1019Z" stroke="#FADF55" stroke-width="7.17359" stroke-miterlimit="10"/>
    <path d="M557.61 140.983C561.813 140.983 565.22 137.576 565.22 133.373C565.22 129.17 561.813 125.763 557.61 125.763C553.407 125.763 550 129.17 550 133.373C550 137.576 553.407 140.983 557.61 140.983Z" stroke="#FADF55" stroke-width="7.17359" stroke-miterlimit="10"/>
    <path d="M674.441 743.441H644V773.882H674.441V743.441Z" fill="#FBA036"/>
    <path d="M704.882 713H674.441V743.441H704.882V713Z" fill="#68C8BF"/>
    <path d="M1254.31 617.615C1257.79 617.615 1260.62 614.791 1260.62 611.308C1260.62 607.824 1257.79 605 1254.31 605C1250.82 605 1248 607.824 1248 611.308C1248 614.791 1250.82 617.615 1254.31 617.615Z" fill="#FBC587"/>
    <path d="M1309.22 617.615C1312.71 617.615 1315.53 614.791 1315.53 611.308C1315.53 607.824 1312.71 605 1309.22 605C1305.74 605 1302.92 607.824 1302.92 611.308C1302.92 614.791 1305.74 617.615 1309.22 617.615Z" fill="#FBC587"/>
    <path d="M1364.21 617.615C1367.69 617.615 1370.52 614.791 1370.52 611.308C1370.52 607.824 1367.69 605 1364.21 605C1360.73 605 1357.9 607.824 1357.9 611.308C1357.9 614.791 1360.73 617.615 1364.21 617.615Z" fill="#FBC587"/>
    <path d="M1419.13 617.615C1422.61 617.615 1425.43 614.791 1425.43 611.308C1425.43 607.824 1422.61 605 1419.13 605C1415.64 605 1412.82 607.824 1412.82 611.308C1412.82 614.791 1415.64 617.615 1419.13 617.615Z" fill="#FBC587"/>
    <path d="M1474.11 617.615C1477.6 617.615 1480.42 614.791 1480.42 611.308C1480.42 607.824 1477.6 605 1474.11 605C1470.63 605 1467.8 607.824 1467.8 611.308C1467.8 614.791 1470.63 617.615 1474.11 617.615Z" fill="#FBC587"/>
    <path d="M1254.31 672.6C1257.79 672.6 1260.62 669.776 1260.62 666.293C1260.62 662.809 1257.79 659.985 1254.31 659.985C1250.82 659.985 1248 662.809 1248 666.293C1248 669.776 1250.82 672.6 1254.31 672.6Z" fill="#FBC587"/>
    <path d="M1309.22 672.6C1312.71 672.6 1315.53 669.776 1315.53 666.293C1315.53 662.809 1312.71 659.985 1309.22 659.985C1305.74 659.985 1302.92 662.809 1302.92 666.293C1302.92 669.776 1305.74 672.6 1309.22 672.6Z" fill="#FBC587"/>
    <path d="M1364.21 672.6C1367.69 672.6 1370.52 669.776 1370.52 666.293C1370.52 662.809 1367.69 659.985 1364.21 659.985C1360.73 659.985 1357.9 662.809 1357.9 666.293C1357.9 669.776 1360.73 672.6 1364.21 672.6Z" fill="#FBC587"/>
    <path d="M1419.13 672.6C1422.61 672.6 1425.43 669.776 1425.43 666.293C1425.43 662.809 1422.61 659.985 1419.13 659.985C1415.64 659.985 1412.82 662.809 1412.82 666.293C1412.82 669.776 1415.64 672.6 1419.13 672.6Z" fill="#FBC587"/>
    <path d="M1474.11 672.6C1477.6 672.6 1480.42 669.776 1480.42 666.293C1480.42 662.809 1477.6 659.985 1474.11 659.985C1470.63 659.985 1467.8 662.809 1467.8 666.293C1467.8 669.776 1470.63 672.6 1474.11 672.6Z" fill="#FBC587"/>
    <path d="M1254.31 727.517C1257.79 727.517 1260.62 724.693 1260.62 721.21C1260.62 717.726 1257.79 714.902 1254.31 714.902C1250.82 714.902 1248 717.726 1248 721.21C1248 724.693 1250.82 727.517 1254.31 727.517Z" fill="#FBC587"/>
    <path d="M1309.22 727.517C1312.71 727.517 1315.53 724.693 1315.53 721.21C1315.53 717.726 1312.71 714.902 1309.22 714.902C1305.74 714.902 1302.92 717.726 1302.92 721.21C1302.92 724.693 1305.74 727.517 1309.22 727.517Z" fill="#FBC587"/>
    <path d="M1364.21 727.517C1367.69 727.517 1370.52 724.693 1370.52 721.21C1370.52 717.726 1367.69 714.902 1364.21 714.902C1360.73 714.902 1357.9 717.726 1357.9 721.21C1357.9 724.693 1360.73 727.517 1364.21 727.517Z" fill="#FBC587"/>
    <path d="M1419.13 727.517C1422.61 727.517 1425.43 724.693 1425.43 721.21C1425.43 717.726 1422.61 714.902 1419.13 714.902C1415.64 714.902 1412.82 717.726 1412.82 721.21C1412.82 724.693 1415.64 727.517 1419.13 727.517Z" fill="#FBC587"/>
    <path d="M1474.11 727.517C1477.6 727.517 1480.42 724.693 1480.42 721.21C1480.42 717.726 1477.6 714.902 1474.11 714.902C1470.63 714.902 1467.8 717.726 1467.8 721.21C1467.8 724.693 1470.63 727.517 1474.11 727.517Z" fill="#FBC587"/>
    <path d="M1254.31 782.502C1257.79 782.502 1260.62 779.678 1260.62 776.195C1260.62 772.711 1257.79 769.887 1254.31 769.887C1250.82 769.887 1248 772.711 1248 776.195C1248 779.678 1250.82 782.502 1254.31 782.502Z" fill="#FBC587"/>
    <path d="M1309.22 782.502C1312.71 782.502 1315.53 779.678 1315.53 776.195C1315.53 772.711 1312.71 769.887 1309.22 769.887C1305.74 769.887 1302.92 772.711 1302.92 776.195C1302.92 779.678 1305.74 782.502 1309.22 782.502Z" fill="#FBC587"/>
    <path d="M1364.21 782.502C1367.69 782.502 1370.52 779.678 1370.52 776.195C1370.52 772.711 1367.69 769.887 1364.21 769.887C1360.73 769.887 1357.9 772.711 1357.9 776.195C1357.9 779.678 1360.73 782.502 1364.21 782.502Z" fill="#FBC587"/>
    <path d="M1419.13 782.502C1422.61 782.502 1425.43 779.678 1425.43 776.195C1425.43 772.711 1422.61 769.887 1419.13 769.887C1415.64 769.887 1412.82 772.711 1412.82 776.195C1412.82 779.678 1415.64 782.502 1419.13 782.502Z" fill="#FBC587"/>
    <path d="M1474.11 782.502C1477.6 782.502 1480.42 779.678 1480.42 776.195C1480.42 772.711 1477.6 769.887 1474.11 769.887C1470.63 769.887 1467.8 772.711 1467.8 776.195C1467.8 779.678 1470.63 782.502 1474.11 782.502Z" fill="#FBC587"/>
    <path d="M1254.31 837.419C1257.79 837.419 1260.62 834.595 1260.62 831.112C1260.62 827.628 1257.79 824.804 1254.31 824.804C1250.82 824.804 1248 827.628 1248 831.112C1248 834.595 1250.82 837.419 1254.31 837.419Z" fill="#FBC587"/>
    <path d="M1309.22 837.419C1312.71 837.419 1315.53 834.595 1315.53 831.112C1315.53 827.628 1312.71 824.804 1309.22 824.804C1305.74 824.804 1302.92 827.628 1302.92 831.112C1302.92 834.595 1305.74 837.419 1309.22 837.419Z" fill="#FBC587"/>
    <path d="M1364.21 837.419C1367.69 837.419 1370.52 834.595 1370.52 831.112C1370.52 827.628 1367.69 824.804 1364.21 824.804C1360.73 824.804 1357.9 827.628 1357.9 831.112C1357.9 834.595 1360.73 837.419 1364.21 837.419Z" fill="#FBC587"/>
    <path d="M1419.13 837.419C1422.61 837.419 1425.43 834.595 1425.43 831.112C1425.43 827.628 1422.61 824.804 1419.13 824.804C1415.64 824.804 1412.82 827.628 1412.82 831.112C1412.82 834.595 1415.64 837.419 1419.13 837.419Z" fill="#FBC587"/>
    <path d="M1474.11 837.419C1477.6 837.419 1480.42 834.595 1480.42 831.112C1480.42 827.628 1477.6 824.804 1474.11 824.804C1470.63 824.804 1467.8 827.628 1467.8 831.112C1467.8 834.595 1470.63 837.419 1474.11 837.419Z" fill="#FBC587"/>
    <path d="M1254.31 892.404C1257.79 892.404 1260.62 889.58 1260.62 886.097C1260.62 882.613 1257.79 879.789 1254.31 879.789C1250.82 879.789 1248 882.613 1248 886.097C1248 889.58 1250.82 892.404 1254.31 892.404Z" fill="#FBC587"/>
    <path d="M1309.22 892.404C1312.71 892.404 1315.53 889.58 1315.53 886.097C1315.53 882.613 1312.71 879.789 1309.22 879.789C1305.74 879.789 1302.92 882.613 1302.92 886.097C1302.92 889.58 1305.74 892.404 1309.22 892.404Z" fill="#FBC587"/>
    <path d="M1364.21 892.404C1367.69 892.404 1370.52 889.58 1370.52 886.097C1370.52 882.613 1367.69 879.789 1364.21 879.789C1360.73 879.789 1357.9 882.613 1357.9 886.097C1357.9 889.58 1360.73 892.404 1364.21 892.404Z" fill="#FBC587"/>
    <path d="M1419.13 892.404C1422.61 892.404 1425.43 889.58 1425.43 886.097C1425.43 882.613 1422.61 879.789 1419.13 879.789C1415.64 879.789 1412.82 882.613 1412.82 886.097C1412.82 889.58 1415.64 892.404 1419.13 892.404Z" fill="#FBC587"/>
    <path d="M1474.11 892.404C1477.6 892.404 1480.42 889.58 1480.42 886.097C1480.42 882.613 1477.6 879.789 1474.11 879.789C1470.63 879.789 1467.8 882.613 1467.8 886.097C1467.8 889.58 1470.63 892.404 1474.11 892.404Z" fill="#FBC587"/>
    <path d="M1254.31 947.321C1257.79 947.321 1260.62 944.497 1260.62 941.014C1260.62 937.53 1257.79 934.706 1254.31 934.706C1250.82 934.706 1248 937.53 1248 941.014C1248 944.497 1250.82 947.321 1254.31 947.321Z" fill="#FBC587"/>
    <path d="M1309.22 947.321C1312.71 947.321 1315.53 944.497 1315.53 941.014C1315.53 937.53 1312.71 934.706 1309.22 934.706C1305.74 934.706 1302.92 937.53 1302.92 941.014C1302.92 944.497 1305.74 947.321 1309.22 947.321Z" fill="#FBC587"/>
    <path d="M1364.21 947.321C1367.69 947.321 1370.52 944.497 1370.52 941.014C1370.52 937.53 1367.69 934.706 1364.21 934.706C1360.73 934.706 1357.9 937.53 1357.9 941.014C1357.9 944.497 1360.73 947.321 1364.21 947.321Z" fill="#FBC587"/>
    <path d="M1419.13 947.321C1422.61 947.321 1425.43 944.497 1425.43 941.014C1425.43 937.53 1422.61 934.706 1419.13 934.706C1415.64 934.706 1412.82 937.53 1412.82 941.014C1412.82 944.497 1415.64 947.321 1419.13 947.321Z" fill="#FBC587"/>
    <path d="M1474.11 947.321C1477.6 947.321 1480.42 944.497 1480.42 941.014C1480.42 937.53 1477.6 934.706 1474.11 934.706C1470.63 934.706 1467.8 937.53 1467.8 941.014C1467.8 944.497 1470.63 947.321 1474.11 947.321Z" fill="#FBC587"/>
    <path d="M1254.31 1002.31C1257.79 1002.31 1260.62 999.483 1260.62 995.999C1260.62 992.515 1257.79 989.691 1254.31 989.691C1250.82 989.691 1248 992.515 1248 995.999C1248 999.483 1250.82 1002.31 1254.31 1002.31Z" fill="#FBC587"/>
    <path d="M1309.22 1002.31C1312.71 1002.31 1315.53 999.483 1315.53 995.999C1315.53 992.515 1312.71 989.691 1309.22 989.691C1305.74 989.691 1302.92 992.515 1302.92 995.999C1302.92 999.483 1305.74 1002.31 1309.22 1002.31Z" fill="#FBC587"/>
    <path d="M1364.21 1002.31C1367.69 1002.31 1370.52 999.483 1370.52 995.999C1370.52 992.515 1367.69 989.691 1364.21 989.691C1360.73 989.691 1357.9 992.515 1357.9 995.999C1357.9 999.483 1360.73 1002.31 1364.21 1002.31Z" fill="#FBC587"/>
    <path d="M1419.13 1002.31C1422.61 1002.31 1425.43 999.483 1425.43 995.999C1425.43 992.515 1422.61 989.691 1419.13 989.691C1415.64 989.691 1412.82 992.515 1412.82 995.999C1412.82 999.483 1415.64 1002.31 1419.13 1002.31Z" fill="#FBC587"/>
    <path d="M1474.11 1002.31C1477.6 1002.31 1480.42 999.483 1480.42 995.999C1480.42 992.515 1477.6 989.691 1474.11 989.691C1470.63 989.691 1467.8 992.515 1467.8 995.999C1467.8 999.483 1470.63 1002.31 1474.11 1002.31Z" fill="#FBC587"/>
    </svg>
    