<svg width="687" height="370" viewBox="0 0 687 370" fill="none" xmlns="http://www.w3.org/2000/svg">
<path d="M493.76 33.2906L338.598 317.857H648.922L493.76 33.2906Z" fill="#FBDE56"/>
<path d="M325.038 334.947H102.447L31.8452 170.897H254.436L325.038 334.947Z" fill="#95D9D2"/>
<path d="M466.675 125.578C466.675 135.142 459.355 142.893 450.323 142.893C447.576 142.893 444.988 142.176 442.716 140.91C437.517 138.012 433.971 132.233 433.971 125.578C433.971 116.017 441.291 108.266 450.323 108.266C453.911 108.266 457.229 109.488 459.926 111.565C464.017 114.711 466.675 119.817 466.675 125.578Z" fill="#FDF5CD"/>
<path d="M514.392 149.42C514.392 158.984 507.071 166.735 498.039 166.735C495.293 166.735 492.704 166.018 490.432 164.752C485.233 161.854 481.687 156.075 481.687 149.42C481.687 139.859 489.008 132.108 498.039 132.108C501.627 132.108 504.945 133.33 507.642 135.407C511.733 138.553 514.392 143.659 514.392 149.42Z" fill="#FDF5CD"/>
<path d="M566.91 166.951L552.155 194.014H581.664L566.91 166.951Z" fill="#FCF2C1"/>
<path d="M586.344 201.954L571.588 229.016H601.097L586.344 201.954Z" fill="#FCF2C1"/>
<path d="M416.915 162.225C418.425 162.477 419.874 162.499 421.395 162.397C422.653 162.312 423.915 162.212 425.171 162.382L424.372 162.267C424.953 162.357 425.516 162.507 426.059 162.747L425.341 162.427C425.76 162.624 426.147 162.866 426.513 163.161L425.904 162.662C426.401 163.08 426.83 163.566 427.223 164.094L426.752 163.449C427.918 165.057 428.815 166.862 429.977 168.479C431.376 170.42 432.874 172.119 434.736 173.574C436.597 175.03 438.624 175.8 440.838 176.097C442.89 176.37 445.001 175.933 446.975 175.35C448.948 174.767 450.92 173.971 452.977 173.668L452.178 173.782C452.933 173.68 453.69 173.651 454.448 173.748L453.648 173.634C454.205 173.714 454.74 173.863 455.261 174.086L454.544 173.765C455.045 173.992 455.51 174.277 455.944 174.624L455.335 174.126C456.034 174.701 456.625 175.394 457.166 176.133L456.696 175.488C457.459 176.544 458.12 177.677 458.851 178.759C459.817 180.187 460.813 181.434 462.167 182.459C463.521 183.483 465.17 183.973 466.773 183.933C468.528 183.891 470.113 183.273 471.686 182.501C473.044 181.835 474.328 181.01 475.706 180.39L474.989 180.711C475.654 180.418 476.338 180.18 477.053 180.072L476.253 180.187C476.678 180.129 477.103 180.121 477.528 180.174L476.728 180.059C477.101 180.115 477.457 180.214 477.806 180.358L477.089 180.038C477.476 180.212 477.83 180.433 478.165 180.7L477.556 180.202C478.02 180.59 478.419 181.044 478.786 181.536L478.315 180.891C479.567 182.611 480.521 184.557 481.755 186.296C483.29 188.456 484.94 190.361 486.982 191.994C490.464 194.78 495.04 195.953 499.301 194.748C501.878 194.02 504.023 192.404 505.556 190.106C505.983 189.466 506.049 188.384 505.859 187.654C505.668 186.924 505.127 186.116 504.478 185.753C503.781 185.363 502.936 185.168 502.162 185.433C501.389 185.698 500.84 186.186 500.367 186.894C500.301 186.994 500.235 187.09 500.165 187.187L500.636 186.542C500.265 187.043 499.846 187.488 499.375 187.883L499.984 187.384C499.424 187.843 498.812 188.212 498.161 188.507L498.879 188.186C498.105 188.524 497.302 188.746 496.474 188.869L497.274 188.755C496.312 188.886 495.346 188.884 494.385 188.757L495.184 188.872C494.184 188.729 493.213 188.456 492.283 188.042L493 188.362C491.894 187.855 490.867 187.187 489.911 186.411L490.52 186.909C489.084 185.721 487.843 184.308 486.728 182.787L487.198 183.432C486.281 182.17 485.459 180.842 484.664 179.491C483.684 177.823 482.616 176.285 481.1 175.127C479.794 174.128 478.002 173.63 476.4 173.803C474.797 173.977 473.322 174.537 471.832 175.299C470.58 175.94 469.378 176.691 468.097 177.266L468.815 176.945C468.095 177.261 467.358 177.516 466.585 177.633L467.384 177.518C466.903 177.582 466.426 177.586 465.946 177.518L466.745 177.633C466.316 177.563 465.904 177.442 465.505 177.263L466.222 177.584C465.815 177.393 465.439 177.155 465.082 176.871L465.691 177.369C465.042 176.839 464.495 176.194 463.994 175.511L464.465 176.156C463.672 175.059 462.992 173.88 462.227 172.762C461.203 171.268 460.14 169.957 458.691 168.909C455.486 166.591 451.513 167.261 448.033 168.366C446.274 168.924 444.525 169.559 442.697 169.826L443.497 169.711C442.609 169.832 441.722 169.853 440.834 169.73L441.634 169.845C440.85 169.724 440.097 169.497 439.366 169.175L440.083 169.495C439.159 169.075 438.308 168.521 437.512 167.874L438.121 168.373C436.855 167.325 435.761 166.073 434.776 164.73L435.247 165.375C434.541 164.406 433.894 163.392 433.281 162.352C432.534 161.086 431.758 159.788 430.757 158.727C429.617 157.52 428.146 156.61 426.565 156.241C425.141 155.908 423.697 155.882 422.25 155.971C420.832 156.058 419.407 156.2 417.989 156.014L418.788 156.128C418.696 156.116 418.604 156.101 418.512 156.084C417.686 155.946 416.945 155.939 416.196 156.404C415.572 156.79 414.977 157.547 414.815 158.305C414.641 159.119 414.677 160.034 415.118 160.757C415.514 161.408 416.157 162.094 416.913 162.219L416.915 162.225Z" fill="#313332"/>
<path d="M447.186 137.279C450.298 135.664 451.26 130.981 449.333 126.817C447.407 122.654 443.323 120.588 440.211 122.202C437.099 123.816 436.137 128.5 438.063 132.663C439.99 136.827 444.074 138.893 447.186 137.279Z" fill="#313332"/>
<path d="M494.901 161.583C498.014 159.969 498.975 155.285 497.049 151.122C495.122 146.959 491.038 144.893 487.926 146.507C484.814 148.121 483.853 152.805 485.779 156.968C487.705 161.131 491.789 163.198 494.901 161.583Z" fill="#313332"/>
<path d="M101.934 337.52C141.204 338.827 180.484 339.707 219.772 340.157C258.857 340.604 297.947 340.625 337.035 340.225C359.083 339.998 381.131 339.635 403.175 339.138C407.038 339.051 407.05 332.687 403.175 332.774C363.895 333.659 324.607 334.119 285.319 334.147C246.232 334.174 207.142 333.778 168.062 332.955C146.016 332.49 123.974 331.89 101.936 331.158C98.0675 331.028 98.0715 337.393 101.936 337.522L101.934 337.52Z" fill="#313332"/>
<path d="M415.593 336.964C415.915 335.678 416.166 334.374 416.336 333.054C416.54 331.461 416.701 329.872 416.669 328.262C416.608 325.205 416.023 322.072 414.555 319.408C414.11 318.599 413.563 317.84 412.978 317.14C412.393 316.44 411.65 315.812 410.911 315.235C410.566 315.002 410.193 314.876 409.793 314.857C409.394 314.762 408.993 314.781 408.595 314.915C407.897 315.118 407.142 315.689 406.799 316.376C406.431 317.114 406.246 318.01 406.497 318.828L406.799 319.588C407.066 320.065 407.427 320.447 407.877 320.729C407.951 320.786 408.024 320.846 408.096 320.903L407.487 320.405C408.098 320.912 408.647 321.495 409.123 322.144L408.653 321.499C409.198 322.25 409.638 323.075 409.987 323.947L409.684 323.188C410.151 324.374 410.442 325.625 410.604 326.896L410.496 326.05C410.748 328.08 410.686 330.14 410.434 332.166L410.542 331.319C410.372 332.649 410.119 333.967 409.793 335.265C409.592 336.067 409.698 336.998 410.095 337.717C410.46 338.377 411.175 339.007 411.89 339.179C412.66 339.363 413.523 339.325 414.206 338.858C414.889 338.392 415.382 337.772 415.587 336.958L415.593 336.964Z" fill="#313332"/>
<path d="M409.476 314.789H325.827C324.254 314.789 322.75 316.253 322.822 317.971C322.894 319.69 324.142 321.153 325.827 321.153H409.476C411.048 321.153 412.553 319.69 412.481 317.971C412.409 316.253 411.161 314.789 409.476 314.789Z" fill="#313332"/>
<path d="M69.462 264.812L75.1298 278.175L80.8236 291.599L86.4914 304.961L92.1592 318.324L97.827 331.686L98.5423 333.372C98.8328 334.056 99.6862 334.645 100.337 334.834C101.057 335.044 102.014 334.949 102.653 334.514C103.292 334.079 103.859 333.423 104.034 332.613L104.142 331.767C104.142 331.192 104.004 330.657 103.731 330.161L98.0634 316.798L92.3696 303.374L86.7018 290.012L81.034 276.649L75.3662 263.287L74.6509 261.6C74.3604 260.917 73.507 260.328 72.8558 260.139C72.1366 259.929 71.1789 260.024 70.5398 260.459C69.9007 260.894 69.3338 261.549 69.1595 262.36L69.0513 263.206C69.0513 263.781 69.1895 264.316 69.462 264.812Z" fill="#313332"/>
<path d="M224.961 174.007L235.599 173.67L246.238 173.333L252.232 173.142C253.017 173.116 253.797 172.804 254.358 172.21C254.879 171.659 255.271 170.753 255.237 169.96C255.203 169.166 254.947 168.284 254.358 167.709C253.769 167.134 253.037 166.752 252.232 166.778L241.594 167.115L230.955 167.452L224.961 167.643C224.176 167.668 223.396 167.98 222.835 168.574C222.314 169.126 221.922 170.032 221.956 170.825C221.99 171.618 222.246 172.501 222.835 173.076C223.424 173.651 224.155 174.033 224.961 174.007Z" fill="#313332"/>
<path d="M249.607 170.948C250.467 173.878 251.841 176.625 253.095 179.381L256.698 187.291C259.084 192.533 261.472 197.775 263.858 203.017L267.895 211.88C268.207 212.565 269.021 213.146 269.69 213.341C270.409 213.551 271.367 213.456 272.006 213.021C272.645 212.586 273.212 211.931 273.386 211.12L273.495 210.274C273.495 209.699 273.356 209.164 273.084 208.668C270.834 203.727 268.584 198.789 266.334 193.848C264.092 188.925 261.848 184.001 259.607 179.077L257.719 174.932C257.104 173.583 256.475 172.24 255.922 170.861L256.225 171.621C255.916 170.846 255.636 170.061 255.399 169.259C255.163 168.458 254.692 167.775 254.019 167.359C253.346 166.943 252.426 166.79 251.703 167.038C250.98 167.287 250.274 167.764 249.908 168.5C249.541 169.236 249.363 170.127 249.605 170.952L249.607 170.948Z" fill="#313332"/>
<path d="M171.555 241.982C171.501 238.938 169.121 236.827 166.953 235.221C165.867 234.415 164.671 233.73 163.393 233.342C162.114 232.953 160.744 232.911 159.434 233.223C157.07 233.787 155.07 235.529 153.732 237.618C152.247 239.939 151.728 242.852 151.867 245.616C151.951 247.315 152.245 249.008 152.682 250.644C153.093 252.188 153.74 253.686 153.944 255.285L153.89 254.863C153.946 255.351 153.954 255.832 153.894 256.32L153.948 255.898C153.872 256.422 153.718 256.919 153.528 257.406L153.68 257.027C153.205 258.217 152.634 259.354 152.267 260.591C151.917 261.768 151.716 262.99 151.606 264.218C151.4 266.533 151.652 268.925 152.279 271.151C153.568 275.733 156.475 279.568 160.259 282.133C163.938 284.626 168.405 285.882 172.767 285.657C177.353 285.419 181.911 283.641 185.252 280.245C188.416 277.031 190.411 272.419 190.383 267.754C190.379 267.222 190.345 266.692 190.285 266.163C190.243 265.799 190.181 265.499 189.963 265.2C189.77 264.937 189.496 264.706 189.181 264.63C188.5 264.466 187.871 264.751 187.484 265.362C187.432 265.444 187.378 265.525 187.324 265.606C187.166 265.845 187.566 265.296 187.39 265.516C187.286 265.646 187.184 265.775 187.072 265.898C186.959 266.021 186.847 266.138 186.729 266.25C186.623 266.35 186.162 266.692 186.613 266.367C186.078 266.753 185.543 267.097 184.944 267.368L185.303 267.207C184.038 267.769 182.684 268.062 181.33 268.257L181.728 268.2C181.131 268.285 180.534 268.351 179.935 268.41C179.162 268.484 178.387 268.554 177.613 268.455L178.012 268.512C177.629 268.455 177.261 268.355 176.904 268.198L177.263 268.359C176.968 268.225 176.698 268.058 176.435 267.865C176.239 267.718 176.774 268.158 176.509 267.922C176.449 267.869 176.391 267.814 176.335 267.757C176.229 267.651 176.127 267.538 176.03 267.421C175.984 267.366 175.942 267.311 175.898 267.254C175.744 267.059 176.157 267.627 175.954 267.326C175.86 267.188 175.772 267.046 175.69 266.9C175.52 266.6 175.375 266.286 175.245 265.964L175.397 266.344C174.983 265.292 174.75 264.171 174.606 263.045L174.66 263.467C174.56 262.67 174.504 261.866 174.478 261.062C174.442 259.986 174.416 258.906 174.55 257.837L174.496 258.259C174.582 257.619 174.726 256.993 174.963 256.392L174.81 256.772C174.923 256.499 175.051 256.235 175.209 255.987C175.243 255.934 175.279 255.881 175.315 255.828C175.417 255.673 175.079 256.132 175.239 255.936C175.327 255.828 175.415 255.722 175.512 255.62C175.598 255.529 175.688 255.44 175.78 255.357C175.972 255.183 175.74 255.412 175.676 255.436C175.728 255.417 175.808 255.334 175.854 255.302C176.073 255.145 176.305 255.014 176.549 254.905L176.191 255.067C176.453 254.956 176.72 254.878 177 254.835L176.601 254.893C176.832 254.863 177.06 254.861 177.293 254.888L176.894 254.831C177.082 254.859 177.263 254.903 177.443 254.969C178.044 255.185 178.843 254.831 179.14 254.237C179.46 253.594 179.376 252.843 178.905 252.309C177.475 250.69 175.57 249.515 173.532 248.999C172.769 248.806 171.867 249.254 171.683 250.111C171.499 250.968 171.915 251.861 172.733 252.069C173.234 252.196 173.722 252.366 174.199 252.574L173.841 252.413C174.44 252.682 175.013 253.011 175.55 253.403C175.616 253.452 175.684 253.503 175.748 253.552C175.838 253.622 176.032 253.821 175.704 253.512C175.824 253.626 175.958 253.728 176.081 253.84C176.325 254.067 176.559 254.307 176.782 254.56L178.244 251.899C176.88 251.407 175.303 251.795 174.165 252.689C172.925 253.662 172.11 255.003 171.749 256.598C171.404 258.117 171.429 259.693 171.489 261.244C171.535 262.436 171.649 263.631 171.857 264.804C172.27 267.114 173.224 269.49 175.175 270.784C176.413 271.605 177.886 271.76 179.314 271.647C180.596 271.545 181.885 271.397 183.151 271.157C184.417 270.917 185.769 270.504 186.975 269.867C188.181 269.231 189.305 268.204 190.089 266.965L187.288 266.161C187.426 267.354 187.414 268.554 187.264 269.744L187.318 269.322C187.142 270.673 186.793 271.991 186.292 273.249L186.444 272.869C186.14 273.624 185.785 274.356 185.379 275.058C185.174 275.408 184.96 275.752 184.732 276.085C184.679 276.164 184.625 276.24 184.571 276.316C184.505 276.412 184.295 276.673 184.593 276.289C184.469 276.448 184.351 276.609 184.225 276.766C183.724 277.394 183.177 277.982 182.592 278.52C182.456 278.646 182.317 278.769 182.175 278.89C182.101 278.953 182.027 279.013 181.953 279.076C182.319 278.764 182.025 279.017 181.933 279.087C181.606 279.341 181.272 279.583 180.929 279.812C180.152 280.33 179.334 280.775 178.489 281.155L178.847 280.994C177.321 281.673 175.716 282.125 174.077 282.364L174.476 282.307C172.697 282.559 170.896 282.559 169.117 282.307L169.515 282.364C167.744 282.106 166.013 281.601 164.366 280.867L164.725 281.028C163.916 280.663 163.13 280.245 162.373 279.772C161.996 279.537 161.626 279.286 161.263 279.023C161.093 278.9 160.924 278.773 160.758 278.643C160.676 278.58 160.594 278.512 160.512 278.448C160.317 278.293 160.632 278.548 160.632 278.548C160.62 278.552 160.464 278.406 160.45 278.395C159.768 277.816 159.123 277.186 158.528 276.507C158.24 276.178 157.961 275.837 157.697 275.487C157.657 275.434 157.613 275.383 157.577 275.326C157.583 275.334 157.811 275.654 157.671 275.453C157.609 275.366 157.547 275.279 157.486 275.19C157.356 275.001 157.23 274.81 157.108 274.617C156.537 273.716 156.052 272.755 155.649 271.755L155.801 272.135C155.233 270.703 154.844 269.199 154.641 267.661L154.696 268.083C154.509 266.607 154.497 265.111 154.678 263.633L154.623 264.055C154.796 262.691 155.13 261.359 155.637 260.092L155.485 260.472C155.834 259.613 156.25 258.785 156.559 257.907C156.867 257.029 157.01 256.015 156.921 255.056C156.745 253.162 156.006 251.431 155.535 249.61C155.283 248.635 155.084 247.646 154.954 246.645L155.008 247.067C154.836 245.692 154.802 244.305 154.972 242.928L154.918 243.35C155.044 242.389 155.263 241.443 155.613 240.546L155.461 240.926C155.675 240.389 155.932 239.873 156.23 239.385C156.304 239.267 156.379 239.148 156.459 239.031C156.501 238.968 156.545 238.906 156.589 238.842C156.743 238.622 156.358 239.144 156.535 238.919C156.711 238.694 156.879 238.482 157.066 238.276C157.252 238.07 157.444 237.875 157.645 237.688C157.745 237.595 157.849 237.506 157.951 237.417C158.073 237.311 157.625 237.678 157.877 237.478C157.925 237.44 157.973 237.404 158.023 237.366C158.472 237.031 158.951 236.746 159.456 236.517L159.097 236.679C159.642 236.437 160.209 236.269 160.796 236.182L160.397 236.239C160.938 236.167 161.477 236.169 162.018 236.244L161.62 236.186C162.289 236.286 162.932 236.49 163.553 236.766L163.194 236.604C163.793 236.878 164.366 237.211 164.913 237.587C165.202 237.784 165.482 237.99 165.761 238.204C165.887 238.301 166.013 238.401 166.137 238.501C166.402 238.715 165.985 238.374 166.103 238.473C166.165 238.526 166.228 238.577 166.29 238.63C166.768 239.035 167.227 239.468 167.64 239.95C167.738 240.064 167.83 240.183 167.924 240.3C168.109 240.531 167.726 240.011 167.882 240.242C167.928 240.31 167.973 240.376 168.017 240.446C168.189 240.716 168.337 241 168.461 241.299L168.309 240.919C168.437 241.242 168.528 241.573 168.58 241.918L168.526 241.496C168.546 241.66 168.558 241.821 168.56 241.984C168.574 242.816 169.241 243.613 170.062 243.575C170.884 243.537 171.581 242.875 171.565 241.984L171.555 241.982Z" fill="#313332"/>
<path d="M158.043 228.267C157.781 228.323 157.516 228.369 157.252 228.407L157.65 228.35C156.586 228.494 155.513 228.49 154.449 228.342L154.847 228.399C153.758 228.24 152.694 227.936 151.678 227.489L152.037 227.65C151.321 227.33 150.634 226.946 149.987 226.49C149.831 226.379 149.679 226.265 149.526 226.148C149.484 226.114 149.44 226.08 149.398 226.046C149.596 226.21 149.634 226.239 149.512 226.14C149.428 226.068 149.346 225.998 149.264 225.925C148.981 225.675 148.709 225.408 148.45 225.13C148.192 224.852 147.946 224.559 147.711 224.258C147.641 224.167 147.423 223.829 147.701 224.252C147.649 224.171 147.589 224.095 147.535 224.016C147.419 223.846 147.306 223.675 147.196 223.499C146.776 222.82 146.417 222.103 146.118 221.356L146.271 221.736C145.854 220.677 145.565 219.57 145.415 218.433L145.469 218.855C145.385 218.189 145.351 217.521 145.365 216.85L144.261 218.384C144.668 218.31 145.075 218.244 145.483 218.185L145.085 218.242C146.924 217.985 148.789 217.907 150.634 218.159L150.236 218.102C151.42 218.272 152.58 218.579 153.683 219.065L153.325 218.904C153.924 219.171 154.497 219.487 155.04 219.867C155.164 219.954 155.288 220.045 155.408 220.138C155.469 220.185 155.529 220.234 155.589 220.28C155.206 219.983 155.441 220.16 155.521 220.227C155.763 220.435 155.997 220.656 156.222 220.887C156.446 221.118 156.659 221.36 156.861 221.613C156.947 221.721 157.248 222.168 156.953 221.721C157.039 221.85 157.131 221.973 157.216 222.103C157.564 222.639 157.861 223.21 158.101 223.81L157.949 223.431C158.199 224.073 158.376 224.74 158.47 225.429L158.416 225.007C158.496 225.65 158.5 226.295 158.422 226.935C158.376 227.309 158.622 227.807 158.862 228.06C159.123 228.335 159.552 228.543 159.924 228.526C160.297 228.509 160.716 228.373 160.986 228.06C161.275 227.726 161.373 227.379 161.427 226.935C161.81 223.779 160.327 220.59 158.183 218.473C155.725 216.044 152.453 214.992 149.146 214.837C147.242 214.748 145.335 214.971 143.462 215.312C143.151 215.369 142.865 215.633 142.68 215.883C142.474 216.165 142.366 216.483 142.358 216.846C142.284 220.274 143.428 223.59 145.411 226.273C147.33 228.872 150.205 230.679 153.253 231.326C155.11 231.721 156.979 231.727 158.836 231.333C159.608 231.169 160.123 230.153 159.886 229.375C159.622 228.507 158.864 228.089 158.037 228.263L158.043 228.267Z" fill="#313332"/>
<path d="M385.023 40.6708C386.55 39.4638 388.211 38.4604 389.966 37.6733L389.249 37.9937C391.19 37.1324 393.23 36.5405 395.315 36.2372L394.516 36.3517C396.377 36.0887 398.282 36.0356 400.148 36.2881L399.348 36.1735C400.338 36.3135 401.31 36.5575 402.233 36.9606L401.516 36.6402C402.289 36.9881 403.009 37.4463 403.674 37.9894L403.065 37.4909C403.928 38.2079 404.691 39.0501 405.363 39.9687L404.892 39.3238C405.673 40.4035 406.314 41.5851 406.813 42.8389L406.511 42.0794C407.064 43.4816 407.434 44.9539 407.627 46.4579L407.518 45.6115C407.711 47.1707 407.711 48.749 407.512 50.3082L407.621 49.4618C407.43 50.9128 407.072 52.3298 406.535 53.6812L406.837 52.9217C406.348 54.1372 405.719 55.2807 404.958 56.3286L405.429 55.6837C404.637 56.7614 403.716 57.7224 402.698 58.5582L403.307 58.0597C402.187 58.9697 400.963 59.7207 399.663 60.3062L400.38 59.9858C399.034 60.5841 397.621 60.9956 396.175 61.2056L396.974 61.0911C395.602 61.2841 394.211 61.2926 392.839 61.0996L393.638 61.2141C393.045 61.1271 392.46 61.0041 391.883 60.845C390.946 60.5841 390.02 60.7941 389.263 61.4135C388.554 61.9948 388.025 62.9239 388.079 63.9125C388.393 69.6168 389.181 75.3148 390.455 80.8686C390.795 82.3556 391.172 83.83 391.583 85.298C391.801 86.0744 392.298 86.7872 392.963 87.1987C393.628 87.6103 394.556 87.7672 395.279 87.519C396.002 87.2708 396.708 86.7935 397.074 86.0574C397.441 85.3213 397.611 84.4388 397.377 83.6051C396.395 80.1027 395.612 76.5389 395.035 72.9368C394.871 71.9143 394.724 70.8897 394.594 69.8629L394.702 70.7094C394.418 68.4522 394.211 66.1845 394.087 63.9125L390.283 66.98C394.903 68.2634 399.863 67.4806 404.054 65.1132C405.15 64.4938 406.144 63.7322 407.116 62.9155C407.891 62.2642 408.608 61.5366 409.249 60.7389C410.049 59.7461 410.792 58.6855 411.383 57.5399C411.974 56.3944 412.487 55.1067 412.86 53.8254C413.232 52.5441 413.437 51.1864 413.577 49.8372C413.689 48.7447 413.705 47.6395 413.623 46.5449C413.523 45.1978 413.332 43.838 413.002 42.5313C412.671 41.2245 412.202 39.9983 411.654 38.804C411.105 37.6097 410.375 36.5023 409.59 35.4353C408.736 34.2749 407.747 33.3245 406.641 32.4378C404.261 30.5286 401.272 29.8688 398.341 29.7712C397.148 29.7309 395.952 29.7925 394.768 29.9473C393.342 30.1361 391.931 30.378 390.545 30.7853C389.183 31.1862 387.87 31.7293 386.578 32.3339C385.5 32.8366 384.456 33.4242 383.461 34.0946C382.958 34.434 382.467 34.7925 381.988 35.1722C381.638 35.3717 381.357 35.6453 381.145 35.9911C380.878 36.2987 380.7 36.6593 380.608 37.073C380.409 37.8346 380.5 38.8486 380.91 39.5253C381.323 40.2041 381.94 40.8023 382.705 40.9869C383.471 41.1715 384.386 41.1672 385.021 40.6666L385.023 40.6708Z" fill="#313332"/>
<path d="M398.85 94.4284C397.876 93.7898 396.519 93.6031 395.438 94.0338C394.678 94.335 394.276 94.5875 393.655 95.1517C393.298 95.4763 392.991 95.9027 392.773 96.3376C392.208 97.464 391.986 98.8281 392.386 100.063C392.541 100.538 392.721 101.024 393.005 101.429C393.204 101.711 393.426 102.053 393.679 102.309C393.951 102.587 394.264 102.823 394.57 103.056C394.961 103.353 395.454 103.546 395.89 103.722C396.371 103.915 396.906 103.977 397.413 104.025C398.375 104.117 399.388 103.786 400.228 103.313C401.282 102.717 402.029 101.692 402.406 100.508C402.638 99.7784 402.586 99.0063 402.446 98.268C402.305 97.5298 401.895 96.8722 401.428 96.293C401.111 95.9027 400.693 95.5654 400.254 95.3405C399.815 95.1157 399.312 94.8738 398.809 94.7763C398.274 94.6723 397.74 94.6065 397.197 94.5896C396.866 94.579 396.537 94.5705 396.209 94.5259L397.008 94.6405C396.782 94.6065 396.562 94.5514 396.349 94.4644L397.066 94.7847C396.918 94.7169 396.784 94.6384 396.654 94.5365C396.309 94.3032 395.936 94.178 395.536 94.1589C395.137 94.0635 394.736 94.0826 394.338 94.2162C393.64 94.4199 392.885 94.9905 392.543 95.6778C392.174 96.4161 391.99 97.3113 392.24 98.1301L392.543 98.8896C392.809 99.3669 393.17 99.7487 393.62 100.031C393.723 100.109 393.827 100.179 393.941 100.237C394.264 100.398 394.6 100.561 394.943 100.672C395.406 100.822 395.908 100.862 396.383 100.911C396.858 100.96 397.355 100.932 397.836 100.996L397.036 100.882C397.311 100.922 397.575 100.992 397.832 101.104L397.115 100.784C397.271 100.856 397.417 100.943 397.553 101.051L396.944 100.553C397.044 100.638 397.131 100.729 397.209 100.835L396.738 100.19C396.79 100.268 396.834 100.347 396.872 100.434L396.57 99.6745C396.612 99.7848 396.64 99.8951 396.656 100.014L396.548 99.1675C396.556 99.2608 396.556 99.352 396.548 99.4475L396.656 98.6011C396.64 98.7093 396.612 98.8111 396.572 98.9129L396.874 98.1535C396.83 98.2553 396.776 98.3465 396.714 98.4377L397.185 97.7928C397.092 97.9138 396.99 98.0198 396.874 98.1153L397.483 97.6168C397.327 97.7398 397.163 97.8374 396.984 97.918L397.702 97.5977C397.517 97.674 397.331 97.7292 397.137 97.761L397.936 97.6465C397.74 97.674 397.549 97.674 397.353 97.6486L398.152 97.7631C397.904 97.7271 397.665 97.6571 397.431 97.5574L398.148 97.8777C397.918 97.7716 397.706 97.6422 397.507 97.4789L398.116 97.9774C397.974 97.8544 397.844 97.7207 397.728 97.5701L398.198 98.215C398.088 98.0623 397.996 97.9031 397.924 97.7271L398.226 98.4865C398.166 98.3274 398.124 98.1662 398.102 97.9965L398.21 98.8429C398.198 98.7241 398.196 98.6074 398.21 98.4886L398.102 99.3351C398.12 99.1993 398.152 99.0741 398.198 98.9447L397.896 99.7042C397.954 99.5599 398.026 99.4284 398.114 99.3011L397.643 99.946C397.746 99.806 397.862 99.6851 397.992 99.5748L397.383 100.073C397.499 99.9821 397.621 99.9057 397.756 99.8463L397.038 100.167C397.153 100.12 397.267 100.086 397.389 100.067L396.59 100.181C396.692 100.169 396.792 100.169 396.894 100.181L396.095 100.067C396.181 100.082 396.261 100.105 396.343 100.137L395.626 99.8166C395.692 99.8463 395.754 99.8803 395.816 99.9227C396.469 100.351 397.399 100.457 398.132 100.243C398.866 100.029 399.585 99.4687 399.927 98.7814C400.296 98.0432 400.48 97.1479 400.23 96.3291C399.985 95.5272 399.533 94.876 398.85 94.4284Z" fill="#313332"/>
<path d="M398.882 83.83C398.533 81.0107 398.076 78.2169 397.419 75.457C396.826 72.9622 396.093 70.5057 395.227 68.1022C394.654 66.5133 394.031 64.9456 393.362 63.3991L388.173 66.6109C388.502 67.3576 388.816 68.1128 389.121 68.8722L388.818 68.1128C390.281 71.7912 391.441 75.6033 392.274 79.496C392.509 80.5907 392.715 81.6895 392.899 82.7948C393.022 83.5372 393.689 84.3306 394.28 84.6955C394.925 85.0943 395.872 85.264 396.596 85.0158C397.319 84.7676 398.024 84.2903 398.391 83.5542L398.693 82.7948C398.836 82.2305 398.836 81.6662 398.693 81.1019L397.309 71.9122L396.616 67.3173L396.269 65.0198C396.163 64.3134 396.081 63.5964 395.943 62.8963C395.911 62.7288 395.864 62.5697 395.808 62.4084C395.674 62.0393 395.542 61.649 395.33 61.3181C394.781 60.4695 394.053 59.7928 393.09 59.5297C391.204 59.0121 389.063 60.0728 388.568 62.1624C388.305 63.2718 388.568 64.4428 389.341 65.2574C389.716 65.652 390.159 65.9235 390.667 66.0763C391.2 66.2269 391.733 66.2269 392.266 66.0763C395.69 65.3423 399.12 64.2986 402.181 62.4763C403.754 61.5408 405.257 60.3571 406.497 58.9655C407.214 58.1593 407.871 57.2705 408.43 56.335C408.989 55.3994 409.414 54.3854 409.797 53.3544C410.093 52.5568 410.317 51.7274 410.462 50.8831C410.65 49.7799 410.782 48.6514 410.76 47.5271C410.718 45.3166 410.219 43.1995 409.298 41.2202C408.853 40.2656 408.264 39.4277 407.639 38.5982C407.17 37.9746 406.637 37.406 406.056 36.9011C404.517 35.5668 402.808 34.5125 400.865 33.9821C398.922 33.4518 396.82 33.49 394.801 33.944C392.957 34.3597 391.218 35.1807 389.493 35.9614C389.113 36.1332 388.732 36.3072 388.349 36.479L389.067 36.1587C387.418 36.8948 385.731 37.5885 383.946 37.8451L384.745 37.7306C384.433 37.773 384.12 37.8027 383.806 37.8176L386.811 40.9996C386.723 40.1214 386.637 39.2431 386.548 38.367C386.564 37.9279 386.478 37.5206 386.29 37.1409C386.17 36.7463 385.961 36.4047 385.669 36.1162C385.148 35.5647 384.292 35.1489 383.543 35.185C382.794 35.221 381.96 35.4926 381.417 36.1162C380.911 36.6996 380.456 37.5418 380.538 38.367C380.626 39.2453 380.712 40.1235 380.8 40.9996C380.784 41.4387 380.871 41.846 381.059 42.2258C381.179 42.6203 381.387 42.9619 381.68 43.2504C382.253 43.8062 383.004 44.222 383.806 44.1817C385.412 44.1032 386.997 43.751 388.514 43.1889C390.03 42.6267 391.517 41.9054 393.008 41.2393L392.29 41.5597C393.911 40.8363 395.57 40.1617 397.321 39.9092L396.522 40.0238C397.347 39.9114 398.178 39.8965 399.006 40.0111L398.207 39.8965C399.042 40.0196 399.853 40.2614 400.631 40.6072L399.913 40.2868C400.715 40.6517 401.464 41.1205 402.157 41.6806L401.548 41.1821C402.28 41.7824 402.935 42.474 403.5 43.2461L403.029 42.6013C403.56 43.3374 404.005 44.135 404.347 44.9878L404.045 44.2283C404.401 45.1342 404.636 46.0824 404.76 47.054L404.652 46.2076C404.782 47.2746 404.774 48.3501 404.644 49.4172L404.752 48.5708C404.604 49.7248 404.313 50.8512 403.892 51.9268L404.195 51.1673C403.776 52.2153 403.237 53.2017 402.582 54.1033L403.053 53.4584C402.34 54.4279 401.504 55.287 400.589 56.0401L401.198 55.5416C399.907 56.5917 398.473 57.4211 396.976 58.0915L397.694 57.7711C395.436 58.7724 393.058 59.4216 390.663 59.9349L394.36 63.8488C394.366 63.8107 394.378 63.7746 394.392 63.7407L394.089 64.5001C394.103 64.4662 394.121 64.4365 394.142 64.4068L393.671 65.0517C393.705 65.0092 393.739 64.9753 393.781 64.9413L393.172 65.4399C393.2 65.4187 393.23 65.3996 393.262 65.3847L392.545 65.705C392.613 65.6753 392.679 65.6541 392.751 65.6414L391.952 65.756C392.028 65.7475 392.1 65.7475 392.176 65.7538L391.377 65.6393C391.453 65.652 391.523 65.6711 391.595 65.6987L390.878 65.3783C390.93 65.4038 390.976 65.4314 391.024 65.4653L390.415 64.9668C390.487 65.0283 390.547 65.0941 390.605 65.1705L390.135 64.5256C390.205 64.6295 390.261 64.7377 390.311 64.8544L390.008 64.0949C390.191 64.5892 390.233 65.1386 390.313 65.6605L390.589 67.4891L391.148 71.1973L392.266 78.6114L392.895 82.7884L398.691 81.0955C397.932 76.5155 396.732 72.0182 395.107 67.697C394.562 66.246 393.981 64.8098 393.36 63.3949C393.06 62.7118 392.224 62.1242 391.565 61.9333C390.846 61.7232 389.888 61.8187 389.249 62.2536C388.61 62.6885 388.043 63.344 387.869 64.1543L387.76 65.0007C387.76 65.5756 387.899 66.1102 388.171 66.6066C388.43 67.2027 388.678 67.8031 388.92 68.4055L388.618 67.6461C390.277 71.8125 391.533 76.1591 392.352 80.597C392.583 81.8507 392.779 83.113 392.941 84.3794L392.833 83.533C392.845 83.6306 392.857 83.7282 392.869 83.8257C392.853 84.2649 392.939 84.6722 393.128 85.0519C393.248 85.4465 393.456 85.788 393.749 86.0765C394.27 86.6281 395.125 87.0438 395.874 87.0078C396.624 86.9717 397.457 86.7002 398 86.0765L398.471 85.4316C398.743 84.9352 398.88 84.4006 398.882 83.8257V83.83Z" fill="#313332"/>
<path d="M500.411 239.091C486.054 246.475 471.643 253.741 457.178 260.885C442.713 268.03 428.196 275.054 413.625 281.955C411.894 282.776 410.163 283.597 408.428 284.407C407.577 284.806 406.723 285.201 405.87 285.591C405.443 285.786 405.014 285.981 404.585 286.172C404.109 286.386 404.924 286.024 404.445 286.234C404.159 286.361 403.872 286.486 403.586 286.611C400.056 288.153 396.471 289.568 392.801 290.697C391.911 290.971 391.016 291.229 390.114 291.465C389.92 291.516 389.726 291.565 389.529 291.609C389.401 291.639 388.762 291.758 389.295 291.683C389.101 291.711 388.896 291.724 388.702 291.726C388.554 291.73 388.405 291.726 388.257 291.713C388.025 291.696 388.061 291.7 388.359 291.724C388.205 291.666 388.027 291.624 387.868 291.575C388.431 291.747 387.939 291.609 387.772 291.514C387.43 291.321 387.109 291.092 386.793 290.852C386.891 290.926 387.217 291.227 386.783 290.835C386.648 290.714 386.514 290.595 386.382 290.472C386.015 290.135 385.659 289.789 385.294 289.45C382.688 287.021 379.871 284.804 376.857 282.973C370.955 279.39 364.025 277.059 357.161 277.561C350.824 278.026 344.606 280.601 339.962 285.256C335.586 289.641 333.032 295.843 333.418 302.254C333.797 308.521 336.48 314.439 341.32 318.169C342.48 319.062 343.764 319.696 345.099 320.241C346.569 320.842 348.46 319.579 348.795 318.018C349.188 316.196 348.27 314.747 346.695 314.104C346.046 313.839 347.14 314.344 346.739 314.132C346.617 314.066 346.489 314.011 346.365 313.949C346.088 313.807 345.816 313.657 345.547 313.493C345.311 313.349 345.081 313.198 344.852 313.041C344.71 312.942 344.574 312.838 344.433 312.736C344.035 312.447 344.239 312.717 344.475 312.78C344.045 312.666 343.43 311.811 343.129 311.48C342.941 311.274 342.758 311.062 342.582 310.844C342.472 310.708 342.372 310.557 342.258 310.43C342.007 310.15 342.606 310.954 342.294 310.474C341.943 309.938 341.598 309.403 341.294 308.835C341.011 308.306 340.595 307.668 340.467 307.074C340.653 307.935 340.42 306.917 340.35 306.709C340.244 306.397 340.148 306.083 340.058 305.765C339.878 305.129 339.729 304.482 339.611 303.83C339.579 303.648 339.551 303.465 339.521 303.283C339.449 302.869 339.276 302.933 339.525 303.359C339.419 303.175 339.459 302.695 339.443 302.475C339.395 301.811 339.381 301.143 339.399 300.476C339.409 300.107 339.429 299.738 339.459 299.369C339.471 299.223 339.489 299.074 339.501 298.928C339.537 298.504 339.387 298.89 339.475 299.115C339.409 298.943 339.585 298.423 339.619 298.243C339.695 297.846 339.783 297.451 339.884 297.059C340.004 296.601 340.128 295.627 340.447 295.279C340.19 295.557 340.25 295.737 340.388 295.43C340.453 295.288 340.511 295.145 340.575 295.003C340.761 294.594 340.959 294.193 341.174 293.801C341.5 293.196 341.857 292.61 342.242 292.046C342.332 291.915 342.424 291.783 342.516 291.654C342.113 292.218 342.442 291.764 342.55 291.628C342.797 291.314 343.051 291.009 343.313 290.71C343.76 290.203 344.231 289.717 344.722 289.257C344.982 289.013 345.255 288.784 345.521 288.544C345.85 288.247 345.115 288.856 345.463 288.588C345.651 288.444 345.838 288.296 346.028 288.153C347.178 287.296 348.402 286.556 349.678 285.928C349.821 285.858 349.965 285.794 350.107 285.722C350.54 285.506 349.434 285.994 350.149 285.703C350.444 285.584 350.736 285.459 351.033 285.347C351.738 285.08 352.455 284.844 353.179 284.64C353.828 284.46 354.483 284.305 355.144 284.178C355.3 284.148 355.454 284.121 355.611 284.093C355.639 284.089 356.41 283.97 355.913 284.04C355.489 284.102 355.997 284.032 356.102 284.019C356.336 283.991 356.572 283.968 356.807 283.947C358.279 283.817 359.76 283.832 361.232 283.968C361.635 284.006 362.036 284.051 362.437 284.106C361.813 284.019 362.759 284.167 362.965 284.208C363.803 284.363 364.634 284.556 365.458 284.783C366.195 284.986 366.926 285.217 367.648 285.474C368.03 285.61 368.411 285.754 368.79 285.903C369 285.985 369.21 286.07 369.419 286.159C369.483 286.187 370.156 286.478 369.809 286.325C369.409 286.147 370.222 286.518 370.194 286.505C370.358 286.584 370.522 286.662 370.687 286.743C371.015 286.904 371.34 287.069 371.664 287.239C372.434 287.644 373.193 288.077 373.936 288.533C375.353 289.399 376.721 290.351 378.041 291.372C378.226 291.514 378.406 291.658 378.588 291.802C378.667 291.862 379.041 292.167 378.631 291.83C378.917 292.065 379.202 292.305 379.482 292.547C380.181 293.149 380.862 293.775 381.536 294.409C382.958 295.752 384.425 297.065 386.266 297.702C388.311 298.41 390.431 297.948 392.45 297.39C399.807 295.358 406.797 292.095 413.721 288.826C427.896 282.133 442.022 275.319 456.096 268.395C470.181 261.467 484.213 254.422 498.195 247.264C499.942 246.369 501.689 245.474 503.436 244.574C504.855 243.845 505.348 241.59 504.514 240.221C503.577 238.681 501.92 238.299 500.403 239.08L500.411 239.091Z" fill="#313332"/>
<path d="M395.396 312.396C403.391 311.822 410.981 309.166 418.429 306.198C425.844 303.243 433.215 300.158 440.544 296.97C448.021 293.716 455.455 290.351 462.84 286.872C470.087 283.459 477.285 279.933 484.434 276.297C491.55 272.678 498.618 268.949 505.632 265.113C506.518 264.63 507.401 264.144 508.285 263.656C509.681 262.886 510.212 260.699 509.363 259.303C508.445 257.797 506.744 257.336 505.252 258.162C498.282 262.008 491.259 265.748 484.187 269.379C477.115 273.011 469.995 276.535 462.826 279.948C459.258 281.647 455.68 283.319 452.09 284.965C450.263 285.803 448.431 286.632 446.598 287.456C446.402 287.545 446.205 287.632 446.009 287.721C445.879 287.78 445.747 287.837 445.616 287.897C445.546 287.929 445.206 288.081 445.582 287.912C445.979 287.733 445.354 288.013 445.254 288.058C444.991 288.175 444.729 288.291 444.466 288.408C443.549 288.815 442.629 289.223 441.71 289.626C434.451 292.818 427.149 295.899 419.806 298.869C416.198 300.328 412.585 301.785 408.905 303.026C407.074 303.644 405.227 304.206 403.357 304.683C402.41 304.925 401.456 305.144 400.498 305.337C400.054 305.426 399.609 305.511 399.162 305.587C398.922 305.629 398.681 305.67 398.441 305.708C398.337 305.725 398.235 305.74 398.13 305.757C397.728 305.82 398.138 305.746 398.309 305.733C397.337 305.812 396.369 305.967 395.396 306.037C393.831 306.149 392.314 307.42 392.39 309.219C392.459 310.846 393.717 312.522 395.396 312.401V312.396Z" fill="#313332"/>
<path d="M376.455 250.166C374.119 247.682 371.933 245.043 369.908 242.271L370.378 242.915C367.091 238.405 364.23 233.554 361.858 228.441C361.182 226.986 360.547 225.512 359.95 224.018L360.253 224.778C359.409 222.658 358.646 220.503 357.969 218.318C357.326 216.239 356.767 214.133 356.488 211.96L356.597 212.807C356.414 211.324 356.362 209.824 356.542 208.337L356.434 209.184C356.56 208.216 356.787 207.272 357.141 206.369L356.839 207.128C357.133 206.402 357.504 205.722 357.955 205.091L357.484 205.736C357.957 205.094 358.498 204.525 359.103 204.024L358.494 204.523C359.237 203.923 360.051 203.441 360.908 203.051L360.191 203.371C361.922 202.599 363.773 202.198 365.626 201.931L364.827 202.045C366.628 201.791 368.443 201.665 370.252 201.496C372.214 201.309 374.173 201.099 376.126 200.853C380.233 200.337 384.333 199.703 388.39 198.846C396.219 197.194 403.908 194.695 411.075 190.933C412.988 189.93 414.855 188.829 416.664 187.626C418.7 186.273 420.619 184.767 422.517 183.205L421.907 183.704C422.839 182.944 423.823 182.242 424.909 181.75L424.191 182.07C424.668 181.863 425.155 181.703 425.666 181.627L424.867 181.742C425.173 181.703 425.476 181.697 425.782 181.735L424.983 181.621C425.251 181.661 425.504 181.733 425.754 181.843L425.037 181.523C425.263 181.631 425.468 181.763 425.666 181.922L425.057 181.423C425.261 181.599 425.436 181.79 425.598 182.011L425.127 181.366C425.301 181.623 425.444 181.894 425.564 182.185L425.261 181.426C425.432 181.873 425.54 182.333 425.608 182.809L425.5 181.962C425.596 182.728 425.592 183.496 425.496 184.262L425.604 183.415C425.488 184.26 425.265 185.076 424.955 185.863L425.257 185.104C424.871 186.054 424.368 186.937 423.773 187.758L424.244 187.113C423.564 188.034 422.783 188.852 421.913 189.572L422.523 189.073C421.072 190.253 419.457 191.156 417.778 191.911L418.496 191.591C416.961 192.276 415.386 192.845 413.807 193.407C412.9 193.732 412.235 194.311 411.86 195.248C411.672 195.628 411.586 196.035 411.602 196.474C411.602 197.049 411.74 197.584 412.012 198.08C412.044 198.159 412.076 198.237 412.109 198.316L411.806 197.556C412.207 198.581 412.471 199.65 412.611 200.747L412.503 199.9C412.649 201.131 412.637 202.37 412.489 203.598L412.597 202.752C412.411 204.207 412.038 205.62 411.501 206.973L411.804 206.214C411.233 207.622 410.486 208.929 409.604 210.145L410.075 209.5C408.927 211.059 407.579 212.429 406.104 213.638L406.713 213.14C404.852 214.65 402.802 215.951 400.643 216.92L401.36 216.6C399.537 217.408 397.621 217.979 395.662 218.259L396.461 218.144C394.983 218.348 393.484 218.382 392.004 218.178L392.803 218.293C391.737 218.138 390.696 217.86 389.702 217.421L390.419 217.741C389.648 217.393 388.922 216.956 388.255 216.42L388.864 216.918C388.235 216.403 387.674 215.809 387.185 215.145L387.656 215.79C386.068 213.588 385.032 210.671 382.483 209.468C381.454 208.982 380.39 208.672 379.246 208.766C378.242 208.848 377.282 209.078 376.319 209.37C374.778 209.837 373.235 210.304 371.695 210.77L366.369 212.383C365.67 212.595 364.921 213.151 364.574 213.844L364.272 214.604C364.13 215.168 364.13 215.732 364.272 216.297C364.887 220.597 365.51 224.945 366.966 229.035C368.339 232.892 370.33 236.577 373.267 239.341C375.038 241.008 376.988 242.26 379.214 243.121C379.911 243.391 380.909 243.185 381.53 242.801C382.151 242.417 382.748 241.657 382.91 240.9C383.084 240.086 383.048 239.171 382.608 238.448C382.167 237.724 381.582 237.283 380.812 236.986C380.602 236.906 380.396 236.819 380.189 236.73L380.907 237.05C379.783 236.543 378.733 235.881 377.763 235.096L378.372 235.595C377.194 234.625 376.154 233.488 375.239 232.241L375.71 232.886C374.546 231.28 373.606 229.515 372.861 227.652L373.163 228.412C371.428 224.018 370.739 219.286 370.068 214.608L367.968 218.522L373.854 216.74L376.727 215.87C377.707 215.573 378.691 215.221 379.7 215.058L378.901 215.172C379.316 215.115 379.727 215.102 380.141 215.157L379.342 215.043C379.628 215.094 379.899 215.172 380.167 215.287L379.45 214.966C379.741 215.1 380.007 215.27 380.261 215.469L379.652 214.971C380.061 215.308 380.41 215.709 380.728 216.142L380.257 215.497C381.359 217.026 382.149 218.755 383.371 220.198C384.467 221.494 385.879 222.552 387.388 223.24C388.267 223.641 389.139 223.999 390.074 224.22C391.01 224.44 392.068 224.591 393.072 224.655C394.843 224.769 396.632 224.557 398.369 224.209C401.835 223.518 405.155 221.929 408.092 219.886C411.512 217.506 414.657 214.383 416.534 210.482C417.71 208.038 418.405 205.444 418.59 202.707C418.68 201.373 418.562 200.064 418.367 198.742C418.173 197.421 417.728 196.129 417.205 194.871L415.41 199.544C417.893 198.659 420.389 197.745 422.719 196.466C423.989 195.77 425.149 194.928 426.269 193.988C427.313 193.112 428.162 192.085 428.968 190.967C430.556 188.765 431.54 186.016 431.588 183.233C431.616 181.629 431.312 179.951 430.562 178.543C429.771 177.053 428.297 175.791 426.684 175.494C425.634 175.299 424.7 175.316 423.653 175.564C422.853 175.753 422.08 176.122 421.351 176.506C420.022 177.206 418.872 178.207 417.706 179.166L418.315 178.668C414.925 181.44 411.249 183.799 407.394 185.77C406.304 186.326 405.201 186.852 404.087 187.35L404.804 187.03C398.18 189.977 391.192 191.909 384.128 193.235C382.101 193.615 380.065 193.946 378.026 194.236L378.825 194.122C376.178 194.497 373.526 194.807 370.867 195.066C368.221 195.325 365.568 195.497 362.946 195.961C360.489 196.398 357.949 197.192 355.881 198.702C353.391 200.52 351.568 203.138 350.855 206.277C350.163 209.315 350.398 212.457 350.995 215.488C351.522 218.174 352.379 220.792 353.289 223.356C355.25 228.885 357.694 234.22 360.654 239.228C363.593 244.205 367.015 248.896 370.827 253.157C371.282 253.666 371.745 254.169 372.212 254.666C373.321 255.847 375.365 255.93 376.461 254.666C377.557 253.401 377.645 251.426 376.461 250.166H376.455Z" fill="#313332"/>
<path d="M468.937 322.265H538.058C560.982 322.265 583.904 322.265 606.827 322.265C619.758 322.265 632.688 322.265 645.62 322.265C647.193 322.265 648.698 320.801 648.626 319.083C648.553 317.358 647.305 315.901 645.62 315.901H468.939C467.366 315.901 465.862 317.365 465.934 319.083C466.006 320.801 467.254 322.265 468.939 322.265H468.937Z" fill="#313332"/>
<path d="M601.506 241.401C604.559 246.373 607.554 251.384 610.489 256.435C613.425 261.486 616.302 266.575 619.118 271.7C621.935 276.825 624.69 281.989 627.387 287.188C630.081 292.388 632.716 297.621 635.288 302.889C637.871 308.179 640.393 313.504 642.849 318.86C643.15 319.516 643.45 320.171 643.749 320.829C644.047 321.487 644.875 322.095 645.544 322.291C646.263 322.501 647.221 322.405 647.86 321.97C648.499 321.535 649.066 320.88 649.24 320.069C649.429 319.198 649.305 318.423 648.938 317.617C646.506 312.276 644.011 306.966 641.455 301.688C638.899 296.412 636.28 291.168 633.599 285.962C630.921 280.754 628.18 275.582 625.377 270.446C622.576 265.311 619.715 260.213 616.794 255.154C613.861 250.073 610.868 245.03 607.817 240.026C607.444 239.413 607.07 238.802 606.693 238.191C606.268 237.5 605.661 236.952 604.898 236.73C604.179 236.519 603.221 236.615 602.582 237.05C601.943 237.485 601.376 238.14 601.201 238.951C601.027 239.761 601.061 240.682 601.504 241.403L601.506 241.401Z" fill="#313332"/>
</svg>
