<svg width="476" height="567" viewBox="0 0 476 567" fill="none" xmlns="http://www.w3.org/2000/svg">
<g clip-path="url(#clip0_1587_679)">
<path d="M366.007 395.048C356.109 428.292 335.114 455.207 308.259 472.964C302.889 476.516 297.283 479.702 291.484 482.498C282.951 486.612 274.002 489.887 264.769 492.244C249.128 496.24 232.677 497.609 216.06 496.005C207.017 495.134 197.927 493.381 188.891 490.691C113.485 468.238 70.5245 389.015 92.9374 313.741C115.35 238.467 194.648 195.649 270.055 218.101C334.708 237.352 375.51 298.337 371.701 362.784C371.266 370.172 370.243 377.605 368.603 385.026C367.864 388.37 367 391.713 366.007 395.048Z" fill="#69C5BD"/>
<path d="M213.782 307.156C219.482 308.853 225.476 305.616 227.17 299.926C228.864 294.237 225.617 288.248 219.917 286.551C214.217 284.854 208.224 288.091 206.529 293.781C204.835 299.47 208.083 305.458 213.782 307.156Z" fill="#DBE2E2"/>
<path d="M146.945 289.033C152.644 290.731 158.638 287.494 160.332 281.804C162.026 276.115 158.779 270.126 153.079 268.429C147.38 266.732 141.386 269.969 139.692 275.659C137.998 281.348 141.245 287.336 146.945 289.033Z" fill="#DBE2E2"/>
<path d="M257.269 349.048C264.667 351.251 272.446 347.05 274.645 339.665C276.844 332.28 272.63 324.508 265.232 322.305C257.834 320.102 250.054 324.303 247.855 331.688C245.656 339.073 249.871 346.845 257.269 349.048Z" fill="#97D5CF"/>
<path d="M113.827 292.795C118.017 286.327 119.705 279.979 117.597 278.616C115.488 277.253 110.382 281.391 106.192 287.859C102.002 294.326 100.314 300.674 102.422 302.037C104.531 303.4 109.637 299.262 113.827 292.795Z" fill="#97D5CF"/>
<path d="M129.448 372.911L127.283 355.068L138.335 349.483L189.755 367.289L192.368 394.91C192.368 394.91 186.909 411.377 197.505 415.921L183.128 430.842L130.23 409.483L129.582 405.129C129.582 405.129 159.003 380.047 129.447 372.913L129.448 372.911Z" fill="#F9A039"/>
<path d="M226.397 375.704L244.493 363.342L249.033 370.758L231.863 385.399L226.397 375.704Z" fill="#FADF55"/>
<path d="M301.078 445.606L341.784 442.039C341.784 442.039 342.528 467.294 367.125 473.822L335.14 495.814C335.14 495.814 291.519 471.195 301.08 445.607L301.078 445.606Z" fill="#FADF55"/>
<path d="M333.937 324.851L371.8 310.276C371.8 310.276 379.369 342.058 402.947 349.501L378.537 364.628C378.537 364.628 344.041 359.056 333.937 324.851Z" fill="#FAC687"/>
<path d="M116.827 193.017C133.105 197.864 150.223 188.62 155.061 172.371C159.899 156.122 150.625 139.02 134.348 134.173C118.07 129.327 100.952 138.57 96.1134 154.819C91.2751 171.069 100.549 188.17 116.827 193.017Z" fill="#FADF55"/>
<path d="M150.953 289.417C155.491 289.034 158.965 286.326 158.711 283.367C158.458 280.409 154.574 278.322 150.036 278.705C145.498 279.088 142.024 281.796 142.277 284.755C142.531 287.713 146.415 289.8 150.953 289.417Z" fill="#313332"/>
<path d="M221.406 305.734C222.931 303.187 220.998 299.228 217.088 296.891C213.178 294.554 208.773 294.725 207.247 297.271C205.722 299.818 207.655 303.777 211.565 306.114C215.475 308.451 219.88 308.281 221.406 305.734Z" fill="#313332"/>
<path d="M127.219 303.983C131.555 306.725 135.701 309.802 140.285 312.133C145.307 314.687 150.806 316.348 156.494 315.926C158.372 315.788 160.242 315.515 162.067 315.047C164.117 314.522 166.053 313.722 168.022 312.95L167.199 313.267C167.374 313.212 167.545 313.174 167.727 313.152L166.841 313.249C167.122 313.23 167.39 313.245 167.67 313.288L166.757 313.145C167.18 313.228 167.582 313.364 167.977 313.542L167.135 313.162C167.454 313.312 167.749 313.479 168.03 313.694L167.341 313.128C168.028 313.693 168.559 314.418 169.17 315.061C169.586 315.498 170.018 315.918 170.462 316.325C171.717 317.476 173.05 318.549 174.417 319.563C177.202 321.628 180.186 323.428 183.266 325.019C190.806 328.913 199.003 331.767 207.498 332.492C212.019 332.877 216.726 332.56 221.063 331.174C221.926 330.898 222.674 330.442 223.164 329.658C223.616 328.935 223.83 327.856 223.588 327.021C223.096 325.335 221.259 323.911 219.426 324.496C217.592 325.081 215.743 325.453 213.851 325.664L214.737 325.567C211.316 325.934 207.86 325.759 204.463 325.233L205.376 325.375C199.937 324.518 194.656 322.786 189.642 320.535L190.484 320.915C186.397 319.072 182.446 316.877 178.797 314.268C177.929 313.646 177.077 313 176.252 312.322L176.941 312.888C175.806 311.953 174.708 310.961 173.73 309.862C173.327 309.407 172.943 308.937 172.486 308.533C171.558 307.714 170.647 307.19 169.475 306.767C168.379 306.371 167.232 306.304 166.09 306.473C165.105 306.62 164.165 307.157 163.236 307.517L164.059 307.2C161.643 308.125 159.136 308.791 156.561 309.076L157.447 308.979C155.319 309.201 153.181 309.151 151.067 308.82L151.98 308.963C149.507 308.561 147.121 307.781 144.834 306.761L145.677 307.141C140.393 304.757 135.74 301.237 130.863 298.153C129.342 297.19 127.028 297.635 126.12 299.245C125.212 300.856 125.589 302.952 127.219 303.983Z" fill="#313332"/>
<path d="M123.218 303.676C124.121 304.036 125.169 304.175 126.137 304.093C126.773 304.041 127.424 303.979 128.042 303.8C128.66 303.621 129.227 303.397 129.792 303.133C130.711 302.701 131.552 302.072 132.339 301.439C132.953 300.945 133.523 300.4 134.09 299.854C134.739 299.232 135.159 298.32 135.178 297.415C135.194 296.588 134.849 295.584 134.248 294.996C133.603 294.364 132.735 293.886 131.804 293.908C130.873 293.929 130.037 294.204 129.383 294.834C128.659 295.529 127.928 296.222 127.115 296.812L127.831 296.298C127.297 296.677 126.735 297.009 126.124 297.253L126.946 296.936C126.473 297.118 125.988 297.243 125.486 297.304L126.372 297.207C125.967 297.249 125.568 297.247 125.166 297.19L126.079 297.333C125.771 297.282 125.474 297.2 125.185 297.086C124.41 296.776 123.274 296.973 122.564 297.355C121.855 297.736 121.112 298.564 120.905 299.397C120.698 300.229 120.708 301.226 121.177 302.014L121.692 302.729C122.118 303.181 122.628 303.495 123.223 303.675L123.218 303.676Z" fill="#313332"/>
<path d="M214.484 323.81C215.147 325.853 216.241 327.776 217.84 329.241C218.632 329.967 219.491 330.655 220.441 331.163C221.391 331.671 222.417 332.117 223.477 332.363C224.371 332.57 225.273 332.539 226.097 332.094C226.839 331.694 227.549 330.884 227.757 330.052C227.964 329.22 227.954 328.222 227.485 327.435C227.015 326.647 226.327 325.981 225.438 325.776C224.871 325.646 224.323 325.461 223.792 325.224L224.634 325.604C223.892 325.266 223.204 324.836 222.571 324.323L223.26 324.889C222.631 324.369 222.075 323.778 221.593 323.118L222.108 323.833C221.669 323.22 221.307 322.56 221.028 321.855L221.347 322.677C221.285 322.515 221.226 322.349 221.172 322.185C220.893 321.323 220.442 320.576 219.652 320.085C218.927 319.633 217.846 319.419 217.01 319.66C216.175 319.901 215.35 320.394 214.909 321.176C214.468 321.958 214.203 322.938 214.486 323.813L214.484 323.81Z" fill="#313332"/>
<path d="M117.678 406.98C118.683 407.337 119.691 407.69 120.717 407.985C121.998 408.355 123.309 408.609 124.633 408.762C125.957 408.915 127.138 408.826 128.394 408.653C129.223 408.539 130.029 408.322 130.812 408.027C131.85 407.636 132.848 407.218 133.796 406.642C134.743 406.066 135.654 405.405 136.517 404.701C137.855 403.61 139.057 402.362 140.189 401.062C141.656 399.376 143.087 397.634 144.381 395.813C145.008 394.929 145.596 394.016 146.102 393.058C146.728 391.872 147.291 390.625 147.67 389.335C147.891 388.583 148.01 387.822 148.128 387.047C148.205 386.549 148.251 386.049 148.245 385.545C148.236 384.77 148.152 383.976 147.985 383.218C147.818 382.461 147.532 381.773 147.24 381.087C146.752 379.937 146.029 378.921 145.299 377.915C144.755 377.163 144.152 376.453 143.495 375.798C142.008 374.318 140.29 373.008 138.423 372.043C136.555 371.078 134.514 370.294 132.398 369.946C131.672 369.825 130.947 369.71 130.214 369.647C129.385 369.577 128.384 370.02 127.793 370.573C127.169 371.157 126.684 372.143 126.705 373.012C126.726 373.882 126.991 374.802 127.635 375.431L128.323 375.997C128.862 376.327 129.447 376.501 130.079 376.519C130.473 376.553 130.866 376.601 131.258 376.66L130.345 376.517C131.881 376.762 133.377 377.215 134.796 377.852L133.954 377.473C135.371 378.119 136.699 378.942 137.905 379.925L137.216 379.359C138.37 380.31 139.401 381.399 140.277 382.608L139.762 381.893C140.362 382.732 140.899 383.621 141.282 384.579L140.964 383.757C141.191 384.348 141.348 384.954 141.419 385.583L141.321 384.698C141.394 385.434 141.359 386.17 141.245 386.9L141.387 385.989C141.2 387.116 140.835 388.205 140.371 389.248L140.751 388.407C139.557 391.042 137.735 393.332 135.908 395.552L136.474 394.864C134.796 396.898 132.995 398.87 130.843 400.418L131.559 399.905C130.574 400.606 129.522 401.206 128.394 401.647L129.216 401.33C128.344 401.663 127.44 401.891 126.512 402L127.398 401.903C126.317 402.02 125.232 401.965 124.156 401.798L125.069 401.941C123.206 401.637 121.418 401.016 119.644 400.387C118.838 400.102 117.761 400.259 117.023 400.656C116.285 401.053 115.571 401.866 115.364 402.698C115.157 403.531 115.166 404.528 115.636 405.315C116.105 406.103 116.788 406.658 117.682 406.974L117.678 406.98Z" fill="#313332"/>
<path d="M117.744 372.799C115.811 373.603 114.023 374.774 112.434 376.13C111.742 376.72 111.097 377.364 110.508 378.057C110.037 378.61 109.567 379.173 109.139 379.76C108.868 380.131 108.624 380.522 108.338 380.879L108.905 380.192C108.751 380.378 108.586 380.546 108.393 380.695L109.109 380.181C108.964 380.284 108.815 380.366 108.651 380.432L109.473 380.115C109.286 380.181 109.102 380.222 108.903 380.244L109.79 380.147C109.503 380.169 109.221 380.152 108.933 380.112L109.846 380.255C109.124 380.14 108.419 379.918 107.714 379.727L105.278 379.071L100.458 377.775L90.7637 375.166L85.3345 373.705C84.4679 373.47 83.5121 373.544 82.7138 373.974C81.9719 374.374 81.2617 375.183 81.0546 376.016C80.8474 376.848 80.857 377.845 81.3265 378.633C81.796 379.42 82.4796 380.052 83.3732 380.292C87.4898 381.4 91.6092 382.507 95.7258 383.616L101.931 385.286L104.977 386.105C105.91 386.357 106.847 386.662 107.798 386.828C108.868 387.013 109.663 387.094 110.746 386.893C110.857 386.873 110.962 386.842 111.068 386.807C111.419 386.689 111.79 386.561 112.121 386.391C112.344 386.279 112.543 386.116 112.744 385.97C112.946 385.824 113.157 385.686 113.341 385.512C114.227 384.659 114.829 383.545 115.604 382.6L115.037 383.287C115.985 382.147 117.07 381.132 118.27 380.263L117.555 380.776C118.635 380.003 119.795 379.354 121.023 378.843C121.433 378.64 121.767 378.354 122.021 377.985C122.344 377.654 122.564 377.26 122.682 376.8C122.923 375.992 122.851 374.922 122.41 374.183C121.969 373.445 121.255 372.747 120.363 372.525L119.451 372.382C118.845 372.371 118.275 372.51 117.742 372.796L117.744 372.799Z" fill="#313332"/>
<path d="M111.217 395.742L96.3101 391.296L81.4586 386.867C78.8082 386.078 76.0975 385.378 73.5664 384.244L74.4087 384.624C73.1618 384.059 71.9655 383.38 70.9052 382.51L71.594 383.076C70.8513 382.458 70.1857 381.758 69.6213 380.976L70.1363 381.691C69.6826 381.051 69.3021 380.367 69.0196 379.635L69.3378 380.456C69.1134 379.859 68.9588 379.244 68.8836 378.612L68.9817 379.497C68.9152 378.868 68.9352 378.238 69.0285 377.611L68.8864 378.522C69.0351 377.613 69.3296 376.744 69.7057 375.907L69.3261 376.748C69.8721 375.557 70.5666 374.447 71.2709 373.345C71.9751 372.242 72.6915 371.155 73.427 370.076C74.8958 367.917 76.4285 365.802 78.0209 363.735C78.9149 362.574 79.8311 361.427 80.7623 360.294L80.1961 360.981C82.3359 358.387 84.5729 355.876 86.8997 353.449C87.5385 352.784 87.9685 351.951 87.9876 351.01C88.004 350.183 87.6588 349.179 87.0579 348.592C86.4128 347.96 85.5447 347.481 84.614 347.503C83.7456 347.524 82.8111 347.784 82.1927 348.429C78.0998 352.694 74.2785 357.228 70.7566 361.971C69.0729 364.24 67.4599 366.561 65.9232 368.932C65.1557 370.118 64.3758 371.306 63.7408 372.57C62.8517 374.342 62.2126 376.102 62.0742 378.095C61.8598 381.155 63.2148 384.124 65.1746 386.404C67.1343 388.685 70.0115 390.256 72.8799 391.359C75.5873 392.399 78.4202 393.131 81.1982 393.958L89.8565 396.541L107.121 401.688L109.259 402.325C110.106 402.577 111.103 402.475 111.88 402.056C112.656 401.637 113.332 400.846 113.539 400.014C113.746 399.181 113.736 398.184 113.267 397.397C112.797 396.609 112.115 396.004 111.22 395.738L111.217 395.742Z" fill="#313332"/>
<path d="M234.286 388.133C232.898 384.713 231.488 381.27 229.514 378.136C227.394 374.77 224.709 371.676 221.206 369.698C219.576 368.778 217.791 368.017 215.956 367.617C214.931 367.393 213.877 367.227 212.826 367.177C211.775 367.127 210.73 367.227 209.696 367.38C208.787 367.514 207.931 367.782 207.076 368.111C206.222 368.44 205.352 368.836 204.566 369.369C203.642 369.995 202.758 370.664 201.976 371.464C201.195 372.264 200.479 373.148 199.827 374.058C198.815 375.471 197.989 377.006 197.22 378.56C196.306 380.408 195.438 382.277 194.551 384.138C192.66 388.107 190.765 392.075 188.876 396.047C188.308 397.24 187.737 398.442 187.277 399.682C186.817 400.922 186.557 402.164 186.407 403.462C186.147 405.696 186.692 407.91 187.55 409.958C187.868 410.715 188.271 411.437 188.741 412.112C189.372 413.022 190.03 413.902 190.827 414.674C192.419 416.222 194.268 417.482 196.284 418.407C198.3 419.333 200.198 420.034 202.276 420.51C204.104 420.927 205.988 421.208 207.863 421.258C209.738 421.307 211.546 421.142 213.318 420.726C214.327 420.488 215.296 420.129 216.252 419.733C216.954 419.442 217.632 419.087 218.265 418.666C219.107 418.108 219.928 417.507 220.647 416.796C221.292 416.158 221.718 415.274 221.735 414.357C221.751 413.53 221.406 412.526 220.805 411.938C220.16 411.306 219.292 410.828 218.361 410.849C217.43 410.871 216.582 411.139 215.94 411.775C215.522 412.189 215.074 412.567 214.598 412.911L215.314 412.397C214.5 412.977 213.614 413.442 212.682 413.805L213.505 413.488C212.305 413.946 211.053 414.228 209.778 414.375L210.664 414.278C208.803 414.481 206.921 414.399 205.072 414.114L205.985 414.256C203.647 413.888 201.339 413.21 199.181 412.24L200.023 412.62C198.602 411.974 197.251 411.18 196.038 410.193L196.727 410.759C195.843 410.027 195.052 409.201 194.379 408.269L194.894 408.985C194.323 408.184 193.849 407.323 193.49 406.408L193.808 407.229C193.501 406.428 193.288 405.597 193.187 404.745L193.285 405.63C193.199 404.827 193.221 404.028 193.341 403.232L193.199 404.144C193.429 402.711 193.952 401.356 194.543 400.038L194.164 400.879C195.724 397.433 197.412 394.039 199.04 390.623L201.523 385.411C202.227 383.93 202.917 382.443 203.679 380.992C204.442 379.541 205.347 378.03 206.427 376.719L205.86 377.406C206.592 376.527 207.412 375.726 208.342 375.056L207.626 375.57C208.345 375.06 209.118 374.637 209.943 374.319L209.121 374.636C209.973 374.314 210.861 374.107 211.767 374.009L210.88 374.106C211.955 373.995 213.032 374.036 214.099 374.201L213.186 374.058C214.523 374.272 215.818 374.677 217.054 375.229L216.212 374.849C217.56 375.461 218.821 376.245 219.967 377.179L219.278 376.613C220.698 377.782 221.918 379.175 222.991 380.661L222.476 379.946C224.425 382.668 225.854 385.709 227.149 388.781C227.517 389.653 227.872 390.526 228.229 391.402C228.433 391.812 228.719 392.146 229.089 392.399C229.421 392.723 229.816 392.943 230.276 393.061C231.085 393.302 232.158 393.232 232.897 392.792C233.636 392.352 234.334 391.64 234.556 390.75L234.698 389.838C234.708 389.234 234.569 388.665 234.282 388.132L234.286 388.133Z" fill="#313332"/>
<path d="M217.261 418.412C217.307 418.449 217.354 418.487 217.4 418.525L216.711 417.959C218.862 419.732 220.619 421.914 222.246 424.165L221.731 423.45C223.281 425.602 224.743 427.818 226.301 429.967C227.643 431.82 229.08 433.629 230.788 435.163C232.883 437.044 235.221 438.553 237.933 439.394C241.07 440.366 244.427 440.302 247.612 439.625C250.614 438.984 253.507 437.771 256.249 436.417C258.992 435.063 261.397 433.707 263.886 432.208C269.132 429.049 274.152 425.484 278.865 421.581C283.578 417.678 287.601 413.779 291.496 409.413C291.971 408.88 292.439 408.345 292.904 407.805C293.259 407.499 293.51 407.129 293.661 406.696C293.89 406.289 294.001 405.844 293.992 405.365C294.009 404.538 293.663 403.535 293.062 402.947C292.417 402.315 291.549 401.837 290.619 401.858C289.779 401.878 288.769 402.12 288.197 402.784C283.477 408.272 278.243 413.319 272.585 417.839C271.002 419.103 269.385 420.326 267.74 421.509L268.455 420.996C263.74 424.375 258.774 427.431 253.598 430.056C252.174 430.777 250.724 431.449 249.234 432.024L250.056 431.707C248.116 432.449 246.11 433.025 244.04 433.262L244.926 433.165C243.568 433.313 242.2 433.305 240.849 433.099L241.762 433.241C240.567 433.048 239.406 432.7 238.304 432.205L239.146 432.584C237.93 432.029 236.808 431.302 235.773 430.459L236.462 431.025C234.42 429.344 232.76 427.26 231.219 425.125L231.734 425.841C229.214 422.337 226.963 418.592 224.013 415.422C223.054 414.39 222.005 413.473 220.909 412.587C220.264 412.066 219.033 411.977 218.267 412.162C217.501 412.347 216.577 412.947 216.166 413.678C215.723 414.464 215.481 415.422 215.742 416.315L216.06 417.136C216.35 417.667 216.753 418.093 217.264 418.417L217.261 418.412Z" fill="#313332"/>
<path d="M271.792 392.235C269.285 394.381 266.688 396.421 264.007 398.346L264.723 397.832C260.324 400.987 255.705 403.833 250.902 406.34C249.581 407.03 248.251 407.707 246.859 408.249L247.682 407.932C246.422 408.415 245.12 408.797 243.777 408.949L244.663 408.852C243.887 408.934 243.107 408.934 242.332 408.818L243.245 408.96C242.667 408.865 242.111 408.706 241.575 408.473L242.417 408.853C241.902 408.62 241.425 408.325 240.987 407.97L241.676 408.536C241.176 408.122 240.742 407.642 240.36 407.117L240.875 407.832C240.049 406.68 239.482 405.376 238.908 404.086C238.622 403.441 238.332 402.796 238.01 402.167C237.551 401.277 237.002 400.476 236.409 399.668C236.103 399.314 235.732 399.063 235.298 398.912C234.89 398.683 234.444 398.571 233.965 398.579C233.137 398.562 232.132 398.906 231.544 399.505C230.912 400.149 230.434 401.015 230.456 401.945L230.554 402.83C230.7 403.411 230.978 403.924 231.386 404.363L231.434 404.428L230.919 403.713C231.75 404.869 232.33 406.172 232.905 407.464C233.197 408.117 233.486 408.772 233.811 409.409C234.246 410.263 234.768 411.035 235.334 411.811C236.526 413.44 238.263 414.634 240.17 415.275C240.681 415.447 241.204 415.533 241.737 415.618C242.269 415.702 242.8 415.777 243.344 415.783C244.449 415.797 245.574 415.654 246.653 415.423C248.602 415.004 250.493 414.221 252.279 413.352C253.892 412.568 255.475 411.715 257.04 410.842C260.191 409.082 263.259 407.173 266.23 405.124C269.415 402.929 272.511 400.605 275.477 398.123C275.819 397.835 276.161 397.547 276.499 397.256C277.158 396.689 277.57 395.669 277.587 394.816C277.604 393.963 277.258 392.985 276.657 392.398C276.012 391.766 275.144 391.287 274.213 391.309C273.282 391.331 272.496 391.632 271.792 392.235Z" fill="#313332"/>
<path d="M234.953 387.182C235.937 386.44 236.928 385.71 237.93 384.992L237.214 385.506C239.099 384.155 241.014 382.844 242.957 381.579C244.899 380.315 246.828 379.17 248.763 377.963C249.992 377.196 251.228 376.367 252.242 375.325C252.883 374.668 253.311 373.82 253.33 372.886C253.346 372.059 253.001 371.055 252.4 370.468C251.755 369.836 250.887 369.357 249.956 369.379C249.084 369.399 248.162 369.662 247.535 370.305C247.046 370.805 246.507 371.249 245.938 371.656L246.654 371.142C245.698 371.818 244.679 372.402 243.679 373.01C242.611 373.66 241.55 374.322 240.498 374.998C238.394 376.349 236.324 377.752 234.287 379.204C232.928 380.173 231.575 381.155 230.241 382.16C229.887 382.466 229.636 382.836 229.485 383.269C229.256 383.677 229.145 384.122 229.153 384.6C229.137 385.427 229.482 386.431 230.083 387.018C230.728 387.65 231.596 388.129 232.527 388.107L233.413 388.01C233.995 387.865 234.509 387.588 234.948 387.181L234.953 387.182Z" fill="#313332"/>
<path d="M252.634 370.286L249.08 365.518L248.2 364.339C247.929 363.973 247.675 363.57 247.363 363.236C246.347 362.144 244.775 361.609 243.311 361.974C242.617 362.148 242.072 362.459 241.502 362.853C238.129 365.174 234.817 367.58 231.574 370.077C229.865 371.393 228.177 372.735 226.511 374.101C225.846 374.644 225.439 375.706 225.423 376.541C225.407 377.375 225.752 378.371 226.353 378.959C226.998 379.591 227.866 380.069 228.797 380.048L229.683 379.951C230.265 379.806 230.778 379.529 231.218 379.122C234.721 376.25 238.318 373.491 241.998 370.846L241.283 371.36C242.01 370.838 242.74 370.319 243.474 369.806C243.834 369.554 244.193 369.305 244.555 369.054C244.893 368.82 245.227 368.552 245.604 368.387L244.782 368.704C244.865 368.673 244.94 368.653 245.029 368.638L244.142 368.736C244.199 368.729 244.254 368.731 244.309 368.738L243.396 368.595C243.454 368.602 243.509 368.619 243.562 368.642L242.72 368.262C242.801 368.303 242.863 368.345 242.934 368.402L242.246 367.836C242.485 368.068 242.673 368.355 242.871 368.622L243.549 369.532L244.902 371.347L247.608 374.981C247.915 375.335 248.285 375.586 248.719 375.737C249.128 375.966 249.573 376.077 250.052 376.069C250.88 376.087 251.886 375.743 252.473 375.143C253.106 374.5 253.584 373.634 253.561 372.704L253.463 371.819C253.318 371.238 253.04 370.725 252.632 370.286L252.634 370.286Z" fill="#313332"/>
<path d="M132.769 416.508C139.16 418.124 145.505 419.929 151.789 421.92C158.038 423.9 164.228 426.063 170.35 428.407C173.817 429.736 177.262 431.12 180.683 432.564C181.279 432.742 181.878 432.755 182.482 432.61C183.064 432.465 183.577 432.188 184.017 431.781C184.786 431.161 185.57 430.563 186.37 429.988L185.655 430.502C187.259 429.352 188.927 428.295 190.65 427.333C191.428 426.9 192.053 426.149 192.309 425.291C192.55 424.483 192.478 423.412 192.037 422.674C191.596 421.935 190.882 421.238 189.99 421.015C189.099 420.793 188.179 420.834 187.37 421.284C184.532 422.87 181.835 424.72 179.308 426.76L182.642 425.976C176.568 423.415 170.417 421.034 164.202 418.834C158.023 416.65 151.779 414.645 145.48 412.83C141.912 411.801 138.329 410.832 134.728 409.92C133.849 409.696 132.917 409.754 132.108 410.189C131.366 410.59 130.656 411.399 130.448 412.231C130.241 413.063 130.251 414.061 130.72 414.848C131.19 415.636 131.876 416.282 132.767 416.507L132.769 416.508Z" fill="#313332"/>
<path d="M135.699 347.447C133.572 348.3 131.511 349.305 129.532 350.46C128.926 350.813 128.335 351.175 127.767 351.584C127.24 351.963 126.797 352.366 126.446 352.933C125.992 353.661 125.802 354.463 125.746 355.309C125.706 355.911 125.783 356.534 125.81 357.137L125.891 358.954L126.082 363.156C126.122 364.057 126.381 364.902 127.012 365.574C127.597 366.198 128.585 366.684 129.455 366.663C130.326 366.643 131.247 366.379 131.877 365.737C132.506 365.095 133.006 364.219 132.965 363.298L132.781 359.266L132.69 357.279C132.661 356.629 132.568 355.944 132.641 355.297L132.499 356.208C132.517 356.106 132.54 356.013 132.575 355.913L132.195 356.754C132.251 356.631 132.314 356.531 132.398 356.427L131.832 357.114C131.92 357.02 132.013 356.938 132.116 356.859L131.4 357.373C132.543 356.561 133.833 355.9 135.079 355.263C136.325 354.625 137.651 354.023 138.976 353.492C139.386 353.289 139.72 353.004 139.973 352.635C140.297 352.303 140.517 351.91 140.635 351.45C140.875 350.642 140.804 349.571 140.363 348.833C139.922 348.094 139.208 347.397 138.316 347.174L137.403 347.031C136.798 347.021 136.228 347.159 135.695 347.445L135.699 347.447Z" fill="#313332"/>
<path d="M103.739 422.328L88.0494 423.793L72.3602 425.257L68.0255 425.661C67.2916 425.73 66.5576 425.798 65.8237 425.866C65.0898 425.934 64.4099 425.99 63.7022 425.882L64.6151 426.025C64.3631 425.979 64.1242 425.912 63.8866 425.818L64.7289 426.198C64.4394 426.068 64.1842 425.904 63.9395 425.704L64.6283 426.27C63.8108 425.566 63.1968 424.62 62.5429 423.768L60.3684 420.938L56.0187 415.281C55.5271 414.64 54.3633 414.174 53.5747 414.192C52.7093 414.212 51.7653 414.471 51.1535 415.118C50.5417 415.766 49.9823 416.438 49.5055 417.171C49.0287 417.904 48.641 418.764 48.2851 419.597C47.6783 421.015 47.3992 422.548 47.2222 424.076C46.8968 426.897 47.3735 429.824 48.1317 432.545C48.4906 433.833 48.9213 435.096 49.3685 436.353C49.666 437.187 49.9692 438.019 50.2911 438.844C50.505 439.388 50.7444 439.911 51.0775 440.392C51.3817 440.834 51.6873 441.296 52.0891 441.659C52.6929 442.205 53.1716 442.543 53.8916 442.868C54.3094 443.057 54.7081 443.238 55.1544 443.339C55.7659 443.481 56.3989 443.566 57.022 443.637C58.4998 443.805 59.9841 443.926 61.4663 444.071C67.3897 444.645 73.3131 445.218 79.2358 445.794C85.1585 446.369 91.1285 446.947 97.0752 447.522L114.915 449.251L117.119 449.465C117.94 449.544 118.956 449.084 119.54 448.539C120.164 447.955 120.649 446.969 120.628 446.099C120.606 445.23 120.342 444.31 119.698 443.681C119.008 443.005 118.218 442.686 117.254 442.592C109.357 441.828 101.458 441.061 93.5611 440.297C85.6851 439.534 77.8113 438.772 69.9359 438.007L63.3235 437.367L60.0162 437.047C58.9151 436.942 57.8019 436.868 56.7069 436.71L57.6199 436.852C57.1535 436.778 56.7049 436.668 56.2716 436.475L57.1139 436.855C56.8947 436.746 56.6946 436.622 56.5024 436.472L57.1911 437.038C56.9737 436.851 56.7833 436.646 56.6123 436.416L57.1274 437.131C56.7908 436.653 56.5505 436.125 56.341 435.582L56.6591 436.404C55.4942 433.344 54.3748 430.171 54.0096 426.902L54.1076 427.787C53.9613 426.405 53.9722 425.017 54.181 423.64L54.039 424.552C54.2131 423.468 54.5074 422.415 54.9483 421.409L54.5687 422.25C54.9354 421.436 55.3939 420.676 55.957 419.983L55.3909 420.671C55.5403 420.49 55.695 420.317 55.8557 420.147L50.9905 419.984L57.7651 428.797C58.2687 429.454 58.7485 430.158 59.3419 430.739C59.7927 431.179 60.2954 431.63 60.8577 431.929C61.805 432.431 62.5176 432.619 63.5591 432.764C64.4284 432.885 65.2919 432.783 66.1612 432.703L68.9122 432.446L91.0691 430.378L103.591 429.209C104.05 429.236 104.483 429.149 104.888 428.955C105.316 428.829 105.691 428.606 106.012 428.283C106.636 427.699 107.122 426.713 107.1 425.844C107.079 424.974 106.814 424.054 106.171 423.425C105.527 422.796 104.628 422.251 103.727 422.337L103.739 422.328Z" fill="#313332"/>
<path d="M171.939 474.05C170.629 477.179 169.609 480.425 168.905 483.741C168.162 487.232 167.639 490.846 167.606 494.424C167.59 496.166 167.721 497.979 168.22 499.657C168.75 501.445 169.59 503 170.776 504.439C171.712 505.573 172.906 506.548 174.155 507.314C175.405 508.081 176.881 508.728 178.336 509.147C181.502 510.056 184.782 510.024 187.993 509.388C191.205 508.753 194.287 507.457 197.245 506.079C200.203 504.701 203.267 503.168 206.264 501.684C209.333 500.165 212.394 498.626 215.445 497.072C221.618 493.929 227.756 490.718 233.859 487.439C234.606 487.037 235.351 486.635 236.096 486.233C236.84 485.831 237.503 485.036 237.755 484.191C238.007 483.346 237.924 482.312 237.483 481.574C237.042 480.835 236.328 480.137 235.436 479.915C234.545 479.693 233.634 479.742 232.815 480.184C227.264 483.187 221.681 486.134 216.072 489.024C210.461 491.914 204.821 494.748 199.153 497.523C196.249 498.944 193.358 500.425 190.339 501.592L191.161 501.275C189.039 502.089 186.847 502.727 184.583 502.983L185.469 502.886C184.046 503.04 182.625 503.036 181.21 502.817L182.123 502.96C180.838 502.755 179.586 502.394 178.398 501.863L179.24 502.243C178.257 501.797 177.332 501.237 176.494 500.553L177.183 501.119C176.513 500.561 175.913 499.93 175.403 499.224L175.918 499.939C175.481 499.324 175.124 498.663 174.847 497.961L175.165 498.783C174.809 497.849 174.6 496.877 174.489 495.885L174.587 496.77C174.437 495.334 174.484 493.89 174.579 492.453C174.686 490.855 174.865 489.264 175.111 487.683L174.969 488.594C175.652 484.275 176.848 480.049 178.537 476.015C178.855 475.254 178.642 474.096 178.265 473.398C177.863 472.657 177.052 471.947 176.218 471.739C175.385 471.531 174.386 471.54 173.598 472.008L172.882 472.522C172.43 472.946 172.116 473.455 171.936 474.05L171.939 474.05Z" fill="#313332"/>
<path d="M173.823 476.608L183.884 487.066C185.127 488.359 187.436 488.573 188.749 487.228C192.566 483.319 196.645 479.667 200.958 476.311C202.177 475.362 203.412 474.439 204.667 473.536L203.951 474.05C205.502 472.936 207.077 471.861 208.679 470.823C209.089 470.62 209.423 470.334 209.676 469.965C210 469.634 210.22 469.24 210.338 468.78C210.579 467.972 210.507 466.902 210.066 466.163C209.625 465.425 208.911 464.727 208.019 464.505C207.175 464.294 206.158 464.283 205.399 464.774C202.258 466.812 199.204 468.989 196.249 471.288C193.497 473.43 190.841 475.692 188.286 478.062C186.837 479.407 185.422 480.79 184.041 482.205L188.906 482.368L178.845 471.91C178.222 471.26 177.305 470.839 176.401 470.821C175.573 470.804 174.568 471.148 173.98 471.747C173.348 472.391 172.869 473.257 172.892 474.186C172.915 475.116 173.19 475.951 173.822 476.605L173.823 476.608Z" fill="#313332"/>
<path d="M298.709 445.013C298.288 445.801 297.91 446.637 297.678 447.505C297.445 448.373 297.312 449.272 297.248 450.162C297.138 451.68 297.33 453.232 297.584 454.727C297.997 457.169 298.675 459.589 299.415 461.951C300.935 466.794 302.976 471.511 305.936 475.66C307.449 477.779 309.072 479.79 310.885 481.661C312.519 483.347 314.261 484.927 316.068 486.426C319.912 489.617 323.978 492.496 328.109 495.301C328.613 495.643 329.109 495.996 329.623 496.321C329.994 496.556 330.378 496.737 330.779 496.918C331.516 497.25 332.074 497.395 332.902 497.493C334.646 497.697 336.325 496.851 337.87 496.168C340.225 495.127 342.517 493.941 344.73 492.623C345.274 492.297 345.814 491.963 346.351 491.623C347.129 491.128 347.74 490.49 348.011 489.581C348.251 488.773 348.18 487.703 347.739 486.964C347.298 486.226 346.584 485.528 345.692 485.305C344.8 485.083 343.836 485.088 343.071 485.574C339.948 487.563 336.629 489.364 333.177 490.722L333.999 490.405C333.616 490.551 333.225 490.672 332.815 490.724L333.701 490.627C333.476 490.649 333.259 490.646 333.038 490.618L333.951 490.761C333.675 490.715 333.417 490.631 333.16 490.521L334.002 490.901C333.018 490.443 332.131 489.732 331.235 489.121C330.339 488.51 329.506 487.939 328.645 487.341C326.909 486.133 325.188 484.904 323.505 483.623C322.555 482.903 321.621 482.166 320.699 481.409L321.388 481.975C318.557 479.645 315.871 477.124 313.514 474.312C312.841 473.509 312.197 472.681 311.583 471.832L312.098 472.547C309.98 469.6 308.31 466.378 307.001 462.998L307.319 463.819C306.587 461.918 305.964 459.981 305.423 458.017C304.883 456.054 304.334 453.973 304.1 451.903L304.198 452.788C304.081 451.692 304.06 450.591 304.22 449.498L304.078 450.41C304.194 449.675 304.394 448.96 304.698 448.278L304.318 449.119C304.391 448.964 304.467 448.812 304.546 448.659C304.985 447.838 305.197 446.947 304.97 446.022C304.773 445.219 304.182 444.334 303.45 443.922C302.662 443.479 301.702 443.237 300.808 443.496C299.98 443.737 299.126 444.226 298.707 445.012L298.709 445.013Z" fill="#313332"/>
<path d="M331.838 327.083C333.52 331.672 335.209 336.293 337.475 340.634C339.723 344.944 342.603 349.048 346.334 352.21C350.578 355.809 355.453 358.608 360.349 361.216C362.761 362.501 365.213 363.714 367.698 364.85C369.192 365.534 370.693 366.203 372.208 366.843C373.416 367.353 374.634 367.926 375.891 368.303C376.883 368.599 377.872 368.695 378.89 368.582C379.908 368.469 380.77 368.154 381.68 367.727C382.854 367.178 383.994 366.542 385.132 365.923C387.473 364.645 389.77 363.293 392.022 361.867C392.58 361.512 393.137 361.154 393.69 360.793C394.469 360.284 395.075 359.671 395.349 358.751C395.589 357.943 395.518 356.872 395.077 356.134C394.636 355.395 393.922 354.697 393.03 354.475C392.188 354.265 391.164 354.252 390.41 354.744C388.381 356.074 386.314 357.344 384.211 358.552C383.169 359.15 382.116 359.735 381.056 360.301C379.997 360.868 378.99 361.457 377.903 361.892L378.726 361.575C378.391 361.702 378.051 361.799 377.696 361.849L378.582 361.752C378.248 361.786 377.922 361.773 377.592 361.725L378.504 361.867C377.279 361.648 376.104 361.059 374.962 360.585C373.747 360.08 372.54 359.558 371.34 359.019L372.183 359.399C366.349 356.773 360.637 353.775 355.262 350.3C353.814 349.364 352.405 348.371 351.07 347.281L351.759 347.847C349.662 346.121 347.826 344.132 346.237 341.934L346.752 342.649C344.455 339.452 342.687 335.914 341.161 332.297C340.719 331.25 340.298 330.195 339.889 329.134L340.207 329.955C339.63 328.459 339.074 326.955 338.524 325.45C338.431 325.004 338.239 324.613 337.95 324.273C337.718 323.886 337.402 323.579 337.003 323.351C336.278 322.898 335.198 322.684 334.362 322.925C333.526 323.166 332.702 323.659 332.261 324.441C331.82 325.223 331.525 326.228 331.837 327.078L331.838 327.083Z" fill="#313332"/>
<path d="M93.3013 172.282C94.2541 174.607 95.3838 176.861 96.7236 178.988C98.1836 181.306 99.8495 183.528 101.77 185.489C103.691 187.449 105.913 189.261 108.31 190.658C110.708 192.056 113.481 193.228 116.269 193.845C117.918 194.21 119.616 194.459 121.304 194.506C122.993 194.552 124.751 194.392 126.432 194.077L122.27 191.552C123.066 194.129 124.02 196.662 125.098 199.135C126.057 201.328 127.106 203.521 128.364 205.562C129.086 206.731 129.903 207.913 130.958 208.808C131.574 209.331 132.181 209.839 132.904 210.203C133.627 210.566 134.386 210.912 135.175 211.116C136.485 211.453 137.871 211.598 139.218 211.466C140.037 211.385 140.851 211.297 141.65 211.093C142.448 210.888 143.213 210.586 143.975 210.279C146.608 209.22 148.885 207.405 151.109 205.684C151.464 205.379 151.715 205.009 151.866 204.576C152.095 204.168 152.206 203.723 152.197 203.245C152.213 202.418 151.868 201.414 151.267 200.827C150.622 200.195 149.754 199.716 148.823 199.738L147.937 199.835C147.355 199.98 146.842 200.257 146.402 200.664C145.674 201.226 144.947 201.787 144.201 202.322L144.917 201.809C143.539 202.792 142.094 203.689 140.509 204.307L141.332 203.99C140.44 204.329 139.52 204.567 138.569 204.678L139.456 204.581C138.614 204.672 137.77 204.662 136.932 204.532L137.845 204.675C137.213 204.568 136.6 204.393 136.012 204.139L136.854 204.519C136.322 204.279 135.828 203.977 135.372 203.609L136.061 204.175C135.472 203.686 134.966 203.115 134.516 202.498L135.031 203.213C133.978 201.745 133.158 200.093 132.363 198.475C131.533 196.786 130.78 195.061 130.1 193.307L130.418 194.129C129.884 192.743 129.398 191.344 128.959 189.925C128.705 189.106 128.216 188.262 127.439 187.825C126.606 187.357 125.743 187.224 124.797 187.399C124.303 187.491 123.807 187.566 123.306 187.622L124.192 187.525C122.362 187.721 120.519 187.663 118.702 187.38L119.615 187.522C117.521 187.188 115.484 186.565 113.548 185.702L114.39 186.082C112.247 185.116 110.252 183.862 108.436 182.37L109.125 182.936C107.02 181.193 105.176 179.167 103.576 176.955L104.091 177.67C102.166 174.991 100.606 172.067 99.3585 169.021C99.0444 168.258 98.0684 167.587 97.3118 167.362C96.5023 167.121 95.4302 167.191 94.691 167.631C93.9519 168.071 93.2537 168.783 93.0318 169.673L92.8897 170.585C92.8798 171.189 93.0191 171.758 93.306 172.291L93.3013 172.282Z" fill="#313332"/>
<path d="M134.633 202.684C138.996 201.089 143.202 199.141 147.164 196.713C147.943 196.238 148.558 195.565 148.824 194.671C149.064 193.863 148.993 192.793 148.552 192.054C148.111 191.316 147.397 190.618 146.505 190.395C145.613 190.173 144.663 190.189 143.884 190.665C140.508 192.733 136.945 194.493 133.247 195.918L134.069 195.601C133.712 195.739 133.354 195.871 132.997 196.004C132.55 196.096 132.158 196.287 131.818 196.576C131.431 196.807 131.124 197.122 130.895 197.52C130.443 198.243 130.229 199.322 130.472 200.157C130.714 200.992 131.209 201.816 131.992 202.257C132.775 202.698 133.782 202.993 134.633 202.682L134.633 202.684Z" fill="#313332"/>
<path d="M134.138 191.236C135.85 190.835 137.518 190.234 139.121 189.516C140.489 188.903 141.792 188.153 143.013 187.286C143.423 187.083 143.757 186.797 144.01 186.428C144.334 186.097 144.554 185.703 144.672 185.244C144.913 184.436 144.841 183.365 144.4 182.626C143.959 181.888 143.245 181.19 142.353 180.968L141.441 180.825C140.835 180.814 140.265 180.953 139.732 181.239C138.181 182.34 136.498 183.245 134.724 183.936L135.547 183.619C134.554 184 133.537 184.314 132.499 184.557C131.662 184.755 130.851 185.347 130.398 186.073C129.945 186.798 129.732 187.875 129.974 188.71C130.217 189.545 130.711 190.368 131.495 190.81C132.278 191.251 133.215 191.451 134.136 191.235L134.138 191.236Z" fill="#313332"/>
<path d="M134.664 185.868C132.489 181.945 130.313 178.02 128.115 174.11C127.011 172.146 125.902 170.186 124.784 168.23C124.23 167.26 123.674 166.291 123.116 165.324C122.633 164.487 122.149 163.65 121.589 162.861C120.359 161.138 118.748 159.575 116.598 159.126C115.587 158.916 114.505 158.866 113.516 159.207C112.386 159.598 111.441 160.287 110.786 161.297C109.606 163.12 109.63 165.503 110.584 167.413C111.538 169.323 113.278 170.629 115.155 171.475C118.791 173.11 122.912 172.879 126.644 171.693C128.553 171.085 130.402 170.271 132.161 169.313C133.904 168.362 135.643 167.283 137.06 165.878C138.585 164.368 139.822 162.369 139.77 160.153C139.724 158.074 138.673 156.255 137.234 154.808C136.544 154.115 135.779 153.483 135 152.893C134.133 152.233 133.163 151.767 132.074 151.637C131.45 151.561 130.791 151.723 130.231 151.996C129.594 152.309 129.13 152.847 128.706 153.395C128.049 154.243 127.602 155.308 127.388 156.356C126.942 158.53 127.227 160.727 127.992 162.796C128.757 164.867 129.8 166.819 130.783 168.792C132.797 172.827 134.812 176.862 136.826 180.899L138.305 183.861C138.707 184.667 139.858 185.021 140.639 184.556C141.462 184.065 141.761 183.088 141.332 182.226C139.768 179.093 138.205 175.96 136.641 172.827C135.076 169.693 133.56 166.768 132.097 163.703C131.909 163.307 131.726 162.908 131.553 162.506C131.514 162.413 131.475 162.32 131.435 162.227C131.415 162.175 131.253 161.769 131.366 162.058C131.478 162.347 131.354 162.023 131.339 161.98C131.292 161.854 131.246 161.728 131.203 161.601C130.922 160.781 130.711 159.939 130.608 159.079L130.658 159.521C130.578 158.769 130.584 158.015 130.693 157.266L130.622 157.72C130.72 157.111 130.884 156.519 131.131 155.955L130.941 156.374C131.156 155.903 131.425 155.466 131.753 155.064L131.469 155.408C131.553 155.308 131.637 155.212 131.731 155.122C131.778 155.077 131.824 155.033 131.875 154.993C131.644 155.149 131.603 155.18 131.753 155.081C131.805 155.051 131.856 155.023 131.909 154.998C131.62 155.101 131.557 155.126 131.721 155.074C131.824 155.052 131.921 155.028 132.023 155.016L131.58 155.065C131.764 155.051 131.941 155.061 132.122 155.088L131.666 155.017C131.909 155.063 132.138 155.138 132.365 155.237L131.945 155.047C132.647 155.366 133.25 155.85 133.845 156.337L133.501 156.053C134.264 156.684 134.999 157.36 135.599 158.15C135.814 158.434 135.389 157.842 135.587 158.135C135.656 158.239 135.725 158.346 135.789 158.453C135.909 158.654 136.019 158.864 136.113 159.078C136.136 159.128 136.155 159.179 136.178 159.229C136.26 159.413 136.049 158.858 136.107 159.05C136.144 159.168 136.185 159.286 136.219 159.406C136.284 159.652 136.33 159.903 136.358 160.155L136.307 159.712C136.344 160.105 136.333 160.494 136.279 160.884L136.35 160.43C136.275 160.9 136.134 161.348 135.943 161.781L136.132 161.362C135.863 161.946 135.508 162.478 135.101 162.976L135.385 162.633C134.709 163.441 133.915 164.12 133.074 164.749C132.899 164.878 133.371 164.539 133.193 164.662C133.139 164.699 133.087 164.736 133.033 164.773C132.928 164.846 132.82 164.917 132.713 164.988C132.489 165.137 132.259 165.281 132.028 165.422C131.601 165.682 131.167 165.933 130.731 166.176C129.828 166.677 128.903 167.138 127.956 167.551C127.722 167.654 127.487 167.751 127.25 167.848C127.146 167.889 127.041 167.929 126.94 167.971C127.453 167.76 126.944 167.967 126.814 168.015C126.339 168.189 125.858 168.349 125.372 168.491C124.269 168.818 123.142 169.056 122.001 169.182L122.444 169.133C121.243 169.258 120.031 169.253 118.835 169.071L119.29 169.142C118.273 168.98 117.286 168.694 116.347 168.276L116.767 168.465C116.023 168.126 115.323 167.71 114.687 167.191L115.031 167.475C114.755 167.245 114.495 167 114.254 166.732C114.144 166.611 114.04 166.484 113.94 166.356C113.713 166.064 114.085 166.577 113.988 166.426C113.941 166.352 113.891 166.28 113.844 166.204C113.758 166.066 113.681 165.923 113.606 165.779C113.567 165.701 113.529 165.62 113.494 165.538C113.438 165.411 113.387 165.147 113.52 165.617C113.428 165.291 113.336 164.982 113.293 164.644L113.343 165.086C113.297 164.669 113.306 164.255 113.367 163.841L113.296 164.296C113.359 163.915 113.466 163.548 113.624 163.196L113.434 163.615C113.572 163.319 113.74 163.046 113.943 162.791L113.659 163.134C113.799 162.968 113.954 162.825 114.115 162.677C114.34 162.47 113.757 162.901 114.02 162.74C114.113 162.684 114.205 162.625 114.302 162.575C114.375 162.537 114.509 162.441 114.593 162.44L114.331 162.541C114.382 162.523 114.432 162.506 114.482 162.493C114.687 162.432 114.892 162.393 115.104 162.365L114.661 162.414C115.066 162.372 115.466 162.387 115.867 162.448L115.412 162.377C115.849 162.453 116.268 162.582 116.673 162.758L116.253 162.568C116.719 162.779 117.147 163.047 117.547 163.369L117.203 163.085C117.51 163.339 117.799 163.616 118.065 163.911C118.204 164.065 118.339 164.224 118.467 164.387C118.526 164.462 118.585 164.539 118.644 164.614C118.674 164.651 118.7 164.69 118.729 164.73C118.86 164.901 118.52 164.429 118.641 164.608C119.103 165.291 119.531 165.992 119.943 166.708C120.909 168.379 121.868 170.056 122.822 171.733C124.719 175.076 126.594 178.428 128.463 181.786C129.52 183.688 130.577 185.592 131.633 187.497C132.07 188.284 133.164 188.669 133.967 188.191C134.77 187.713 135.126 186.703 134.661 185.862L134.664 185.868Z" fill="#313332"/>
<path d="M138.813 359.209L176.917 373.218L186.649 369.437" stroke="#313332" stroke-width="7" stroke-linecap="round" stroke-linejoin="round"/>
<path d="M177.806 382.804L180.561 418.729" stroke="#313332" stroke-width="7" stroke-linecap="round" stroke-linejoin="round"/>
<path d="M357.212 339.833C357.979 341.488 358.849 343.069 359.949 344.53C361.049 345.99 362.377 347.215 363.977 347.979C364.833 348.386 365.7 348.707 366.638 348.859C367.709 349.035 368.716 349.062 369.795 348.937C371.67 348.72 373.428 347.9 374.869 346.694C376.46 345.363 377.648 343.456 378.123 341.436C378.328 340.563 377.904 339.533 376.963 339.298C376.101 339.082 375.042 339.518 374.823 340.454C374.706 340.954 374.544 341.439 374.338 341.908L374.527 341.489C374.217 342.178 373.82 342.818 373.344 343.405L373.628 343.062C373.3 343.457 372.944 343.824 372.55 344.156C372.458 344.234 372.363 344.309 372.269 344.383C372.223 344.42 372.172 344.455 372.124 344.493C372.506 344.184 372.324 344.352 372.223 344.42C372.01 344.564 371.793 344.698 371.567 344.82C371.355 344.936 371.14 345.041 370.917 345.138C370.848 345.167 370.778 345.194 370.709 345.224C370.517 345.305 371.065 345.098 370.866 345.163C370.752 345.201 370.639 345.241 370.523 345.278C370.019 345.434 369.5 345.538 368.974 345.599L369.418 345.549C368.664 345.628 367.91 345.61 367.162 345.494L367.617 345.565C366.9 345.447 366.207 345.243 365.541 344.947L365.961 345.137C365.265 344.82 364.621 344.408 364.029 343.928L364.373 344.212C363.879 343.805 363.425 343.351 363.007 342.866C362.806 342.632 362.614 342.391 362.429 342.144C362.389 342.092 362.22 341.857 362.393 342.097C362.565 342.338 362.398 342.104 362.36 342.047C362.263 341.906 362.166 341.765 362.075 341.62C361.369 340.533 360.78 339.373 360.235 338.197C359.856 337.379 358.667 337.046 357.901 337.502C357.06 338.005 356.802 338.958 357.208 339.832L357.212 339.833Z" fill="#313332"/>
<path d="M364.108 333.087C363.926 333.045 363.752 332.986 363.581 332.908L364.001 333.098C363.782 332.997 363.58 332.872 363.393 332.721L363.737 333.005C363.597 332.887 363.473 332.757 363.366 332.61L363.624 332.967C363.543 332.852 363.478 332.732 363.423 332.603L363.581 333.014C363.532 332.882 363.498 332.747 363.484 332.609L363.534 333.052C363.525 332.954 363.527 332.859 363.542 332.76L363.471 333.215C363.489 333.122 363.516 333.032 363.551 332.945L363.362 333.364C363.411 333.255 363.474 333.156 363.55 333.062L363.266 333.405C363.351 333.304 363.447 333.215 363.554 333.137L363.197 333.394C363.294 333.327 363.397 333.272 363.508 333.228L363.097 333.386C363.194 333.35 363.292 333.327 363.393 333.316L362.95 333.366C363.026 333.36 363.102 333.361 363.178 333.372L362.722 333.3C362.798 333.313 362.87 333.335 362.94 333.365L362.52 333.176C362.581 333.206 362.637 333.242 362.692 333.282L362.348 332.998C362.409 333.049 362.463 333.109 362.513 333.174L362.256 332.817C362.321 332.911 362.373 333.01 362.416 333.116L362.258 332.706C362.41 333.112 362.443 333.562 362.493 333.99L362.443 333.547C362.489 333.963 362.52 334.381 362.537 334.799C362.554 335.249 362.689 335.674 363.003 336.009C363.296 336.321 363.791 336.564 364.225 336.554C364.659 336.545 365.122 336.412 365.436 336.09C365.75 335.768 365.999 335.333 365.981 334.871C365.965 334.472 365.936 334.071 365.892 333.673C365.84 333.179 365.801 332.668 365.689 332.183C365.564 331.639 365.302 331.062 364.886 330.673C364.401 330.22 363.767 329.904 363.086 329.924C362.567 329.939 362.031 330.064 361.589 330.351C361.147 330.637 360.718 331 360.473 331.479C360.355 331.706 360.233 331.945 360.177 332.198C360.07 332.688 360.075 332.969 360.144 333.46C360.201 333.855 360.362 334.254 360.584 334.586C360.921 335.088 361.308 335.494 361.825 335.825C362.078 335.987 362.359 336.104 362.633 336.221C362.792 336.29 362.954 336.343 363.124 336.382C363.57 336.486 364.023 336.468 364.434 336.246C364.805 336.046 365.16 335.64 365.264 335.226C365.368 334.813 365.364 334.312 365.127 333.918C364.89 333.525 364.548 333.194 364.105 333.088L364.108 333.087Z" fill="#313332"/>
<path d="M374.466 335.251C374.255 335.054 374.053 334.846 373.881 334.611L374.139 334.967C374.03 334.813 373.934 334.651 373.864 334.474L374.022 334.885C373.97 334.747 373.935 334.608 373.916 334.461L373.966 334.904C373.957 334.808 373.959 334.713 373.97 334.618L373.899 335.073C373.917 334.973 373.945 334.879 373.985 334.785L373.796 335.204C373.843 335.101 373.902 335.007 373.974 334.918L373.69 335.261C373.756 335.185 373.826 335.118 373.906 335.058L373.549 335.315C373.62 335.264 373.694 335.224 373.773 335.191L373.363 335.348C373.43 335.323 373.5 335.305 373.572 335.296L373.129 335.345C373.19 335.34 373.252 335.341 373.312 335.35L372.856 335.279C372.92 335.29 372.979 335.308 373.041 335.334L372.621 335.144C372.688 335.176 372.749 335.213 372.804 335.261L372.46 334.977C372.506 335.016 372.544 335.059 372.581 335.108L372.324 334.752C372.369 334.818 372.406 334.886 372.436 334.962L372.278 334.552C372.309 334.64 372.329 334.732 372.343 334.824L372.293 334.382C372.312 334.55 372.303 334.717 372.277 334.884L372.348 334.429C372.312 334.646 372.25 334.854 372.162 335.053L372.352 334.634C372.343 334.655 372.333 334.673 372.325 334.692C372.191 334.892 372.115 335.106 372.1 335.34C372.046 335.563 372.049 335.786 372.114 336.011C372.212 336.413 372.507 336.855 372.874 337.062C373.267 337.285 373.747 337.403 374.195 337.274L374.606 337.116C374.872 336.971 375.084 336.771 375.246 336.516C375.4 336.194 375.56 335.866 375.631 335.514C375.702 335.163 375.768 334.819 375.738 334.471C375.697 334.004 375.629 333.549 375.369 333.144C375.134 332.775 374.969 332.616 374.629 332.35C374.435 332.197 374.193 332.101 373.963 332.02C373.852 331.982 373.726 331.971 373.612 331.954C373.497 331.936 373.379 331.908 373.261 331.909C373.025 331.915 372.772 331.933 372.547 332.015C372.102 332.174 371.686 332.373 371.361 332.732C371.036 333.092 370.746 333.505 370.623 333.997C370.501 334.489 370.487 335.01 370.619 335.514C370.834 336.328 371.344 337.037 371.956 337.602C372.11 337.779 372.295 337.903 372.512 337.98C372.717 338.094 372.938 338.15 373.178 338.147C373.592 338.156 374.095 337.985 374.389 337.683C374.705 337.361 374.944 336.928 374.934 336.464C374.923 336.035 374.795 335.555 374.468 335.254L374.466 335.251Z" fill="#313332"/>
<path d="M333.048 451.436C329.066 450.975 325.069 451.033 321.094 451.51C320.567 451.574 319.939 452.163 319.854 452.69C319.666 453.844 319.553 454.989 319.614 456.159C319.648 456.793 319.715 457.427 319.816 458.053C319.917 458.678 320.108 459.349 320.571 459.843C320.878 460.171 321.266 460.389 321.697 460.51C322.201 460.651 322.685 460.57 323.193 460.504C323.757 460.428 324.32 460.352 324.885 460.274L328.27 459.817L326.19 458.554C327.04 462.79 328.301 466.92 329.903 470.933C330.346 472.042 330.818 473.136 331.316 474.222L331.653 472.149L326.897 475.641C326.437 475.979 326.241 476.774 326.402 477.303C326.875 478.859 327.657 480.397 328.782 481.59C329.159 481.989 329.65 482.367 330.185 482.516C330.919 482.721 331.579 482.611 332.261 482.315C332.943 482.018 333.557 481.606 334.187 481.241C336.899 479.67 339.553 477.994 342.136 476.219C343.673 475.164 345.19 474.074 346.683 472.955C347.004 472.714 347.236 472.126 347.228 471.736C347.216 471.307 347.088 470.829 346.762 470.526C346.067 469.884 345.529 469.103 344.884 468.413C344.14 467.621 343.225 466.947 342.17 466.64C341.06 466.314 339.908 466.451 338.904 467.023C338.604 467.194 338.324 467.395 338.029 467.575C337.897 467.655 337.762 467.722 337.626 467.794C337.323 467.95 338.024 467.681 337.756 467.744C337.671 467.764 337.59 467.786 337.505 467.799L337.948 467.749C337.84 467.76 337.739 467.759 337.631 467.745L338.086 467.817C337.968 467.796 337.861 467.761 337.751 467.712L338.171 467.902C338.096 467.863 338.033 467.82 337.963 467.77L338.308 468.054C338.233 467.992 338.172 467.923 338.103 467.855C338.019 467.753 338.062 467.817 338.236 468.045C338.205 467.998 338.176 467.951 338.147 467.902C338.06 467.751 337.992 467.593 337.925 467.434C337.8 467.138 338.073 467.829 337.951 467.499C337.904 467.375 337.857 467.251 337.81 467.127L337.551 466.438L336.53 463.732L334.468 458.263L332.762 460.389C334.843 460.309 336.843 459.826 338.73 458.949C339.066 458.791 339.317 458.464 339.464 458.137C339.634 457.762 339.637 457.438 339.581 457.03L339.171 453.967C339.118 453.567 338.738 453.121 338.411 452.916C338.047 452.691 337.507 452.583 337.09 452.705C336.673 452.827 336.26 453.072 336.039 453.462C335.799 453.888 335.763 454.298 335.828 454.781L336.238 457.843L337.09 455.924C336.926 456 336.763 456.073 336.596 456.143C336.522 456.174 336.439 456.197 336.369 456.236C336.764 456.019 336.548 456.167 336.413 456.218C336.091 456.335 335.763 456.44 335.432 456.53C334.753 456.718 334.063 456.849 333.364 456.928L333.807 456.878C333.481 456.913 333.155 456.938 332.828 456.95C332.279 456.971 331.827 457.159 331.476 457.585C331.161 457.967 330.935 458.579 331.123 459.074L333.723 465.975L334.364 467.674C334.589 468.269 334.776 468.898 335.078 469.459C335.765 470.739 337.225 471.545 338.665 471.053C339.205 470.87 339.655 470.607 340.129 470.301C340.315 470.182 340.502 470.061 340.7 469.96C340.743 469.936 340.786 469.918 340.829 469.895C341.094 469.761 340.659 469.945 340.647 469.961C340.693 469.895 340.994 469.873 341.066 469.863L340.623 469.913C340.853 469.888 341.076 469.895 341.303 469.929L340.848 469.858C341.107 469.904 341.354 469.982 341.598 470.088L341.178 469.899C341.532 470.061 341.857 470.271 342.158 470.516L341.814 470.232C342.734 471.01 343.364 472.06 344.247 472.878L344.326 470.449C343.881 470.783 343.436 471.111 342.987 471.439C342.77 471.597 342.544 471.744 342.334 471.911C342.729 471.596 342.344 471.902 342.255 471.967C342.139 472.049 342.021 472.134 341.905 472.216C340.984 472.867 340.053 473.508 339.115 474.132C337.266 475.365 335.386 476.548 333.474 477.678C332.933 477.997 332.392 478.312 331.847 478.623C331.567 478.783 331.287 478.941 331.006 479.099C330.905 479.155 330.802 479.205 330.7 479.259C330.451 479.393 330.878 479.181 330.872 479.195C330.851 479.234 330.659 479.242 330.624 479.246L331.068 479.196C331.011 479.201 330.956 479.201 330.9 479.197L331.355 479.268C331.255 479.252 331.17 479.229 331.076 479.194L331.496 479.383C331.377 479.324 331.27 479.256 331.166 479.173L331.51 479.457C331.238 479.218 331.017 478.933 330.798 478.645C330.619 478.41 330.973 478.903 330.858 478.727C330.813 478.659 330.768 478.595 330.723 478.527C330.626 478.379 330.534 478.229 330.446 478.074C330.277 477.782 330.126 477.479 329.988 477.17C329.955 477.096 329.926 477.023 329.893 476.949C329.809 476.756 330.028 477.323 329.93 477.043C329.864 476.861 329.804 476.678 329.746 476.494L329.251 478.156L334.007 474.664C334.305 474.445 334.461 474.016 334.515 473.673C334.577 473.283 334.509 472.954 334.344 472.592C333.911 471.65 333.495 470.697 333.104 469.737C333.012 469.514 332.921 469.288 332.833 469.063C332.791 468.96 332.617 468.502 332.802 468.99C332.752 468.86 332.702 468.73 332.654 468.601C332.47 468.116 332.292 467.628 332.119 467.139C331.428 465.184 330.825 463.195 330.313 461.183C330.023 460.042 329.763 458.896 329.532 457.742C329.453 457.348 329.123 456.889 328.772 456.692C328.346 456.452 327.933 456.413 327.451 456.48C325.69 456.718 323.927 456.968 322.164 457.196L322.608 457.146C322.477 457.159 322.353 457.163 322.221 457.148L322.677 457.219C322.613 457.21 322.554 457.19 322.496 457.16L322.916 457.35C322.87 457.327 322.828 457.3 322.79 457.265L323.134 457.549C322.974 457.394 323.25 457.708 323.249 457.734C323.25 457.731 323.088 457.368 323.232 457.728C323.349 458.024 323.227 457.639 323.213 457.551C323.155 457.244 323.112 456.933 323.077 456.623L323.127 457.066C322.991 455.819 323.019 454.565 323.209 453.324L323.139 453.778L323.155 453.676L321.915 454.855C322.094 454.834 322.272 454.814 322.451 454.793L322.008 454.842C325.654 454.443 329.338 454.455 332.983 454.878C333.388 454.925 333.908 454.683 334.194 454.414C334.506 454.122 334.749 453.628 334.739 453.195C334.729 452.762 334.596 452.299 334.273 451.985C333.924 451.645 333.535 451.498 333.051 451.44L333.048 451.436Z" fill="#313332"/>
</g>
<circle cx="264" cy="15" r="10" stroke="#F9A039" stroke-width="10"/>
<circle cx="317" cy="15" r="10" stroke="#F9A039" stroke-width="10"/>
<circle cx="370" cy="15" r="10" stroke="#F9A039" stroke-width="10"/>
<circle cx="423" cy="15" r="10" stroke="#F9A039" stroke-width="10"/>
<circle cx="476" cy="15" r="10" stroke="#F9A039" stroke-width="10"/>
<defs>
<clipPath id="clip0_1587_679">
<rect width="357" height="357" fill="white" transform="translate(101.877 122) rotate(16.581)"/>
</clipPath>
</defs>
</svg>
