<svg width="567" height="598" viewBox="0 0 567 598" fill="none" xmlns="http://www.w3.org/2000/svg">
<rect x="-24" y="21.543" width="66.1372" height="66.1372" transform="rotate(-10.0519 -24 21.543)" fill="#FADF55" fill-opacity="0.5"/>
<rect x="52.6642" y="75.1211" width="66.1372" height="66.1372" transform="rotate(-10.0519 52.6642 75.1211)" fill="#FADF55" fill-opacity="0.5"/>
<rect x="129.333" y="128.699" width="66.1372" height="66.1372" transform="rotate(-10.0519 129.333 128.699)" fill="#FADF55" fill-opacity="0.5"/>
<circle cx="335.5" cy="58.5" r="53.5" stroke="#97D5CF" stroke-opacity="0.5" stroke-width="10"/>
<path d="M287.719 514.589H99.2272L193.472 351.413L226.412 408.443L184.005 478.979L235.181 423.624L287.719 514.589Z" fill="#FBDE56"/>
<path d="M505.946 360.9H358.091V508.698H505.946V360.9Z" fill="#FBA036"/>
<path d="M180.204 446.265C187.532 446.265 193.472 440.326 193.472 433.001C193.472 425.676 187.532 419.737 180.204 419.737C172.875 419.737 166.935 425.676 166.935 433.001C166.935 440.326 172.875 446.265 180.204 446.265Z" fill="#FDF5CD"/>
<path d="M200.4 419.737C207.728 419.737 213.668 413.799 213.668 406.474C213.668 399.148 207.728 393.21 200.4 393.21C193.071 393.21 187.131 399.148 187.131 406.474C187.131 413.799 193.071 419.737 200.4 419.737Z" fill="#FDF5CD"/>
<path d="M144.213 447.586L147.366 453.043L141.062 453.045L134.757 453.046L137.907 447.589L141.059 442.13L144.213 447.586Z" fill="#FCF2C1"/>
<path d="M399.908 438.694C399.908 438.694 417.549 434.264 419.513 426.387L402.491 418.39L399.908 436.322V438.694Z" fill="#FAE5CB"/>
<path d="M133.815 465.625L136.968 471.082L130.664 471.084L124.36 471.085L127.511 465.626L130.661 460.169L133.815 465.625Z" fill="#FCF2C1"/>
<path d="M488.873 400.493H465.269V424.088H488.873V400.493Z" fill="#F9DFBE"/>
<path d="M435.608 403.417H421.403V408.428H435.608V403.417Z" fill="#313332"/>
<path d="M383.579 403.417H372.834V408.428H383.579V403.417Z" fill="#313332"/>
<path d="M187.131 439.316C189.991 439.316 192.311 436.488 192.311 433C192.311 429.511 189.991 426.684 187.131 426.684C184.27 426.684 181.951 429.511 181.951 433C181.951 436.488 184.27 439.316 187.131 439.316Z" fill="#313332"/>
<path d="M207.581 412.789C210.442 412.789 212.761 409.962 212.761 406.473C212.761 402.985 210.442 400.157 207.581 400.157C204.721 400.157 202.401 402.985 202.401 406.473C202.401 409.962 204.721 412.789 207.581 412.789Z" fill="#313332"/>
<path d="M305.232 359.687L281.877 357.061L279.25 380.406L302.604 383.033L305.232 359.687Z" fill="#FBC587"/>
<path d="M319.733 384.892C324.52 384.892 328.401 381.013 328.401 376.227C328.401 371.442 324.52 367.562 319.733 367.562C314.945 367.562 311.064 371.442 311.064 376.227C311.064 381.013 314.945 384.892 319.733 384.892Z" fill="#95D9D2"/>
<path d="M251.848 360.01L247.998 384.481L271.125 375.579L251.848 360.01Z" fill="#FBDE56"/>
<path d="M367.091 420.32L377.269 428.091L398.43 416.551L429.326 430.963L448.249 419.899" stroke="#313332" stroke-width="6" stroke-linecap="round" stroke-linejoin="round"/>
<path d="M339.447 413.477C339.279 413.509 339.11 413.536 338.943 413.566C338.834 413.587 338.522 413.658 339.017 413.56C338.745 413.614 338.448 413.623 338.17 413.643C337.576 413.684 336.979 413.691 336.385 413.665C336.13 413.653 335.875 413.637 335.621 413.614C335.456 413.6 335.274 413.597 335.112 413.56C335.594 413.67 335.302 413.588 335.187 413.568C334.569 413.46 333.959 413.342 333.355 413.178C332.834 413.036 332.32 412.869 331.815 412.678C331.682 412.628 331.551 412.572 331.417 412.523C331.854 412.687 331.563 412.587 331.468 412.543C331.158 412.4 330.85 412.258 330.547 412.101C330.043 411.84 329.552 411.552 329.078 411.241C328.864 411.101 328.654 410.955 328.447 410.805C328.35 410.734 328.037 410.491 328.414 410.788C328.28 410.683 328.147 410.576 328.018 410.466C327.105 409.701 326.338 408.825 325.578 407.912C324.476 406.589 323.135 405.76 321.404 405.572C319.989 405.418 318.514 405.607 317.096 405.68C315.589 405.757 314.084 405.837 312.578 405.92C300.618 406.573 288.588 407.298 276.635 406.124C275.963 406.058 275.292 405.985 274.62 405.907C274.319 405.872 274.016 405.836 273.715 405.798C273.547 405.777 273.38 405.756 273.213 405.734C272.546 405.648 273.655 405.796 272.99 405.705C271.618 405.512 270.251 405.299 268.89 405.051C266.207 404.565 263.544 403.961 260.919 403.22C258.294 402.48 255.791 401.63 253.305 400.617C253.118 400.541 252.932 400.464 252.747 400.387C252.83 400.422 253.107 400.541 252.714 400.372C252.407 400.24 252.098 400.106 251.792 399.969C251.149 399.682 250.511 399.384 249.878 399.076C248.659 398.48 247.458 397.847 246.282 397.171C245.203 396.551 244.147 395.893 243.119 395.191C242.606 394.841 242.105 394.472 241.604 394.104C241.537 394.055 241.275 393.854 241.602 394.106C241.455 393.992 241.31 393.876 241.164 393.759C240.922 393.566 240.682 393.368 240.446 393.168C239.48 392.351 238.557 391.479 237.696 390.55C237.299 390.121 236.914 389.679 236.545 389.225C236.504 389.175 236.122 388.69 236.428 389.086C236.352 388.989 236.278 388.89 236.205 388.791C235.984 388.494 235.77 388.191 235.563 387.884C234.881 386.874 234.278 385.81 233.762 384.706C233.712 384.597 233.661 384.486 233.611 384.375C233.58 384.307 233.349 383.745 233.544 384.23C233.431 383.949 233.318 383.67 233.214 383.386C233.004 382.818 232.816 382.245 232.647 381.664C232.478 381.084 232.333 380.496 232.206 379.903C232.144 379.606 232.084 379.31 232.031 379.011C232.01 378.892 231.989 378.773 231.97 378.653C231.96 378.592 231.857 377.918 231.902 378.224C231.953 378.572 231.873 377.979 231.871 377.972C231.857 377.851 231.844 377.731 231.832 377.61C231.801 377.307 231.775 377.004 231.753 376.7C231.707 376.031 231.683 375.361 231.683 374.69C231.683 373.464 231.785 372.25 231.913 371.032C231.865 371.494 231.895 371.164 231.909 371.065C231.937 370.883 231.963 370.701 231.992 370.519C232.036 370.247 232.084 369.975 232.136 369.704C232.257 369.073 232.397 368.444 232.558 367.821C232.863 366.637 233.241 365.469 233.688 364.33C233.755 364.16 233.824 363.989 233.893 363.821C233.863 363.895 233.72 364.215 233.888 363.837C234.009 363.564 234.131 363.292 234.257 363.022C234.521 362.458 234.802 361.904 235.097 361.358C235.674 360.293 236.307 359.26 236.993 358.261C237.31 357.799 237.639 357.343 237.977 356.896C238.047 356.805 238.3 356.487 238.014 356.847C238.088 356.754 238.159 356.66 238.233 356.569C238.455 356.291 238.68 356.017 238.909 355.747C240.461 353.91 242.186 352.22 244.035 350.683C244.242 350.512 244.449 350.343 244.658 350.174C244.798 350.062 244.938 349.951 245.079 349.841C245.15 349.784 245.41 349.595 245.062 349.854C245.587 349.462 246.113 349.07 246.651 348.694C247.628 348.012 248.633 347.367 249.659 346.76C250.74 346.121 251.845 345.524 252.97 344.966C253.587 344.66 254.209 344.366 254.836 344.082C255.149 343.941 255.465 343.804 255.781 343.666C255.841 343.64 256.167 343.504 255.829 343.644C256.02 343.566 256.211 343.487 256.401 343.408C261.584 341.308 267.035 339.932 272.537 338.98C273.933 338.738 275.332 338.53 276.736 338.332C277.132 338.275 276.215 338.399 276.841 338.318C276.97 338.3 277.1 338.284 277.229 338.267C277.554 338.225 277.879 338.185 278.203 338.146C278.92 338.06 279.636 337.98 280.352 337.907C282.967 337.639 285.59 337.456 288.217 337.369C293.528 337.191 298.854 337.402 304.124 338.095C303.674 338.035 304.111 338.095 304.223 338.11C304.385 338.133 304.546 338.155 304.708 338.179C305.031 338.226 305.353 338.275 305.674 338.326C306.318 338.428 306.96 338.537 307.602 338.655C308.946 338.901 310.282 339.181 311.612 339.498C314.136 340.099 316.628 340.83 319.073 341.701C319.683 341.92 320.292 342.145 320.896 342.381C321.199 342.499 321.498 342.618 321.8 342.74C321.921 342.79 322.04 342.839 322.159 342.889C322.638 343.084 321.922 342.784 322.356 342.97C323.579 343.499 324.79 344.056 325.98 344.657C328.207 345.781 330.374 347.034 332.413 348.474C332.661 348.649 332.905 348.826 333.148 349.005C333.246 349.077 333.342 349.151 333.438 349.222C333.924 349.582 333.097 348.946 333.569 349.323C334.041 349.7 334.507 350.08 334.96 350.475C335.883 351.283 336.762 352.142 337.579 353.057C337.956 353.479 338.317 353.913 338.668 354.357C338.385 353.999 338.636 354.319 338.704 354.411C338.793 354.53 338.88 354.649 338.966 354.77C339.173 355.06 339.374 355.355 339.567 355.653C340.233 356.681 340.825 357.765 341.3 358.894C341.156 358.551 341.29 358.875 341.313 358.938C341.384 359.129 341.462 359.318 341.531 359.509C341.648 359.827 341.759 360.149 341.863 360.472C342.072 361.12 342.255 361.774 342.417 362.434C342.578 363.093 342.719 363.764 342.842 364.435C342.903 364.771 342.961 365.109 343.013 365.446C343.035 365.582 343.056 365.717 343.076 365.852C343.094 365.967 343.165 366.478 343.112 366.085C343.487 368.868 343.685 371.689 343.753 374.495C343.787 375.871 343.779 377.247 343.715 378.621C343.683 379.305 343.637 379.989 343.575 380.672C343.545 381.012 343.51 381.353 343.471 381.692C343.455 381.827 343.439 381.963 343.421 382.099C343.357 382.629 343.465 381.851 343.389 382.331C342.96 385.054 342.277 387.679 341.224 390.23C341.194 390.304 341.102 390.46 341.1 390.529L341.197 390.302C341.156 390.399 341.114 390.497 341.071 390.593C340.978 390.808 340.884 391.022 340.787 391.236C340.569 391.72 340.343 392.202 340.105 392.678C339.672 393.541 339.203 394.387 338.681 395.199C338.427 395.593 338.162 395.979 337.883 396.356C337.896 396.337 337.717 396.58 337.716 396.58C337.718 396.581 338.034 396.178 337.713 396.577C337.551 396.776 337.386 396.973 337.218 397.165C336.574 397.897 335.874 398.578 335.123 399.201C335.047 399.263 334.971 399.326 334.894 399.387C334.863 399.412 334.47 399.697 334.764 399.492C335.059 399.287 334.654 399.57 334.625 399.592C334.543 399.652 334.46 399.712 334.377 399.77C333.951 400.073 333.514 400.358 333.067 400.63C332.089 401.225 331.066 401.743 330.024 402.215C329.073 402.644 328.89 403.786 329.021 404.68C329.86 410.429 333.808 415.883 339.445 417.688C340.534 418.035 341.876 417.28 342.131 416.162C342.403 414.969 341.772 413.85 340.605 413.477C340.448 413.426 340.292 413.376 340.137 413.319C340.076 413.297 339.636 413.127 339.94 413.247C340.244 413.368 339.738 413.151 339.678 413.122C339.556 413.063 339.433 413.002 339.313 412.937C339.048 412.796 338.789 412.645 338.537 412.485C338.355 412.368 337.899 412.163 337.796 411.971C337.998 412.13 338.037 412.159 337.914 412.06C337.849 412.009 337.785 411.957 337.723 411.904C337.618 411.815 337.515 411.725 337.411 411.635C337.186 411.433 336.967 411.223 336.756 411.005C336.545 410.787 336.34 410.561 336.142 410.328C336.051 410.222 335.967 410.111 335.877 410.006C336.226 410.407 335.867 409.992 335.813 409.918C335.45 409.42 335.12 408.899 334.821 408.362C334.684 408.116 334.555 407.867 334.433 407.615C334.358 407.464 334.29 407.311 334.218 407.157C334.025 406.739 334.352 407.528 334.176 407.058C333.745 405.904 333.41 404.738 333.233 403.517L332.23 405.983C336.386 404.104 339.926 401.308 342.414 397.46C343.616 395.6 344.526 393.579 345.373 391.539C346.449 388.948 347.193 386.266 347.6 383.489C348.444 377.735 348.233 371.838 347.48 366.084C347.1 363.185 346.554 360.309 345.451 357.587C344.383 354.956 342.922 352.599 341.079 350.438C337.74 346.52 333.333 343.55 328.792 341.195C323.904 338.658 318.687 336.737 313.341 335.422C302.589 332.774 291.338 332.413 280.354 333.538C268.996 334.701 257.386 337.108 247.455 342.986C238.672 348.186 231.152 356.282 228.44 366.302C227.044 371.462 226.91 377.025 228.266 382.209C229.638 387.443 232.636 392.048 236.655 395.641C240.711 399.266 245.525 402.002 250.508 404.137C255.758 406.387 261.225 408.016 266.833 409.09C278.707 411.364 290.83 411.335 302.862 410.788C306.025 410.644 309.189 410.468 312.351 410.295C313.932 410.209 315.513 410.123 317.094 410.043C317.847 410.005 318.6 409.967 319.352 409.932C319.703 409.916 320.054 409.894 320.405 409.89C320.539 409.889 320.673 409.887 320.807 409.89C320.939 409.893 321.073 409.9 321.206 409.913C320.986 409.88 320.955 409.877 321.114 409.908C321.268 409.96 321.433 409.982 321.587 410.04C321.197 409.893 321.488 410.033 321.564 410.06C322.011 410.22 321.344 409.813 321.689 410.142C321.775 410.225 321.864 410.303 321.947 410.389C322.408 410.856 322.794 411.392 323.225 411.885C324.097 412.884 325.105 413.738 326.172 414.521C328.161 415.982 330.528 417.03 332.934 417.568C335.476 418.137 338.046 418.169 340.603 417.685C341.728 417.472 342.47 416.058 342.128 415C341.74 413.799 340.648 413.247 339.442 413.474L339.447 413.477Z" fill="#313332"/>
<path d="M249.339 369.589C249.195 370.713 249.046 371.835 248.896 372.957L248.936 372.667C248.544 375.581 248.132 378.49 247.698 381.398C247.575 382.232 247.448 383.065 247.321 383.899C247.26 384.297 247.302 384.662 247.602 384.962C247.882 385.241 248.284 385.339 248.665 385.243C250.627 384.749 252.532 384.029 254.34 383.124C254.851 382.868 255.037 382.103 254.732 381.631C254.394 381.108 253.785 380.964 253.238 381.239C252.69 381.514 252.175 381.75 251.631 381.98L251.891 381.869C250.655 382.387 249.383 382.811 248.084 383.138L249.428 384.481C250.022 380.599 250.578 376.71 251.101 372.817C251.245 371.743 251.386 370.668 251.524 369.592C251.558 369.336 251.379 368.994 251.204 368.821C251.015 368.632 250.703 368.489 250.432 368.501C250.162 368.512 249.857 368.605 249.661 368.821C249.451 369.049 249.38 369.288 249.34 369.592L249.339 369.589Z" fill="#313332"/>
<path d="M255.343 377.485C256.249 377.737 257.08 377.4 257.898 377.042L259.929 376.153L263.958 374.391L266.255 373.385C266.489 373.283 266.692 372.968 266.757 372.733C266.829 372.471 266.796 372.123 266.647 371.892C266.497 371.661 266.272 371.454 265.994 371.39C265.69 371.32 265.437 371.375 265.153 371.501C262.911 372.481 260.669 373.462 258.427 374.443C257.79 374.721 257.156 375.006 256.515 375.277L256.776 375.166C256.514 375.276 256.249 375.37 255.968 375.415L256.257 375.376C256.109 375.395 255.966 375.398 255.818 375.38L256.107 375.42C256.043 375.41 255.984 375.395 255.921 375.378C255.371 375.225 254.708 375.567 254.577 376.14C254.446 376.713 254.75 377.319 255.34 377.483L255.343 377.485Z" fill="#313332"/>
<path d="M256.749 372.875C257.32 372.875 257.868 372.373 257.841 371.784C257.815 371.194 257.361 370.692 256.749 370.692C256.179 370.692 255.631 371.194 255.658 371.784C255.684 372.373 256.138 372.875 256.749 372.875Z" fill="#313332"/>
<path d="M260.667 371.011C261.238 371.011 261.785 370.509 261.759 369.92C261.733 369.33 261.279 368.828 260.667 368.828C260.097 368.828 259.549 369.33 259.575 369.92C259.602 370.509 260.056 371.011 260.667 371.011Z" fill="#313332"/>
<path d="M257.336 381.534L258.622 385.181L259.674 383.8C258.628 383.85 257.588 384.054 256.617 384.449C256.343 384.561 256.121 384.685 255.965 384.952C255.828 385.186 255.77 385.531 255.854 385.793C255.939 386.055 256.103 386.312 256.356 386.445C256.61 386.577 256.932 386.663 257.198 386.555C257.849 386.29 258.526 386.108 259.222 386.011L258.932 386.05C259.179 386.018 259.425 385.996 259.674 385.985C260.025 385.969 260.316 385.833 260.532 385.554C260.731 385.295 260.841 384.925 260.727 384.602L259.441 380.955C259.345 380.685 259.194 380.452 258.939 380.303C258.705 380.166 258.36 380.108 258.098 380.193C257.566 380.364 257.132 380.958 257.335 381.536L257.336 381.534Z" fill="#313332"/>
<path d="M262.381 379.553C262.2 379.988 262.104 380.47 262.094 380.94C262.088 381.212 262.122 381.496 262.187 381.759C262.219 381.892 262.27 382.014 262.324 382.139C262.378 382.264 262.427 382.388 262.502 382.503C262.81 382.982 263.238 383.306 263.777 383.484C263.997 383.557 264.241 383.587 264.471 383.59C264.582 383.591 264.69 383.575 264.801 383.561C264.917 383.545 265.032 383.533 265.144 383.498C265.464 383.399 265.718 383.252 265.967 383.031C266.216 382.81 266.364 382.517 266.469 382.212C266.558 381.954 266.494 381.601 266.358 381.371C266.223 381.141 265.967 380.928 265.706 380.869C265.427 380.805 265.114 380.819 264.865 380.979C264.616 381.139 264.46 381.352 264.362 381.631C264.354 381.654 264.346 381.676 264.336 381.7L264.447 381.439C264.421 381.496 264.39 381.55 264.352 381.601L264.522 381.379C264.48 381.433 264.432 381.481 264.377 381.523L264.598 381.353C264.536 381.4 264.47 381.436 264.4 381.468L264.661 381.358C264.565 381.397 264.466 381.423 264.362 381.436L264.652 381.397C264.537 381.41 264.422 381.408 264.308 381.394L264.598 381.433C264.482 381.416 264.37 381.387 264.262 381.343L264.522 381.454C264.423 381.411 264.33 381.358 264.244 381.292L264.466 381.462C264.402 381.41 264.343 381.353 264.291 381.288L264.461 381.509C264.38 381.403 264.314 381.289 264.262 381.167L264.372 381.427C264.314 381.285 264.276 381.136 264.255 380.984L264.294 381.273C264.269 381.071 264.272 380.869 264.297 380.666L264.257 380.956C264.297 380.672 264.375 380.396 264.485 380.131C264.585 379.888 264.501 379.505 264.374 379.29C264.241 379.062 263.982 378.847 263.722 378.787C263.442 378.723 263.129 378.738 262.88 378.898L262.659 379.068C262.524 379.205 262.43 379.365 262.378 379.55L262.381 379.553Z" fill="#313332"/>
<path d="M281.239 368.518C282.031 368.355 282.808 368.128 283.562 367.834C283.996 367.665 284.426 367.482 284.845 367.278C285.209 367.102 285.554 366.88 285.924 366.715L285.663 366.826C285.738 366.797 285.81 366.776 285.889 366.765L285.599 366.804C285.641 366.8 285.682 366.8 285.724 366.804L285.435 366.765C285.547 366.782 285.647 366.817 285.752 366.861L285.492 366.75C287.977 367.842 290.453 368.95 292.935 370.049C293.214 370.173 293.473 370.243 293.777 370.16C294.03 370.09 294.305 369.895 294.429 369.658C294.563 369.405 294.63 369.097 294.54 368.817C294.458 368.563 294.292 368.277 294.038 368.165L289.98 366.366L287.918 365.452L286.921 365.01C286.696 364.909 286.471 364.803 286.24 364.717C285.94 364.605 285.623 364.606 285.31 364.657C284.884 364.727 284.502 365.005 284.124 365.202C283.785 365.379 283.439 365.541 283.086 365.691L283.347 365.58C282.479 365.944 281.581 366.223 280.659 366.412C280.099 366.527 279.723 367.22 279.897 367.756C280.089 368.349 280.639 368.642 281.24 368.518H281.239Z" fill="#313332"/>
<path d="M282.746 364.276C283.316 364.276 283.864 363.774 283.838 363.184C283.811 362.595 283.357 362.093 282.746 362.093C282.175 362.093 281.628 362.595 281.654 363.184C281.68 363.774 282.134 364.276 282.746 364.276Z" fill="#313332"/>
<path d="M292.087 365.18C292.657 365.18 293.205 364.678 293.179 364.089C293.152 363.499 292.698 362.997 292.087 362.997C291.516 362.997 290.969 363.499 290.995 364.089C291.021 364.678 291.475 365.18 292.087 365.18Z" fill="#313332"/>
<path d="M285.722 381.71L285.707 383.995L286.799 382.904L284.253 382.869C283.974 382.864 283.676 382.994 283.481 383.189C283.286 383.384 283.149 383.69 283.161 383.96C283.187 384.558 283.64 385.043 284.253 385.052L286.799 385.087C287.391 385.095 287.886 384.58 287.891 383.995L287.905 381.71C287.907 381.432 287.782 381.135 287.585 380.939C287.388 380.743 287.084 380.607 286.813 380.619C286.218 380.645 285.726 381.098 285.722 381.71Z" fill="#313332"/>
<path d="M293.858 382.766L293.873 384.067C293.876 384.336 293.989 384.652 294.193 384.838L294.415 385.009C294.585 385.108 294.768 385.157 294.966 385.157L296.76 385.354C296.91 385.359 297.051 385.327 297.181 385.259C297.316 385.215 297.433 385.14 297.532 385.033C297.721 384.844 297.864 384.533 297.852 384.262C297.84 383.991 297.747 383.687 297.532 383.491L297.31 383.32C297.14 383.221 296.957 383.172 296.759 383.172L294.965 382.976L296.057 384.067L296.042 382.766C296.039 382.484 295.923 382.194 295.722 381.995C295.533 381.805 295.221 381.663 294.95 381.674C294.68 381.686 294.375 381.779 294.179 381.995C293.982 382.21 293.856 382.472 293.858 382.766Z" fill="#313332"/>
<path d="M298.749 359.905C299.675 360.045 300.598 360.211 301.515 360.403C301.968 360.498 302.419 360.6 302.869 360.707C303.319 360.815 303.783 360.908 304.221 361.057L303.961 360.946C304.07 361.004 304.041 360.965 303.872 360.828C303.738 360.662 303.697 360.629 303.751 360.728L303.641 360.467C303.652 360.498 303.661 360.528 303.665 360.56L303.626 360.271C303.635 360.358 303.63 360.441 303.62 360.527L303.66 360.237C303.395 362.067 303.264 363.892 303.371 365.741C303.405 366.31 303.85 366.86 304.463 366.833C305.027 366.808 305.59 366.351 305.555 365.741C305.463 364.183 305.522 362.618 305.727 361.07L305.688 361.359C305.734 361.019 305.827 360.664 305.816 360.322C305.794 359.67 305.411 359.17 304.802 358.952C304.523 358.852 304.221 358.794 303.933 358.721C303.623 358.642 303.312 358.568 303 358.497C301.786 358.217 300.563 357.986 299.331 357.8C299.03 357.754 298.763 357.75 298.49 357.91C298.263 358.043 298.047 358.302 297.987 358.562C297.923 358.842 297.938 359.154 298.098 359.403C298.242 359.626 298.477 359.863 298.75 359.905H298.749Z" fill="#313332"/>
<path d="M310.292 375.928C311.134 377.311 312.553 378.178 314.092 378.59C315.631 379.002 317.259 379.081 318.764 378.753C319.76 378.536 320.658 378.011 321.22 377.148C321.532 376.668 321.332 375.921 320.829 375.655C320.284 375.367 319.668 375.534 319.335 376.046C319.318 376.075 319.299 376.103 319.278 376.131C319.213 376.22 319.239 376.186 319.357 376.03C319.322 376.064 319.291 376.106 319.258 376.142C319.224 376.179 319.188 376.212 319.152 376.246C319.12 376.275 318.94 376.417 319.111 376.286C319.281 376.156 319.096 376.291 319.06 376.316C319.018 376.342 318.975 376.368 318.932 376.393C318.83 376.451 318.724 376.5 318.614 376.547L318.875 376.436C318.504 376.588 318.114 376.677 317.716 376.73L318.006 376.691C317.163 376.797 316.298 376.774 315.457 376.661L315.746 376.7C315.062 376.605 314.388 376.439 313.75 376.172L314.011 376.282C313.795 376.189 313.584 376.087 313.38 375.969C313.28 375.911 313.181 375.85 313.085 375.786C313.03 375.749 312.977 375.71 312.923 375.672C312.765 375.562 313.152 375.856 312.968 375.707C312.785 375.559 312.622 375.403 312.468 375.233C312.428 375.189 312.39 375.146 312.354 375.1C312.332 375.074 312.312 375.049 312.291 375.023C312.405 375.172 312.437 375.212 312.386 375.144C312.313 375.041 312.242 374.936 312.176 374.828C311.879 374.341 311.183 374.114 310.683 374.437C310.182 374.76 309.974 375.407 310.291 375.93L310.292 375.928Z" fill="#313332"/>
<path d="M314.989 372.863C315.56 372.863 316.107 372.361 316.081 371.771C316.055 371.182 315.601 370.68 314.989 370.68C314.419 370.68 313.871 371.182 313.897 371.771C313.924 372.361 314.378 372.863 314.989 372.863Z" fill="#313332"/>
<path d="M318.606 373.012C319.176 373.012 319.724 372.51 319.697 371.921C319.671 371.331 319.217 370.829 318.606 370.829C318.035 370.829 317.487 371.331 317.514 371.921C317.54 372.51 317.994 373.012 318.606 373.012Z" fill="#313332"/>
<path d="M313.469 383.999C313.461 384.072 313.452 384.144 313.442 384.217L313.481 383.928C313.442 384.206 313.389 384.479 313.284 384.741L313.395 384.481C313.34 384.612 313.273 384.732 313.187 384.846L313.357 384.625C313.295 384.702 313.226 384.77 313.149 384.831L313.37 384.661C313.296 384.715 313.22 384.76 313.137 384.799L313.398 384.689C313.302 384.729 313.204 384.756 313.101 384.773L313.391 384.734C313.241 384.754 313.092 384.75 312.942 384.731L313.232 384.77C313.009 384.735 312.797 384.668 312.589 384.582L312.849 384.693C312.593 384.585 312.35 384.453 312.111 384.31C311.62 384.018 310.891 384.184 310.617 384.702C310.344 385.22 310.485 385.882 311.009 386.195C311.936 386.748 313.049 387.185 314.107 386.738C314.628 386.518 315.053 386.099 315.28 385.581C315.391 385.329 315.483 385.085 315.537 384.815C315.591 384.546 315.621 384.272 315.653 384C315.685 383.728 315.509 383.405 315.333 383.229C315.144 383.04 314.832 382.897 314.561 382.909C314.29 382.921 313.986 383.014 313.79 383.229L313.619 383.45C313.52 383.621 313.471 383.804 313.471 384.002L313.469 383.999Z" fill="#313332"/>
<path d="M320.555 385.319C320.574 385.389 320.587 385.457 320.599 385.528L320.559 385.239C320.615 385.667 320.537 386.093 320.505 386.518C320.465 387.071 320.53 387.694 320.856 388.161C321.059 388.451 321.305 388.716 321.622 388.881C321.963 389.059 322.27 389.127 322.649 389.17C323.145 389.225 323.66 389.129 324.144 389.023C324.703 388.9 325.081 388.221 324.907 387.679C324.716 387.093 324.161 386.786 323.563 386.917C323.395 386.953 323.228 386.985 323.058 387.008L323.347 386.969C323.107 387 322.867 387.013 322.627 386.982L322.916 387.022C322.784 387.003 322.656 386.971 322.532 386.918L322.793 387.029C322.708 386.991 322.631 386.944 322.557 386.889L322.778 387.059C322.714 387.007 322.657 386.95 322.605 386.888L322.775 387.109C322.717 387.032 322.67 386.952 322.631 386.864L322.742 387.125C322.697 387.013 322.669 386.896 322.651 386.777L322.691 387.067C322.651 386.72 322.701 386.374 322.733 386.029C322.774 385.597 322.769 385.162 322.657 384.737C322.512 384.185 321.871 383.794 321.313 383.974C320.756 384.155 320.395 384.725 320.551 385.317L320.555 385.319Z" fill="#313332"/>
<path d="M313.078 383.033C314.362 383.862 315.708 384.622 317.172 385.086C318.635 385.55 320.174 385.63 321.679 385.326C324.514 384.754 326.964 382.775 328.254 380.208C329.008 378.707 329.417 377.064 329.465 375.386C329.481 374.814 328.951 374.269 328.373 374.295C327.795 374.321 327.299 374.774 327.281 375.386C327.271 375.762 327.24 376.134 327.191 376.505L327.23 376.216C327.108 377.096 326.874 377.956 326.531 378.777L326.642 378.517C326.419 379.042 326.153 379.549 325.841 380.026C325.766 380.141 325.688 380.254 325.608 380.366C325.573 380.414 325.539 380.461 325.504 380.509C325.435 380.599 325.457 380.572 325.566 380.429C325.541 380.46 325.518 380.49 325.493 380.521C325.322 380.735 325.138 380.941 324.946 381.139C324.754 381.337 324.557 381.519 324.349 381.694C324.289 381.743 324.23 381.793 324.169 381.841C324.017 381.964 324.375 381.688 324.205 381.813C324.096 381.893 323.985 381.973 323.873 382.05C323.407 382.367 322.909 382.634 322.391 382.854L322.652 382.743C321.989 383.018 321.296 383.21 320.586 383.308L320.875 383.268C320.216 383.354 319.552 383.356 318.891 383.268L319.181 383.308C318.377 383.196 317.601 382.96 316.854 382.65L317.115 382.76C316.084 382.325 315.119 381.755 314.181 381.149C313.701 380.839 312.954 381.036 312.687 381.541C312.401 382.084 312.567 382.702 313.079 383.034L313.078 383.033Z" fill="#313332"/>
<path d="M383.579 424.652C383.579 424.652 396.87 460.072 421.401 427.268L416.588 425.63C416.588 425.63 410.471 436.929 402.491 436.035C402.491 436.035 399.206 423.073 410.162 421.955L398.535 416.553L383.579 424.652Z" fill="#313332"/>
<path d="M395.973 509.405C396.497 512.217 397.053 515.021 397.64 517.819C398.227 520.618 398.838 523.388 399.483 526.161C399.665 526.943 399.848 527.723 400.035 528.501C400.221 529.28 400.444 530.016 400.552 530.788L400.473 530.207C400.508 530.482 400.518 530.756 400.48 531.032L400.559 530.452C400.531 530.619 400.487 530.778 400.423 530.933L400.643 530.412C400.56 530.596 400.455 530.762 400.335 530.922L400.677 530.479C400.182 531.109 399.575 531.664 399.021 532.242L397.247 534.09C396.995 534.352 396.782 534.701 396.685 535.053L396.606 535.634C396.594 535.935 396.657 536.215 396.794 536.475C396.846 536.66 396.939 536.82 397.075 536.957C397.172 537.121 397.302 537.251 397.467 537.348C397.603 537.484 397.764 537.577 397.948 537.629C398.209 537.766 398.489 537.829 398.79 537.817C401.21 538.047 403.648 538.072 406.072 537.885C406.69 537.837 407.307 537.776 407.921 537.702C408.348 537.65 408.783 537.616 409.204 537.519C409.78 537.383 410.274 537.092 410.718 536.711C410.929 536.529 411.097 536.286 411.251 536.057C411.414 535.816 411.514 535.518 411.619 535.253C411.724 534.988 411.807 534.719 411.893 534.449C412.072 533.889 412.239 533.323 412.394 532.755C413.055 530.316 413.474 527.81 413.692 525.294C413.911 522.778 413.8 520.445 413.854 518.017C413.908 515.59 414.157 513.142 414.428 510.715C414.463 510.405 414.497 510.096 414.532 509.786C414.544 509.485 414.481 509.205 414.345 508.945C414.257 508.674 414.106 508.44 413.893 508.242C413.515 507.864 412.893 507.578 412.349 507.603C411.804 507.628 411.198 507.814 410.804 508.242L410.462 508.684C410.264 509.025 410.165 509.392 410.163 509.786C409.909 512.046 409.654 514.309 409.539 516.581C409.424 518.853 409.527 521.122 409.443 523.39C409.396 524.638 409.288 525.88 409.124 527.117L409.202 526.537C409.028 527.831 408.792 529.114 408.49 530.385C408.341 531.013 408.176 531.639 407.995 532.261C407.815 532.882 407.645 533.499 407.409 534.091L407.629 533.57C407.575 533.697 407.512 533.813 407.429 533.924L407.771 533.482C407.722 533.54 407.669 533.591 407.61 533.64L408.052 533.298C407.977 533.352 407.899 533.396 407.815 533.435L408.336 533.215C408.127 533.301 407.905 533.34 407.682 533.371L408.263 533.292C405.823 533.611 403.354 533.712 400.895 533.599C400.193 533.567 399.492 533.517 398.791 533.451L400.336 537.178L402.36 535.071C402.689 534.729 403.019 534.387 403.347 534.043C403.74 533.631 404.142 533.186 404.392 532.672C404.728 531.984 404.919 531.236 404.868 530.465C404.827 529.856 404.71 529.258 404.567 528.669C404.341 527.739 404.118 526.807 403.9 525.876C403.022 522.137 402.198 518.386 401.431 514.622C400.999 512.5 400.584 510.374 400.186 508.245C400.09 507.733 399.617 507.194 399.183 506.941C398.714 506.667 398.026 506.551 397.5 506.721C396.974 506.892 396.462 507.219 396.196 507.724L395.976 508.245C395.872 508.632 395.872 509.019 395.976 509.406L395.973 509.405Z" fill="#313332"/>
<path d="M444.784 509.434C444.822 512.609 444.956 515.783 445.189 518.95C445.435 522.289 445.799 525.616 446.249 528.932C446.489 530.706 446.761 532.477 447.063 534.241L447.283 534.762C447.419 535.017 447.607 535.221 447.845 535.375C447.981 535.51 448.142 535.603 448.326 535.656C448.587 535.793 448.867 535.855 449.168 535.844L457.905 536.896C459.345 537.069 460.968 537.462 462.299 536.647C462.517 536.513 462.743 536.346 462.922 536.158C463.261 535.803 463.441 535.452 463.61 534.997C463.632 534.938 463.648 534.884 463.66 534.823C463.706 534.598 463.752 534.345 463.747 534.11C463.741 533.809 463.704 533.486 463.591 533.201C463.417 532.755 463.303 532.531 463.029 532.176C462.881 531.985 462.741 531.802 462.565 531.638C462.319 531.409 462.053 531.201 461.795 530.986L459.923 529.421L458.986 528.64C458.7 528.4 458.382 528.174 458.141 527.887L458.483 528.33C458.423 528.253 458.375 528.175 458.334 528.087L458.554 528.608C458.525 528.529 458.506 528.453 458.494 528.37L458.573 528.951C458.567 528.867 458.569 528.785 458.576 528.701L458.497 529.281C458.538 528.985 458.647 528.702 458.74 528.417C458.834 528.132 458.931 527.835 459.024 527.544C459.216 526.95 459.404 526.356 459.589 525.76C459.963 524.558 460.324 523.351 460.671 522.14C461.362 519.732 462 517.307 462.585 514.87C462.914 513.496 463.227 512.119 463.522 510.738C463.644 510.164 463.605 509.572 463.302 509.056C463.037 508.603 462.517 508.171 461.997 508.053C461.438 507.926 460.811 507.952 460.314 508.273C459.851 508.571 459.429 509.022 459.311 509.577C458.577 513.005 457.74 516.412 456.797 519.79C456.328 521.468 455.834 523.137 455.315 524.801C455.056 525.632 454.789 526.461 454.517 527.288C454.454 527.48 454.384 527.67 454.335 527.865C454.189 528.437 454.182 528.953 454.283 529.529C454.399 530.195 454.834 530.824 455.341 531.259C456.095 531.91 456.868 532.537 457.633 533.174L458.788 534.141C459.128 534.425 459.495 534.692 459.77 535.04L459.428 534.598C459.495 534.687 459.551 534.778 459.599 534.88L459.38 534.359C459.413 534.442 459.438 534.522 459.451 534.611L459.372 534.03C459.378 534.101 459.378 534.168 459.368 534.24L459.447 533.659C459.435 533.719 459.419 533.776 459.397 533.832L459.617 533.311C459.589 533.372 459.556 533.426 459.515 533.479L459.857 533.036C459.815 533.086 459.768 533.129 459.716 533.169L460.158 532.827C460.091 532.873 460.022 532.911 459.947 532.945L460.469 532.725C460.332 532.78 460.192 532.812 460.048 532.834L460.629 532.755C460.011 532.834 459.378 532.7 458.767 532.626L456.43 532.345L451.791 531.786L449.167 531.47L451.272 533.073C450.962 531.261 450.684 529.443 450.437 527.621L450.516 528.202C450.19 525.776 449.921 523.344 449.71 520.905C449.498 518.467 449.347 516.024 449.252 513.577C449.199 512.193 449.165 510.809 449.149 509.424C449.142 508.861 448.91 508.281 448.51 507.88C448.131 507.501 447.51 507.216 446.965 507.241C446.421 507.265 445.815 507.452 445.421 507.88C445.026 508.308 444.774 508.834 444.781 509.424L444.784 509.434Z" fill="#313332"/>
<path d="M184.067 516.142C184.172 516.578 184.249 517.02 184.335 517.459C184.519 518.389 184.698 519.319 184.874 520.249C185.325 522.621 185.765 524.998 186.171 527.379C186.356 528.459 186.537 529.54 186.684 530.626L186.605 530.045C186.644 530.338 186.682 530.63 186.707 530.924C186.72 531.083 186.74 531.251 186.72 531.412L186.799 530.831C186.793 530.87 186.78 530.898 186.764 530.936L186.983 530.415C186.901 530.598 186.796 530.764 186.675 530.924L187.017 530.482C186.522 531.112 185.915 531.666 185.362 532.244L183.587 534.092C183.335 534.354 183.122 534.704 183.025 535.056L182.946 535.636C182.935 535.938 182.997 536.217 183.134 536.478C183.187 536.662 183.28 536.822 183.415 536.959C183.513 537.124 183.642 537.253 183.807 537.351C183.944 537.486 184.104 537.579 184.289 537.632C184.549 537.768 184.829 537.831 185.13 537.819C187.029 538 188.937 538.055 190.843 537.979C191.795 537.942 192.746 537.872 193.694 537.77C194.299 537.704 194.922 537.659 195.516 537.527C195.608 537.506 195.697 537.48 195.784 537.448C196.025 537.361 196.284 537.266 196.504 537.132C196.975 536.846 197.307 536.495 197.606 536.035C197.919 535.552 198.077 534.933 198.252 534.385C198.392 533.945 198.524 533.501 198.649 533.058C198.898 532.168 199.115 531.269 199.302 530.364C199.706 528.387 199.976 526.375 200.101 524.362C200.233 522.226 200.146 520.085 200.194 517.947C200.207 517.395 199.942 516.79 199.555 516.403C199.168 516.016 198.555 515.739 198.01 515.764C197.466 515.789 196.86 515.975 196.466 516.403C196.071 516.831 195.84 517.35 195.827 517.947C195.773 520.341 195.873 522.734 195.678 525.122C195.623 525.79 195.551 526.455 195.463 527.12L195.541 526.539C195.366 527.833 195.131 529.117 194.829 530.387C194.679 531.016 194.515 531.642 194.334 532.263C194.154 532.884 193.983 533.501 193.748 534.094L193.967 533.573C193.913 533.699 193.851 533.816 193.768 533.926L194.11 533.484C194.061 533.542 194.008 533.593 193.948 533.643L194.391 533.301C194.315 533.354 194.238 533.398 194.154 533.437L194.675 533.218C194.465 533.303 194.244 533.343 194.021 533.373L194.602 533.295C192.162 533.613 189.693 533.714 187.234 533.602C186.532 533.57 185.83 533.519 185.13 533.453L186.675 537.18L188.374 535.411C188.914 534.849 189.488 534.305 189.991 533.71C190.425 533.199 190.796 532.685 191 532.039C191.067 531.826 191.082 531.596 191.092 531.374C191.098 531.256 191.092 531.137 191.082 531.019C190.987 529.737 190.754 528.456 190.545 527.187C190.277 525.564 189.986 523.944 189.69 522.327C189.394 520.711 189.112 519.222 188.814 517.67C188.646 516.805 188.486 515.936 188.3 515.074C188.292 515.044 188.287 515.013 188.279 514.984C188.153 514.462 187.735 513.948 187.276 513.68C186.818 513.412 186.119 513.29 185.593 513.46C185.068 513.631 184.555 513.958 184.289 514.463C184.022 514.968 183.926 515.556 184.069 516.145L184.067 516.142Z" fill="#313332"/>
<path d="M219.083 514.982C218.579 517.335 218.04 519.681 217.312 521.976C216.975 523.04 216.612 524.096 216.254 525.154C216.012 525.867 215.774 526.581 215.536 527.295C215.474 527.486 215.404 527.675 215.354 527.868C215.209 528.44 215.201 528.956 215.302 529.532C215.418 530.198 215.854 530.827 216.36 531.262C217.114 531.913 217.887 532.54 218.652 533.177L219.808 534.144C220.147 534.428 220.514 534.695 220.789 535.043L220.447 534.601C220.514 534.69 220.571 534.781 220.619 534.883L220.399 534.362C220.432 534.445 220.457 534.525 220.47 534.614L220.392 534.033C220.397 534.105 220.397 534.171 220.387 534.243L220.466 533.662C220.39 534.035 220.309 534.42 220.163 534.772L220.383 534.251C220.335 534.361 220.28 534.465 220.208 534.56L220.55 534.118C220.512 534.164 220.473 534.205 220.427 534.243L220.869 533.901C220.833 533.928 220.795 533.95 220.754 533.969L221.275 533.749C221.232 533.767 221.189 533.779 221.144 533.786L221.725 533.707C221.577 533.723 221.425 533.69 221.278 533.675C221.098 533.656 220.916 533.642 220.735 533.629C220.364 533.602 219.993 533.588 219.621 533.581C218.853 533.566 218.084 533.583 217.317 533.611C215.771 533.668 214.226 533.771 212.678 533.77C211.847 533.77 211.014 533.736 210.187 533.639L212.371 535.822L212.111 533.696L211.49 528.628L210.741 522.504L210.09 517.195C209.985 516.337 209.88 515.476 209.774 514.618L209.769 514.583C209.781 514.282 209.719 514.002 209.582 513.742C209.494 513.471 209.343 513.237 209.13 513.039C208.752 512.66 208.13 512.375 207.586 512.4C207.041 512.425 206.436 512.611 206.041 513.039C205.677 513.435 205.333 514.023 205.402 514.583L205.662 516.709L206.283 521.777L207.032 527.9L207.683 533.209C207.788 534.068 207.893 534.928 207.999 535.787L208.003 535.822C207.992 536.123 208.054 536.402 208.191 536.663C208.279 536.934 208.43 537.168 208.643 537.366L209.085 537.708C209.426 537.906 209.793 538.005 210.187 538.006C213.057 538.345 215.954 537.961 218.831 537.944C219.527 537.939 220.224 537.954 220.917 538.009C221.409 538.048 221.842 538.131 222.34 537.99C223.075 537.781 223.605 537.324 224.026 536.701C224.181 536.469 224.274 536.186 224.376 535.931C224.426 535.809 224.468 535.684 224.504 535.555C224.573 535.314 224.631 535.066 224.679 534.821C224.781 534.305 224.797 533.866 224.663 533.348C224.603 533.118 224.491 532.889 224.391 532.677C224.352 532.594 224.306 532.515 224.253 532.44C223.947 532.002 223.63 531.665 223.226 531.329L221.162 529.605L220.116 528.73C219.795 528.461 219.432 528.208 219.161 527.886L219.504 528.328C219.444 528.251 219.396 528.174 219.355 528.085L219.575 528.606C219.546 528.528 219.527 528.452 219.515 528.369L219.594 528.95C219.588 528.865 219.589 528.784 219.597 528.699L219.518 529.28C219.559 528.985 219.667 528.704 219.76 528.421C219.853 528.139 219.939 527.882 220.029 527.612C220.191 527.128 220.354 526.645 220.518 526.161C220.783 525.377 221.05 524.594 221.307 523.808C221.766 522.408 222.174 520.994 222.523 519.562C222.8 518.425 223.052 517.284 223.296 516.14C223.418 515.567 223.379 514.974 223.076 514.458C222.811 514.005 222.292 513.573 221.772 513.455C221.213 513.328 220.585 513.355 220.089 513.675C219.626 513.973 219.204 514.424 219.086 514.979L219.083 514.982Z" fill="#313332"/>
<path d="M495.416 459.676C495.349 459.768 495.28 459.856 495.212 459.947L495.554 459.504C494.9 460.345 494.14 461.096 493.3 461.75L493.743 461.408C492.782 462.149 491.728 462.757 490.611 463.231L491.132 463.012C489.869 463.543 488.539 463.901 487.181 464.084L487.762 464.006C486.421 464.182 485.064 464.186 483.723 464.009L484.304 464.087C483.065 463.92 481.853 463.597 480.7 463.112L481.221 463.332C480.223 462.905 479.281 462.361 478.422 461.697L478.865 462.039C478.587 461.823 478.322 461.594 478.104 461.316L478.446 461.759C478.354 461.636 478.278 461.51 478.214 461.37L478.434 461.891C478.386 461.772 478.351 461.652 478.329 461.526L478.408 462.106C478.392 461.977 478.389 461.852 478.402 461.722L478.324 462.303C478.345 462.141 478.389 461.987 478.449 461.834L478.229 462.355C478.444 461.849 478.804 461.424 479.117 460.977C479.277 460.75 479.427 460.514 479.544 460.261C479.672 459.986 479.804 459.696 479.889 459.402C479.973 459.108 480.007 458.772 480.04 458.458C480.088 458.011 480.017 457.54 479.922 457.106C479.827 456.672 479.634 456.239 479.43 455.843C479.073 455.147 478.54 454.515 477.981 453.971C477.422 453.427 476.756 452.926 476.105 452.459L474.154 451.061L470.252 448.263L465.828 445.092L465.306 444.873C465.017 444.781 464.726 444.769 464.436 444.833C464.006 444.891 463.462 445.076 463.182 445.434C461.319 447.815 459.55 450.265 457.912 452.807C456.361 455.213 454.923 457.691 453.603 460.231C453.269 460.871 452.937 461.511 452.627 462.163C452.317 462.815 452.08 463.406 452.086 464.113C452.093 464.966 452.444 465.697 452.994 466.327C453.301 466.679 453.71 466.942 454.084 467.216L455.018 467.899L456.884 469.264L464.453 474.801C464.74 475.011 465.021 475.235 465.33 475.411C465.905 475.737 466.551 475.951 467.217 475.955C468.421 475.962 469.36 475.273 470.141 474.433C471.191 473.305 472.241 472.177 473.291 471.049L474.071 470.211H470.983C472.255 471.557 473.781 472.71 475.415 473.582C477.055 474.458 478.837 475.117 480.662 475.489C482.486 475.862 484.38 476.027 486.245 475.896C488.103 475.765 489.96 475.424 491.709 474.776C492.754 474.389 493.784 473.934 494.747 473.372C495.711 472.81 496.618 472.138 497.464 471.41C497.869 471.061 498.103 470.384 498.103 469.866C498.103 469.348 497.866 468.692 497.464 468.322C497.062 467.952 496.502 467.657 495.919 467.683C495.337 467.709 494.833 467.928 494.375 468.322C494.168 468.5 493.957 468.673 493.74 468.84L494.182 468.498C493.121 469.315 491.958 469.984 490.726 470.508L491.247 470.288C489.834 470.883 488.344 471.281 486.824 471.487L487.405 471.409C485.762 471.629 484.095 471.626 482.451 471.406L483.032 471.484C481.47 471.271 479.94 470.862 478.487 470.252L479.008 470.472C477.724 469.929 476.508 469.232 475.4 468.383L475.843 468.725C475.211 468.238 474.618 467.704 474.071 467.124C473.282 466.29 471.771 466.277 470.983 467.124L468.671 469.609L467.544 470.819C467.19 471.199 466.854 471.617 466.446 471.94L466.889 471.598C466.781 471.678 466.671 471.746 466.548 471.802L467.07 471.582C466.987 471.614 466.904 471.639 466.816 471.656L467.397 471.578C467.276 471.594 467.161 471.592 467.04 471.578L467.621 471.656C467.502 471.634 467.39 471.599 467.278 471.556L467.799 471.776C467.394 471.598 467.046 471.319 466.692 471.06L465.552 470.226L463.236 468.532L458.605 465.144C457.746 464.515 456.875 463.899 456.028 463.256L456.471 463.598C456.315 463.476 456.168 463.348 456.043 463.195L456.385 463.637C456.321 463.55 456.268 463.463 456.225 463.364L456.444 463.885C456.42 463.818 456.404 463.757 456.389 463.688L456.468 464.269C456.455 464.167 456.455 464.071 456.465 463.968L456.386 464.548C456.414 464.367 456.469 464.199 456.539 464.03L456.319 464.551C456.814 463.426 457.42 462.338 458.002 461.257C458.588 460.169 459.195 459.095 459.822 458.033C461.065 455.932 462.392 453.878 463.797 451.881C464.597 450.743 465.424 449.623 466.275 448.523L465.932 448.965C466.045 448.819 466.158 448.674 466.272 448.53L463.625 448.872C466.458 450.902 469.293 452.934 472.126 454.964C472.896 455.515 473.681 456.051 474.432 456.629L473.989 456.287C474.561 456.732 475.103 457.221 475.55 457.793L475.208 457.35C475.428 457.639 475.62 457.944 475.766 458.277L475.546 457.756C475.639 457.981 475.706 458.209 475.744 458.449L475.665 457.869C475.694 458.088 475.694 458.305 475.665 458.525L475.744 457.944C475.712 458.148 475.655 458.342 475.576 458.532L475.796 458.011C475.592 458.47 475.282 458.865 474.991 459.27C474.627 459.774 474.307 460.329 474.151 460.936C473.905 461.901 474.032 462.955 474.562 463.806C475.038 464.572 475.687 465.08 476.397 465.611C477.115 466.146 477.893 466.603 478.709 466.974C479.696 467.423 480.708 467.805 481.765 468.053C485.833 469.003 490.179 468.438 493.878 466.507C494.919 465.964 495.88 465.282 496.778 464.53C497.677 463.777 498.474 462.854 499.186 461.887C499.501 461.457 499.542 460.695 499.406 460.204C499.271 459.714 498.875 459.149 498.403 458.9C497.896 458.633 497.282 458.499 496.72 458.681L496.199 458.9C495.871 459.094 495.609 459.356 495.416 459.683V459.676Z" fill="#313332"/>
<path d="M347.563 456.941L351.967 449.843C352.127 449.593 352.213 449.322 352.226 449.031C352.292 448.741 352.279 448.45 352.187 448.161L351.967 447.64C351.773 447.312 351.511 447.05 351.184 446.857L340.492 439.325L335.146 435.559C334.709 435.252 334.281 434.907 333.819 434.639C333.396 434.393 332.968 434.249 332.49 434.185C332.074 434.13 331.825 434.131 331.381 434.227C331.11 434.286 330.841 434.405 330.599 434.532C330.033 434.829 329.627 435.303 329.229 435.785C328.916 436.163 328.605 436.544 328.297 436.929C325.68 440.197 323.257 443.619 321.089 447.203C320.569 448.063 320.063 448.932 319.571 449.81C319.24 450.397 318.921 450.997 318.715 451.643C318.479 452.378 318.426 453.298 318.691 454.034C318.956 454.771 319.341 455.379 319.904 455.902C320.361 456.326 320.881 456.689 321.376 457.069C322.194 457.697 323.02 458.316 323.852 458.926C327.182 461.365 330.619 463.657 334.151 465.793C334.584 466.054 335.016 466.313 335.45 466.569C335.916 466.844 336.61 466.958 337.133 466.789L337.654 466.569C337.982 466.375 338.244 466.113 338.438 465.786C338.622 465.521 338.813 465.261 339.01 465.006L338.668 465.448C339.484 464.393 340.403 463.421 341.41 462.546L337.98 462.104C339.677 464.331 341.377 466.623 343.565 468.397C344.203 468.913 344.859 469.413 345.56 469.842C346.26 470.271 346.966 470.581 347.706 470.884C348.288 471.123 348.891 471.312 349.505 471.444C350.281 471.613 351.083 471.721 351.877 471.741C352.736 471.762 353.615 471.661 354.449 471.468C355.284 471.274 356.096 470.941 356.836 470.52C357.309 470.251 357.695 469.739 357.839 469.216C357.983 468.694 357.917 467.998 357.619 467.534C357.32 467.07 356.871 466.658 356.314 466.531C355.736 466.4 355.155 466.454 354.631 466.751C354.397 466.885 354.155 467.004 353.908 467.109L354.429 466.889C353.847 467.132 353.238 467.292 352.615 467.381L353.196 467.302C352.43 467.404 351.658 467.396 350.893 467.297L351.474 467.375C350.539 467.249 349.627 466.991 348.758 466.629L349.28 466.848C348.281 466.425 347.361 465.859 346.502 465.198L346.944 465.54C345.094 464.105 343.591 462.29 342.166 460.446L342.508 460.889C342.255 460.561 342.004 460.233 341.753 459.902C341.559 459.575 341.297 459.313 340.969 459.119C340.719 458.959 340.448 458.873 340.157 458.86C339.867 458.795 339.576 458.808 339.286 458.899C338.917 459.003 338.595 459.191 338.323 459.461C336.928 460.671 335.722 462.073 334.665 463.586L337.653 462.803C333.763 460.506 329.983 458.022 326.333 455.362C325.295 454.605 324.269 453.835 323.251 453.051L323.694 453.393C323.315 453.1 322.931 452.81 322.632 452.432L322.975 452.874C322.876 452.743 322.791 452.607 322.723 452.457L322.943 452.978C322.881 452.832 322.842 452.685 322.82 452.53L322.899 453.11C322.884 452.96 322.886 452.816 322.903 452.666L322.825 453.247C322.862 452.987 322.941 452.741 323.042 452.499L322.822 453.02C323.011 452.582 323.256 452.169 323.49 451.754C323.724 451.339 323.966 450.919 324.209 450.504C324.684 449.695 325.17 448.891 325.669 448.097C326.68 446.489 327.74 444.911 328.849 443.368C329.475 442.497 330.117 441.638 330.772 440.788L330.43 441.23C330.854 440.683 331.285 440.139 331.72 439.601C331.931 439.34 332.144 439.081 332.358 438.823C332.572 438.566 332.761 438.32 333.01 438.115L332.567 438.457C332.656 438.388 332.748 438.33 332.85 438.283L332.329 438.503C332.399 438.476 332.466 438.457 332.538 438.442L331.957 438.521C332.039 438.51 332.115 438.51 332.196 438.518L331.615 438.439C331.717 438.455 331.813 438.483 331.909 438.521L331.388 438.301C331.681 438.43 331.936 438.628 332.196 438.81L333.058 439.417L334.78 440.631L338.226 443.058L345.088 447.891L348.98 450.632L348.196 447.646L343.792 454.743C343.498 455.218 343.425 455.893 343.572 456.425C343.72 456.958 344.104 457.481 344.576 457.729C345.082 457.997 345.697 458.131 346.259 457.949C346.821 457.767 347.254 457.443 347.563 456.946V456.941Z" fill="#313332"/>
<path d="M347 462.08C347.423 462.617 347.86 463.148 348.367 463.611C349.112 464.292 349.92 464.822 350.88 465.142C351.022 465.19 351.169 465.228 351.318 465.253C351.666 465.312 352.028 465.372 352.385 465.374C352.874 465.374 353.385 465.305 353.854 465.157C354.815 464.853 355.63 464.323 356.371 463.648C357.061 463.019 357.632 462.25 358.152 461.479C358.456 461.028 358.513 460.309 358.372 459.797C358.23 459.285 357.84 458.742 357.368 458.493C356.862 458.225 356.247 458.091 355.685 458.273C355.124 458.455 354.711 458.785 354.381 459.276C354.224 459.507 354.062 459.736 353.892 459.957L354.234 459.514C353.854 460.003 353.435 460.462 352.946 460.845L353.388 460.503C353.103 460.722 352.8 460.91 352.469 461.054L352.991 460.834C352.73 460.944 352.461 461.021 352.181 461.06L352.762 460.981C352.51 461.012 352.26 461.012 352.008 460.981L352.589 461.06C352.324 461.022 352.069 460.951 351.822 460.849L352.343 461.069C352.011 460.928 351.707 460.74 351.42 460.522L351.862 460.864C351.18 460.335 350.625 459.669 350.093 458.993C349.895 458.781 349.661 458.63 349.39 458.542C349.13 458.405 348.85 458.343 348.549 458.355C348.013 458.355 347.374 458.592 347.004 458.993C346.634 459.395 346.339 459.955 346.365 460.538L346.444 461.118C346.547 461.488 346.735 461.809 347.005 462.082L347 462.08Z" fill="#313332"/>
<path d="M150.333 494.537L150.329 504.026L150.324 513.514L150.321 518.86L152.505 516.677C150.387 516.777 148.302 517.428 146.516 518.579C144.732 519.729 143.204 521.287 142.138 523.127C141.072 524.966 140.465 527.071 140.488 529.184C140.512 531.297 141.154 533.43 142.257 535.241C144.453 538.847 148.437 541.42 152.724 541.424C156.998 541.429 161.024 538.913 163.245 535.324C164.369 533.508 165.001 531.359 164.988 529.22C164.981 528.005 164.79 526.755 164.413 525.598C164.036 524.445 163.51 523.313 162.798 522.328C162.401 521.776 161.952 521.27 161.536 520.734L161.878 521.177C161.689 520.926 161.519 520.667 161.393 520.379L161.613 520.9C161.549 520.739 161.503 520.579 161.472 520.407L161.551 520.987C161.517 520.734 161.523 520.484 161.556 520.231L161.478 520.811C161.597 520.02 161.862 519.243 162.072 518.473L162.704 516.146L163.98 511.449L166.546 502.015L167.986 496.716C168.134 496.168 168.053 495.524 167.766 495.033C167.501 494.581 166.981 494.149 166.461 494.031C165.902 493.904 165.275 493.93 164.778 494.25C164.282 494.571 163.927 494.996 163.775 495.554L160.766 506.626L157.768 517.655C157.63 518.164 157.478 518.673 157.358 519.187C157.16 520.027 157.101 520.839 157.286 521.685C157.366 522.051 157.532 522.409 157.7 522.741C157.797 522.935 157.917 523.117 158.045 523.29C158.412 523.786 158.816 524.246 159.194 524.732L158.851 524.29C159.367 524.963 159.79 525.695 160.124 526.474L159.904 525.953C160.251 526.781 160.489 527.646 160.613 528.535L160.534 527.954C160.645 528.797 160.655 529.648 160.543 530.491L160.622 529.91C160.51 530.716 160.288 531.501 159.975 532.252L160.195 531.731C159.852 532.538 159.405 533.297 158.872 533.994L159.214 533.551C158.636 534.299 157.965 534.969 157.218 535.549L157.66 535.207C156.928 535.769 156.132 536.238 155.282 536.599L155.803 536.379C155.012 536.708 154.187 536.938 153.338 537.054L153.919 536.976C153.127 537.077 152.329 537.077 151.538 536.971L152.119 537.05C151.292 536.933 150.487 536.705 149.719 536.38L150.24 536.6C149.413 536.245 148.637 535.785 147.924 535.236L148.366 535.578C147.619 534.996 146.951 534.325 146.372 533.577L146.714 534.02C146.153 533.288 145.684 532.49 145.323 531.64L145.543 532.161C145.214 531.371 144.983 530.544 144.866 529.696L144.945 530.277C144.841 529.485 144.841 528.688 144.945 527.896L144.866 528.476C144.983 527.628 145.211 526.803 145.54 526.013L145.32 526.534C145.687 525.665 146.168 524.851 146.744 524.105L146.402 524.547C146.984 523.801 147.656 523.131 148.403 522.55L147.96 522.892C148.691 522.331 149.486 521.859 150.334 521.498L149.813 521.718C150.604 521.386 151.431 521.155 152.28 521.037L151.699 521.116C151.969 521.081 152.24 521.056 152.514 521.043C153.064 521.017 153.673 520.823 154.059 520.404C154.444 519.985 154.698 519.452 154.698 518.86L154.702 509.371L154.706 499.882L154.709 494.537C154.709 493.977 154.466 493.389 154.07 492.993C153.674 492.597 153.07 492.329 152.526 492.354C151.342 492.407 150.342 493.313 150.342 494.537H150.333Z" fill="#313332"/>
<path d="M270.646 486.008C271.795 486.073 272.943 486.132 274.093 486.131C275.411 486.129 276.715 486.023 278.017 485.813C279.31 485.605 280.527 485.205 281.718 484.665C282.696 484.223 283.56 483.628 284.404 482.971C285.943 481.775 287.189 480.228 288.252 478.604C289.272 477.044 290.107 475.372 290.893 473.683C291.338 472.726 291.769 471.759 292.206 470.799C292.643 469.838 293.078 468.706 293.749 467.821L293.407 468.264C293.601 468.016 293.818 467.795 294.065 467.6L293.623 467.942C294.41 467.346 295.374 467.038 296.234 466.568C297.155 466.066 298 465.452 298.811 464.791C300.298 463.584 301.566 462.064 302.547 460.423C303.533 458.774 304.267 456.914 304.597 455.019C304.795 453.881 304.92 452.718 304.834 451.563C304.785 450.905 304.698 450.241 304.549 449.598C304.401 448.955 304.162 448.359 303.898 447.758C303.019 445.754 301.253 444.191 299.325 443.218C297.178 442.134 294.798 441.495 292.403 441.301C290.111 441.116 287.828 441.584 285.791 442.642C283.938 443.604 282.358 445.101 281.232 446.852C280.044 448.697 279.442 450.937 279.448 453.126C279.454 455.336 280.067 457.611 281.267 459.477C281.537 459.897 281.836 460.3 282.037 460.762L281.817 460.241C281.895 460.434 281.952 460.631 281.984 460.837L281.906 460.257C281.932 460.479 281.93 460.698 281.906 460.92L281.984 460.34C281.861 461.249 281.43 462.115 281.076 462.955L281.296 462.434C280.53 464.244 279.672 466.043 278.467 467.609L278.809 467.167C278.263 467.869 277.649 468.514 276.945 469.06L277.388 468.718C276.848 469.131 276.263 469.479 275.637 469.747L276.158 469.527C275.436 469.83 274.676 470.013 273.901 470.122L274.482 470.044C273.329 470.198 272.164 470.195 271.003 470.194C269.928 470.194 268.851 470.173 267.785 470.031L268.366 470.109C267.552 469.997 266.751 469.809 265.99 469.494L266.511 469.713C266.144 469.556 265.792 469.373 265.456 469.156C264.991 468.858 264.295 468.792 263.773 468.936C263.25 469.08 262.717 469.467 262.468 469.939C262.2 470.445 262.066 471.059 262.248 471.621C262.43 472.183 262.756 472.606 263.251 472.925C265.329 474.264 267.878 474.523 270.291 474.555C271.417 474.57 272.552 474.581 273.676 474.494C274.43 474.436 275.188 474.343 275.926 474.177C276.611 474.024 277.251 473.772 277.892 473.493C279.847 472.64 281.368 471.058 282.581 469.345C283.756 467.688 284.573 465.816 285.355 463.95C285.582 463.407 285.823 462.862 286.005 462.301C286.308 461.373 286.397 460.345 286.138 459.395C285.937 458.654 285.528 458.017 285.111 457.385C284.791 456.898 284.516 456.386 284.287 455.849L284.507 456.37C284.168 455.556 283.94 454.702 283.822 453.829L283.9 454.409C283.788 453.535 283.788 452.65 283.903 451.775L283.825 452.356C283.94 451.525 284.155 450.714 284.478 449.94L284.258 450.461C284.571 449.723 284.979 449.033 285.465 448.396L285.123 448.838C285.647 448.162 286.254 447.556 286.931 447.031L286.489 447.373C287.169 446.852 287.908 446.417 288.696 446.08L288.175 446.3C288.943 445.979 289.746 445.756 290.57 445.641L289.989 445.72C291.017 445.584 292.053 445.606 293.08 445.738L292.499 445.66C293.981 445.859 295.453 446.257 296.833 446.833L296.312 446.613C297.166 446.974 297.983 447.418 298.721 447.983L298.279 447.641C298.788 448.036 299.25 448.486 299.644 448.997L299.302 448.554C299.646 449.007 299.928 449.498 300.151 450.019L299.931 449.498C300.205 450.152 300.381 450.838 300.48 451.541L300.401 450.96C300.532 451.938 300.513 452.928 300.387 453.904L300.465 453.324C300.298 454.562 299.96 455.77 299.475 456.921L299.695 456.4C299.193 457.579 298.542 458.686 297.76 459.702L298.102 459.26C297.329 460.255 296.435 461.152 295.44 461.924L295.882 461.582C295.375 461.973 294.844 462.329 294.289 462.648C293.69 462.993 293.056 463.265 292.435 463.565C291.647 463.944 290.884 464.458 290.337 465.148C290 465.57 289.693 465.989 289.44 466.465C289.278 466.766 289.134 467.078 288.989 467.386C287.923 469.657 286.96 471.976 285.777 474.188C285.125 475.407 284.405 476.593 283.562 477.688L283.905 477.246C283.148 478.224 282.293 479.123 281.313 479.882L281.756 479.54C280.984 480.13 280.145 480.625 279.25 481.007L279.771 480.787C278.703 481.232 277.577 481.507 276.433 481.663L277.014 481.584C274.901 481.864 272.764 481.758 270.644 481.64C270.104 481.609 269.475 481.904 269.1 482.279C268.724 482.653 268.436 483.278 268.461 483.823C268.485 484.367 268.672 484.972 269.1 485.367C269.528 485.761 270.042 485.972 270.644 486.006L270.646 486.008Z" fill="#313332"/>
</svg>
