<svg width="127" height="126" viewBox="0 0 127 126" fill="none" xmlns="http://www.w3.org/2000/svg">
    <path d="M125.796 63C125.796 97.1198 97.9139 124.796 63.5 124.796C29.0861 124.796 1.20435 97.1198 1.20435 63C1.20435 28.8802 29.0861 1.20435 63.5 1.20435C97.9139 1.20435 125.796 28.8802 125.796 63Z" fill="#E1F4F2" stroke="#C3E9E5" stroke-width="2.4087"/>
    <rect x="24.9102" y="51.644" width="53.1407" height="50.811" fill="#FBA036"/>
    <path d="M69.3321 97.0406L78.4656 81.2142L66.0108 72.8846L85.1084 42.0648L93.4117 46.6461L97.1481 41.2318L76.8052 28.3208L73.0688 34.1516L81.372 39.5659L61.8592 70.8021L50.6498 63.3054L38.195 84.9626C36.8118 86.9051 35.1246 92.0374 39.4336 97.0327M39.4336 97.0327C39.4359 97.0353 39.4382 97.038 39.4405 97.0406M39.4336 97.0327C37.6141 98.6093 36.0886 100.361 35.2891 101.622M39.4336 97.0327C42.023 94.7889 45.2081 92.9009 47.7439 93.2922C53.0981 94.1186 52.7321 93.3054 59.6166 100.612M59.6166 100.612C59.6718 100.67 59.7275 100.729 59.7836 100.789M59.6166 100.612C57.1316 102.148 55.7417 103.835 55.2168 104.954M59.6166 100.612C62.3724 98.9083 66.4749 97.391 72.2382 97.0406C83.1985 96.3742 87.3226 101.205 88.0146 103.704M42.762 90.7933C41.3781 88.5721 44.0075 84.9626 53.5562 72.0516M76.8052 34.1516L78.4656 31.6527L93.4117 41.2318L91.751 43.7307L76.8052 34.1516ZM83.4478 89.9604C82.4791 93.0146 84.2781 97.0406 88.8449 93.2922C95.6611 87.6976 86.3539 82.8802 83.4478 89.9604ZM84.6124 77.9461C85.165 79.1327 86.6314 80.9467 88.0768 78.7101C89.5222 76.4735 88.0257 74.7059 87.0968 74.1016C85.7913 74.0801 83.4668 74.8188 84.6124 77.9461Z" stroke="black"/>
    </svg>
    