<svg width="153" height="152" viewBox="0 0 153 152" fill="none" xmlns="http://www.w3.org/2000/svg">
<path d="M151.748 75.6332C151.748 116.727 118.06 150.062 76.4763 150.062C34.8921 150.062 1.20435 116.727 1.20435 75.6332C1.20435 34.5398 34.8921 1.20435 76.4763 1.20435C118.06 1.20435 151.748 34.5398 151.748 75.6332Z" fill="#E1F4F2" stroke="#C3E9E5" stroke-width="2.4087"/>
<rect x="30" y="62" width="64" height="61" fill="#FBA036"/>
<path d="M83.4997 116.5L94.4997 97.5L79.4997 87.5L102.5 50.5L112.5 56L117 49.5L92.5 34L88 41L98 47.5L74.4997 85L60.9997 76L45.9997 102C44.3339 104.332 42.3019 110.493 47.4915 116.49M47.4915 116.49C47.4942 116.494 47.497 116.497 47.4997 116.5M47.4915 116.49C45.3001 118.383 43.4629 120.487 42.5 122M47.4915 116.49C50.6101 113.797 54.446 111.53 57.5 112C63.9483 112.992 63.5075 112.016 71.7989 120.787M71.7989 120.787C71.8654 120.857 71.9324 120.928 72 121M71.7989 120.787C68.8061 122.631 67.1322 124.657 66.5 126M71.7989 120.787C75.1178 118.742 80.0587 116.921 86.9997 116.5C100.2 115.7 105.167 121.5 106 124.5M51.5 109C49.8333 106.333 53 102 64.5 86.5M92.5 41L94.4997 38L112.5 49.5L110.5 52.5L92.5 41ZM100.5 108C99.3333 111.667 101.5 116.5 107 112C115.209 105.284 104 99.5 100.5 108ZM101.903 93.5765C102.568 95.001 104.334 97.1789 106.075 94.4938C107.816 91.8086 106.013 89.6865 104.895 88.9611C103.322 88.9353 100.523 89.8222 101.903 93.5765Z" stroke="black"/>
</svg>
