<svg width="127" height="126" viewBox="0 0 127 126" fill="none" xmlns="http://www.w3.org/2000/svg">
    <path d="M125.796 63C125.796 97.1198 97.9139 124.796 63.5 124.796C29.0861 124.796 1.20435 97.1198 1.20435 63C1.20435 28.8802 29.0861 1.20435 63.5 1.20435C97.9139 1.20435 125.796 28.8802 125.796 63Z" fill="#E1F4F2" stroke="#C3E9E5" stroke-width="2.4087"/>
    <ellipse cx="38.1948" cy="62.8889" rx="24.9097" ry="24.5725" fill="#68C8BF"/>
    <path d="M66.6807 67.3986C66.6807 81.4007 55.7353 92.7206 42.271 92.7206C28.8067 92.7206 17.8613 81.4007 17.8613 67.3986C17.8613 53.3966 28.8067 42.0767 42.271 42.0767C55.7353 42.0767 66.6807 53.3966 66.6807 67.3986Z" stroke="black"/>
    <path d="M59.2924 48.2405C59.9844 42.965 64.3574 33.8301 76.314 39.4943M73.4073 44.9086C74.7914 40.8826 80.3826 32.3308 91.675 30.3317C105.791 27.8328 109.527 39.4943 107.866 46.5746C111.326 48.7958 116.585 54.4045 109.942 59.0691C103.3 63.7337 94.9963 60.1797 91.675 57.8196C90.9833 60.6698 87.3578 66.1816 78.3899 65.4268M78.3899 65.4268C77.5173 66.088 76.5118 66.7565 75.4837 67.3986C61.3682 76.2155 10.3037 84.891 7.81272 79.4767C5.81994 75.1453 13.0709 72.674 16.9458 71.9798C11.5487 73.5069 5.23086 78.1966 22.7581 76.5611C40.6099 74.8954 63.8588 67.1208 73.4073 62.4007C75.6215 61.5677 76.4795 59.3189 67.1799 60.3184C83.8178 58.9277 82.8028 62.0832 78.3899 65.4268ZM60.9531 84.1297C60.3995 84.5462 60.1151 86.8902 61.4436 89.8889C62.7722 92.8876 66.7653 91.9713 68.8411 91.9713C68.426 92.8043 68.426 94.5535 71.7473 94.8867C75.0686 95.2199 77.5595 91.6936 78.3899 89.8889C80.0505 91.9713 84.4512 95.8862 88.7689 94.8867C93.0866 93.8871 94.166 90.0277 94.166 88.2229C97.4873 86.557 97.4873 84.8911 94.9963 81.1427C93.0035 78.144 87.2466 79.8933 84.6173 81.1427C83.3718 78.2273 79.6353 74.8955 75.4837 74.8955C72.1625 74.8955 69.6715 77.1167 68.8411 78.2273C68.5644 77.8109 67.0898 76.8829 64.7649 77.8824M90.0144 69.8977C91.1215 68.5094 93.9169 65.8995 96.2418 66.5658C99.1479 67.3986 100.809 66.1496 101.639 69.0647C102.469 71.9798 98.3176 71.9798 96.2418 71.9798C94.166 71.9798 90.0144 72.3967 90.0144 69.8977Z" stroke="black"/>
    </svg>
    