<svg width="153" height="152" viewBox="0 0 153 152" fill="none" xmlns="http://www.w3.org/2000/svg">
<path d="M151.748 75.6332C151.748 116.727 118.06 150.062 76.4763 150.062C34.8921 150.062 1.20435 116.727 1.20435 75.6332C1.20435 34.5398 34.8921 1.20435 76.4763 1.20435C118.06 1.20435 151.748 34.5398 151.748 75.6332Z" fill="#E1F4F2" stroke="#C3E9E5" stroke-width="2.4087"/>
<ellipse cx="46" cy="75.5" rx="30" ry="29.5" fill="#68C8BF"/>
<path d="M80.4092 80.9141C80.4092 97.7743 67.1863 111.414 50.9092 111.414C34.6321 111.414 21.4092 97.7743 21.4092 80.9141C21.4092 64.0538 34.6321 50.4141 50.9092 50.4141C67.1863 50.4141 80.4092 64.0538 80.4092 80.9141Z" stroke="black"/>
<path d="M71.4092 57.914C72.2425 51.5807 77.5092 40.614 91.9092 47.414M88.4085 53.9141C90.0754 49.0807 96.8092 38.8141 110.409 36.4141C127.409 33.4141 131.909 47.4141 129.909 55.9141C134.076 58.5807 140.409 65.3141 132.409 70.9141C124.409 76.5141 114.409 72.2474 110.409 69.4141C109.576 72.8358 105.21 79.4528 94.4092 78.5467M94.4092 78.5467C93.3583 79.3404 92.1474 80.143 90.9092 80.9139C73.9091 91.4988 12.4096 101.914 9.40956 95.414C7.00956 90.214 15.7423 87.2472 20.409 86.4137C13.909 88.2471 6.30009 93.8771 27.409 91.9137C48.9089 89.914 76.9087 80.5804 88.4085 74.9137C91.0752 73.9137 92.1085 71.214 80.9085 72.414C100.946 70.7443 99.7239 74.5326 94.4092 78.5467ZM73.4092 101C72.7425 101.5 72.4 104.314 74 107.914C75.6 111.514 80.4092 110.414 82.9092 110.414C82.4092 111.414 82.4092 113.514 86.4092 113.914C90.4092 114.314 93.4092 110.081 94.4092 107.914C96.4092 110.414 101.709 115.114 106.909 113.914C112.109 112.714 113.409 108.081 113.409 105.914C117.409 103.914 117.409 101.914 114.409 97.4141C112.009 93.8141 105.076 95.9141 101.909 97.4141C100.409 93.9141 95.9092 89.9141 90.9092 89.9141C86.9092 89.9141 83.9092 92.5807 82.9092 93.9141C82.5758 93.4141 80.8 92.3001 78 93.5M108.409 83.9141C109.743 82.2474 113.109 79.1142 115.909 79.9141C119.409 80.9139 121.409 79.4144 122.409 82.9141C123.409 86.4137 118.409 86.4137 115.909 86.4137C113.409 86.4137 108.409 86.9142 108.409 83.9141Z" stroke="black"/>
</svg>
