<svg width="153" height="152" viewBox="0 0 153 152" fill="none" xmlns="http://www.w3.org/2000/svg">
<path d="M151.748 75.6332C151.748 116.727 118.06 150.062 76.4763 150.062C34.8921 150.062 1.20435 116.727 1.20435 75.6332C1.20435 34.5398 34.8921 1.20435 76.4763 1.20435C118.06 1.20435 151.748 34.5398 151.748 75.6332Z" fill="#E1F4F2" stroke="#C3E9E5" stroke-width="2.4087"/>
<path d="M84.6562 53.5484L79.4328 115.683L28.2343 80.0922L84.6562 53.5484Z" fill="#FBDE56"/>
<path d="M27.5576 82.2515C32.3646 82.2515 36.9476 86.8811 40.4875 89.7327C43.8739 92.4606 47.8669 94.4421 51.1588 97.2704C53.7521 99.4985 57.149 100.847 59.6282 103.142C60.9692 104.384 61.8221 103.313 63.2417 102.705C65.1088 101.905 66.7251 100.356 68.0834 98.8796C69.7667 97.0499 70.7127 94.2645 71.5015 91.9418L71.5135 91.9065C72.0594 90.2991 72.5298 88.7767 72.5298 87.079M67.4476 101.308C67.5774 102.605 68.9101 103.329 69.4803 104.469C70.2918 106.092 71.3008 107.493 72.5857 108.732C73.5806 109.692 77.2154 113.866 78.7401 112.995C81.5487 111.39 81.724 108.602 82.8901 105.881C83.2556 105.028 83.7088 103.519 83.7088 102.578C83.7088 101.47 82.5831 101.227 81.5491 101.068C78.5912 100.612 75.5698 100.037 72.5434 100.037H66.6854C65.1093 100.037 67.4686 101.076 67.8993 101.251C68.9366 101.674 69.9375 102.527 71.0048 102.832C73.1103 103.434 75.7612 104.394 77.6108 105.627M75.5771 102.578C77.8337 102.578 79.438 102.603 81.421 103.594M28.0654 79.4565C30.5558 79.4565 32.6248 79.4519 34.9256 80.2188M29.335 78.6944C29.335 76.401 31.467 76.6618 33.1462 76.6618M26.5406 79.7109C25.6628 79.8085 25.5962 80.8903 26.2865 81.2354M33.8838 75.9591C35.228 75.9591 36.531 73.6551 37.5457 72.9034C38.874 71.9195 39.7614 69.9879 40.8561 68.7564C43.1993 66.1203 45.855 63.9879 48.3376 61.5053C50.9151 58.9278 53.699 56.7962 56.4739 54.4481C57.5438 53.5429 59.2581 51.9052 60.73 51.732C61.0817 51.6906 61.4184 51.3179 61.8213 51.2955C62.5007 51.2577 63.1516 51.1509 63.81 50.9681C67.7208 49.8817 72.3977 50.8967 76.1781 51.9503C80.3816 53.1217 84.5008 54.9161 88.3523 56.9703C91.3714 58.5805 94.3393 60.7398 96.816 63.0331C98.1896 64.3049 99.4917 65.5722 100.563 67.1195C101.31 68.1989 103.291 69.3668 103.291 70.7208M81.2471 110.008C89.6093 110.008 95.8674 103.81 102.2 99.1433C103.534 98.1602 104.889 97.3652 106.02 96.1361C107.027 95.0415 107.873 93.8584 108.857 92.7652C109.334 92.2352 110.099 91.21 110.712 90.8493C111.022 90.6672 111.586 89.6201 111.586 89.7095M104.601 97.3487H109.827C111.422 97.3487 111.572 97.3804 111.973 95.8208C112.414 94.1044 112.852 92.3208 113.101 90.5825C113.224 89.7211 113.628 88.7973 114.422 88.3999M112.895 89.0548C114.012 89.0548 115.409 88.8252 116.496 89.0669C117.293 89.244 118.066 89.6798 118.837 89.9763C119.636 90.2838 120.112 91.1227 120.862 91.4557C121.736 91.8441 123.025 93.2334 123.978 92.2802C125.419 90.8395 125.637 88.642 126.476 86.8722C128.308 83.0035 120.448 83.4458 118.242 82.9556C117.466 82.783 117.237 83.1909 117.697 82.6161C118.307 81.8531 119.685 81.1279 120.486 80.5426C121.848 79.5474 123.154 78.1625 123.76 76.5653C125.124 72.9693 124.899 69.3943 124.899 65.5916C124.899 63.8899 123.399 64.1729 122.062 64.1729C120.6 64.1729 118.604 65.7478 117.43 66.5738C115.87 67.6714 114.788 69.5806 113.647 71.0482C112.552 72.4552 112.077 74.3759 110.822 75.6317C109.922 76.5313 109.022 77.5631 107.657 76.8806C107.091 76.5977 106.586 76.2106 106.02 75.9591C105.506 75.7309 105.467 75.086 104.819 75.086M62.04 50.4225C62.1461 49.3622 63.6873 48.2758 64.3318 47.4881C65.2941 46.312 66.2709 45.0511 67.4481 44.0929C69.3039 42.5823 70.9684 40.8613 72.7349 39.2911C73.8995 38.2559 77.8603 39.4107 79.0645 39.9459C81.4047 40.986 84.2743 41.7421 86.2671 43.4502C87.903 44.8524 90.1127 45.7136 91.8328 47.0516C92.5647 47.6208 93.4436 48.0313 94.1246 48.6764C94.8157 49.3312 95.3232 50.0933 95.9798 50.7499C97.4398 52.2099 97.7929 54.6407 98.3807 56.5217C98.9066 58.2046 99.5811 60.0079 99.5811 61.7721M70.5518 51.0772C70.5518 49.3999 70.9257 48.5885 72.0796 47.3667C73.0405 46.3493 74.1284 45.1419 75.3535 44.5293M78.1904 48.8945C78.3364 47.5809 80.2094 46.4872 81.0278 45.6206C81.8715 44.7273 82.7176 42.9475 83.8652 42.5649M82.3389 53.478C82.444 52.5314 84.2512 50.2561 84.958 49.5493M88.667 54.1331C88.667 52.6721 89.3108 51.8462 90.0857 50.6409C90.4507 50.073 90.694 49.4869 91.177 49.0039C91.4084 48.7725 92.4669 47.9621 91.7227 48.4582M92.8154 58.9346C92.8842 58.384 94.2997 56.992 94.7798 56.752M51.6745 73.6079C51.7188 73.9625 52.7994 73.8038 52.9625 73.5184C53.2534 73.0092 53.0121 72.0387 52.3185 71.9979C52.1346 71.9871 51.9511 71.9796 51.7789 71.9928M51.7789 71.9928C51.354 72.0252 50.9984 72.1826 50.8785 72.7224C50.7676 73.2211 50.8391 74.2317 51.442 74.4039C52.7313 74.7723 53.2845 73.828 53.2845 72.5614C53.2845 71.9542 52.466 71.8108 51.9965 71.8369C51.9115 71.8416 51.838 71.9018 51.7789 71.9928ZM51.7789 71.9928C51.535 72.3685 51.5377 73.2697 51.9965 72.9639M33.5264 76.7715C34.2324 76.7715 34.8062 76.8175 35.4673 76.9644C36.1216 77.1098 36.66 77.6381 37.3061 77.7817C38.1071 77.9597 40.1512 78.8721 40.6773 79.5297C41.3518 80.3728 42.2072 80.8268 42.675 81.8793C43.3211 83.3329 42.7855 84.331 41.2902 84.331M34.9561 80.6533C36.3276 80.6533 36.9276 81.7412 38.0207 82.2878" stroke="black" stroke-width="1.2" stroke-linecap="round"/>
</svg>
