<svg width="127" height="126" viewBox="0 0 127 126" fill="none" xmlns="http://www.w3.org/2000/svg">
    <path d="M125.796 63C125.796 97.1198 97.9139 124.796 63.5 124.796C29.0861 124.796 1.20435 97.1198 1.20435 63C1.20435 28.8802 29.0861 1.20435 63.5 1.20435C97.9139 1.20435 125.796 28.8802 125.796 63Z" fill="#E1F4F2" stroke="#C3E9E5" stroke-width="2.4087"/>
    <path d="M70.292 44.6042L65.9549 96.3603L23.4436 66.7143L70.292 44.6042Z" fill="#FBDE56"/>
    <path d="M22.8818 68.5127C26.8731 68.5127 30.6785 72.369 33.6178 74.7443C36.4296 77.0166 39.7451 78.6671 42.4784 81.023C44.6317 82.8789 47.4523 84.0022 49.5107 85.9142C50.6242 86.9485 51.3324 86.0565 52.5112 85.5497C54.0615 84.8832 55.4035 83.5931 56.5313 82.3634C57.929 80.8393 58.7144 78.5191 59.3694 76.5844L59.3794 76.555C59.8326 75.2161 60.2232 73.948 60.2232 72.5338M56.0034 84.3857C56.1111 85.4662 57.2177 86.0695 57.6912 87.0195C58.365 88.3714 59.2027 89.5382 60.2697 90.5703C61.0958 91.3695 64.1138 94.8469 65.3798 94.1212C67.7118 92.7844 67.8574 90.4617 68.8256 88.1953C69.1291 87.4848 69.5054 86.2281 69.5054 85.4439C69.5054 84.5213 68.5707 84.3184 67.7122 84.1859C65.2561 83.8068 62.7474 83.3275 60.2345 83.3275H55.3705C54.0619 83.3275 56.0208 84.1925 56.3785 84.3387C57.2397 84.6907 58.0708 85.4016 58.957 85.6556C60.7052 86.1567 62.9063 86.9565 64.4422 87.9836M62.7535 85.4441C64.6272 85.4441 65.9593 85.4648 67.6058 86.2907M23.3035 66.1846C25.3713 66.1846 27.0892 66.1807 28.9996 66.8195M24.3576 65.5498C24.3576 63.6394 26.1278 63.8567 27.5221 63.8567M22.0373 66.3965C21.3085 66.4778 21.2532 67.3788 21.8264 67.6663M28.1346 63.2713C29.2507 63.2713 30.3326 61.3522 31.1752 60.7261C32.2781 59.9065 33.0149 58.2975 33.9238 57.2718C35.8694 55.076 38.0745 53.2997 40.1359 51.2318C42.2761 49.0848 44.5876 47.3093 46.8917 45.3534C47.78 44.5993 49.2034 43.2352 50.4256 43.091C50.7176 43.0565 50.9972 42.746 51.3318 42.7274C51.8959 42.6959 52.4363 42.607 52.983 42.4546C56.2303 41.5497 60.1136 42.3952 63.2525 43.2728C66.7428 44.2485 70.163 45.7433 73.361 47.4543C75.8679 48.7955 78.3322 50.5942 80.3887 52.5044C81.5291 53.5638 82.6103 54.6194 83.4997 55.9082C84.1203 56.8074 85.7651 57.7801 85.7651 58.908M67.4614 91.6329C74.4047 91.6329 79.601 86.4699 84.8593 82.583C85.9671 81.7641 87.0919 81.102 88.0308 80.0781C88.867 79.1664 89.5698 78.1809 90.3867 77.2703C90.7828 76.8288 91.4181 75.9749 91.9272 75.6744C92.1842 75.5227 92.6521 74.6505 92.6521 74.725M86.8524 81.0881H91.1918C92.5163 81.0881 92.6408 81.1146 92.9738 79.8155C93.3403 78.3858 93.704 76.9001 93.9102 75.4522C94.0124 74.7346 94.3476 73.9652 95.0076 73.6341M93.7394 74.1796C94.6666 74.1796 95.8266 73.9884 96.7297 74.1897C97.3914 74.3372 98.0328 74.7003 98.6729 74.9472C99.3367 75.2034 99.7322 75.9021 100.354 76.1795C101.08 76.503 102.15 77.6603 102.942 76.8663C104.138 75.6662 104.32 73.8358 105.016 72.3616C106.537 69.1391 100.011 69.5075 98.1795 69.0992C97.5345 68.9554 97.3446 69.2952 97.7264 68.8164C98.2333 68.1808 99.377 67.5768 100.042 67.0892C101.173 66.2603 102.258 65.1067 102.761 63.7763C103.893 60.781 103.707 57.8031 103.707 54.6356C103.707 53.2181 102.461 53.4538 101.351 53.4538C100.137 53.4538 98.4795 54.7657 97.5049 55.4537C96.2098 56.368 95.3114 57.9583 94.3637 59.1807C93.455 60.3528 93.0605 61.9526 92.0178 62.9986C91.2707 63.748 90.5233 64.6074 89.39 64.0389C88.9201 63.8033 88.5007 63.4809 88.0307 63.2713C87.6044 63.0812 87.5716 62.5441 87.034 62.5441M51.5134 42.0002C51.6014 41.117 52.8811 40.212 53.4163 39.5559C54.2152 38.5763 55.0263 37.526 56.0038 36.7278C57.5447 35.4696 58.9268 34.0361 60.3935 32.7281C61.3605 31.8658 64.6493 32.8278 65.6491 33.2735C67.5923 34.1399 69.975 34.7697 71.6297 36.1925C72.988 37.3605 74.8227 38.0779 76.251 39.1923C76.8587 39.6665 77.5885 40.0084 78.1539 40.5458C78.7278 41.0911 79.1491 41.726 79.6943 42.2729C80.9066 43.489 81.1998 45.5138 81.6878 47.0806C82.1245 48.4825 82.6846 49.9845 82.6846 51.4541M58.5808 42.5455C58.5808 41.1484 58.8913 40.4725 59.8494 39.4548C60.6473 38.6073 61.5506 37.6016 62.5679 37.0914M64.9234 40.7275C65.0446 39.6333 66.5998 38.7222 67.2794 38.0004C67.9799 37.2563 68.6824 35.7738 69.6353 35.4551M68.3679 44.5454C68.4553 43.7569 69.9558 41.8616 70.5427 41.2729M73.6223 45.091C73.6223 43.8741 74.1569 43.1861 74.8003 42.1821C75.1034 41.7091 75.3054 41.2209 75.7065 40.8186C75.8986 40.6258 76.7775 39.9508 76.1595 40.364M77.0669 49.0905C77.124 48.6319 78.2993 47.4724 78.6979 47.2724M42.9066 61.3128C42.9434 61.6083 43.8407 61.476 43.9761 61.2383C44.2176 60.8142 44.0173 60.0058 43.4413 59.9718C43.2887 59.9628 43.1363 59.9566 42.9933 59.9675M42.9933 59.9675C42.6405 59.9945 42.3452 60.1256 42.2456 60.5753C42.1536 60.9907 42.213 61.8324 42.7135 61.9759C43.7841 62.2828 44.2434 61.4962 44.2434 60.4411C44.2434 59.9354 43.5638 59.8159 43.174 59.8377C43.1034 59.8416 43.0423 59.8917 42.9933 59.9675ZM42.9933 59.9675C42.7908 60.2805 42.793 61.0312 43.174 60.7764M27.8378 63.948C28.4241 63.948 28.9005 63.9864 29.4494 64.1088C29.9927 64.2299 30.4397 64.6699 30.9762 64.7895C31.6413 64.9378 33.3386 65.6978 33.7754 66.2455C34.3354 66.9478 35.0457 67.326 35.4341 68.2027C35.9706 69.4134 35.5259 70.2449 34.2843 70.2449M29.0249 67.1815C30.1637 67.1815 30.6619 68.0877 31.5696 68.543" stroke="black" stroke-width="1.2" stroke-linecap="round"/>
    </svg>
    