<svg width="127" height="126" viewBox="0 0 127 126" fill="none" xmlns="http://www.w3.org/2000/svg">
<path d="M126 62.8C126 96.9208 98.0283 124.6 63.5 124.6C28.9717 124.6 1 96.9208 1 62.8C1 28.6792 28.9717 1 63.5 1C98.0283 1 126 28.6792 126 62.8Z" fill="#E1F4F2" stroke="#C3E9E5" stroke-width="2"/>
<rect x="18.1426" y="48.8445" width="83.7363" height="30.7022" fill="#FBA036"/>
<path d="M16.7145 59.6928C11.4248 63.6599 12.4256 70.9008 13.1329 77.633C13.1866 78.1439 13.6167 78.5328 14.1304 78.5328H26.1209C26.6963 78.5328 27.1506 78.0496 27.1649 77.4744C27.2673 73.3675 29.2752 67.0428 36.9507 68.0662C44.241 69.0382 45.3605 73.9593 44.9141 77.2118C44.8227 77.8784 45.3077 78.5328 45.9805 78.5328H86.0597C86.6612 78.5328 87.125 78.005 87.1054 77.4038C86.9782 73.5138 88.4818 67.5602 95.5661 68.0662C102.497 68.5612 103.721 73.8496 103.422 77.3112C103.367 77.9455 103.842 78.5328 104.479 78.5328H111.563C112.008 78.5328 112.4 78.2432 112.51 77.8126C114.006 71.9601 114.665 60.601 110.918 58.995C106.033 56.9017 93.4727 56.2039 92.0771 56.2039C90.6815 56.2039 88.0829 45.2946 83.0057 42.2484C76.0277 38.0617 44.6265 37.9745 39.742 42.2484C34.1596 47.1329 34.1596 51.3195 30.6706 54.1106C24.8019 58.8054 22.2969 55.5061 16.7145 59.6928Z" stroke="black"/>
<path d="M29.9726 82.0217C27.1814 77.1372 30.3066 71.8204 34.1595 70.8572C36.9507 70.1595 40.6651 71.3081 41.8354 73.6484C43.231 76.4395 42.5332 79.9283 41.1376 82.0217C38.8806 85.4071 32.7638 86.9062 29.9726 82.0217Z" stroke="black"/>
<path d="M90.3551 81.5263C87.5639 76.6419 90.6891 71.3251 94.542 70.3619C97.3332 69.6641 101.048 70.8127 102.218 73.153C103.613 75.9442 102.916 79.433 101.52 81.5263C99.2631 84.9118 93.1463 86.4108 90.3551 81.5263Z" stroke="black"/>
<path d="M59.339 52.4752C59.3061 53.0022 58.869 53.4128 58.3409 53.4128H38.3539C37.5119 53.4128 37.0604 52.4458 37.6416 51.8365C44.3965 44.7555 53.9228 42.556 58.9163 42.2794C59.4923 42.2475 59.9478 42.735 59.9118 43.3107L59.339 52.4752Z" stroke="black"/>
<path d="M64.3052 54.1585C63.8206 54.1308 63.4258 53.759 63.3691 53.2769L62.1962 43.3078C62.1287 42.7341 62.5603 42.2203 63.138 42.2245C72.1987 42.2899 81.3873 49.0773 86.2048 53.7626C86.8451 54.3852 86.3562 55.4185 85.4645 55.3675L64.3052 54.1585Z" stroke="black"/>
</svg>
