<svg width="127" height="126" viewBox="0 0 127 126" fill="none" xmlns="http://www.w3.org/2000/svg">
<path d="M126 62.8022C126 96.9242 98.0282 124.604 63.5 124.604C28.9718 124.604 1 96.9242 1 62.8022C1 28.6802 28.9718 1 63.5 1C98.0282 1 126 28.6802 126 62.8022Z" fill="#E1F4F2" stroke="#C3E9E5" stroke-width="2"/>
<rect x="40.4727" y="32.0989" width="37.6813" height="62.8022" fill="#68C8BF"/>
<path d="M41.834 89.8411L30.6775 92.3868C29.6445 93.6596 28.1983 96.7144 30.6775 98.751C33.1567 100.788 34.3963 100.024 36.2557 99.3874L52.3707 93.6596M31.9171 93.6596C32.7435 93.6596 34.3963 94.296 34.3963 96.8417M36.8756 95.5689L44.9331 93.6596M36.8756 93.0232L41.2142 91.7504M79.9065 93.0961L89.3993 97.6769C90.0768 99.1123 90.7778 102.363 88.1626 103.882C85.5474 105.402 84.5861 104.424 83.0452 103.454L69.7319 94.8373M87.945 98.6828C87.1353 98.5126 85.367 98.9206 84.7705 101.913M82.5901 100.156L75.8005 96.1308M83.0872 97.6619L79.6924 95.6493M59.0067 94.9156L58.8918 94.896C51.3734 93.6105 36.067 90.9935 38.0316 78.3856C40.2133 64.3844 44.2297 64.3844 40.5109 56.111C39.8911 54.2017 35.5524 49.1103 33.0732 49.1103C29.9741 49.1103 41.1307 45.2918 45.4693 52.2924C47.9534 56.3006 50.5856 58.1573 52.4117 58.8891C53.218 59.2122 53.8264 58.4091 53.5512 57.5665C51.1421 50.1906 48.3337 36.7589 52.907 30.6542C55.2454 27.5329 57.1426 25.5892 58.6653 24.1054C59.699 23.0981 62.7501 24.2534 62.9815 25.6973C63.6092 29.6137 65.1754 34.8468 68.4022 41.4734C74.3523 53.6926 74.3523 62.1089 73.3201 66.0009C73.1042 66.8152 73.5472 67.7258 74.3689 67.7027C76.6102 67.6394 79.9688 66.6614 82.6577 63.1116C84.8395 60.2312 85.9927 56.194 86.5484 52.8021C86.7614 51.5017 88.5161 51.1611 88.9544 52.4005C89.8904 55.0469 90.7152 58.2657 90.7152 61.2023C90.7152 67.5665 86.7049 72.3859 85.1369 75.2035C82.6577 79.6584 90.7152 81.5677 85.1369 89.2047C80.6959 95.2847 66.0656 94.936 59.2047 94.9325C59.1364 94.9324 59.074 94.9271 59.0067 94.9156ZM57.2533 89.6562C55.7569 89.7829 52.9467 88.9969 52.47 84.8276C51.8514 79.4162 54.326 79.4162 54.326 75.8085C54.326 74.7382 54.1558 73.6899 53.9101 72.7434C53.6294 71.6618 53.8149 70.03 54.5986 70.8081C55.4525 71.6559 58.6544 72.1268 59.0024 70.9607C59.6389 68.8284 60.6264 66.7399 62.0871 65.4812C62.8602 64.8151 63.6593 65.7066 63.3493 66.6928C62.764 68.5548 62.3687 70.8601 62.3687 74.606C62.3687 78.2136 62.9874 80.0174 64.8434 79.4162C65.082 79.3389 65.6376 78.1986 66.2132 76.7645C66.7243 75.4912 69.104 75.5088 69.3052 76.8705C69.8904 80.8295 70.0465 85.4937 68.5554 87.2327C66.1268 90.065 60.5204 90.0406 57.5836 89.6598C57.4733 89.6455 57.3641 89.6468 57.2533 89.6562Z" stroke="black" stroke-linecap="round"/>
</svg>
