<svg width="127" height="126" viewBox="0 0 127 126" fill="none" xmlns="http://www.w3.org/2000/svg">
<path d="M126 62.8022C126 96.9242 98.0282 124.604 63.5 124.604C28.9718 124.604 1 96.9242 1 62.8022C1 28.6802 28.9718 1 63.5 1C98.0282 1 126 28.6802 126 62.8022Z" fill="#E1F4F2" stroke="#C3E9E5" stroke-width="2"/>
<rect x="26.5156" y="27.9121" width="64.1978" height="71.1758" fill="#FBDE56"/>
<path d="M33.1455 66.989L34.1495 68.4234C34.7769 69.3197 36.1447 69.1784 36.5756 68.1729L36.9184 67.3731C37.2936 66.4976 38.4163 66.2469 39.1283 66.8798L42.7264 70.0781C43.3722 70.6521 44.3791 70.5074 44.837 69.7747L46.6711 66.8402C47.0947 66.1624 48 65.9782 48.6549 66.4366L53.5722 69.8787C54.0797 70.234 54.7607 70.2122 55.2444 69.8252L60.4872 65.631C61.0182 65.2062 61.778 65.2259 62.2862 65.6777L66.847 69.7317C67.3372 70.1674 68.0647 70.2031 68.5951 69.8173L74.454 65.5563C74.9844 65.1705 75.7118 65.2062 76.202 65.6419L80.7155 69.6538C81.2442 70.1239 82.0411 70.1239 82.5698 69.6538L86.9393 65.7698C87.4916 65.2789 88.3309 65.3036 88.8534 65.8261L90.7141 67.6868M33.1455 66.989L29.6817 66.6592C28.3793 66.5351 27.6375 68.1102 28.5626 69.0353L29.7576 70.2303C29.9202 70.3929 30.0401 70.5932 30.1066 70.8133L38.8575 99.7583C38.9942 100.211 39.3493 100.564 39.8058 100.687C47.4325 102.727 66.0038 105.275 85.6894 100.683C86.2025 100.563 86.6025 100.16 86.7219 99.6466L93.3297 71.2329C93.4389 70.7634 93.2981 70.2708 92.9572 69.93L90.7141 67.6868M33.1455 66.989C28.6097 65.3608 20.9337 58.6154 25.8184 49.544C30.7031 40.4725 44.6591 32.7968 50.2416 33.4946M50.2416 33.4946C50.2416 26.5165 54.4284 23.7253 59.313 23.0275C65.5851 22.1315 69.78 27.9122 70.4778 33.4946M50.2416 33.4946C52.335 39.7748 55.1262 41.8682 61.4064 41.8682C64.8954 41.8682 69.78 37.6814 70.4778 33.4946M90.7141 67.6868C97.692 63.5 103.872 56.522 99.0876 48.1484C96.2964 43.2637 83.789 32.9857 70.4778 33.4946M36.2854 73.2693L45.3569 98.3901M47.4503 80.2473C48.1481 83.5037 49.9624 90.4352 51.6371 92.1099M85.8294 73.2693C85.1316 78.6191 82.7591 90.4352 78.8514 94.9011M62.1041 22.3297C62.1041 19.0733 63.6393 12.2813 69.78 11.1649" stroke="black" stroke-linecap="round"/>
</svg>
