<svg width="127" height="126" viewBox="0 0 127 126" fill="none" xmlns="http://www.w3.org/2000/svg">
<path d="M126 62.8022C126 96.9242 98.0282 124.604 63.5 124.604C28.9718 124.604 1 96.9242 1 62.8022C1 28.6802 28.9718 1 63.5 1C98.0282 1 126 28.6802 126 62.8022Z" fill="#E1F4F2" stroke="#C3E9E5" stroke-width="2"/>
<rect x="21.3457" y="58.9098" width="61.1189" height="70.7195" transform="rotate(-43.6178 21.3457 58.9098)" fill="#FBC587"/>
<path d="M48.847 21.6319L53.836 17.2666C54.2043 16.9443 54.7117 16.8351 55.1737 16.9966C60.0078 18.6859 68.7251 23.0715 72.9164 32.6465C73.1397 33.1567 73.0151 33.7495 72.6213 34.1433L67.6878 39.0769M48.847 21.6319C54.0274 23.587 64.2171 29.9663 67.6878 39.0769M48.847 21.6319L28.6108 42.4904M67.6878 39.0769L60.231 46.3961C59.6808 46.9362 59.6727 47.82 60.2129 48.37L99.7391 88.6157C100.09 88.973 100.229 89.4938 100.042 89.9586C99.3176 91.7645 97.5698 94.4653 94.5598 95.3721C94.113 95.5067 93.6381 95.3499 93.3112 95.017L53.7406 54.7261C53.2005 54.1762 52.3169 54.1682 51.767 54.7083L47.7888 58.6154M23.5242 47.8605L19.1663 52.4614C18.8847 52.7586 18.7465 53.1709 18.8006 53.5768C20.4556 65.9903 30.0425 69.8526 35.2349 70.3152C35.6192 70.3495 35.9919 70.2014 36.2671 69.9311L39.8185 66.4432M23.5242 47.8605C29.6677 47.8252 41.5275 51.4922 39.8185 66.4432M23.5242 47.8605L28.6108 42.4904M39.8185 66.4432L47.7888 58.6154M28.6108 42.4904C33.7203 41.8178 44.7091 44.1011 47.7888 58.6154M53.2516 54.2284C54.9022 53.5854 58.5074 51.4138 59.7237 47.872M87.4781 89.078C89.4606 88.109 93.5306 85.4811 93.9502 82.7216M25.5357 58.7454L24.5351 56.7441C23.9791 55.632 25.0453 54.4028 26.2248 54.7961L28.6472 55.6036C29.0636 55.7425 29.5211 55.6773 29.8821 55.4277L30.9379 54.6979C31.9286 54.013 33.2634 54.8205 33.1166 56.0159L32.9491 57.3807C32.8645 58.0703 33.3397 58.7036 34.0254 58.8152C35.5513 59.0637 35.4351 61.2953 33.8916 61.3839L33.4954 61.4066H32.7899C32.0322 61.4066 31.4262 62.0363 31.4553 62.7934L31.483 63.5123C31.5435 65.0851 29.261 65.3555 28.9523 63.8121C28.783 62.9657 27.8408 62.5269 27.084 62.9422L26.9587 63.011C25.8149 63.6386 24.5179 62.479 25.014 61.2724L25.5782 59.9003C25.7316 59.5273 25.7161 59.1062 25.5357 58.7454Z" stroke="black" stroke-linecap="round"/>
</svg>
