<svg width="132" height="129" viewBox="0 0 132 129" fill="none" xmlns="http://www.w3.org/2000/svg">
<path d="M131 65.8022C131 99.9242 103.028 127.604 68.5 127.604C33.9718 127.604 6 99.9242 6 65.8022C6 31.6802 33.9718 4 68.5 4C103.028 4 131 31.6802 131 65.8022Z" fill="#E1F4F2" stroke="#C3E9E5" stroke-width="2"/>
<path d="M102.047 99.5804L23.5793 52.8211L52.4261 22.8901L102.047 99.5804Z" fill="#B4E4DF"/>
<path d="M49.5001 35L59.0001 29.5C58.6001 27.1 57.1667 26.1666 56.5001 26L47.5001 32.5L46.9017 31.7895M49.5001 35L100 91.5L102 101M49.5001 35C48.3389 35 47.4992 35.3597 46.9017 35.8834M45.5634 39.098L38.5997 47.4225C36.2988 46.6385 35.6115 45.0922 35.5555 44.417L43.4238 36.7431L41.7119 34.7129M45.5634 39.098L93.0589 97.4697L102.099 100.978L46.9017 35.8834M45.5634 39.098C45.55 38.2277 45.8527 36.8029 46.9017 35.8834M36.1656 28.1355L35.2081 27C35 25.5 36.7001 22.6 39.5001 23L41 24.7812M36.1656 28.1355C36.6104 26.7778 38.2 24.2061 41 24.7812M36.1656 28.1355L37.8839 30.1733M41 24.7812L43 27.1562M37.8839 30.1733C38.4226 28.8411 40.2 26.3727 43 27.1562M37.8839 30.1733L40 32.6828M43 27.1562L45.25 29.8281M40 32.6828C40.5 31.3406 42.25 28.8905 45.25 29.8281M40 32.6828L41.7119 34.7129M45.25 29.8281L46.9017 31.7895M41.7119 34.7129C42.0757 33.6683 43.6231 31.6211 46.9017 31.7895" stroke="black"/>
</svg>
