<svg width="127" height="126" viewBox="0 0 127 126" fill="none" xmlns="http://www.w3.org/2000/svg">
<path d="M126 62.8022C126 96.9242 98.0282 124.604 63.5 124.604C28.9718 124.604 1 96.9242 1 62.8022C1 28.6802 28.9718 1 63.5 1C98.0282 1 126 28.6802 126 62.8022Z" fill="#E1F4F2" stroke="#C3E9E5" stroke-width="2"/>
<path d="M61.0326 67.7469C61.0326 66.8589 61.1766 66.0789 61.4646 65.4069C61.7526 64.7349 62.1246 64.1349 62.5806 63.6069C63.0366 63.0789 63.5166 62.5869 64.0206 62.1309C64.5486 61.6749 65.0406 61.2309 65.4966 60.7989C65.9526 60.3669 66.3246 59.9109 66.6126 59.4309C66.9006 58.9509 67.0446 58.4109 67.0446 57.8109C67.0446 56.8029 66.6366 55.9869 65.8206 55.3629C65.0046 54.7389 63.9126 54.4269 62.5446 54.4269C61.2246 54.4269 60.0726 54.6669 59.0886 55.1469C58.1286 55.6269 57.3246 56.3109 56.6766 57.1989L53.1846 54.9309C54.1926 53.5629 55.5126 52.4949 57.1446 51.7269C58.7766 50.9349 60.7086 50.5389 62.9406 50.5389C64.6926 50.5389 66.2286 50.8029 67.5486 51.3309C68.8686 51.8349 69.9006 52.5789 70.6446 53.5629C71.3886 54.5229 71.7606 55.6989 71.7606 57.0909C71.7606 58.0509 71.6046 58.8909 71.2926 59.6109C71.0046 60.3309 70.6206 60.9669 70.1406 61.5189C69.6846 62.0469 69.1926 62.5509 68.6646 63.0309C68.1366 63.4869 67.6326 63.9429 67.1526 64.3989C66.6966 64.8549 66.3246 65.3469 66.0366 65.8749C65.7486 66.4029 65.6046 67.0269 65.6046 67.7469H61.0326ZM63.3366 76.3509C62.4966 76.3509 61.8006 76.0749 61.2486 75.5229C60.7206 74.9709 60.4566 74.3109 60.4566 73.5429C60.4566 72.7749 60.7206 72.1269 61.2486 71.5989C61.8006 71.0469 62.4966 70.7709 63.3366 70.7709C64.1766 70.7709 64.8606 71.0469 65.3886 71.5989C65.9166 72.1269 66.1806 72.7749 66.1806 73.5429C66.1806 74.3109 65.9166 74.9709 65.3886 75.5229C64.8606 76.0749 64.1766 76.3509 63.3366 76.3509Z" fill="black"/>
</svg>