<svg width="132" height="129" viewBox="0 0 132 129" fill="none" xmlns="http://www.w3.org/2000/svg">
<path d="M131 65.8022C131 99.9242 103.028 127.604 68.5 127.604C33.9718 127.604 6 99.9242 6 65.8022C6 31.6802 33.9718 4 68.5 4C103.028 4 131 31.6802 131 65.8022Z" fill="#E1F4F2" stroke="#C3E9E5" stroke-width="2"/>
<rect x="21" y="44" width="87" height="52" fill="#FBDE56"/>
<path d="M112.071 85.7818H26V88.2639H112.071V85.7818Z" stroke="black" stroke-width="0.946428"/>
<path d="M112.071 88.5178H26V91H112.071V88.5178Z" stroke="black" stroke-width="0.946428"/>
<path d="M112.071 53.1781H26V55.8615H112.071V53.1781Z" stroke="black" stroke-width="0.946428"/>
<path d="M110.461 50.3407L27.6101 50.3407L27.61 53.1746L110.461 53.1746V50.3407Z" stroke="black" stroke-width="0.946428"/>
<path d="M31.7695 59.2672H28.8848V82.3661H31.7695V59.2672Z" stroke="black" stroke-width="0.946428"/>
<path d="M28.8986 58.1024L28.949 58.5729C29.1895 58.5471 29.3718 58.3441 29.3718 58.1023L28.8986 58.1024ZM27.6378 56.7518H27.1646C27.1646 57.0131 27.3764 57.2249 27.6377 57.225L27.6378 56.7518ZM27.6378 55.8661V55.3928C27.3765 55.3928 27.1646 55.6047 27.1646 55.8661H27.6378ZM33.0568 55.8661H33.53C33.53 55.6047 33.3181 55.3928 33.0568 55.3928V55.8661ZM33.0568 56.7518V57.225C33.3181 57.225 33.53 57.0131 33.53 56.7518H33.0568ZM31.8019 57.9647L31.3308 57.9202C31.3301 57.9272 31.3296 57.9342 31.3292 57.9412L31.8019 57.9647ZM31.795 58.1024L31.3224 58.0789C31.316 58.2083 31.3629 58.3346 31.4521 58.4285C31.5414 58.5223 31.6652 58.5755 31.7947 58.5756L31.795 58.1024ZM32.338 58.6864L32.8112 58.6867V58.6864H32.338ZM31.795 59.2694V59.7426L31.7954 59.7426L31.795 59.2694ZM28.3546 58.6864H27.8814L27.8814 58.6867L28.3546 58.6864ZM28.7892 58.1141L28.7388 57.6436C28.7218 57.6454 28.7049 57.6481 28.6883 57.6518L28.7892 58.1141ZM28.8986 58.1024L29.3718 58.1023C29.3715 57.1254 28.6246 56.2789 27.638 56.2786L27.6378 56.7518L27.6377 57.225C28.0422 57.2251 28.4252 57.5864 28.4253 58.1025L28.8986 58.1024ZM27.6378 56.7518H28.111V55.8661H27.6378H27.1646V56.7518H27.6378ZM27.6378 55.8661V56.3393H33.0568V55.8661V55.3928H27.6378V55.8661ZM33.0568 55.8661H32.5835V56.7518H33.0568H33.53V55.8661H33.0568ZM33.0568 56.7518V56.2786C32.1299 56.2786 31.4154 57.0246 31.3308 57.9202L31.8019 57.9647L32.273 58.0092C32.3172 57.5411 32.6747 57.225 33.0568 57.225V56.7518ZM31.8019 57.9647L31.3292 57.9412L31.3224 58.0789L31.795 58.1024L32.2677 58.1259L32.2745 57.9882L31.8019 57.9647ZM31.795 58.1024L31.7947 58.5756C31.8027 58.5756 31.8162 58.5782 31.8325 58.5957C31.8494 58.6139 31.8648 58.6448 31.8648 58.6864H32.338H32.8112C32.8112 58.1358 32.3886 57.6296 31.7954 57.6292L31.795 58.1024ZM32.338 58.6864L31.8648 58.6861C31.8648 58.7276 31.8494 58.7582 31.8327 58.7761C31.8166 58.7934 31.8031 58.7962 31.7947 58.7962L31.795 59.2694L31.7954 59.7426C32.3878 59.7421 32.8109 59.2376 32.8112 58.6867L32.338 58.6864ZM31.795 59.2694V58.7962H28.8986V59.2694V59.7426H31.795V59.2694ZM28.8986 59.2694V58.7962C28.89 58.7962 28.8763 58.7934 28.86 58.7759C28.8432 58.7578 28.8279 58.7273 28.8278 58.6861L28.3546 58.6864L27.8814 58.6867C27.8817 59.2385 28.3065 59.7426 28.8986 59.7426V59.2694ZM28.3546 58.6864H28.8278C28.8278 58.608 28.8771 58.5793 28.8901 58.5764L28.7892 58.1141L28.6883 57.6518C28.2053 57.7572 27.8814 58.2002 27.8814 58.6864H28.3546ZM28.7892 58.1141L28.8396 58.5846L28.949 58.5729L28.8986 58.1024L28.8481 57.6319L28.7388 57.6436L28.7892 58.1141Z" fill="black"/>
<path d="M31.7944 83.4883V83.015C31.5331 83.015 31.3212 83.2269 31.3212 83.4883H31.7944ZM33.0562 84.7461H33.5294C33.5294 84.4847 33.3175 84.2729 33.0562 84.2728L33.0562 84.7461ZM33.0562 85.7939V86.2671C33.3175 86.2671 33.5294 86.0553 33.5294 85.7939H33.0562ZM27.6372 85.7939H27.164C27.164 86.0553 27.3759 86.2671 27.6372 86.2671V85.7939ZM27.6372 84.7461L27.6372 84.2728C27.3759 84.2729 27.164 84.4847 27.164 84.7461H27.6372ZM28.8979 83.4883H29.3712C29.3712 83.2271 29.1595 83.0153 28.8984 83.015L28.8979 83.4883ZM28.355 82.9453L27.8818 82.9452V82.9453H28.355ZM28.8979 82.4023V81.9291L28.8975 81.9291L28.8979 82.4023ZM32.3384 82.9453H32.8116V82.9452L32.3384 82.9453ZM31.7944 83.4883H31.3212C31.3212 84.4462 32.098 85.2192 33.0561 85.2193L33.0562 84.7461L33.0562 84.2728C32.6182 84.2728 32.2676 83.9209 32.2676 83.4883H31.7944ZM33.0562 84.7461H32.5829V85.7939H33.0562H33.5294V84.7461H33.0562ZM33.0562 85.7939V85.3207H27.6372V85.7939V86.2671H33.0562V85.7939ZM27.6372 85.7939H28.1104V84.7461H27.6372H27.164V85.7939H27.6372ZM27.6372 84.7461L27.6372 85.2193C28.5931 85.2193 29.3712 84.4462 29.3712 83.4883H28.8979H28.4247C28.4247 83.9209 28.073 84.2728 27.6372 84.2728L27.6372 84.7461ZM28.8979 83.4883L28.8984 83.015C28.8589 83.015 28.8282 82.9837 28.8282 82.9453H28.355H27.8818C27.8818 83.5069 28.3366 83.961 28.8975 83.9615L28.8979 83.4883ZM28.355 82.9453L28.8282 82.9453C28.8282 82.9069 28.859 82.8756 28.8984 82.8755L28.8979 82.4023L28.8975 81.9291C28.3365 81.9296 27.8818 82.3837 27.8818 82.9452L28.355 82.9453ZM28.8979 82.4023V82.8755H31.7944V82.4023V81.9291H28.8979V82.4023ZM31.7944 82.4023V82.8755C31.8344 82.8755 31.8652 82.9074 31.8652 82.9453L32.3384 82.9453L32.8116 82.9452C32.8115 82.3828 32.3553 81.9291 31.7944 81.9291V82.4023ZM32.3384 82.9453H31.8652C31.8652 82.9832 31.8345 83.015 31.7944 83.015V83.4883V83.9615C32.3553 83.9615 32.8116 83.5078 32.8116 82.9453H32.3384Z" fill="black"/>
<path d="M42.8675 59.2672H39.9828V82.3661H42.8675V59.2672Z" stroke="black" stroke-width="0.946428"/>
<path d="M39.9966 58.1024L40.047 58.5729C40.2875 58.5471 40.4699 58.3441 40.4698 58.1023L39.9966 58.1024ZM38.7358 56.7518H38.2626C38.2626 57.0131 38.4744 57.2249 38.7357 57.225L38.7358 56.7518ZM38.7358 55.8661V55.3928C38.4745 55.3928 38.2626 55.6047 38.2626 55.8661H38.7358ZM44.1548 55.8661H44.628C44.628 55.6047 44.4161 55.3928 44.1548 55.3928V55.8661ZM44.1548 56.7518V57.225C44.4161 57.225 44.628 57.0131 44.628 56.7518H44.1548ZM42.8999 57.9647L42.4288 57.9202C42.4281 57.9272 42.4276 57.9342 42.4273 57.9412L42.8999 57.9647ZM42.8931 58.1024L42.4204 58.0789C42.414 58.2083 42.4609 58.3346 42.5501 58.4285C42.6394 58.5223 42.7632 58.5755 42.8927 58.5756L42.8931 58.1024ZM43.436 58.6864L43.9092 58.6867V58.6864H43.436ZM42.8931 59.2694V59.7426L42.8935 59.7426L42.8931 59.2694ZM39.4526 58.6864H38.9794L38.9794 58.6867L39.4526 58.6864ZM39.8872 58.1141L39.8368 57.6436C39.8198 57.6454 39.803 57.6481 39.7863 57.6518L39.8872 58.1141ZM39.9966 58.1024L40.4698 58.1023C40.4695 57.1254 39.7227 56.2789 38.736 56.2786L38.7358 56.7518L38.7357 57.225C39.1402 57.2251 39.5232 57.5864 39.5234 58.1025L39.9966 58.1024ZM38.7358 56.7518H39.2091V55.8661H38.7358H38.2626V56.7518H38.7358ZM38.7358 55.8661V56.3393H44.1548V55.8661V55.3928H38.7358V55.8661ZM44.1548 55.8661H43.6816V56.7518H44.1548H44.628V55.8661H44.1548ZM44.1548 56.7518V56.2786C43.2279 56.2786 42.5134 57.0246 42.4288 57.9202L42.8999 57.9647L43.371 58.0092C43.4152 57.5411 43.7727 57.225 44.1548 57.225V56.7518ZM42.8999 57.9647L42.4273 57.9412L42.4204 58.0789L42.8931 58.1024L43.3657 58.1259L43.3725 57.9882L42.8999 57.9647ZM42.8931 58.1024L42.8927 58.5756C42.9007 58.5756 42.9142 58.5782 42.9305 58.5958C42.9474 58.6139 42.9628 58.6448 42.9628 58.6864H43.436H43.9092C43.9092 58.1357 43.4866 57.6297 42.8935 57.6292L42.8931 58.1024ZM43.436 58.6864L42.9628 58.6861C42.9628 58.7276 42.9474 58.7581 42.9307 58.7761C42.9146 58.7934 42.9011 58.7962 42.8927 58.7962L42.8931 59.2694L42.8935 59.7426C43.4858 59.7421 43.9089 59.2376 43.9092 58.6867L43.436 58.6864ZM42.8931 59.2694V58.7962H39.9966V59.2694V59.7426H42.8931V59.2694ZM39.9966 59.2694V58.7962C39.9881 58.7962 39.9744 58.7934 39.958 58.7759C39.9412 58.7578 39.9259 58.7273 39.9259 58.6861L39.4526 58.6864L38.9794 58.6867C38.9798 59.2385 39.4045 59.7426 39.9966 59.7426V59.2694ZM39.4526 58.6864H39.9259C39.9259 58.6079 39.9751 58.5793 39.9881 58.5764L39.8872 58.1141L39.7863 57.6518C39.3033 57.7572 38.9794 58.2002 38.9794 58.6864H39.4526ZM39.8872 58.1141L39.9376 58.5846L40.047 58.5729L39.9966 58.1024L39.9462 57.6319L39.8368 57.6436L39.8872 58.1141Z" fill="black"/>
<path d="M42.8925 83.4883V83.015C42.6311 83.015 42.4192 83.2269 42.4192 83.4883H42.8925ZM44.1542 84.7461H44.6274C44.6274 84.4847 44.4155 84.2729 44.1542 84.2728L44.1542 84.7461ZM44.1542 85.7939V86.2671C44.4155 86.2671 44.6274 86.0553 44.6274 85.7939H44.1542ZM38.7352 85.7939H38.262C38.262 86.0553 38.4739 86.2671 38.7352 86.2671V85.7939ZM38.7352 84.7461L38.7352 84.2728C38.4739 84.2729 38.262 84.4847 38.262 84.7461H38.7352ZM39.996 83.4883H40.4692C40.4692 83.2271 40.2576 83.0153 39.9964 83.015L39.996 83.4883ZM39.453 82.9453L38.9798 82.9452V82.9453H39.453ZM39.996 82.4023V81.9291L39.9956 81.9291L39.996 82.4023ZM43.4364 82.9453H43.9096V82.9452L43.4364 82.9453ZM42.8925 83.4883H42.4192C42.4192 84.4462 43.196 85.2192 44.1541 85.2193L44.1542 84.7461L44.1542 84.2728C43.7162 84.2728 43.3657 83.9209 43.3657 83.4883H42.8925ZM44.1542 84.7461H43.681V85.7939H44.1542H44.6274V84.7461H44.1542ZM44.1542 85.7939V85.3207H38.7352V85.7939V86.2671H44.1542V85.7939ZM38.7352 85.7939H39.2084V84.7461H38.7352H38.262V85.7939H38.7352ZM38.7352 84.7461L38.7352 85.2193C39.6911 85.2192 40.4692 84.4462 40.4692 83.4883H39.996H39.5228C39.5228 83.9209 39.1711 84.2728 38.7352 84.2728L38.7352 84.7461ZM39.996 83.4883L39.9964 83.015C39.9569 83.015 39.9262 82.9837 39.9262 82.9453H39.453H38.9798C38.9798 83.5069 39.4346 83.961 39.9956 83.9615L39.996 83.4883ZM39.453 82.9453L39.9262 82.9453C39.9262 82.9068 39.957 82.8756 39.9964 82.8755L39.996 82.4023L39.9956 81.9291C39.4345 81.9296 38.9798 82.3837 38.9798 82.9452L39.453 82.9453ZM39.996 82.4023V82.8755H42.8925V82.4023V81.9291H39.996V82.4023ZM42.8925 82.4023V82.8755C42.9325 82.8755 42.9632 82.9074 42.9632 82.9453L43.4364 82.9453L43.9096 82.9452C43.9096 82.3828 43.4533 81.9291 42.8925 81.9291V82.4023ZM43.4364 82.9453H42.9632C42.9632 82.9832 42.9325 83.015 42.8925 83.015V83.4883V83.9615C43.4533 83.9615 43.9096 83.5078 43.9096 82.9453H43.4364Z" fill="black"/>
<path d="M53.9655 59.2672H51.0808V82.3661H53.9655V59.2672Z" stroke="black" stroke-width="0.946428"/>
<path d="M51.0946 58.1024L51.145 58.5729C51.3855 58.5471 51.5679 58.3441 51.5678 58.1023L51.0946 58.1024ZM49.8339 56.7518H49.3606C49.3606 57.0131 49.5724 57.2249 49.8337 57.225L49.8339 56.7518ZM49.8339 55.8661V55.3928C49.5725 55.3928 49.3606 55.6047 49.3606 55.8661H49.8339ZM55.2528 55.8661H55.726C55.726 55.6047 55.5142 55.3928 55.2528 55.3928V55.8661ZM55.2528 56.7518V57.225C55.5142 57.225 55.726 57.0131 55.726 56.7518H55.2528ZM53.9979 57.9647L53.5268 57.9202C53.5261 57.9272 53.5256 57.9342 53.5253 57.9412L53.9979 57.9647ZM53.9911 58.1024L53.5185 58.0789C53.512 58.2083 53.5589 58.3346 53.6481 58.4285C53.7374 58.5223 53.8612 58.5755 53.9907 58.5756L53.9911 58.1024ZM54.5341 58.6864L55.0073 58.6867V58.6864H54.5341ZM53.9911 59.2694V59.7426L53.9915 59.7426L53.9911 59.2694ZM50.5507 58.6864H50.0774L50.0774 58.6867L50.5507 58.6864ZM50.9852 58.1141L50.9348 57.6436C50.9179 57.6454 50.901 57.6481 50.8843 57.6518L50.9852 58.1141ZM51.0946 58.1024L51.5678 58.1023C51.5675 57.1254 50.8207 56.2789 49.834 56.2786L49.8339 56.7518L49.8337 57.225C50.2382 57.2251 50.6212 57.5864 50.6214 58.1025L51.0946 58.1024ZM49.8339 56.7518H50.3071V55.8661H49.8339H49.3606V56.7518H49.8339ZM49.8339 55.8661V56.3393H55.2528V55.8661V55.3928H49.8339V55.8661ZM55.2528 55.8661H54.7796V56.7518H55.2528H55.726V55.8661H55.2528ZM55.2528 56.7518V56.2786C54.3259 56.2786 53.6114 57.0246 53.5268 57.9202L53.9979 57.9647L54.469 58.0092C54.5132 57.5411 54.8707 57.225 55.2528 57.225V56.7518ZM53.9979 57.9647L53.5253 57.9412L53.5185 58.0789L53.9911 58.1024L54.4637 58.1259L54.4706 57.9882L53.9979 57.9647ZM53.9911 58.1024L53.9907 58.5756C53.9988 58.5756 54.0122 58.5782 54.0285 58.5958C54.0454 58.6139 54.0608 58.6448 54.0608 58.6864H54.5341H55.0073C55.0073 58.1357 54.5846 57.6297 53.9915 57.6292L53.9911 58.1024ZM54.5341 58.6864L54.0608 58.6861C54.0608 58.7276 54.0454 58.7581 54.0287 58.7761C54.0126 58.7934 53.9991 58.7962 53.9907 58.7962L53.9911 59.2694L53.9915 59.7426C54.5838 59.7421 55.0069 59.2377 55.0073 58.6867L54.5341 58.6864ZM53.9911 59.2694V58.7962H51.0946V59.2694V59.7426H53.9911V59.2694ZM51.0946 59.2694V58.7962C51.0861 58.7962 51.0724 58.7934 51.0561 58.7759C51.0392 58.7578 51.0239 58.7273 51.0239 58.6861L50.5507 58.6864L50.0774 58.6867C50.0778 59.2385 50.5025 59.7426 51.0946 59.7426V59.2694ZM50.5507 58.6864H51.0239C51.0239 58.6079 51.0731 58.5793 51.0861 58.5764L50.9852 58.1141L50.8843 57.6518C50.4013 57.7572 50.0774 58.2002 50.0774 58.6864H50.5507ZM50.9852 58.1141L51.0356 58.5846L51.145 58.5729L51.0946 58.1024L51.0442 57.6319L50.9348 57.6436L50.9852 58.1141Z" fill="black"/>
<path d="M53.9904 83.4883V83.015C53.729 83.015 53.5171 83.2269 53.5171 83.4883H53.9904ZM55.2521 84.7461H55.7253C55.7253 84.4847 55.5135 84.2729 55.2521 84.2728L55.2521 84.7461ZM55.2521 85.7939V86.2671C55.5134 86.2671 55.7253 86.0553 55.7253 85.7939H55.2521ZM49.8331 85.7939H49.3599C49.3599 86.0553 49.5718 86.2671 49.8331 86.2671V85.7939ZM49.8331 84.7461V84.2728C49.5718 84.2728 49.3599 84.4847 49.3599 84.7461H49.8331ZM51.0948 83.4883H51.5681C51.5681 83.2269 51.3562 83.015 51.0948 83.015V83.4883ZM50.5509 82.9453L50.0777 82.9452V82.9453H50.5509ZM54.5343 82.9453H55.0075V82.9452L54.5343 82.9453ZM53.9904 83.4883H53.5171C53.5171 84.4462 54.294 85.2191 55.252 85.2193L55.2521 84.7461L55.2521 84.2728C54.8141 84.2728 54.4636 83.9209 54.4636 83.4883H53.9904ZM55.2521 84.7461H54.7789V85.7939H55.2521H55.7253V84.7461H55.2521ZM55.2521 85.7939V85.3207H49.8331V85.7939V86.2671H55.2521V85.7939ZM49.8331 85.7939H50.3063V84.7461H49.8331H49.3599V85.7939H49.8331ZM49.8331 84.7461V85.2193C50.7886 85.2193 51.5681 84.4467 51.5681 83.4883H51.0948H50.6216C50.6216 83.9204 50.2694 84.2728 49.8331 84.2728V84.7461ZM51.0948 83.4883V83.015C51.0548 83.015 51.0241 82.9832 51.0241 82.9453H50.5509H50.0777C50.0777 83.5078 50.534 83.9615 51.0948 83.9615V83.4883ZM50.5509 82.9453L51.0241 82.9453C51.0241 82.9074 51.0548 82.8755 51.0948 82.8755V82.4023V81.9291C50.534 81.9291 50.0777 82.3828 50.0777 82.9452L50.5509 82.9453ZM51.0948 82.4023V82.8755H53.9904V82.4023V81.9291H51.0948V82.4023ZM53.9904 82.4023V82.8755C54.0304 82.8755 54.0611 82.9074 54.0611 82.9453L54.5343 82.9453L55.0075 82.9452C55.0075 82.3828 54.5512 81.9291 53.9904 81.9291V82.4023ZM54.5343 82.9453H54.0611C54.0611 82.9832 54.0304 83.015 53.9904 83.015V83.4883V83.9615C54.5512 83.9615 55.0075 83.5078 55.0075 82.9453H54.5343Z" fill="black"/>
<path d="M65.0635 59.2672H62.1788V82.3661H65.0635V59.2672Z" stroke="black" stroke-width="0.946428"/>
<path d="M62.1925 58.1024L62.2429 58.5729C62.4834 58.5471 62.6658 58.3441 62.6657 58.1023L62.1925 58.1024ZM60.9318 56.7518H60.4585C60.4585 57.0131 60.6703 57.2249 60.9316 57.225L60.9318 56.7518ZM60.9318 55.8661V55.3928C60.6704 55.3928 60.4585 55.6047 60.4585 55.8661H60.9318ZM66.3507 55.8661H66.8239C66.8239 55.6047 66.6121 55.3928 66.3507 55.3928V55.8661ZM66.3507 56.7518V57.225C66.6121 57.225 66.8239 57.0131 66.8239 56.7518H66.3507ZM65.0958 57.9647L64.6247 57.9202C64.624 57.9272 64.6235 57.9342 64.6232 57.9412L65.0958 57.9647ZM65.089 58.1024L64.6164 58.0789C64.6099 58.2083 64.6568 58.3346 64.7461 58.4285C64.8353 58.5223 64.9592 58.5755 65.0887 58.5756L65.089 58.1024ZM65.632 58.6864L66.1052 58.6867V58.6864H65.632ZM65.089 59.2694V59.7426L65.0893 59.7426L65.089 59.2694ZM61.6486 58.6864H61.1753L61.1753 58.6867L61.6486 58.6864ZM62.0831 58.1141L62.0327 57.6436C62.0157 57.6454 61.9988 57.6481 61.9821 57.6518L62.0831 58.1141ZM62.1925 58.1024L62.6657 58.1023C62.6654 57.1254 61.9186 56.2789 60.9319 56.2786L60.9318 56.7518L60.9316 57.225C61.3361 57.2251 61.7191 57.5864 61.7193 58.1025L62.1925 58.1024ZM60.9318 56.7518H61.405V55.8661H60.9318H60.4585V56.7518H60.9318ZM60.9318 55.8661V56.3393H66.3507V55.8661V55.3928H60.9318V55.8661ZM66.3507 55.8661H65.8775V56.7518H66.3507H66.8239V55.8661H66.3507ZM66.3507 56.7518V56.2786C65.4238 56.2786 64.7093 57.0246 64.6247 57.9202L65.0958 57.9647L65.5669 58.0092C65.6111 57.5411 65.9686 57.225 66.3507 57.225V56.7518ZM65.0958 57.9647L64.6232 57.9412L64.6164 58.0789L65.089 58.1024L65.5616 58.1259L65.5685 57.9882L65.0958 57.9647ZM65.089 58.1024L65.0887 58.5756C65.0967 58.5756 65.1102 58.5782 65.1264 58.5957C65.1433 58.6139 65.1587 58.6447 65.1587 58.6864H65.632H66.1052C66.1052 58.1358 65.6826 57.6296 65.0893 57.6292L65.089 58.1024ZM65.632 58.6864L65.1587 58.6861C65.1587 58.7276 65.1433 58.7582 65.1266 58.7761C65.1105 58.7934 65.0971 58.7962 65.0887 58.7962L65.089 59.2694L65.0893 59.7426C65.6818 59.7422 66.1048 59.2376 66.1052 58.6867L65.632 58.6864ZM65.089 59.2694V58.7962H62.1925V59.2694V59.7426H65.089V59.2694ZM62.1925 59.2694V58.7962C62.184 58.7962 62.1703 58.7934 62.154 58.7759C62.1371 58.7578 62.1218 58.7273 62.1218 58.6861L61.6486 58.6864L61.1753 58.6867C61.1757 59.2385 61.6004 59.7426 62.1925 59.7426V59.2694ZM61.6486 58.6864H62.1218C62.1218 58.608 62.171 58.5793 62.1841 58.5764L62.0831 58.1141L61.9821 57.6518C61.4993 57.7573 61.1753 58.2001 61.1753 58.6864H61.6486ZM62.0831 58.1141L62.1335 58.5846L62.2429 58.5729L62.1925 58.1024L62.1421 57.6319L62.0327 57.6436L62.0831 58.1141Z" fill="black"/>
<path d="M65.0884 83.4883V83.015C64.827 83.015 64.6152 83.2269 64.6152 83.4883H65.0884ZM66.3501 84.7461H66.8233C66.8233 84.4847 66.6115 84.2729 66.3502 84.2728L66.3501 84.7461ZM66.3501 85.7939V86.2671C66.6114 86.2671 66.8233 86.0553 66.8233 85.7939H66.3501ZM60.9312 85.7939H60.4579C60.4579 86.0553 60.6698 86.2671 60.9312 86.2671V85.7939ZM60.9312 84.7461V84.2728C60.6698 84.2728 60.4579 84.4847 60.4579 84.7461H60.9312ZM62.1929 83.4883H62.6661C62.6661 83.2269 62.4542 83.015 62.1929 83.015V83.4883ZM61.6489 82.9453L61.1757 82.9452V82.9453H61.6489ZM65.6323 82.9453H66.1055V82.9452L65.6323 82.9453ZM65.0884 83.4883H64.6152C64.6152 84.4462 65.392 85.2192 66.35 85.2193L66.3501 84.7461L66.3502 84.2728C65.9121 84.2728 65.5616 83.9209 65.5616 83.4883H65.0884ZM66.3501 84.7461H65.8769V85.7939H66.3501H66.8233V84.7461H66.3501ZM66.3501 85.7939V85.3207H60.9312V85.7939V86.2671H66.3501V85.7939ZM60.9312 85.7939H61.4044V84.7461H60.9312H60.4579V85.7939H60.9312ZM60.9312 84.7461V85.2193C61.8866 85.2193 62.6661 84.4467 62.6661 83.4883H62.1929H61.7197C61.7197 83.9204 61.3675 84.2728 60.9312 84.2728V84.7461ZM62.1929 83.4883V83.015C62.1528 83.015 62.1221 82.9832 62.1221 82.9453H61.6489H61.1757C61.1757 83.5078 61.632 83.9615 62.1929 83.9615V83.4883ZM61.6489 82.9453L62.1221 82.9453C62.1221 82.9074 62.1529 82.8755 62.1929 82.8755V82.4023V81.9291C61.632 81.9291 61.1758 82.3828 61.1757 82.9452L61.6489 82.9453ZM62.1929 82.4023V82.8755H65.0884V82.4023V81.9291H62.1929V82.4023ZM65.0884 82.4023V82.8755C65.1284 82.8755 65.1591 82.9074 65.1591 82.9453L65.6323 82.9453L66.1055 82.9452C66.1055 82.3828 65.6492 81.9291 65.0884 81.9291V82.4023ZM65.6323 82.9453H65.1591C65.1591 82.9832 65.1284 83.015 65.0884 83.015V83.4883V83.9615C65.6492 83.9615 66.1055 83.5078 66.1055 82.9453H65.6323Z" fill="black"/>
<path d="M76.1615 59.2672H73.2769V82.3661H76.1615V59.2672Z" stroke="black" stroke-width="0.946428"/>
<path d="M73.2905 58.1024L73.3409 58.5729C73.5814 58.5471 73.7638 58.3441 73.7637 58.1023L73.2905 58.1024ZM72.0298 56.7518H71.5566C71.5566 57.0131 71.7683 57.2249 72.0296 57.225L72.0298 56.7518ZM72.0298 55.8661V55.3928C71.7684 55.3928 71.5566 55.6047 71.5566 55.8661H72.0298ZM77.4487 55.8661H77.9219C77.9219 55.6047 77.7101 55.3928 77.4487 55.3928V55.8661ZM77.4487 56.7518V57.225C77.7101 57.225 77.9219 57.0131 77.9219 56.7518H77.4487ZM76.1938 57.9647L75.7227 57.9202C75.7221 57.9272 75.7216 57.9342 75.7212 57.9412L76.1938 57.9647ZM76.187 58.1024L75.7144 58.0789C75.708 58.2083 75.7548 58.3346 75.8441 58.4285C75.9333 58.5223 76.0572 58.5755 76.1867 58.5756L76.187 58.1024ZM76.73 58.6864L77.2032 58.6867V58.6864H76.73ZM76.187 59.2694V59.7426L76.1873 59.7426L76.187 59.2694ZM72.7466 58.6864H72.2734L72.2734 58.6867L72.7466 58.6864ZM73.1812 58.1141L73.1307 57.6436C73.1138 57.6454 73.0969 57.6481 73.0802 57.6518L73.1812 58.1141ZM73.2905 58.1024L73.7637 58.1023C73.7635 57.1254 73.0166 56.2789 72.0299 56.2786L72.0298 56.7518L72.0296 57.225C72.4342 57.2251 72.8172 57.5864 72.8173 58.1025L73.2905 58.1024ZM72.0298 56.7518H72.503V55.8661H72.0298H71.5566V56.7518H72.0298ZM72.0298 55.8661V56.3393H77.4487V55.8661V55.3928H72.0298V55.8661ZM77.4487 55.8661H76.9755V56.7518H77.4487H77.9219V55.8661H77.4487ZM77.4487 56.7518V56.2786C76.5218 56.2786 75.8073 57.0246 75.7227 57.9202L76.1938 57.9647L76.665 58.0092C76.7092 57.5411 77.0666 57.225 77.4487 57.225V56.7518ZM76.1938 57.9647L75.7212 57.9412L75.7144 58.0789L76.187 58.1024L76.6596 58.1259L76.6665 57.9882L76.1938 57.9647ZM76.187 58.1024L76.1867 58.5756C76.1947 58.5756 76.2082 58.5782 76.2245 58.5957C76.2413 58.6139 76.2568 58.6447 76.2568 58.6864H76.73H77.2032C77.2032 58.1358 76.7806 57.6296 76.1873 57.6292L76.187 58.1024ZM76.73 58.6864L76.2568 58.6861C76.2567 58.7276 76.2414 58.7582 76.2247 58.7761C76.2085 58.7934 76.1951 58.7962 76.1867 58.7962L76.187 59.2694L76.1873 59.7426C76.7798 59.7422 77.2029 59.2376 77.2032 58.6867L76.73 58.6864ZM76.187 59.2694V58.7962H73.2905V59.2694V59.7426H76.187V59.2694ZM73.2905 59.2694V58.7962C73.282 58.7962 73.2683 58.7934 73.252 58.7759C73.2351 58.7578 73.2198 58.7273 73.2198 58.6861L72.7466 58.6864L72.2734 58.6867C72.2737 59.2385 72.6984 59.7426 73.2905 59.7426V59.2694ZM72.7466 58.6864H73.2198C73.2198 58.608 73.269 58.5793 73.2821 58.5764L73.1812 58.1141L73.0802 57.6518C72.5973 57.7573 72.2734 58.2002 72.2734 58.6864H72.7466ZM73.1812 58.1141L73.2316 58.5846L73.3409 58.5729L73.2905 58.1024L73.2401 57.6319L73.1307 57.6436L73.1812 58.1141Z" fill="black"/>
<path d="M76.1864 83.4883V83.015C75.9251 83.015 75.7132 83.2269 75.7132 83.4883H76.1864ZM77.4481 84.7461H77.9213C77.9213 84.4847 77.7095 84.2729 77.4482 84.2728L77.4481 84.7461ZM77.4481 85.7939V86.2671C77.7095 86.2671 77.9213 86.0553 77.9213 85.7939H77.4481ZM72.0292 85.7939H71.556C71.556 86.0553 71.7678 86.2671 72.0292 86.2671V85.7939ZM72.0292 84.7461V84.2728C71.7678 84.2728 71.556 84.4847 71.556 84.7461H72.0292ZM73.2909 83.4883H73.7641C73.7641 83.2269 73.5522 83.015 73.2909 83.015V83.4883ZM72.7469 82.9453L72.2737 82.9452V82.9453H72.7469ZM76.7303 82.9453H77.2036V82.9452L76.7303 82.9453ZM76.1864 83.4883H75.7132C75.7132 84.4462 76.49 85.2192 77.4481 85.2193L77.4481 84.7461L77.4482 84.2728C77.0102 84.2728 76.6596 83.9209 76.6596 83.4883H76.1864ZM77.4481 84.7461H76.9749V85.7939H77.4481H77.9213V84.7461H77.4481ZM77.4481 85.7939V85.3207H72.0292V85.7939V86.2671H77.4481V85.7939ZM72.0292 85.7939H72.5024V84.7461H72.0292H71.556V85.7939H72.0292ZM72.0292 84.7461V85.2193C72.9846 85.2193 73.7641 84.4467 73.7641 83.4883H73.2909H72.8177C72.8177 83.9204 72.4655 84.2728 72.0292 84.2728V84.7461ZM73.2909 83.4883V83.015C73.2508 83.015 73.2202 82.9832 73.2202 82.9453H72.7469H72.2737C72.2737 83.5078 72.7301 83.9615 73.2909 83.9615V83.4883ZM72.7469 82.9453L73.2202 82.9453C73.2202 82.9074 73.2509 82.8755 73.2909 82.8755V82.4023V81.9291C72.73 81.9291 72.2738 82.3828 72.2737 82.9452L72.7469 82.9453ZM73.2909 82.4023V82.8755H76.1864V82.4023V81.9291H73.2909V82.4023ZM76.1864 82.4023V82.8755C76.2264 82.8755 76.2571 82.9074 76.2571 82.9453L76.7303 82.9453L77.2036 82.9452C77.2035 82.3828 76.7473 81.9291 76.1864 81.9291V82.4023ZM76.7303 82.9453H76.2571C76.2571 82.9832 76.2265 83.015 76.1864 83.015V83.4883V83.9615C76.7472 83.9615 77.2036 83.5078 77.2036 82.9453H76.7303Z" fill="black"/>
<path d="M87.2594 59.2672H84.3748V82.3661H87.2594V59.2672Z" stroke="black" stroke-width="0.946428"/>
<path d="M84.3884 58.1024L84.4388 58.5729C84.6793 58.5471 84.8617 58.3441 84.8616 58.1023L84.3884 58.1024ZM83.1277 56.7518H82.6545C82.6545 57.0131 82.8662 57.2249 83.1275 57.225L83.1277 56.7518ZM83.1277 55.8661V55.3928C82.8663 55.3928 82.6545 55.6047 82.6545 55.8661H83.1277ZM88.5466 55.8661H89.0198C89.0198 55.6047 88.808 55.3928 88.5466 55.3928V55.8661ZM88.5466 56.7518V57.225C88.808 57.225 89.0198 57.0131 89.0198 56.7518H88.5466ZM87.2849 58.1024L86.8117 58.1023C86.8116 58.3635 87.0233 58.5754 87.2846 58.5756L87.2849 58.1024ZM87.8279 58.6864L88.3011 58.6867V58.6864H87.8279ZM87.2849 59.2694V59.7426L87.2853 59.7426L87.2849 59.2694ZM83.8445 58.6864H83.3713L83.3713 58.6867L83.8445 58.6864ZM84.2791 58.1141L84.2286 57.6436C84.2117 57.6454 84.1948 57.6481 84.1781 57.6518L84.2791 58.1141ZM84.3884 58.1024L84.8616 58.1023C84.8614 57.1254 84.1144 56.279 83.1279 56.2786L83.1277 56.7518L83.1275 57.225C83.532 57.2252 83.9151 57.5864 83.9152 58.1025L84.3884 58.1024ZM83.1277 56.7518H83.6009V55.8661H83.1277H82.6545V56.7518H83.1277ZM83.1277 55.8661V56.3393H88.5466V55.8661V55.3928H83.1277V55.8661ZM88.5466 55.8661H88.0734V56.7518H88.5466H89.0198V55.8661H88.5466ZM88.5466 56.7518V56.2786C87.5573 56.2786 86.812 57.1254 86.8117 58.1023L87.2849 58.1024L87.7581 58.1025C87.7583 57.586 88.14 57.225 88.5466 57.225V56.7518ZM87.2849 58.1024L87.2846 58.5756C87.2926 58.5756 87.3061 58.5782 87.3224 58.5957C87.3392 58.6139 87.3547 58.6448 87.3547 58.6864H87.8279H88.3011C88.3011 58.1358 87.8785 57.6296 87.2853 57.6292L87.2849 58.1024ZM87.8279 58.6864L87.3547 58.6861C87.3546 58.7276 87.3393 58.7582 87.3226 58.7761C87.3064 58.7934 87.293 58.7962 87.2846 58.7962L87.2849 59.2694L87.2853 59.7426C87.8777 59.7422 88.3008 59.2376 88.3011 58.6867L87.8279 58.6864ZM87.2849 59.2694V58.7962H84.3884V59.2694V59.7426H87.2849V59.2694ZM84.3884 59.2694V58.7962C84.3799 58.7962 84.3662 58.7934 84.3499 58.7759C84.333 58.7578 84.3177 58.7273 84.3177 58.6861L83.8445 58.6864L83.3713 58.6867C83.3716 59.2385 83.7963 59.7426 84.3884 59.7426V59.2694ZM83.8445 58.6864H84.3177C84.3177 58.608 84.3669 58.5793 84.38 58.5764L84.2791 58.1141L84.1781 57.6518C83.6952 57.7572 83.3713 58.2002 83.3713 58.6864H83.8445ZM84.2791 58.1141L84.3295 58.5846L84.4388 58.5729L84.3884 58.1024L84.338 57.6319L84.2286 57.6436L84.2791 58.1141Z" fill="black"/>
<path d="M87.2844 83.4883V83.015C87.0231 83.015 86.8112 83.2269 86.8112 83.4883H87.2844ZM88.5461 84.7461H89.0194C89.0194 84.4847 88.8075 84.2729 88.5462 84.2728L88.5461 84.7461ZM88.5461 85.7939V86.2671C88.8075 86.2671 89.0194 86.0553 89.0194 85.7939H88.5461ZM83.1272 85.7939H82.654C82.654 86.0553 82.8658 86.2671 83.1272 86.2671V85.7939ZM83.1272 84.7461L83.1272 84.2728C82.8658 84.2728 82.654 84.4847 82.654 84.7461H83.1272ZM84.3889 83.4883H84.8621C84.8621 83.2269 84.6503 83.015 84.3889 83.015V83.4883ZM83.845 82.9453L83.3718 82.9452V82.9453H83.845ZM87.8284 82.9453H88.3016V82.9452L87.8284 82.9453ZM87.2844 83.4883H86.8112C86.8112 84.4462 87.588 85.2192 88.5461 85.2193L88.5461 84.7461L88.5462 84.2728C88.1082 84.2728 87.7576 83.9209 87.7576 83.4883H87.2844ZM88.5461 84.7461H88.0729V85.7939H88.5461H89.0194V84.7461H88.5461ZM88.5461 85.7939V85.3207H83.1272V85.7939V86.2671H88.5461V85.7939ZM83.1272 85.7939H83.6004V84.7461H83.1272H82.654V85.7939H83.1272ZM83.1272 84.7461L83.1272 85.2193C84.0827 85.2193 84.8621 84.4467 84.8621 83.4883H84.3889H83.9157C83.9157 83.9204 83.5635 84.2728 83.1272 84.2728L83.1272 84.7461ZM84.3889 83.4883V83.015C84.3489 83.015 84.3182 82.9832 84.3182 82.9453H83.845H83.3718C83.3718 83.5078 83.8281 83.9615 84.3889 83.9615V83.4883ZM83.845 82.9453L84.3182 82.9453C84.3182 82.9074 84.3489 82.8755 84.3889 82.8755V82.4023V81.9291C83.8281 81.9291 83.3718 82.3828 83.3718 82.9452L83.845 82.9453ZM84.3889 82.4023V82.8755H87.2844V82.4023V81.9291H84.3889V82.4023ZM87.2844 82.4023V82.8755C87.3244 82.8755 87.3552 82.9074 87.3552 82.9453L87.8284 82.9453L88.3016 82.9452C88.3015 82.3828 87.8453 81.9291 87.2844 81.9291V82.4023ZM87.8284 82.9453H87.3552C87.3552 82.9832 87.3245 83.015 87.2844 83.015V83.4883V83.9615C87.8452 83.9615 88.3016 83.5078 88.3016 82.9453H87.8284Z" fill="black"/>
<path d="M98.3573 59.2672H95.4727V82.3661H98.3573V59.2672Z" stroke="black" stroke-width="0.946428"/>
<path d="M95.4863 58.1024L95.5367 58.5729C95.7773 58.5471 95.9596 58.3441 95.9595 58.1023L95.4863 58.1024ZM94.2246 56.7518H93.7514C93.7514 57.0131 93.9633 57.225 94.2246 57.225V56.7518ZM94.2246 55.8661V55.3928C93.9633 55.3928 93.7514 55.6047 93.7514 55.8661H94.2246ZM99.6445 55.8661H100.118C100.118 55.6047 99.9059 55.3928 99.6445 55.3928V55.8661ZM99.6445 56.7518V57.225C99.9059 57.225 100.118 57.0131 100.118 56.7518H99.6445ZM98.3828 58.1024L97.9096 58.1023C97.9095 58.3635 98.1212 58.5754 98.3825 58.5756L98.3828 58.1024ZM98.9258 58.6864L99.399 58.6867V58.6864H98.9258ZM98.3828 59.2694V59.7426L98.3832 59.7426L98.3828 59.2694ZM94.9424 58.6864H94.4692L94.4692 58.6867L94.9424 58.6864ZM95.377 58.1141L95.3265 57.6436C95.3096 57.6454 95.2927 57.6481 95.276 57.6518L95.377 58.1141ZM95.4863 58.1024L95.9595 58.1023C95.9593 57.1249 95.2112 56.2786 94.2246 56.2786V56.7518V57.225C94.6295 57.225 95.013 57.5866 95.0131 58.1025L95.4863 58.1024ZM94.2246 56.7518H94.6978V55.8661H94.2246H93.7514V56.7518H94.2246ZM94.2246 55.8661V56.3393H99.6445V55.8661V55.3928H94.2246V55.8661ZM99.6445 55.8661H99.1713V56.7518H99.6445H100.118V55.8661H99.6445ZM99.6445 56.7518V56.2786C98.6552 56.2786 97.9099 57.1255 97.9096 58.1023L98.3828 58.1024L98.856 58.1025C98.8562 57.586 99.238 57.225 99.6445 57.225V56.7518ZM98.3828 58.1024L98.3825 58.5756C98.3905 58.5756 98.404 58.5782 98.4203 58.5957C98.4371 58.6139 98.4526 58.6448 98.4526 58.6864H98.9258H99.399C99.399 58.1358 98.9764 57.6296 98.3832 57.6292L98.3828 58.1024ZM98.9258 58.6864L98.4526 58.6861C98.4525 58.7276 98.4372 58.7582 98.4205 58.7761C98.4043 58.7934 98.3909 58.7962 98.3825 58.7962L98.3828 59.2694L98.3832 59.7426C98.9755 59.7421 99.3987 59.2376 99.399 58.6867L98.9258 58.6864ZM98.3828 59.2694V58.7962H95.4863V59.2694V59.7426H98.3828V59.2694ZM95.4863 59.2694V58.7962C95.4778 58.7962 95.4641 58.7934 95.4478 58.7759C95.4309 58.7578 95.4156 58.7273 95.4156 58.6861L94.9424 58.6864L94.4692 58.6867C94.4695 59.2385 94.8942 59.7426 95.4863 59.7426V59.2694ZM94.9424 58.6864H95.4156C95.4156 58.608 95.4648 58.5793 95.4779 58.5764L95.377 58.1141L95.276 57.6518C94.7931 57.7572 94.4692 58.2002 94.4692 58.6864H94.9424ZM95.377 58.1141L95.4274 58.5846L95.5367 58.5729L95.4863 58.1024L95.4359 57.6319L95.3265 57.6436L95.377 58.1141Z" fill="black"/>
<path d="M98.3823 83.4883V83.015C98.121 83.015 97.9091 83.2269 97.9091 83.4883H98.3823ZM99.644 84.7461H100.117C100.117 84.4847 99.9054 84.2729 99.6441 84.2728L99.644 84.7461ZM99.644 85.7939V86.2671C99.9054 86.2671 100.117 86.0553 100.117 85.7939H99.644ZM94.2251 85.7939H93.7519C93.7519 86.0553 93.9637 86.2671 94.2251 86.2671V85.7939ZM94.2251 84.7461L94.2251 84.2728C93.9637 84.2729 93.7519 84.4847 93.7519 84.7461H94.2251ZM95.4868 83.4883H95.96C95.96 83.2269 95.7482 83.015 95.4868 83.015V83.4883ZM94.9429 82.9453L94.4697 82.9452V82.9453H94.9429ZM98.9263 82.9453H99.3995V82.9452L98.9263 82.9453ZM98.3823 83.4883H97.9091C97.9091 84.4462 98.6859 85.2192 99.644 85.2193L99.644 84.7461L99.6441 84.2728C99.2061 84.2728 98.8555 83.9209 98.8555 83.4883H98.3823ZM99.644 84.7461H99.1708V85.7939H99.644H100.117V84.7461H99.644ZM99.644 85.7939V85.3207H94.2251V85.7939V86.2671H99.644V85.7939ZM94.2251 85.7939H94.6983V84.7461H94.2251H93.7519V85.7939H94.2251ZM94.2251 84.7461L94.2251 85.2193C95.1805 85.2193 95.96 84.4467 95.96 83.4883H95.4868H95.0136C95.0136 83.9204 94.6614 84.2728 94.2251 84.2728L94.2251 84.7461ZM95.4868 83.4883V83.015C95.4468 83.015 95.4161 82.9832 95.4161 82.9453H94.9429H94.4697C94.4697 83.5078 94.926 83.9615 95.4868 83.9615V83.4883ZM94.9429 82.9453L95.4161 82.9453C95.4161 82.9074 95.4468 82.8755 95.4868 82.8755V82.4023V81.9291C94.926 81.9291 94.4697 82.3828 94.4697 82.9452L94.9429 82.9453ZM95.4868 82.4023V82.8755H98.3823V82.4023V81.9291H95.4868V82.4023ZM98.3823 82.4023V82.8755C98.4223 82.8755 98.4531 82.9074 98.4531 82.9453L98.9263 82.9453L99.3995 82.9452C99.3994 82.3828 98.9432 81.9291 98.3823 81.9291V82.4023ZM98.9263 82.9453H98.4531C98.4531 82.9832 98.4224 83.015 98.3823 83.015V83.4883V83.9615C98.9431 83.9615 99.3995 83.5078 99.3995 82.9453H98.9263Z" fill="black"/>
<path d="M109.455 59.2672H106.571V82.3661H109.455V59.2672Z" stroke="black" stroke-width="0.946428"/>
<path d="M106.584 58.1024L106.635 58.5729C106.875 58.5471 107.058 58.3441 107.057 58.1023L106.584 58.1024ZM105.323 56.7518H104.85C104.85 57.0131 105.062 57.2249 105.323 57.225L105.323 56.7518ZM105.323 55.8661V55.3928C105.062 55.3928 104.85 55.6047 104.85 55.8661H105.323ZM110.742 55.8661H111.216C111.216 55.6047 111.004 55.3928 110.742 55.3928V55.8661ZM110.742 56.7518V57.225C111.004 57.225 111.216 57.0131 111.216 56.7518H110.742ZM109.481 58.1024L109.007 58.1023C109.007 58.3635 109.219 58.5754 109.48 58.5756L109.481 58.1024ZM110.024 58.6864L110.497 58.6867V58.6864H110.024ZM109.481 59.2694V59.7426L109.481 59.7426L109.481 59.2694ZM106.04 58.6864H105.567L105.567 58.6867L106.04 58.6864ZM106.475 58.1141L106.424 57.6436C106.407 57.6454 106.391 57.6481 106.374 57.6518L106.475 58.1141ZM106.584 58.1024L107.057 58.1023C107.057 57.1254 106.31 56.2789 105.324 56.2786L105.323 56.7518L105.323 57.225C105.728 57.2252 106.111 57.5864 106.111 58.1025L106.584 58.1024ZM105.323 56.7518H105.797V55.8661H105.323H104.85V56.7518H105.323ZM105.323 55.8661V56.3393H110.742V55.8661V55.3928H105.323V55.8661ZM110.742 55.8661H110.269V56.7518H110.742H111.216V55.8661H110.742ZM110.742 56.7518V56.2786C109.753 56.2786 109.008 57.1254 109.007 58.1023L109.481 58.1024L109.954 58.1025C109.954 57.586 110.336 57.225 110.742 57.225V56.7518ZM109.481 58.1024L109.48 58.5756C109.488 58.5756 109.502 58.5782 109.518 58.5957C109.535 58.6139 109.55 58.6448 109.55 58.6864H110.024H110.497C110.497 58.1358 110.074 57.6296 109.481 57.6292L109.481 58.1024ZM110.024 58.6864L109.55 58.6861C109.55 58.7276 109.535 58.7582 109.518 58.7761C109.502 58.7934 109.489 58.7962 109.48 58.7962L109.481 59.2694L109.481 59.7426C110.073 59.7421 110.497 59.2376 110.497 58.6867L110.024 58.6864ZM109.481 59.2694V58.7962H106.584V59.2694V59.7426H109.481V59.2694ZM106.584 59.2694V58.7962C106.576 58.7962 106.562 58.7934 106.546 58.7759C106.529 58.7578 106.514 58.7273 106.513 58.6861L106.04 58.6864L105.567 58.6867C105.567 59.2385 105.992 59.7426 106.584 59.7426V59.2694ZM106.04 58.6864H106.513C106.513 58.608 106.563 58.5793 106.576 58.5764L106.475 58.1141L106.374 57.6518C105.891 57.7572 105.567 58.2002 105.567 58.6864H106.04ZM106.475 58.1141L106.525 58.5846L106.635 58.5729L106.584 58.1024L106.534 57.6319L106.424 57.6436L106.475 58.1141Z" fill="black"/>
<path d="M109.48 83.4883V83.015C109.219 83.015 109.007 83.2269 109.007 83.4883H109.48ZM110.742 84.7461H111.215C111.215 84.4847 111.003 84.2729 110.742 84.2728L110.742 84.7461ZM110.742 85.7939V86.2671C111.003 86.2671 111.215 86.0553 111.215 85.7939H110.742ZM105.323 85.7939H104.85C104.85 86.0553 105.062 86.2671 105.323 86.2671V85.7939ZM105.323 84.7461L105.323 84.2728C105.062 84.2729 104.85 84.4847 104.85 84.7461H105.323ZM106.585 83.4883H107.058C107.058 83.2269 106.846 83.015 106.585 83.015V83.4883ZM106.041 82.9453L105.568 82.9452V82.9453H106.041ZM110.024 82.9453H110.497V82.9452L110.024 82.9453ZM109.48 83.4883H109.007C109.007 84.4462 109.784 85.2192 110.742 85.2193L110.742 84.7461L110.742 84.2728C110.304 84.2728 109.953 83.9209 109.953 83.4883H109.48ZM110.742 84.7461H110.269V85.7939H110.742H111.215V84.7461H110.742ZM110.742 85.7939V85.3207H105.323V85.7939V86.2671H110.742V85.7939ZM105.323 85.7939H105.796V84.7461H105.323H104.85V85.7939H105.323ZM105.323 84.7461L105.323 85.2193C106.278 85.2193 107.058 84.4467 107.058 83.4883H106.585H106.112C106.112 83.9204 105.759 84.2728 105.323 84.2728L105.323 84.7461ZM106.585 83.4883V83.015C106.545 83.015 106.514 82.9832 106.514 82.9453H106.041H105.568C105.568 83.5078 106.024 83.9615 106.585 83.9615V83.4883ZM106.041 82.9453L106.514 82.9453C106.514 82.9074 106.545 82.8755 106.585 82.8755V82.4023V81.9291C106.024 81.9291 105.568 82.3828 105.568 82.9452L106.041 82.9453ZM106.585 82.4023V82.8755H109.48V82.4023V81.9291H106.585V82.4023ZM109.48 82.4023V82.8755C109.52 82.8755 109.551 82.9074 109.551 82.9453L110.024 82.9453L110.497 82.9452C110.497 82.3828 110.041 81.9291 109.48 81.9291V82.4023ZM110.024 82.9453H109.551C109.551 82.9832 109.52 83.015 109.48 83.015V83.4883V83.9615C110.041 83.9615 110.497 83.5078 110.497 82.9453H110.024Z" fill="black"/>
<path d="M69.0332 27.0146L68.7122 27.3623C68.7996 27.443 68.9142 27.4879 69.0332 27.4879V27.0146ZM69.0342 27.0146H69.5074C69.5074 26.7533 69.2955 26.5414 69.0342 26.5414V27.0146ZM69.0342 27.0156H68.561C68.561 27.1476 68.6161 27.2736 68.713 27.3631L69.0342 27.0156ZM70.6494 30.2168L71.1225 30.2255L71.1226 30.2252L70.6494 30.2168ZM70.625 31.5391L70.1519 31.5303C70.1482 31.7271 70.2667 31.9055 70.4494 31.9785L70.625 31.5391ZM109.509 47.0742L109.333 47.5137C109.479 47.5719 109.644 47.5541 109.774 47.466C109.904 47.378 109.982 47.2312 109.982 47.0742H109.509ZM112.069 44.1611H112.543C112.543 43.8998 112.331 43.6879 112.069 43.6879V44.1611ZM112.069 48.0977H111.596C111.596 48.2769 111.697 48.4408 111.858 48.5209L112.069 48.0977ZM112.071 48.0986L112.495 48.3103C112.611 48.0765 112.517 47.7923 112.283 47.6754L112.071 48.0986ZM112.069 48.1025L111.646 47.8909C111.613 47.9566 111.596 48.0291 111.596 48.1025H112.069ZM112.069 50.3184V50.7916C112.331 50.7916 112.543 50.5797 112.543 50.3184H112.069ZM26 50.3184H25.5268C25.5268 50.5797 25.7387 50.7916 26 50.7916V50.3184ZM26 44.1611L26 43.6879C25.8745 43.6879 25.7541 43.7378 25.6654 43.8265C25.5766 43.9153 25.5268 44.0356 25.5268 44.1611H26ZM28.5605 47.0752H28.0873C28.0873 47.2322 28.1652 47.379 28.2952 47.467C28.4252 47.555 28.5903 47.5729 28.7361 47.5146L28.5605 47.0752ZM67.3467 31.5781L67.5223 32.0176C67.702 31.9457 67.8199 31.7717 67.8199 31.5781H67.3467ZM69.0176 27.0293L69.3326 27.3824C69.4291 27.2963 69.4862 27.1744 69.4905 27.0451L69.0176 27.0293ZM69.0186 27L69.334 26.6472C69.197 26.5248 69.0015 26.4927 68.8326 26.5649C68.6636 26.6371 68.5517 26.8006 68.5456 26.9842L69.0186 27ZM31.9766 48.0986L31.801 47.6592C31.5903 47.7434 31.469 47.9652 31.5119 48.188C31.5547 48.4108 31.7497 48.5718 31.9766 48.5718V48.0986ZM106.094 48.0986V48.5718C106.321 48.5718 106.516 48.4108 106.558 48.188C106.601 47.9652 106.48 47.7434 106.269 47.6592L106.094 48.0986ZM69.0342 33.2939L69.2097 32.8545C69.097 32.8095 68.9713 32.8095 68.8586 32.8545L69.0342 33.2939ZM69.0332 27.0146V27.4879H69.0342V27.0146V26.5414H69.0332V27.0146ZM69.0342 27.0146H68.561V27.0156H69.0342H69.5074V27.0146H69.0342ZM69.0342 27.0156L68.713 27.3631C68.7849 27.4296 69.1669 27.793 69.5242 28.3266C69.8861 28.8669 70.1883 29.5304 70.1763 30.2084L70.6494 30.2168L71.1226 30.2252C71.1396 29.2692 70.7205 28.4119 70.3106 27.7999C69.8962 27.1813 69.456 26.7611 69.3554 26.6681L69.0342 27.0156ZM70.6494 30.2168L70.1763 30.2081L70.1519 31.5303L70.625 31.5391L71.0981 31.5478L71.1225 30.2255L70.6494 30.2168ZM70.625 31.5391L70.4494 31.9785L109.333 47.5137L109.509 47.0742L109.684 46.6348L70.8006 31.0996L70.625 31.5391ZM109.509 47.0742H109.982V46.7207H109.509H109.036V47.0742H109.509ZM109.509 46.7207H109.982C109.982 45.5687 110.917 44.6343 112.069 44.6343V44.1611V43.6879C110.394 43.6879 109.036 45.0456 109.036 46.7207H109.509ZM112.069 44.1611H111.596V48.0977H112.069H112.543V44.1611H112.069ZM112.069 48.0977L111.858 48.5209L111.86 48.5219L112.071 48.0986L112.283 47.6754L112.281 47.6744L112.069 48.0977ZM112.071 48.0986L111.648 47.887L111.646 47.8909L112.069 48.1025L112.493 48.3142L112.495 48.3103L112.071 48.0986ZM112.069 48.1025H111.596V50.3184H112.069H112.543V48.1025H112.069ZM112.069 50.3184V49.8451H26V50.3184V50.7916H112.069V50.3184ZM26 50.3184H26.4732V44.1611H26H25.5268V50.3184H26ZM26 44.1611L26 44.6343C27.1527 44.6343 28.0873 45.5687 28.0873 46.7207H28.5605H29.0338C29.0338 45.0456 27.675 43.6879 26 43.6879L26 44.1611ZM28.5605 46.7207H28.0873V47.0752H28.5605H29.0338V46.7207H28.5605ZM28.5605 47.0752L28.7361 47.5146L67.5223 32.0176L67.3467 31.5781L67.1711 31.1387L28.385 46.6358L28.5605 47.0752ZM67.3467 31.5781H67.8199V30.2021H67.3467H66.8735V31.5781H67.3467ZM67.3467 30.2021H67.8199C67.8199 29.5241 68.1336 28.866 68.5047 28.332C68.8712 27.8046 69.2593 27.4478 69.3326 27.3824L69.0176 27.0293L68.7026 26.6762C68.5997 26.7679 68.1524 27.1805 67.7275 27.7919C67.3072 28.3966 66.8735 29.2464 66.8735 30.2021H67.3467ZM69.0176 27.0293L69.4905 27.0451L69.4915 27.0158L69.0186 27L68.5456 26.9842L68.5446 27.0135L69.0176 27.0293ZM69.0186 27L68.7031 27.3528C68.6978 27.348 68.6935 27.344 68.6907 27.3413C68.6878 27.3385 68.6854 27.3361 68.6837 27.3344C68.6805 27.3311 68.678 27.3285 68.6769 27.3274C68.6757 27.3261 68.6748 27.3252 68.6745 27.3248C68.6742 27.3245 68.674 27.3243 68.6742 27.3245C68.6748 27.3252 68.6778 27.3284 68.6815 27.3323C68.6893 27.3404 68.6995 27.3507 68.7122 27.3623L69.0332 27.0146L69.3542 26.667C69.3578 26.6702 69.3611 26.6736 69.3641 26.6767C69.3654 26.6781 69.3665 26.6792 69.3657 26.6784C69.3656 26.6782 69.3651 26.6777 69.3645 26.677C69.3639 26.6764 69.3627 26.6752 69.3613 26.6737C69.3599 26.6723 69.3573 26.6695 69.3538 26.666C69.352 26.6643 69.3496 26.6618 69.3466 26.6589C69.3437 26.6562 69.3394 26.6521 69.334 26.6472L69.0186 27ZM31.9766 48.0986V48.5718H106.094V48.0986V47.6254H31.9766V48.0986ZM106.094 48.0986L106.269 47.6592L69.2097 32.8545L69.0342 33.2939L68.8586 33.7334L105.918 48.5381L106.094 48.0986ZM69.0342 33.2939L68.8586 32.8545L31.801 47.6592L31.9766 48.0986L32.1521 48.5381L69.2097 33.7334L69.0342 33.2939Z" fill="black"/>
<path d="M29.2203 53.1408H31.4341V50.3414H29.2203V53.1408Z" stroke="black" stroke-width="0.946428"/>
<path d="M68.5893 53.1408H70.8031V50.3414H68.5893V53.1408Z" stroke="black" stroke-width="0.946428"/>
<path d="M48.7143 53.1408H50.9281V50.3414H48.7143V53.1408Z" stroke="black" stroke-width="0.946428"/>
<path d="M88.0833 53.1408H90.2971V50.3414H88.0833V53.1408Z" stroke="black" stroke-width="0.946428"/>
<path d="M35.4643 53.1408H37.6781V50.3414H35.4643V53.1408Z" stroke="black" stroke-width="0.946428"/>
<path d="M74.8333 53.1408H77.0471V50.3414H74.8333V53.1408Z" stroke="black" stroke-width="0.946428"/>
<path d="M54.9582 53.1408H57.172V50.3414H54.9582V53.1408Z" stroke="black" stroke-width="0.946428"/>
<path d="M94.3272 53.1408H96.541V50.3414H94.3272V53.1408Z" stroke="black" stroke-width="0.946428"/>
<path d="M42.0893 53.1408H44.3031V50.3414H42.0893V53.1408Z" stroke="black" stroke-width="0.946428"/>
<path d="M81.4583 53.1408H83.6721V50.3414H81.4583V53.1408Z" stroke="black" stroke-width="0.946428"/>
<path d="M61.5832 53.1408H63.797V50.3414H61.5832V53.1408Z" stroke="black" stroke-width="0.946428"/>
<path d="M100.768 53.1408H102.982V50.3414H100.768V53.1408Z" stroke="black" stroke-width="0.946428"/>
<path d="M106.446 53.1408H108.66V50.3414H106.446V53.1408Z" stroke="black" stroke-width="0.946428"/>
</svg>
