<svg width="318" height="300" viewBox="0 0 318 300" fill="none" xmlns="http://www.w3.org/2000/svg">
<path d="M317.715 0.0854492L67.5884 0.0854492V249.997H317.715V0.0854492Z" fill="#FBA036"/>
<path d="M138.331 131.628C138.331 131.628 168.174 124.137 171.496 110.817L142.7 97.2949L138.331 127.617V131.628Z" fill="#FAE5CB"/>
<path d="M288.832 67.0342H248.901V106.931H288.832V67.0342Z" fill="#F9DFBE"/>
<path d="M198.724 71.978H174.693V80.4506H198.724V71.978Z" fill="#313332"/>
<path d="M110.707 71.978H92.5303V80.4506H110.707V71.978Z" fill="#313332"/>
<path d="M82.814 100.56L100.032 113.701L135.831 94.1865L188.096 118.556L220.109 99.8488" stroke="#313332" stroke-width="8" stroke-linecap="round" stroke-linejoin="round"/>
<path d="M110.707 107.884C110.707 107.884 133.191 167.777 174.691 112.308L166.548 109.537C166.548 109.537 156.199 128.643 142.7 127.132C142.7 127.132 137.144 105.214 155.677 103.324L136.008 94.1895L110.707 107.884Z" fill="#313332"/>
<path d="M131.674 251.193C132.56 255.948 133.501 260.69 134.494 265.422C135.486 270.154 136.521 274.837 137.612 279.527C137.92 280.849 138.23 282.168 138.545 283.484C138.86 284.801 139.237 286.046 139.419 287.35L139.286 286.368C139.346 286.833 139.363 287.296 139.299 287.763L139.432 286.782C139.385 287.065 139.311 287.333 139.203 287.596L139.575 286.715C139.434 287.025 139.257 287.306 139.052 287.576L139.631 286.828C138.794 287.894 137.767 288.831 136.831 289.808L133.829 292.934C133.403 293.377 133.043 293.967 132.878 294.563L132.745 295.544C132.725 296.054 132.831 296.526 133.063 296.967C133.151 297.279 133.309 297.55 133.538 297.781C133.703 298.059 133.922 298.278 134.201 298.443C134.432 298.672 134.703 298.83 135.016 298.918C135.457 299.15 135.929 299.255 136.439 299.236C140.533 299.624 144.658 299.666 148.759 299.351C149.803 299.27 150.847 299.167 151.887 299.041C152.608 298.953 153.345 298.896 154.057 298.731C155.032 298.502 155.867 298.01 156.618 297.365C156.975 297.058 157.258 296.647 157.519 296.261C157.795 295.852 157.965 295.348 158.143 294.9C158.32 294.452 158.46 293.997 158.606 293.541C158.909 292.594 159.192 291.637 159.453 290.677C160.571 286.553 161.28 282.315 161.65 278.06C162.019 273.806 161.832 269.861 161.923 265.756C162.014 261.652 162.435 257.513 162.894 253.408C162.953 252.884 163.012 252.362 163.071 251.838C163.091 251.329 162.985 250.856 162.753 250.416C162.605 249.958 162.349 249.562 161.99 249.227C161.349 248.587 160.298 248.105 159.376 248.147C158.455 248.189 157.431 248.504 156.763 249.227L156.185 249.975C155.85 250.551 155.682 251.171 155.68 251.838C155.249 255.66 154.818 259.486 154.623 263.328C154.428 267.169 154.603 271.005 154.461 274.842C154.382 276.951 154.199 279.052 153.921 281.144L154.054 280.162C153.759 282.35 153.36 284.52 152.85 286.668C152.596 287.731 152.318 288.79 152.012 289.84C151.707 290.891 151.419 291.934 151.02 292.936L151.392 292.055C151.301 292.269 151.195 292.466 151.054 292.653L151.633 291.905C151.549 292.003 151.461 292.09 151.36 292.173L152.108 291.595C151.98 291.686 151.85 291.76 151.707 291.826L152.589 291.455C152.234 291.6 151.86 291.666 151.483 291.718L152.466 291.585C148.338 292.124 144.161 292.294 140.001 292.104C138.814 292.05 137.626 291.964 136.442 291.853L139.055 298.155L142.478 294.592C143.035 294.014 143.594 293.436 144.148 292.855C144.813 292.158 145.493 291.405 145.917 290.537C146.486 289.373 146.808 288.108 146.722 286.804C146.653 285.775 146.454 284.764 146.212 283.767C145.83 282.195 145.454 280.62 145.084 279.045C143.599 272.723 142.205 266.379 140.907 260.015C140.176 256.428 139.474 252.832 138.801 249.232C138.639 248.366 137.838 247.455 137.104 247.027C136.311 246.565 135.146 246.368 134.257 246.656C133.368 246.944 132.501 247.497 132.05 248.351L131.679 249.232C131.504 249.887 131.504 250.541 131.679 251.196L131.674 251.193Z" fill="#313332"/>
<path d="M214.248 251.243C214.312 256.612 214.538 261.979 214.933 267.334C215.349 272.979 215.964 278.604 216.726 284.213C217.132 287.212 217.592 290.207 218.102 293.19L218.474 294.071C218.706 294.501 219.023 294.846 219.425 295.107C219.656 295.335 219.927 295.493 220.24 295.581C220.681 295.813 221.154 295.919 221.664 295.899L236.444 297.678C238.879 297.971 241.626 298.635 243.877 297.257C244.246 297.031 244.628 296.748 244.931 296.43C245.505 295.83 245.81 295.237 246.096 294.467C246.133 294.368 246.16 294.277 246.18 294.174C246.258 293.792 246.335 293.364 246.327 292.968C246.318 292.459 246.253 291.912 246.064 291.43C245.768 290.677 245.576 290.298 245.113 289.698C244.862 289.375 244.625 289.065 244.327 288.787C243.911 288.401 243.461 288.049 243.025 287.685L239.857 285.039L238.274 283.718C237.788 283.312 237.252 282.93 236.843 282.446L237.421 283.194C237.32 283.063 237.239 282.933 237.17 282.783L237.542 283.664C237.493 283.531 237.461 283.403 237.441 283.263L237.574 284.245C237.564 284.102 237.567 283.964 237.579 283.821L237.446 284.803C237.515 284.301 237.7 283.824 237.857 283.341C238.015 282.859 238.18 282.357 238.338 281.865C238.663 280.861 238.98 279.857 239.293 278.848C239.926 276.815 240.537 274.775 241.123 272.728C242.293 268.655 243.372 264.556 244.362 260.434C244.919 258.111 245.448 255.783 245.946 253.448C246.153 252.478 246.086 251.476 245.574 250.603C245.125 249.838 244.246 249.107 243.367 248.907C242.421 248.693 241.36 248.738 240.52 249.279C239.737 249.783 239.022 250.546 238.823 251.484C237.582 257.281 236.165 263.042 234.569 268.754C233.776 271.591 232.941 274.414 232.062 277.226C231.624 278.631 231.173 280.034 230.712 281.432C230.607 281.757 230.488 282.079 230.405 282.409C230.158 283.376 230.146 284.247 230.316 285.222C230.513 286.349 231.249 287.412 232.106 288.147C233.382 289.247 234.69 290.308 235.983 291.386L237.939 293.02C238.513 293.5 239.133 293.952 239.599 294.541L239.02 293.792C239.133 293.943 239.229 294.098 239.311 294.27L238.939 293.389C238.995 293.529 239.037 293.665 239.059 293.815L238.926 292.833C238.936 292.953 238.936 293.067 238.919 293.187L239.052 292.205C239.032 292.306 239.005 292.402 238.968 292.498L239.34 291.617C239.293 291.72 239.237 291.812 239.168 291.9L239.746 291.152C239.675 291.236 239.596 291.31 239.508 291.376L240.256 290.798C240.143 290.876 240.025 290.94 239.899 290.997L240.781 290.625C240.549 290.719 240.313 290.773 240.069 290.81L241.052 290.677C240.007 290.81 238.936 290.584 237.902 290.458L233.949 289.983L226.102 289.038L221.661 288.504L225.223 291.214C224.698 288.15 224.228 285.076 223.811 281.995L223.944 282.977C223.393 278.875 222.937 274.763 222.58 270.639C222.223 266.517 221.967 262.385 221.807 258.249C221.715 255.908 221.659 253.568 221.632 251.225C221.619 250.273 221.228 249.294 220.55 248.615C219.91 247.975 218.858 247.492 217.937 247.534C217.016 247.576 215.992 247.891 215.324 248.615C214.657 249.338 214.231 250.229 214.243 251.225L214.248 251.243Z" fill="#313332"/>
<path d="M299.901 167.108C299.787 167.263 299.672 167.413 299.556 167.566L300.135 166.817C299.029 168.24 297.743 169.51 296.322 170.614L297.071 170.036C295.445 171.289 293.662 172.317 291.773 173.12L292.655 172.748C290.517 173.646 288.268 174.252 285.97 174.562L286.953 174.429C284.685 174.726 282.389 174.734 280.121 174.434L281.104 174.567C279.008 174.284 276.956 173.737 275.006 172.918L275.887 173.289C274.2 172.568 272.607 171.648 271.153 170.526L271.902 171.104C271.432 170.737 270.984 170.351 270.614 169.881L271.193 170.629C271.038 170.423 270.91 170.208 270.801 169.972L271.173 170.853C271.092 170.651 271.033 170.45 270.996 170.236L271.129 171.217C271.102 170.998 271.097 170.787 271.119 170.568L270.986 171.55C271.023 171.276 271.097 171.016 271.198 170.757L270.826 171.638C271.19 170.782 271.799 170.063 272.328 169.308C272.599 168.924 272.853 168.525 273.05 168.097C273.267 167.632 273.491 167.142 273.634 166.645C273.777 166.148 273.833 165.58 273.89 165.048C273.971 164.293 273.85 163.495 273.69 162.762C273.53 162.029 273.203 161.295 272.858 160.626C272.254 159.45 271.353 158.382 270.407 157.461C269.462 156.541 268.333 155.695 267.233 154.905L263.932 152.54L257.332 147.81L249.847 142.448L248.965 142.077C248.475 141.921 247.982 141.902 247.492 142.01C246.766 142.108 245.845 142.421 245.372 143.026C242.219 147.052 239.227 151.194 236.456 155.493C233.833 159.561 231.4 163.751 229.166 168.045C228.602 169.128 228.04 170.211 227.515 171.313C226.991 172.416 226.589 173.415 226.599 174.611C226.612 176.053 227.205 177.288 228.136 178.354C228.656 178.949 229.348 179.395 229.981 179.857L231.56 181.011L234.717 183.32L247.522 192.683C248.007 193.037 248.482 193.416 249.004 193.714C249.977 194.265 251.071 194.627 252.196 194.634C254.233 194.647 255.822 193.48 257.144 192.06C258.92 190.153 260.696 188.246 262.472 186.339L263.792 184.922H258.568C260.721 187.198 263.302 189.147 266.065 190.621C268.841 192.102 271.855 193.217 274.941 193.847C278.028 194.477 281.232 194.755 284.387 194.534C287.529 194.312 290.672 193.736 293.63 192.641C295.398 191.987 297.14 191.216 298.77 190.266C300.401 189.317 301.935 188.18 303.366 186.949C304.051 186.359 304.447 185.214 304.447 184.338C304.447 183.462 304.046 182.353 303.366 181.727C302.686 181.102 301.738 180.603 300.753 180.647C299.768 180.691 298.916 181.061 298.14 181.727C297.79 182.028 297.433 182.321 297.066 182.604L297.815 182.025C296.019 183.406 294.051 184.538 291.968 185.424L292.849 185.052C290.458 186.058 287.938 186.73 285.367 187.08L286.35 186.947C283.569 187.318 280.749 187.314 277.968 186.942L278.951 187.075C276.308 186.713 273.72 186.022 271.262 184.99L272.144 185.362C269.971 184.444 267.915 183.265 266.04 181.831L266.789 182.409C265.72 181.585 264.718 180.682 263.792 179.702C262.457 178.292 259.9 178.27 258.568 179.702L254.657 183.903L252.751 185.95C252.152 186.592 251.583 187.299 250.894 187.845L251.642 187.267C251.46 187.402 251.273 187.518 251.066 187.611L251.948 187.24C251.807 187.294 251.667 187.336 251.519 187.365L252.502 187.232C252.297 187.259 252.103 187.257 251.898 187.232L252.881 187.365C252.679 187.328 252.49 187.269 252.3 187.195L253.182 187.567C252.497 187.267 251.908 186.794 251.31 186.356L249.381 184.946L245.463 182.082L237.628 176.353C236.175 175.29 234.702 174.249 233.269 173.161L234.018 173.74C233.754 173.533 233.505 173.316 233.293 173.058L233.872 173.806C233.764 173.659 233.675 173.511 233.601 173.344L233.973 174.224C233.931 174.111 233.904 174.008 233.88 173.892L234.013 174.874C233.991 174.702 233.991 174.539 234.008 174.365L233.875 175.347C233.922 175.039 234.015 174.756 234.133 174.471L233.761 175.352C234.599 173.449 235.623 171.609 236.609 169.78C237.599 167.942 238.626 166.126 239.687 164.33C241.791 160.776 244.034 157.304 246.411 153.928C247.766 152.003 249.165 150.109 250.603 148.248L250.024 148.996C250.214 148.75 250.406 148.504 250.598 148.261L246.12 148.839C250.913 152.272 255.709 155.707 260.501 159.14C261.804 160.072 263.132 160.978 264.403 161.955L263.654 161.377C264.622 162.13 265.538 162.956 266.294 163.924L265.715 163.175C266.087 163.663 266.412 164.179 266.659 164.743L266.287 163.862C266.444 164.241 266.558 164.627 266.622 165.033L266.489 164.052C266.538 164.423 266.538 164.79 266.489 165.161L266.622 164.179C266.568 164.524 266.472 164.851 266.339 165.174L266.71 164.293C266.366 165.068 265.841 165.737 265.348 166.421C264.733 167.273 264.191 168.213 263.927 169.239C263.511 170.87 263.725 172.652 264.622 174.092C265.427 175.386 266.526 176.245 267.728 177.143C268.942 178.049 270.257 178.821 271.639 179.449C273.309 180.207 275.02 180.854 276.808 181.272C283.69 182.879 291.042 181.924 297.3 178.659C299.061 177.741 300.686 176.587 302.206 175.315C303.726 174.042 305.075 172.482 306.28 170.846C306.812 170.12 306.881 168.83 306.652 168.001C306.423 167.172 305.753 166.217 304.955 165.796C304.097 165.343 303.058 165.117 302.108 165.425L301.226 165.796C300.672 166.124 300.228 166.566 299.901 167.12V167.108Z" fill="#313332"/>
<path d="M49.7787 162.481L57.229 150.48C57.5 150.057 57.6452 149.599 57.6674 149.107C57.7782 148.617 57.7561 148.125 57.6009 147.635L57.229 146.754C56.9015 146.201 56.4581 145.758 55.904 145.43L37.8163 132.696L28.7725 126.327C28.0336 125.808 27.3095 125.225 26.5287 124.772C25.812 124.356 25.0879 124.112 24.2801 124.004C23.5757 123.911 23.1545 123.913 22.4033 124.076C21.9452 124.174 21.4896 124.376 21.0808 124.59C20.1227 125.092 19.4355 125.894 18.7631 126.709C18.2336 127.348 17.7065 127.993 17.1869 128.643C12.7585 134.17 8.66024 139.955 4.99295 146.016C4.11369 147.47 3.25661 148.94 2.42414 150.423C1.86506 151.418 1.32568 152.431 0.975946 153.524C0.576953 154.767 0.48828 156.322 0.936531 157.567C1.38478 158.812 2.03498 159.841 2.98813 160.724C3.76149 161.443 4.64075 162.056 5.47814 162.698C6.8623 163.761 8.25878 164.807 9.66757 165.838C15.3003 169.962 21.1152 173.838 27.0903 177.45C27.8217 177.891 28.5532 178.329 29.2872 178.762C30.0753 179.227 31.2502 179.419 32.1343 179.134L33.0161 178.762C33.5702 178.435 34.0135 177.992 34.3411 177.438C34.6539 176.99 34.9766 176.55 35.309 176.119L34.7302 176.867C36.1119 175.083 37.6661 173.439 39.3704 171.96L33.5677 171.212C36.437 174.977 39.3137 178.853 43.0155 181.853C44.0943 182.726 45.2051 183.57 46.3897 184.296C47.5744 185.022 48.7689 185.546 50.0201 186.058C51.0052 186.462 52.0249 186.782 53.0642 187.006C54.377 187.291 55.734 187.473 57.0763 187.508C58.5294 187.542 60.017 187.372 61.4283 187.045C62.8395 186.718 64.2139 186.154 65.465 185.443C66.2655 184.988 66.9182 184.122 67.162 183.238C67.4058 182.355 67.295 181.179 66.7901 180.394C66.2852 179.609 65.5241 178.912 64.5833 178.698C63.6055 178.477 62.6228 178.568 61.7362 179.07C61.3396 179.296 60.9308 179.498 60.5121 179.675L61.3938 179.303C60.4086 179.714 59.3791 179.985 58.325 180.135L59.3077 180.002C58.0122 180.175 56.7069 180.16 55.4114 179.992L56.3941 180.125C54.8129 179.911 53.2711 179.476 51.8007 178.863L52.6825 179.235C50.9929 178.518 49.4363 177.561 47.9832 176.444L48.732 177.022C45.6016 174.596 43.0598 171.527 40.6486 168.409L41.2274 169.158C40.7989 168.604 40.3753 168.048 39.9492 167.489C39.6216 166.935 39.1783 166.492 38.6241 166.165C38.2005 165.894 37.7424 165.749 37.2498 165.727C36.7597 165.616 36.2671 165.639 35.777 165.794C35.1514 165.968 34.6071 166.286 34.1465 166.743C31.7871 168.788 29.7478 171.161 27.9597 173.717L33.0136 172.393C26.4327 168.51 20.0389 164.31 13.8644 159.811C12.1083 158.532 10.372 157.23 8.65038 155.904L9.39912 156.482C8.75876 155.987 8.10854 155.498 7.60364 154.858L8.18245 155.606C8.01497 155.384 7.8721 155.153 7.75634 154.9L8.12824 155.781C8.0248 155.535 7.95831 155.286 7.92137 155.023L8.05437 156.005C8.02975 155.751 8.03222 155.507 8.06177 155.254L7.92876 156.236C7.9928 155.795 8.12579 155.379 8.29574 154.971L7.92383 155.852C8.24401 155.111 8.65777 154.412 9.0543 153.711C9.45083 153.01 9.85969 152.299 10.271 151.597C11.0739 150.229 11.8965 148.871 12.7413 147.527C14.4506 144.808 16.2436 142.14 18.1203 139.532C19.1794 138.058 20.2655 136.606 21.3738 135.169L20.7951 135.917C21.5118 134.992 22.2408 134.071 22.9772 133.161C23.3343 132.72 23.6939 132.282 24.056 131.847C24.418 131.411 24.7382 130.995 25.1593 130.648L24.4106 131.227C24.5609 131.111 24.716 131.013 24.8884 130.934L24.0067 131.305C24.1249 131.259 24.2382 131.227 24.3614 131.202L23.3787 131.335C23.5166 131.318 23.6447 131.318 23.7826 131.33L22.7999 131.197C22.9723 131.224 23.1348 131.271 23.2974 131.335L22.4156 130.963C22.9107 131.182 23.3417 131.517 23.7826 131.825L25.2406 132.851L28.1543 134.903L33.984 139.008L45.5917 147.18L52.1751 151.814L50.8501 146.764L43.3997 158.766C42.9022 159.568 42.7791 160.71 43.0278 161.61C43.2766 162.511 43.9268 163.394 44.7248 163.815C45.5819 164.268 46.6212 164.494 47.5719 164.187C48.5226 163.879 49.2566 163.33 49.7787 162.491V162.481Z" fill="#313332"/>
<path d="M48.8256 171.173C49.5423 172.081 50.2812 172.979 51.1383 173.762C52.3993 174.913 53.7662 175.809 55.3893 176.351C55.6306 176.432 55.8794 176.496 56.1306 176.538C56.7193 176.639 57.3325 176.739 57.936 176.742C58.7635 176.742 59.628 176.626 60.421 176.375C62.0466 175.861 63.4258 174.965 64.6794 173.823C65.8469 172.76 66.8123 171.461 67.6916 170.157C68.2063 169.394 68.3024 168.178 68.0635 167.312C67.8246 166.446 67.1645 165.528 66.3665 165.107C65.5094 164.654 64.4701 164.428 63.5194 164.736C62.5687 165.043 61.8717 165.602 61.3126 166.431C61.0466 166.822 60.7732 167.209 60.4851 167.583L61.0639 166.835C60.421 167.661 59.7117 168.437 58.8842 169.084L59.6329 168.506C59.1501 168.877 58.6379 169.195 58.0788 169.438L58.9605 169.067C58.5196 169.251 58.064 169.382 57.5911 169.448L58.5738 169.315C58.1478 169.367 57.7241 169.367 57.298 169.315L58.2807 169.448C57.8325 169.384 57.4015 169.263 56.9828 169.091L57.8645 169.463C57.303 169.224 56.7882 168.907 56.303 168.538L57.0517 169.116C55.8966 168.223 54.9583 167.096 54.0593 165.954C53.7243 165.594 53.3278 165.339 52.8697 165.191C52.4289 164.96 51.956 164.854 51.4461 164.873C50.5398 164.873 49.4586 165.275 48.833 165.954C48.2074 166.633 47.7074 167.58 47.7518 168.565L47.8848 169.546C48.0596 170.172 48.3773 170.715 48.8355 171.176L48.8256 171.173Z" fill="#313332"/>
</svg>
