<svg width="1400" height="613" viewBox="0 0 1400 613" fill="none" xmlns="http://www.w3.org/2000/svg">
<path d="M973.541 471.959H654.669L814.104 196.043L869.827 292.475L798.087 411.745L884.661 318.146L973.541 471.959Z" fill="#FBDE56"/>
<path d="M1342.72 212.085H1092.59V461.997H1342.72V212.085Z" fill="#FBA036"/>
<path d="M791.657 356.429C804.054 356.429 814.104 346.388 814.104 334.001C814.104 321.615 804.054 311.573 791.657 311.573C779.259 311.573 769.209 321.615 769.209 334.001C769.209 346.388 779.259 356.429 791.657 356.429Z" fill="#FDF5CD"/>
<path d="M825.822 311.573C838.219 311.573 848.269 301.532 848.269 289.146C848.269 276.759 838.219 266.718 825.822 266.718C813.425 266.718 803.375 276.759 803.375 289.146C803.375 301.532 813.425 311.573 825.822 311.573Z" fill="#FDF5CD"/>
<path d="M730.771 358.664L736.105 367.892L725.441 367.894L714.774 367.896L720.104 358.668L725.436 349.438L730.771 358.664Z" fill="#FCF2C1"/>
<path d="M1163.33 343.628C1163.33 343.628 1193.17 336.137 1196.5 322.817L1167.7 309.294L1163.33 339.616V343.628Z" fill="#FAE5CB"/>
<path d="M713.181 389.165L718.515 398.393L707.851 398.395L697.187 398.398L702.516 389.167L707.846 379.939L713.181 389.165Z" fill="#FCF2C1"/>
<path d="M1313.83 279.034H1273.9V318.931H1313.83V279.034Z" fill="#F9DFBE"/>
<path d="M1223.72 283.978H1199.69V292.451H1223.72V283.978Z" fill="#313332"/>
<path d="M1135.71 283.978H1117.53V292.451H1135.71V283.978Z" fill="#313332"/>
<path d="M803.375 344.679C808.215 344.679 812.138 339.897 812.138 333.999C812.138 328.1 808.215 323.319 803.375 323.319C798.535 323.319 794.612 328.1 794.612 333.999C794.612 339.897 798.535 344.679 803.375 344.679Z" fill="#313332"/>
<path d="M837.972 299.826C842.811 299.826 846.735 295.044 846.735 289.146C846.735 283.247 842.811 278.466 837.972 278.466C833.132 278.466 829.208 283.247 829.208 289.146C829.208 295.044 833.132 299.826 837.972 299.826Z" fill="#313332"/>
<path d="M1003.17 210.034L963.658 205.592L959.213 245.067L998.722 249.509L1003.17 210.034Z" fill="#FBC587"/>
<path d="M1027.7 252.654C1035.8 252.654 1042.36 246.095 1042.36 238.003C1042.36 229.911 1035.8 223.351 1027.7 223.351C1019.6 223.351 1013.03 229.911 1013.03 238.003C1013.03 246.095 1019.6 252.654 1027.7 252.654Z" fill="#95D9D2"/>
<path d="M912.857 210.58L906.345 251.958L945.468 236.905L912.857 210.58Z" fill="#FBDE56"/>
<path d="M1107.81 312.56L1125.03 325.701L1160.83 306.187L1213.1 330.556L1245.11 311.849" stroke="#313332" stroke-width="8" stroke-linecap="round" stroke-linejoin="round"/>
<path d="M908.613 226.779C908.369 228.679 908.118 230.576 907.864 232.473L907.931 231.983C907.268 236.91 906.571 241.829 905.837 246.746C905.628 248.156 905.414 249.566 905.199 250.976C905.096 251.648 905.167 252.265 905.675 252.772C906.148 253.245 906.827 253.41 907.473 253.247C910.793 252.413 914.014 251.195 917.073 249.664C917.938 249.231 918.253 247.939 917.736 247.14C917.164 246.256 916.135 246.012 915.209 246.478C914.283 246.943 913.411 247.341 912.49 247.73L912.931 247.543C910.839 248.419 908.687 249.135 906.49 249.689L908.763 251.96C909.768 245.395 910.709 238.82 911.593 232.237C911.837 230.421 912.076 228.602 912.31 226.784C912.367 226.351 912.064 225.772 911.768 225.48C911.448 225.16 910.921 224.918 910.463 224.938C910.005 224.958 909.49 225.115 909.157 225.48C908.803 225.866 908.682 226.269 908.615 226.784L908.613 226.779Z" fill="#313332"/>
<path d="M918.77 240.129C920.302 240.554 921.709 239.986 923.093 239.38L926.528 237.877L933.343 234.897L937.23 233.196C937.626 233.024 937.969 232.49 938.08 232.094C938.2 231.651 938.146 231.063 937.892 230.672C937.639 230.28 937.259 229.931 936.789 229.823C936.274 229.705 935.846 229.798 935.365 230.01C931.573 231.668 927.78 233.327 923.987 234.985C922.91 235.455 921.837 235.938 920.753 236.396L921.194 236.208C920.75 236.393 920.302 236.553 919.827 236.629L920.317 236.563C920.066 236.595 919.824 236.6 919.573 236.57L920.063 236.637C919.955 236.619 919.854 236.595 919.748 236.565C918.817 236.307 917.696 236.885 917.475 237.855C917.253 238.824 917.768 239.848 918.765 240.126L918.77 240.129Z" fill="#313332"/>
<path d="M921.15 232.335C922.115 232.335 923.041 231.486 922.997 230.49C922.952 229.493 922.184 228.644 921.15 228.644C920.184 228.644 919.258 229.493 919.302 230.49C919.347 231.486 920.115 232.335 921.15 232.335Z" fill="#313332"/>
<path d="M927.777 229.183C928.742 229.183 929.668 228.334 929.624 227.337C929.58 226.341 928.811 225.492 927.777 225.492C926.811 225.492 925.885 226.341 925.93 227.337C925.974 228.334 926.743 229.183 927.777 229.183Z" fill="#313332"/>
<path d="M922.142 246.977L924.316 253.144L926.097 250.808C924.326 250.892 922.568 251.237 920.925 251.906C920.462 252.095 920.085 252.305 919.822 252.755C919.59 253.151 919.492 253.734 919.634 254.177C919.777 254.62 920.056 255.056 920.484 255.28C920.913 255.504 921.457 255.649 921.908 255.467C923.009 255.019 924.154 254.711 925.331 254.546L924.841 254.613C925.26 254.559 925.676 254.522 926.097 254.502C926.691 254.475 927.183 254.246 927.548 253.774C927.885 253.336 928.07 252.711 927.878 252.164L925.703 245.998C925.54 245.54 925.284 245.146 924.853 244.895C924.457 244.664 923.873 244.565 923.43 244.708C922.531 244.998 921.797 246.002 922.139 246.979L922.142 246.977Z" fill="#313332"/>
<path d="M1135.71 319.883C1135.71 319.883 1158.19 379.777 1199.69 324.308L1191.55 321.537C1191.55 321.537 1181.2 340.643 1167.7 339.132C1167.7 339.132 1162.14 317.213 1180.68 315.323L1161.01 306.189L1135.71 319.883Z" fill="#313332"/>
<path d="M1073.83 383.173C1074.54 384.081 1075.28 384.979 1076.14 385.762C1077.4 386.913 1078.77 387.809 1080.39 388.351C1080.63 388.432 1080.88 388.496 1081.13 388.538C1081.72 388.639 1082.33 388.739 1082.94 388.742C1083.76 388.742 1084.63 388.626 1085.42 388.375C1087.05 387.861 1088.43 386.965 1089.68 385.823C1090.85 384.76 1091.81 383.461 1092.69 382.157C1093.21 381.394 1093.3 380.178 1093.06 379.312C1092.82 378.446 1092.16 377.528 1091.37 377.107C1090.51 376.654 1089.47 376.428 1088.52 376.736C1087.57 377.043 1086.87 377.602 1086.31 378.431C1086.05 378.822 1085.77 379.209 1085.49 379.583L1086.06 378.835C1085.42 379.661 1084.71 380.437 1083.88 381.084L1084.63 380.506C1084.15 380.877 1083.64 381.195 1083.08 381.438L1083.96 381.067C1083.52 381.251 1083.06 381.382 1082.59 381.448L1083.57 381.315C1083.15 381.367 1082.72 381.367 1082.3 381.315L1083.28 381.448C1082.83 381.384 1082.4 381.263 1081.98 381.091L1082.86 381.463C1082.3 381.224 1081.79 380.907 1081.3 380.538L1082.05 381.116C1080.9 380.223 1079.96 379.096 1079.06 377.954C1078.72 377.594 1078.33 377.339 1077.87 377.191C1077.43 376.96 1076.96 376.854 1076.45 376.873C1075.54 376.873 1074.46 377.275 1073.83 377.954C1073.21 378.633 1072.71 379.58 1072.75 380.565L1072.88 381.546C1073.06 382.172 1073.38 382.715 1073.84 383.176L1073.83 383.173Z" fill="#313332"/>
<path d="M1218.44 140.441L1218.44 110L1188 110L1188 140.441L1218.44 140.441Z" fill="#F9DFBE"/>
<path d="M624.441 293.44H594V323.881H624.441V293.44Z" fill="#FBC587"/>
<path d="M546.441 233H516V263.441H546.441V233Z" fill="#FBA036"/>
<path d="M654.882 263H624.441V293.441H654.882V263Z" fill="#68C8BF"/>
<path d="M30.4409 479.44L30.4409 449L0.00015831 449L0.000156979 479.44L30.4409 479.44Z" fill="#FBC587"/>
<path d="M90.8813 401.441L90.8813 371L60.4406 371L60.4406 401.441L90.8813 401.441Z" fill="#FBA036"/>
<path d="M234.441 185.441L234.441 155L204 155L204 185.441L234.441 185.441Z" fill="#95D9D2"/>
<path d="M1392.44 60.4408L1392.44 30L1362 30L1362 60.4408L1392.44 60.4408Z" fill="#FBA036"/>
<path d="M1362.44 90.4408L1362.44 60L1332 60L1332 90.4408L1362.44 90.4408Z" fill="#68C8BF"/>
<path d="M1362.44 30.4408L1362.44 0L1332 -1.33061e-06L1332 30.4408L1362.44 30.4408Z" fill="#FBC587"/>
<path d="M433.441 460.441L433.441 430L403 430L403 460.441L433.441 460.441Z" fill="#FBDE56"/>
<path d="M403.441 430.441L403.441 400L373 400L373 430.441L403.441 430.441Z" fill="#E1F4F2"/>
<path d="M60.8813 509.882L60.8813 479.441L30.4406 479.441L30.4406 509.882L60.8813 509.882Z" fill="#68C8BF"/>
<path d="M45.4408 60H15V90.4407H45.4408V60Z" fill="#FBDE56"/>
</svg>